<svg xmlns="http://www.w3.org/2000/svg" width="20.929" height="25" viewBox="0 0 20.929 25">
  <path id="apple" d="M20.928,18.254A14.516,14.516,0,0,1,19.08,22.01q-1.938,2.944-3.861,2.944a6.943,6.943,0,0,1-2.1-.481,6.645,6.645,0,0,0-2.269-.481,5.782,5.782,0,0,0-2.133.5A5.427,5.427,0,0,1,6.73,25q-2.283,0-4.522-3.891A15.408,15.408,0,0,1,0,13.551,8.911,8.911,0,0,1,1.7,7.932,5.213,5.213,0,0,1,5.964,5.769a9.993,9.993,0,0,1,2.659.451,9.675,9.675,0,0,0,2.074.451,7.515,7.515,0,0,0,2.149-.511,8.483,8.483,0,0,1,2.6-.511,5.492,5.492,0,0,1,3.2.976,7.758,7.758,0,0,1,1.562,1.5A9.738,9.738,0,0,0,18.495,9.9a5.351,5.351,0,0,0-.976,3.11,5.721,5.721,0,0,0,1.037,3.351,4.569,4.569,0,0,0,2.374,1.893ZM15.279.631a5.729,5.729,0,0,1-.435,2.043,6.164,6.164,0,0,1-1.4,2.074A4.26,4.26,0,0,1,11.823,5.83a8.392,8.392,0,0,1-1.562.256,6.848,6.848,0,0,1,1.172-3.861A5.986,5.986,0,0,1,15.189,0a1.393,1.393,0,0,1,.038.165,1.393,1.393,0,0,0,.037.165q0,.06.008.15t.008.15Z" fill="#fff"/>
</svg>
