<svg xmlns="http://www.w3.org/2000/svg" width="16" height="16.014" viewBox="0 0 16 16.014"><defs><style>.a{fill:#4D5267;}</style></defs><path class="a" d="M16.84,11.6,8.3,3.055A3.694,3.694,0,0,0,3.06,3a3.644,3.644,0,0,0,0,5.238l.057.057L4.712,9.945l.8-.8L3.857,7.5A2.557,2.557,0,0,1,7.445,3.852l.057.057,8.484,8.484a2.537,2.537,0,1,1-3.53,3.644L12.4,15.98,8.185,11.767a1.426,1.426,0,0,1,0-1.993,1.484,1.484,0,0,1,1.993,0l2.335,2.335.8-.8L10.918,8.92a2.527,2.527,0,0,0-3.587.114,2.621,2.621,0,0,0,0,3.53l4.27,4.27A3.7,3.7,0,1,0,16.84,11.6Z" transform="translate(-1.95 -1.937)"/></svg>