<svg xmlns="http://www.w3.org/2000/svg" width="15.273" height="18.614" viewBox="0 0 15.273 18.614"><g transform="translate(-11 -13.193)"><g transform="translate(8.75 11.5)"><path d="M16.977,16.5H2.8a.545.545,0,0,1-.545-.545V6.682A.545.545,0,0,1,2.8,6.136H6.319l.933-1.391A.545.545,0,0,1,7.7,4.5h4.364a.545.545,0,0,1,.453.245l.932,1.391h3.524a.545.545,0,0,1,.545.545v9.273A.545.545,0,0,1,16.977,16.5ZM3.341,15.409H16.432V7.227H13.159a.545.545,0,0,1-.453-.245l-.932-1.391H8L7.066,6.982a.545.545,0,0,1-.453.245H3.341Z" fill="#e73c3c"/><path d="M14.523,17.8A3.273,3.273,0,1,1,17.8,14.523,3.273,3.273,0,0,1,14.523,17.8Zm0-5.455A2.182,2.182,0,1,0,16.7,14.523,2.182,2.182,0,0,0,14.523,12.341Z" transform="translate(-4.636 -3.477)" fill="#e73c3c"/></g><line y1="18" x2="14" transform="translate(11.5 13.5)" fill="none" stroke="#e73c3c" stroke-width="1"/></g></svg>