<svg xmlns="http://www.w3.org/2000/svg" width="19" height="19" viewBox="0 0 19 19"><g transform="translate(-60.5 -228.5)"><path d="M23,10.333V8.75H18.25V4H16.667V8.75H10.333V4H8.75V8.75H4v1.583H8.75v6.333H4V18.25H8.75V23h1.583V18.25h2.225l-.026-1.583,4.134-4.917,1.583-.321v-1.1ZM12.532,16.667h-2.2V10.333h6.333V11.75Z" transform="translate(56.5 224.5)" fill="#abaebb"/><path d="M7.9,13.035a.586.586,0,0,1-.586.586H6.731a.586.586,0,0,1-.586-.586v-.586a.586.586,0,0,1,.586-.586h.586a.586.586,0,0,1,.586.586Zm0-2.6a.586.586,0,0,1-.586.586H6.731a.586.586,0,0,1-.586-.586V9.846a.586.586,0,0,1,.586-.586h.586a.586.586,0,0,1,.586.586Zm0-2.639a.586.586,0,0,1-.586.586H6.731a.586.586,0,0,1-.586-.586V7.207a.586.586,0,0,1,.586-.586h.586a.586.586,0,0,1,.586.586Zm6.451,5.535H8.661V12.155h5.694Zm0-2.6H8.661V9.552h5.694Zm0-2.639H8.661V6.913h5.694Z" transform="translate(64.688 231.879)" fill="#abaebb"/></g></svg>