<svg width="24" height="26" viewBox="0 0 24 26" fill="none" xmlns="http://www.w3.org/2000/svg">
<path d="M22.3893 5.72703V5.44042V5.15004L23.1134 4.51649C23.2469 4.39885 23.3345 4.23782 23.3607 4.06185C23.3869 3.88588 23.3501 3.7063 23.2567 3.55486L22.3667 2.0464C22.3006 1.93186 22.2055 1.83672 22.091 1.77053C21.9765 1.70434 21.8466 1.66942 21.7143 1.66929C21.6323 1.66866 21.5508 1.6814 21.473 1.707L20.5566 2.01623C20.3984 1.9111 20.2333 1.81661 20.0625 1.7334L19.8702 0.783072C19.8357 0.609451 19.7413 0.453491 19.6034 0.342492C19.4655 0.231493 19.293 0.172528 19.116 0.17592H17.3511C17.1741 0.172528 17.0016 0.231493 16.8637 0.342492C16.7258 0.453491 16.6314 0.609451 16.5969 0.783072L16.4045 1.7334C16.2326 1.81659 16.0663 1.91107 15.9068 2.01623L15.0092 1.69192C14.9305 1.67141 14.849 1.66377 14.7679 1.66929C14.6356 1.66942 14.5057 1.70434 14.3912 1.77053C14.2767 1.83672 14.1816 1.93186 14.1155 2.0464L13.2255 3.55486C13.1375 3.70607 13.1047 3.88319 13.133 4.05587C13.1612 4.22856 13.2485 4.38606 13.3801 4.50141L14.0928 5.15382V5.7308L13.3801 6.36435C13.2448 6.4805 13.1551 6.64082 13.1268 6.81686C13.0984 6.99291 13.1334 7.17329 13.2255 7.32599L14.1155 8.83444C14.1816 8.94899 14.2767 9.04412 14.3912 9.11032C14.5057 9.17651 14.6356 9.21142 14.7679 9.21156C14.8498 9.21218 14.9314 9.19945 15.0092 9.17384L15.9256 8.86461C16.0838 8.96975 16.2489 9.06423 16.4196 9.14745L16.612 10.0978C16.6464 10.2714 16.7409 10.4274 16.8788 10.5384C17.0167 10.6494 17.1892 10.7083 17.3662 10.7049H19.1462C19.3231 10.7083 19.4957 10.6494 19.6336 10.5384C19.7715 10.4274 19.8659 10.2714 19.9004 10.0978L20.0927 9.14745C20.2647 9.06425 20.431 8.96977 20.5905 8.86461L21.5031 9.17384C21.581 9.19945 21.6625 9.21218 21.7445 9.21156C21.8767 9.21142 22.0066 9.17651 22.1212 9.11032C22.2357 9.04412 22.3308 8.94899 22.3969 8.83444L23.2567 7.32599C23.3447 7.17477 23.3774 6.99765 23.3492 6.82497C23.321 6.65229 23.2337 6.49478 23.1021 6.37943L22.3893 5.72703ZM21.7143 8.45733L20.4208 8.01988C20.118 8.27635 19.7719 8.47684 19.3988 8.61195L19.1311 9.96578H17.3511L17.0834 8.62703C16.7132 8.48809 16.369 8.28795 16.0651 8.03496L14.7679 8.45733L13.8779 6.94888L14.9036 6.0438C14.8339 5.65344 14.8339 5.2538 14.9036 4.86344L13.8779 3.93197L14.7679 2.42352L16.0614 2.86097C16.3642 2.60449 16.7102 2.404 17.0834 2.2689L17.3511 0.915062H19.1311L19.3988 2.25381C19.769 2.39275 20.1132 2.59289 20.417 2.84588L21.7143 2.42352L22.6043 3.93197L21.5785 4.83704C21.6483 5.22741 21.6483 5.62704 21.5785 6.01741L22.6043 6.94888L21.7143 8.45733Z" fill="#ADB3CC"/>
<path fill-rule="evenodd" clip-rule="evenodd" d="M23.1115 4.51859L22.3875 5.15214V5.72913L23.1002 6.38153C23.2318 6.49688 23.3192 6.65439 23.3474 6.82707C23.3756 6.99975 23.3429 7.17687 23.2548 7.32809L22.395 8.83654C22.3289 8.95109 22.2338 9.04623 22.1193 9.11242C22.0048 9.17861 21.8749 9.21352 21.7426 9.21366C21.6606 9.21428 21.5791 9.20155 21.5013 9.17595L20.5886 8.86671C20.4291 8.97187 20.2628 9.06636 20.0909 9.14955L19.8985 10.0999C19.864 10.2735 19.7696 10.4295 19.6317 10.5405C19.4938 10.6515 19.3213 10.7104 19.1443 10.707H17.3643C17.1873 10.7104 17.0148 10.6515 16.8769 10.5405C16.739 10.4295 16.6446 10.2735 16.6101 10.0999L16.4178 9.14955C16.247 9.06634 16.082 8.97185 15.9237 8.86671L15.0074 9.17595C14.9295 9.20155 14.848 9.21428 14.766 9.21366C14.6337 9.21352 14.5038 9.17861 14.3893 9.11242C14.2748 9.04623 14.1797 8.95109 14.1136 8.83654L13.2236 7.32809C13.1316 7.17539 13.0966 6.99501 13.1249 6.81897C13.1532 6.64292 13.2429 6.4826 13.3782 6.36645L14.091 5.7329V5.15592L13.3782 4.50351C13.2467 4.38816 13.1593 4.23066 13.1311 4.05797C13.1029 3.88529 13.1356 3.70817 13.2236 3.55696L14.1136 2.0485C14.1797 1.93396 14.2748 1.83882 14.3893 1.77263C14.5038 1.70644 14.6337 1.67152 14.766 1.67139C14.8472 1.66587 14.9287 1.67351 15.0074 1.69402L15.9049 2.01833C16.0644 1.91317 16.2307 1.81869 16.4027 1.7355L16.595 0.785172C16.6295 0.611551 16.7239 0.45559 16.8618 0.344592C16.9997 0.233593 17.1723 0.174628 17.3492 0.17802H19.1141C19.2911 0.174628 19.4636 0.233593 19.6015 0.344592C19.7394 0.45559 19.8339 0.611551 19.8684 0.785172L20.0607 1.7355C20.2314 1.81871 20.3965 1.9132 20.5547 2.01833L21.4711 1.7091C21.549 1.6835 21.6305 1.67076 21.7124 1.67139C21.8447 1.67152 21.9746 1.70644 22.0891 1.77263C22.2036 1.83882 22.2987 1.93396 22.3648 2.0485L23.2548 3.55696C23.3482 3.7084 23.385 3.88798 23.3588 4.06395C23.3326 4.23992 23.245 4.40095 23.1115 4.51859ZM23.4072 3.46518C23.5219 3.65201 23.5671 3.8733 23.5347 4.09017C23.5023 4.30764 23.3941 4.50665 23.2291 4.65204L22.5654 5.23286V5.6508L23.219 6.24913C23.3808 6.39156 23.4882 6.58565 23.5229 6.79839C23.5577 7.01153 23.5175 7.23013 23.409 7.41685C23.4088 7.4171 23.4091 7.41661 23.409 7.41685L22.5496 8.92463C22.4678 9.06619 22.3498 9.18462 22.2083 9.26642C22.067 9.34812 21.9066 9.39127 21.7434 9.39154C21.6423 9.39225 21.5417 9.3765 21.4457 9.34493L21.4442 9.34442L20.6129 9.06275C20.4945 9.13753 20.3727 9.20675 20.2479 9.2702L20.073 10.1345C20.073 10.1346 20.073 10.1345 20.073 10.1345C20.0303 10.349 19.9136 10.5419 19.7432 10.679C19.5733 10.8158 19.3607 10.8887 19.1426 10.8849H17.366C17.1479 10.8887 16.9353 10.8158 16.7654 10.679C16.5951 10.5419 16.4784 10.3493 16.4357 10.1348C16.4357 10.1347 16.4357 10.1349 16.4357 10.1348L16.2606 9.26988C16.1369 9.20652 16.0162 9.13742 15.899 9.0628L15.0629 9.34493C14.9669 9.37651 14.8663 9.39225 14.7652 9.39154C14.602 9.39126 14.4417 9.34812 14.3003 9.26642C14.1591 9.18477 14.0417 9.06747 13.96 8.92626C13.9599 8.926 13.9602 8.92652 13.96 8.92626L13.0713 7.41993C13.0711 7.41967 13.0714 7.42018 13.0713 7.41993C12.9579 7.23137 12.9143 7.00799 12.9493 6.79073C12.9842 6.5737 13.0946 6.37601 13.2611 6.23255L13.9131 5.65302V5.23424L13.2595 4.63594C13.0977 4.49351 12.9903 4.2994 12.9555 4.08665C12.9207 3.87324 12.9611 3.65435 13.0699 3.46747L13.96 1.9588C14.0417 1.81758 14.1591 1.70028 14.3003 1.61863C14.4401 1.53782 14.5985 1.49473 14.7599 1.49353C14.8582 1.48747 14.9569 1.49704 15.0522 1.52188L15.0681 1.52601L15.8825 1.82111C16.0003 1.74678 16.1215 1.67795 16.2456 1.61485L16.4205 0.750518C16.4206 0.750408 16.4205 0.750628 16.4205 0.750518C16.4632 0.536081 16.58 0.343136 16.7503 0.206028C16.9202 0.069226 17.1328 -0.00362125 17.3509 0.000138586H19.1125C19.3306 -0.00362125 19.5431 0.0692259 19.7131 0.206028C19.8834 0.343154 20.0001 0.535803 20.0428 0.750273C20.0428 0.750355 20.0428 0.750192 20.0428 0.750273L20.2178 1.61517C20.3415 1.67852 20.4622 1.74762 20.5795 1.82225L21.4155 1.54011C21.5116 1.50854 21.6121 1.4928 21.7132 1.49351C21.8765 1.49378 22.0368 1.53692 22.1781 1.61863C22.3194 1.70028 22.4367 1.81757 22.5184 1.95879C22.5186 1.95904 22.5183 1.95853 22.5184 1.95879L23.4072 3.46518ZM20.4189 8.02198L21.7124 8.45943L22.6024 6.95098L21.5767 6.01951C21.6464 5.62914 21.6464 5.22951 21.5767 4.83914L22.6024 3.93407L21.7124 2.42562L20.4152 2.84798C20.1113 2.59499 19.7671 2.39485 19.397 2.25591L19.1292 0.917162H17.3492L17.0815 2.271C16.7084 2.4061 16.3623 2.60659 16.0595 2.86307L14.766 2.42562L13.876 3.93407L14.9018 4.86554C14.832 5.2559 14.832 5.65554 14.9018 6.0459L13.876 6.95098L14.766 8.45943L16.0633 8.03706C16.3671 8.29005 16.7113 8.49019 17.0815 8.62913L17.3492 9.96788H19.1292L19.397 8.61405C19.7701 8.47894 20.1161 8.27846 20.4189 8.02198ZM18.9831 9.79L19.2419 8.48099L19.3364 8.44679C19.6897 8.31888 20.0173 8.12907 20.304 7.88624L20.3807 7.82126L21.6326 8.24466L22.3756 6.98531L21.3843 6.08506L21.4016 5.98823C21.4676 5.61855 21.4676 5.2401 21.4016 4.87042L21.384 4.77194L22.3746 3.89791L21.6318 2.63895L20.3768 3.04753L20.3013 2.98468C20.0128 2.74444 19.686 2.55439 19.3345 2.42245L19.2419 2.38772L18.9834 1.09504H17.4954L17.2365 2.40405L17.142 2.43825C16.7888 2.56616 16.4612 2.75598 16.1745 2.9988L16.0978 3.06378L14.8458 2.64039L14.1028 3.89974L15.0942 4.79998L15.0769 4.89682C15.0108 5.26649 15.0108 5.64495 15.0769 6.01463L15.0945 6.1131L14.1039 6.98714L14.8467 8.24609L16.1016 7.83751L16.1771 7.90036C16.4656 8.1406 16.7925 8.33066 17.144 8.46259L17.2365 8.49733L17.4951 9.79H18.9831Z" fill="#ADB3CC"/>
<path fill-rule="evenodd" clip-rule="evenodd" d="M23.1109 4.51407L22.3869 5.14762V5.7246L23.0996 6.37701C23.2312 6.49235 23.3186 6.64986 23.3468 6.82254C23.375 6.99522 23.3423 7.17234 23.2542 7.32356L22.3944 8.83201C22.3283 8.94656 22.2332 9.0417 22.1187 9.10789C22.0042 9.17408 21.8743 9.20899 21.742 9.20913C21.6601 9.20976 21.5785 9.19702 21.5007 9.17142L20.5881 8.86218C20.4285 8.96734 20.2623 9.06183 20.0903 9.14502L19.8979 10.0953C19.8635 10.269 19.769 10.4249 19.6311 10.5359C19.4932 10.6469 19.3207 10.7059 19.1437 10.7025H17.3637C17.1868 10.7059 17.0142 10.6469 16.8763 10.5359C16.7384 10.4249 16.644 10.269 16.6095 10.0953L16.4172 9.14502C16.2464 9.06181 16.0814 8.96732 15.9232 8.86218L15.0068 9.17142C14.9289 9.19702 14.8474 9.20976 14.7654 9.20913C14.6332 9.20899 14.5033 9.17408 14.3887 9.10789C14.2742 9.0417 14.1791 8.94656 14.113 8.83201L13.223 7.32356C13.131 7.17086 13.096 6.99048 13.1243 6.81444C13.1526 6.63839 13.2424 6.47807 13.3776 6.36192L14.0904 5.72837V5.15139L13.3776 4.49898C13.2461 4.38363 13.1587 4.22613 13.1305 4.05345C13.1023 3.88076 13.135 3.70365 13.223 3.55243L14.113 2.04397C14.1791 1.92943 14.2742 1.83429 14.3887 1.7681C14.5033 1.70191 14.6332 1.667 14.7654 1.66686C14.8466 1.66134 14.9281 1.66898 15.0068 1.68949L15.9043 2.01381C16.0638 1.90865 16.2301 1.81416 16.4021 1.73097L16.5944 0.780644C16.6289 0.607023 16.7234 0.451062 16.8612 0.340064C16.9991 0.229065 17.1717 0.1701 17.3487 0.173492H19.1135C19.2905 0.1701 19.4631 0.229065 19.6009 0.340064C19.7388 0.451062 19.8333 0.607023 19.8678 0.780644L20.0601 1.73097C20.2309 1.81418 20.3959 1.90867 20.5541 2.01381L21.4705 1.70457C21.5484 1.67897 21.6299 1.66623 21.7119 1.66686C21.8441 1.667 21.974 1.70191 22.0885 1.7681C22.203 1.83429 22.2981 1.92943 22.3643 2.04397L23.2542 3.55243C23.3476 3.70387 23.3844 3.88345 23.3582 4.05942C23.332 4.23539 23.2444 4.39643 23.1109 4.51407ZM22.4264 2.00808C22.4265 2.00818 22.4264 2.00798 22.4264 2.00808L23.3154 3.51475C23.3155 3.51495 23.3156 3.51515 23.3157 3.51535C23.4177 3.68108 23.4579 3.87751 23.4292 4.07C23.4005 4.26272 23.3046 4.43909 23.1584 4.56792L22.4587 5.18019V5.69299L23.1476 6.32355C23.2913 6.44983 23.3868 6.62211 23.4176 6.81097C23.4485 6.99996 23.4127 7.1938 23.3165 7.35933C23.3164 7.35945 23.3166 7.35922 23.3165 7.35933L22.4568 8.86757C22.3844 8.99301 22.28 9.09755 22.1546 9.17004C22.0293 9.24249 21.8871 9.28073 21.7423 9.28092C21.6526 9.28158 21.5634 9.26763 21.4782 9.23962L21.4776 9.23941L20.5981 8.94139C20.455 9.03412 20.3065 9.11846 20.1536 9.19397L19.9684 10.1093C19.9683 10.1094 19.9684 10.1093 19.9684 10.1093C19.9306 10.2995 19.8271 10.4703 19.6761 10.5918C19.5253 10.7133 19.3366 10.7778 19.143 10.7743H17.3644C17.1708 10.7778 16.9822 10.7133 16.8313 10.5918C16.6803 10.4703 16.5769 10.2995 16.5391 10.1094C16.5391 10.1094 16.5391 10.1094 16.5391 10.1094L16.3538 9.19384C16.2021 9.11835 16.0548 9.03406 15.9129 8.94141L15.0292 9.23962C14.944 9.26763 14.8548 9.28158 14.7651 9.28092C14.6203 9.28072 14.4782 9.24249 14.3528 9.17004C14.2275 9.09761 14.1234 8.99352 14.051 8.86821C14.051 8.86811 14.0511 8.86832 14.051 8.86821L13.1615 7.36062C13.1615 7.36052 13.1616 7.36073 13.1615 7.36062C13.0609 7.19345 13.0224 6.99572 13.0534 6.80304C13.0844 6.61045 13.1825 6.43503 13.3304 6.30786L14.0186 5.69613V5.183L13.3297 4.55245C13.186 4.42617 13.0905 4.25388 13.0597 4.06502C13.0288 3.8759 13.0646 3.68192 13.161 3.51631L14.0508 2.00808C14.0509 2.00798 14.0508 2.00818 14.0508 2.00808C14.1233 1.88277 14.2275 1.77838 14.3528 1.70595C14.4775 1.63386 14.6189 1.59564 14.7629 1.59508C14.851 1.58934 14.9395 1.59776 15.0249 1.62002L15.0313 1.62168L15.895 1.93412C16.0379 1.84157 16.1861 1.7574 16.3388 1.68202L16.524 0.766658C16.524 0.766604 16.524 0.766712 16.524 0.766658C16.5618 0.576576 16.6653 0.405671 16.8162 0.284141C16.9671 0.162724 17.1557 0.0981561 17.3493 0.101701H19.1129C19.3064 0.0981561 19.4951 0.162724 19.646 0.284141C19.7969 0.405657 19.9003 0.576375 19.9381 0.76643C19.9382 0.766506 19.9381 0.766355 19.9381 0.76643L20.1235 1.68215C20.2752 1.75764 20.4224 1.84192 20.5644 1.93458L21.4481 1.63637C21.5333 1.60836 21.6225 1.59441 21.7122 1.59507C21.8569 1.59526 21.9991 1.6335 22.1245 1.70595C22.2498 1.77838 22.354 1.88277 22.4264 2.00808ZM20.4184 8.01745L21.7119 8.4549L22.6018 6.94645L21.5761 6.01498C21.6458 5.62461 21.6458 5.22498 21.5761 4.83461L22.6018 3.92954L21.7119 2.42109L20.4146 2.84345C20.1107 2.59047 19.7665 2.39032 19.3964 2.25139L19.1286 0.912634H17.3487L17.0809 2.26647C16.7078 2.40157 16.3617 2.60206 16.0589 2.85854L14.7654 2.42109L13.8754 3.92954L14.9012 4.86101C14.8315 5.25138 14.8315 5.65101 14.9012 6.04138L13.8754 6.94645L14.7654 8.4549L16.0627 8.03253C16.3665 8.28552 16.7107 8.48567 17.0809 8.6246L17.3487 9.96335H19.1286L19.3964 8.60952C19.7695 8.47441 20.1156 8.27393 20.4184 8.01745ZM19.0696 9.89156L19.3338 8.55582L19.3719 8.54202C19.737 8.40982 20.0757 8.21364 20.372 7.96267L20.4029 7.93644L21.6796 8.36822L22.5103 6.9603L21.4984 6.04144L21.5054 6.00235C21.5737 5.62034 21.5737 5.22925 21.5054 4.84724L21.4983 4.80749L22.5099 3.91495L21.6793 2.50719L20.3991 2.92399L20.3686 2.89862C20.071 2.65078 19.7338 2.45471 19.3711 2.3186L19.3338 2.30458L19.0698 0.984424H17.4076L17.1435 2.32017L17.1053 2.33397C16.7402 2.46617 16.4016 2.66235 16.1053 2.91332L16.0744 2.93954L14.7976 2.50777L13.967 3.91568L14.9788 4.83455L14.9719 4.87363C14.9036 5.25565 14.9036 5.64674 14.9719 6.02875L14.979 6.0685L13.9674 6.96104L14.798 8.3688L16.0782 7.952L16.1086 7.97736C16.4063 8.22521 16.7435 8.42128 17.1061 8.55739L17.1435 8.57141L17.4075 9.89156H19.0696Z" fill="#ADB3CC"/>
<path d="M18.2392 7.7031C17.7917 7.7031 17.3543 7.57039 16.9822 7.32177C16.6101 7.07314 16.3201 6.71976 16.1488 6.30631C15.9775 5.89286 15.9327 5.43791 16.02 4.99899C16.1073 4.56007 16.3228 4.1569 16.6393 3.84046C16.9557 3.52402 17.3589 3.30852 17.7978 3.22121C18.2367 3.13391 18.6917 3.17871 19.1051 3.34997C19.5186 3.52123 19.872 3.81124 20.1206 4.18334C20.3692 4.55543 20.5019 4.9929 20.5019 5.44042C20.5049 5.7384 20.4485 6.03399 20.3359 6.30987C20.2232 6.58576 20.0567 6.8364 19.8459 7.04712C19.6352 7.25783 19.3846 7.42438 19.1087 7.53702C18.8328 7.64966 18.5372 7.70612 18.2392 7.7031ZM18.2392 3.93196C18.0399 3.92732 17.8416 3.96316 17.6565 4.03732C17.4714 4.11149 17.3033 4.22243 17.1623 4.36344C17.0213 4.50445 16.9103 4.67259 16.8362 4.85771C16.762 5.04282 16.7261 5.24105 16.7308 5.44042C16.7261 5.63978 16.762 5.83801 16.8362 6.02313C16.9103 6.20824 17.0213 6.37639 17.1623 6.51739C17.3033 6.6584 17.4714 6.76934 17.6565 6.84351C17.8416 6.91767 18.0399 6.95351 18.2392 6.94887C18.4386 6.95351 18.6368 6.91767 18.822 6.84351C19.0071 6.76934 19.1752 6.6584 19.3162 6.51739C19.4572 6.37639 19.5682 6.20824 19.6423 6.02313C19.7165 5.83801 19.7523 5.63978 19.7477 5.44042C19.7523 5.24105 19.7165 5.04282 19.6423 4.85771C19.5682 4.67259 19.4572 4.50445 19.3162 4.36344C19.1752 4.22243 19.0071 4.11149 18.822 4.03732C18.6368 3.96316 18.4386 3.92732 18.2392 3.93196Z" fill="#ADB3CC"/>
<path fill-rule="evenodd" clip-rule="evenodd" d="M18.2407 7.70067C17.7932 7.70067 17.3557 7.56796 16.9836 7.31934C16.6115 7.07071 16.3215 6.71733 16.1503 6.30388C15.979 5.89043 15.9342 5.43548 16.0215 4.99656C16.1088 4.55764 16.3243 4.15447 16.6408 3.83803C16.9572 3.52159 17.3604 3.30609 17.7993 3.21878C18.2382 3.13148 18.6932 3.17629 19.1066 3.34754C19.5201 3.5188 19.8734 3.80881 20.1221 4.18091C20.3707 4.55301 20.5034 4.99047 20.5034 5.43799C20.5064 5.73597 20.45 6.03156 20.3373 6.30744C20.2247 6.58333 20.0581 6.83397 19.8474 7.04469C19.6367 7.2554 19.3861 7.42196 19.1102 7.53459C18.8343 7.64723 18.5387 7.70369 18.2407 7.70067ZM18.239 4.00138L18.239 4.0013C18.0494 3.99689 17.8608 4.03098 17.6847 4.10154C17.5086 4.17209 17.3487 4.27763 17.2145 4.41177C17.0804 4.54592 16.9748 4.70588 16.9043 4.88198C16.8337 5.05808 16.7996 5.24666 16.804 5.43632L16.8041 5.43966L16.804 5.43966C16.7996 5.62932 16.8337 5.8179 16.9043 5.994C16.9748 6.1701 17.0804 6.33006 17.2145 6.4642C17.3487 6.59835 17.5086 6.70389 17.6847 6.77444C17.8608 6.84499 18.0494 6.87909 18.239 6.87467L18.2424 6.87459L18.2424 6.87467C18.432 6.87909 18.6206 6.84499 18.7967 6.77444C18.9728 6.70389 19.1328 6.59835 19.2669 6.4642C19.4011 6.33006 19.5066 6.1701 19.5772 5.994C19.6477 5.8179 19.6818 5.62932 19.6774 5.43966L19.6773 5.43631L19.6774 5.43632C19.6818 5.24666 19.6477 5.05808 19.5772 4.88198C19.5066 4.70588 19.4011 4.54592 19.2669 4.41177C19.1328 4.27763 18.9728 4.17209 18.7967 4.10154C18.6206 4.03098 18.432 3.99689 18.2424 4.0013L18.239 4.00138ZM18.2404 7.77246C17.7788 7.77238 17.3276 7.63547 16.9438 7.37903C16.5599 7.12251 16.2606 6.75792 16.084 6.33135C15.9073 5.90478 15.861 5.4354 15.9511 4.98255C16.0412 4.52971 16.2635 4.11375 16.59 3.78727C16.9165 3.46079 17.3324 3.23845 17.7853 3.14837C18.2381 3.0583 18.7075 3.10453 19.1341 3.28122C19.5607 3.45791 19.9252 3.75712 20.1818 4.14102C20.4382 4.52483 20.5751 4.97603 20.5752 5.43762C20.5783 5.74503 20.52 6.04996 20.4038 6.33458C20.2875 6.61931 20.1157 6.87798 19.8982 7.09545C19.6807 7.31292 19.422 7.48481 19.1373 7.60106C18.8527 7.71726 18.5478 7.77553 18.2404 7.77246ZM16.7323 5.43799C16.7276 5.63735 16.7635 5.83558 16.8376 6.0207C16.9118 6.20581 17.0227 6.37396 17.1637 6.51497C17.3048 6.65597 17.4729 6.76692 17.658 6.84108C17.8431 6.91524 18.0414 6.95108 18.2407 6.94644C18.4401 6.95108 18.6383 6.91524 18.8234 6.84108C19.0085 6.76692 19.1767 6.65597 19.3177 6.51497C19.4587 6.37396 19.5697 6.20581 19.6438 6.0207C19.718 5.83558 19.7538 5.63735 19.7492 5.43799C19.7538 5.23862 19.718 5.04039 19.6438 4.85528C19.5697 4.67016 19.4587 4.50202 19.3177 4.36101C19.1767 4.22 19.0085 4.10906 18.8234 4.0349C18.6383 3.96073 18.4401 3.92489 18.2407 3.92953C18.0414 3.92489 17.8431 3.96073 17.658 4.0349C17.4729 4.10906 17.3048 4.22 17.1637 4.36101C17.0227 4.50202 16.9118 4.67016 16.8376 4.85528C16.7635 5.04039 16.7276 5.23862 16.7323 5.43799Z" fill="#ADB3CC"/>
<path fill-rule="evenodd" clip-rule="evenodd" d="M5.98905 2.5329C7.54581 0.976142 9.65724 0.101562 11.8588 0.101562C13.7285 0.101562 15.5331 0.732297 16.9882 1.87593C15.645 1.87132 14.5922 1.94216 14.3071 3.00239C13.5452 2.65697 12.7115 2.47331 11.8588 2.47331C10.2863 2.47331 8.7781 3.09801 7.66613 4.20998C6.55416 5.32195 5.92946 6.83011 5.92946 8.40268C5.92946 12.728 5.001 15.5954 4.00585 17.4199C3.91561 17.5853 3.82502 17.7418 3.73479 17.8897H19.9829C19.8926 17.7418 19.802 17.5853 19.7118 17.4199C18.8599 15.858 18.0568 13.5318 17.8433 10.1809C18.7361 10.1623 19.5491 9.69396 20.1666 9.00399C20.2472 12.6296 21.0506 14.9213 21.794 16.2842C22.1874 17.0055 22.5706 17.4787 22.8367 17.7597C22.9701 17.9005 23.0749 17.9938 23.138 18.0464C23.1696 18.0727 23.1907 18.0889 23.1999 18.0956L23.2033 18.0981C23.6284 18.3902 23.8165 18.9243 23.6667 19.4192C23.5152 19.9193 23.0543 20.2614 22.5317 20.2614H1.18597C0.66339 20.2614 0.20241 19.9193 0.0509757 19.4192C-0.0988506 18.9243 0.0892754 18.3902 0.514393 18.0982L0.517782 18.0956C0.526913 18.0889 0.548085 18.0727 0.579655 18.0464C0.642762 17.9938 0.747574 17.9005 0.880956 17.7597C1.1471 17.4787 1.53024 17.0055 1.9237 16.2842C2.70736 14.8475 3.55771 12.3785 3.55771 8.40268C3.55771 6.20109 4.43229 4.08966 5.98905 2.5329Z" fill="#ADB3CC"/>
<path fill-rule="evenodd" clip-rule="evenodd" d="M8.89181 21.6076C9.45834 21.2789 10.184 21.4718 10.5126 22.0383C10.6169 22.218 10.7665 22.3672 10.9465 22.4709C11.1266 22.5746 11.3307 22.6291 11.5384 22.6291C11.7462 22.6291 11.9503 22.5746 12.1303 22.4709C12.3103 22.3672 12.4599 22.218 12.5642 22.0383C12.8928 21.4718 13.6185 21.2789 14.185 21.6076C14.7515 21.9362 14.9444 22.6618 14.6158 23.2284C14.303 23.7675 13.8541 24.215 13.3141 24.5261C12.774 24.8371 12.1617 25.0009 11.5384 25.0009C10.9152 25.0009 10.3028 24.8371 9.76276 24.5261C9.22268 24.215 8.7738 23.7675 8.46107 23.2284C8.13244 22.6618 8.32529 21.9362 8.89181 21.6076Z" fill="#ADB3CC"/>
</svg>
