<svg width="25" height="25" viewBox="0 0 25 25" fill="none" xmlns="http://www.w3.org/2000/svg">
<path fill-rule="evenodd" clip-rule="evenodd" d="M12.5 2.27273C6.85163 2.27273 2.27273 6.85163 2.27273 12.5C2.27273 18.1484 6.85163 22.7273 12.5 22.7273C18.1484 22.7273 22.7273 18.1484 22.7273 12.5C22.7273 6.85163 18.1484 2.27273 12.5 2.27273ZM0 12.5C0 5.59644 5.59644 0 12.5 0C19.4036 0 25 5.59644 25 12.5C25 19.4036 19.4036 25 12.5 25C5.59644 25 0 19.4036 0 12.5Z" fill="#ADB3CC"/>
<path fill-rule="evenodd" clip-rule="evenodd" d="M16.7112 8.28791C17.155 8.73169 17.155 9.45119 16.7112 9.89497L9.89302 16.7132C9.44924 17.1569 8.72974 17.1569 8.28596 16.7132C7.84218 16.2694 7.84218 15.5499 8.28596 15.1061L15.1041 8.28791C15.5479 7.84413 16.2674 7.84413 16.7112 8.28791Z" fill="#ADB3CC"/>
<path fill-rule="evenodd" clip-rule="evenodd" d="M8.28596 8.28791C8.72974 7.84413 9.44924 7.84413 9.89302 8.28791L16.7112 15.1061C17.155 15.5499 17.155 16.2694 16.7112 16.7132C16.2674 17.1569 15.5479 17.1569 15.1041 16.7132L8.28596 9.89497C7.84218 9.45119 7.84218 8.73169 8.28596 8.28791Z" fill="#ADB3CC"/>
</svg>
