<svg xmlns="http://www.w3.org/2000/svg" width="16" height="16" viewBox="0 0 16 16"><path d="M1996.247,3790.238a1.713,1.713,0,0,1-1.713-1.713v-2.149a1.714,1.714,0,0,0-2.165-1.656l-.64.177a2.754,2.754,0,0,1-3.479-2.656,8,8,0,1,1,8,8Zm-.571-3.861v2.148a.571.571,0,0,0,.571.571,6.813,6.813,0,0,0,4.942-2.108v.006a6.791,6.791,0,0,0,1.913-5.021,6.958,6.958,0,0,0-6.585-6.586,6.855,6.855,0,0,0-7.124,6.854,1.61,1.61,0,0,0,2.028,1.559l.64-.177a2.924,2.924,0,0,1,.759-.1A2.856,2.856,0,0,1,1995.676,3786.377Zm1.142-.137a1.142,1.142,0,1,1,1.142,1.142A1.142,1.142,0,0,1,1996.818,3786.24Zm2.285-2.856a1.142,1.142,0,1,1,1.142,1.142A1.143,1.143,0,0,1,1999.1,3783.384Zm-.572-3.427a1.142,1.142,0,1,1,1.142,1.143A1.143,1.143,0,0,1,1998.531,3779.956Zm-6.854,0a1.142,1.142,0,1,1,1.142,1.143A1.143,1.143,0,0,1,1991.677,3779.956Zm3.427-1.714a1.142,1.142,0,1,1,1.142,1.144A1.143,1.143,0,0,1,1995.1,3778.242Z" transform="translate(-1988.25 -3774.239)" fill="#e8e8e9"/></svg>