<svg xmlns="http://www.w3.org/2000/svg" width="24" height="24" viewBox="0 0 24 24"><g transform="translate(-2.25 -2.25)"><path d="M32.143,19.714V18H27v8.571h1.714V23.143h2.571V21.429H28.714V19.714Z" transform="translate(-5.893 -3.75)" fill="#e2e5e9"/><path d="M20.3,26.571H16.875V18H20.3a2.574,2.574,0,0,1,2.571,2.571V24A2.574,2.574,0,0,1,20.3,26.571Zm-1.714-1.714H20.3A.858.858,0,0,0,21.161,24V20.571a.858.858,0,0,0-.857-.857H18.589Z" transform="translate(-3.482 -3.75)" fill="#e2e5e9"/><path d="M11.036,18H6.75v8.571H8.464V24h2.571a1.717,1.717,0,0,0,1.714-1.714V19.714A1.716,1.716,0,0,0,11.036,18ZM8.464,22.286V19.714h2.571v2.571Z" transform="translate(-1.071 -3.75)" fill="#e2e5e9"/><path d="M19.393,12.536V9.107a.78.78,0,0,0-.257-.6l-6-6a.779.779,0,0,0-.6-.258H3.964A1.72,1.72,0,0,0,2.25,3.964V24.536A1.714,1.714,0,0,0,3.964,26.25H17.679V24.536H3.964V3.964h6.857V9.107a1.72,1.72,0,0,0,1.714,1.714h5.143v1.714ZM12.536,9.107v-4.8l4.8,4.8Z" fill="#e2e5e9"/></g></svg>