<svg xmlns="http://www.w3.org/2000/svg" width="16" height="16.038" viewBox="0 0 16 16.038">
  <g id="cloud-download" transform="translate(-2.302 -2.281)">
    <path id="Path_12066" data-name="Path 12066" d="M14.6,13.732h-.287V12.585H14.6a2.582,2.582,0,0,0,.206-5.16h-.493l-.058-.47a4.013,4.013,0,0,0-7.958,0l-.011.47H5.8A2.582,2.582,0,1,0,6,12.585h.287v1.147H6a3.727,3.727,0,0,1-.745-7.373,5.16,5.16,0,0,1,10.091,0,3.727,3.727,0,0,1-.745,7.373Z" transform="translate(0 0)" fill="#4d5267"/>
    <path id="Path_12067" data-name="Path 12067" d="M15.815,22.727V15.75H14.668v6.977l-1.485-1.479-.808.808,2.867,2.867,2.867-2.867-.808-.808Z" transform="translate(-4.939 -6.605)" fill="#4d5267"/>
  </g>
</svg>
