<svg xmlns="http://www.w3.org/2000/svg" width="15.249" height="15.25" viewBox="0 0 15.249 15.25"><defs><style>.a{fill:#4D5267;stroke:rgba(0,0,0,0);}</style></defs><path class="a" d="M313,3776.124a7.125,7.125,0,1,1,7.125,7.126A7.147,7.147,0,0,1,313,3776.124Zm1.018,0a6.107,6.107,0,1,0,6.107-6.106A6.126,6.126,0,0,0,314.018,3776.124Zm2.62,2.091.872-.523a3.043,3.043,0,0,0,5.23,0l.873.523a4.06,4.06,0,0,1-6.976,0Zm4.505-3.362a1.272,1.272,0,1,1,1.273,1.271A1.26,1.26,0,0,1,321.143,3774.853Zm-4.58,0a1.272,1.272,0,1,1,1.272,1.271A1.26,1.26,0,0,1,316.563,3774.853Z" transform="translate(-312.5 -3768.5)"/></svg>