<svg id="Icon" xmlns="http://www.w3.org/2000/svg" xmlns:xlink="http://www.w3.org/1999/xlink" width="20.8" height="17.6" viewBox="0 0 20.8 17.6">
  <defs>
    <clipPath id="clip-path">
      <rect width="15.2" height="14.2" fill="none"/>
    </clipPath>
  </defs>
  <rect id="Rectangle_3" data-name="Rectangle 3" width="20.8" height="17.6" rx="2" fill="#fff"/>
  <g id="Repeat_Grid_20" data-name="Repeat Grid 20" transform="translate(3 1.8)" clip-path="url(#clip-path)">
    <g transform="translate(-16 -1.8)">
      <rect id="Rectangle_4" data-name="Rectangle 4" width="3.2" height="3.2" rx="1" transform="translate(16 1.8)"/>
      <rect id="Rectangle_5" data-name="Rectangle 5" width="3.2" height="3.2" rx="1" transform="translate(16 12.8)"/>
      <rect id="Rectangle_6" data-name="Rectangle 6" width="3.2" height="3.2" rx="1" transform="translate(16 7.2)"/>
    </g>
    <g transform="translate(-10 -1.8)">
      <rect id="Rectangle_4-2" data-name="Rectangle 4" width="3.2" height="3.2" rx="1" transform="translate(16 1.8)"/>
      <rect id="Rectangle_5-2" data-name="Rectangle 5" width="3.2" height="3.2" rx="1" transform="translate(16 12.8)"/>
      <rect id="Rectangle_6-2" data-name="Rectangle 6" width="3.2" height="3.2" rx="1" transform="translate(16 7.2)"/>
    </g>
    <g transform="translate(-4 -1.8)">
      <rect id="Rectangle_4-3" data-name="Rectangle 4" width="3.2" height="3.2" rx="1" transform="translate(16 1.8)"/>
      <rect id="Rectangle_5-3" data-name="Rectangle 5" width="3.2" height="3.2" rx="1" transform="translate(16 12.8)"/>
      <rect id="Rectangle_6-3" data-name="Rectangle 6" width="3.2" height="3.2" rx="1" transform="translate(16 7.2)"/>
    </g>
  </g>
</svg>
