<svg width="20" height="19" viewBox="0 0 20 19" fill="none" xmlns="http://www.w3.org/2000/svg">
<g clip-path="url(#clip0)">
<path d="M10.1043 17.1689L5.90625 13.261L6.49684 9.11656C6.49684 8.69862 6.74679 8.33993 7.10496 8.17863L9.0736 8.60121C9.0736 8.18326 9.32354 7.82458 9.68171 7.66327L11.5968 8.07504L11.6504 8.08586V3.4477C11.6504 3.02975 11.9003 2.67107 12.2585 2.50977L14.1199 9.54946L14.2271 9.63192C14.7023 9.63192 15.1151 10.6626 15.1151 10.6626L15.1161 10.6703L10.1043 17.1689Z" fill="#EF9645"/>
<path d="M9.07703 10.0327C8.76318 10.3156 8.56168 10.7212 8.56168 11.1778C8.56168 11.5658 8.70958 11.9163 8.94561 12.1873C8.76988 12.5053 8.43542 12.7238 8.04633 12.7238C7.47738 12.7238 7.01562 12.2621 7.01562 11.6931V8.60101C7.01562 8.45002 7.05015 8.30778 7.10839 8.17843C7.26969 7.82026 7.62838 7.57031 8.04633 7.57031C8.61527 7.57031 9.07703 8.03207 9.07703 8.60101V10.0327Z" fill="#FFDC5D"/>
<path d="M4.4375 4.47797C4.4375 3.90902 4.89925 3.44727 5.4682 3.44727C6.03715 3.44727 6.4989 3.90902 6.4989 4.47797V11.6929C6.4989 12.1253 6.69371 12.5478 7.01374 12.8375C7.61567 13.3322 8.47888 13.375 9.07514 12.8364C9.17924 12.7416 9.27304 12.637 9.34828 12.518L9.34673 12.5164C9.45032 12.5757 9.59101 12.7236 10.1064 12.7236H11.4138C10.4815 13.427 9.84868 14.7798 9.84868 16.331C9.84868 16.4733 9.96412 16.5887 10.1064 16.5887C10.2486 16.5887 10.364 16.4733 10.364 16.331C10.364 14.3423 11.4911 12.7236 12.8764 12.7236C13.2438 12.7643 13.3129 12.2082 12.9408 12.2082H10.1064C9.53741 12.2082 9.07566 11.7465 9.07566 11.1775C9.07566 10.6086 9.53741 10.1468 10.1064 10.1468H14.2292C14.728 10.1468 14.9924 10.454 15.1181 10.6699C15.1831 10.7817 15.2135 10.8704 15.215 10.876L15.7752 12.7236C15.8283 12.8962 16.0221 13.6878 15.987 13.8527C15.987 16.331 13.5669 18.9078 10.6217 18.9078C7.25286 18.9078 4.4375 16.2022 4.4375 12.7236C4.44162 12.7272 4.4375 4.47797 4.4375 4.47797Z" fill="#FFDC5D"/>
<path d="M11.6512 9.63163H10.1052C9.92379 9.63163 9.75218 9.66874 9.58984 9.72645V8.08558C9.58984 7.93458 9.62437 7.79234 9.68261 7.66299C9.84391 7.30482 10.2026 7.05488 10.6205 7.05488C11.1895 7.05488 11.6512 7.51663 11.6512 8.08558V9.63163ZM12.1666 9.63163V2.93207C12.1666 2.78107 12.2011 2.63883 12.2594 2.50948C12.4207 2.15131 12.7793 1.90137 13.1973 1.90137C13.7662 1.90137 14.228 2.36312 14.228 2.93207V9.63163H12.1666Z" fill="#FFDC5D"/>
</g>
<defs>
<clipPath id="clip0">
<rect width="18.5526" height="18.5526" fill="white" transform="translate(0.828125 0.355469)"/>
</clipPath>
</defs>
</svg>
