<svg width="24" height="22" viewBox="0 0 24 22" fill="none" xmlns="http://www.w3.org/2000/svg">
<path fill-rule="evenodd" clip-rule="evenodd" d="M14.5816 2.96184C12.8482 2.1895 10.9116 1.99816 9.06065 2.41637C7.20965 2.83457 5.54343 3.83992 4.31049 5.28246C3.07754 6.725 2.34394 8.52745 2.21908 10.421C2.09422 12.3145 2.5848 14.1977 3.61765 15.7897C4.6505 17.3816 6.17028 18.597 7.95033 19.2547C9.73039 19.9123 11.6753 19.9769 13.4951 19.4389C15.3149 18.9008 16.912 17.7889 18.0482 16.269C19.1844 14.7491 19.7989 12.9027 19.8 11.005V10.0949C19.8 9.48735 20.2925 8.99486 20.9 8.99486C21.5075 8.99486 22 9.48735 22 10.0949V11.0057C21.9986 13.3777 21.2305 15.6864 19.8103 17.5863C18.39 19.4862 16.3936 20.876 14.1189 21.5486C11.8442 22.2211 9.41298 22.1404 7.18792 21.3183C4.96285 20.4963 3.06312 18.977 1.77206 16.9871C0.480993 14.9971 -0.13223 12.6432 0.0238445 10.2762C0.179919 7.90932 1.09693 5.65625 2.63811 3.85308C4.17929 2.0499 6.26206 0.793217 8.57581 0.270457C10.8895 -0.252303 13.3103 -0.0131332 15.477 0.952296C16.0319 1.19955 16.2813 1.84985 16.0341 2.40477C15.7868 2.95969 15.1365 3.2091 14.5816 2.96184Z" fill="url(#paint0_linear)"/>
<path fill-rule="evenodd" clip-rule="evenodd" d="M23.6575 2.31887C24.1138 2.74434 24.1142 3.4345 23.6583 3.86039L13.1474 13.6804C12.9284 13.8849 12.6313 13.9999 12.3215 14C12.0116 14.0001 11.7144 13.8852 11.4953 13.6807L8.34207 10.7377C7.88598 10.312 7.88598 9.62186 8.34207 9.19618C8.79815 8.7705 9.53762 8.7705 9.9937 9.19618L12.3208 11.3681L22.0059 2.31964C22.4617 1.89375 23.2012 1.89341 23.6575 2.31887Z" fill="url(#paint1_linear)"/>
<defs>
<linearGradient id="paint0_linear" x1="22" y1="22" x2="-1.08784" y2="1.20796" gradientUnits="userSpaceOnUse">
<stop offset="0.0011704" stop-color="#4E54C8"/>
<stop offset="1" stop-color="#8F94FB"/>
</linearGradient>
<linearGradient id="paint1_linear" x1="24" y1="14" x2="11.5465" y2="-0.953557" gradientUnits="userSpaceOnUse">
<stop offset="0.0011704" stop-color="#4E54C8"/>
<stop offset="1" stop-color="#8F94FB"/>
</linearGradient>
</defs>
</svg>
