<svg width="12" height="13" viewBox="0 0 12 13" fill="none" xmlns="http://www.w3.org/2000/svg">
<path fill-rule="evenodd" clip-rule="evenodd" d="M6 1C6.55228 1 7 1.29848 7 1.66667V12.3333C7 12.7015 6.55228 13 6 13C5.44772 13 5 12.7015 5 12.3333V1.66667C5 1.29848 5.44772 1 6 1Z" fill="white"/>
<path fill-rule="evenodd" clip-rule="evenodd" d="M5.46967 0.227806C5.76256 -0.0759353 6.23744 -0.0759353 6.53033 0.227806L11.7803 5.67225C12.0732 5.97599 12.0732 6.46845 11.7803 6.77219C11.4874 7.07594 11.0126 7.07594 10.7197 6.77219L6 1.87772L1.28033 6.77219C0.987437 7.07594 0.512563 7.07594 0.21967 6.77219C-0.0732233 6.46845 -0.0732233 5.97599 0.21967 5.67225L5.46967 0.227806Z" fill="white"/>
</svg>
