<svg width="14" height="13" viewBox="0 0 14 13" fill="none" xmlns="http://www.w3.org/2000/svg">
<g clip-path="url(#clip0_1212_613)">
<path fill-rule="evenodd" clip-rule="evenodd" d="M1.20598 7.72461C1.59589 7.72461 1.91197 8.04069 1.91197 8.43059V11.0053C1.91197 11.1596 1.97326 11.3076 2.08235 11.4167C2.19145 11.5258 2.33942 11.5871 2.4937 11.5871H11.5063C11.6606 11.5871 11.8085 11.5258 11.9176 11.4167C12.0267 11.3076 12.088 11.1596 12.088 11.0053V8.43059C12.088 8.04069 12.4041 7.72461 12.794 7.72461C13.1839 7.72461 13.5 8.04069 13.5 8.43059V11.0053C13.5 11.5341 13.29 12.0412 12.9161 12.4151C12.5422 12.789 12.0351 12.999 11.5063 12.999H2.4937C1.96494 12.999 1.45783 12.789 1.08394 12.4151C0.71005 12.0412 0.5 11.5341 0.5 11.0053V8.43059C0.5 8.04069 0.81608 7.72461 1.20598 7.72461Z" fill="white"/>
<path fill-rule="evenodd" clip-rule="evenodd" d="M6.49958 0.206778C6.77526 -0.0689047 7.22223 -0.0689292 7.49794 0.206723L10.7172 3.42531C10.993 3.70098 10.993 4.14799 10.7173 4.42372C10.4417 4.69945 9.99466 4.6995 9.71892 4.42383L6.99884 1.70434L4.27941 4.42377C4.00371 4.69948 3.5567 4.69948 3.281 4.42377C3.00529 4.14807 3.00529 3.70107 3.281 3.42536L6.49958 0.206778Z" fill="white"/>
<path fill-rule="evenodd" clip-rule="evenodd" d="M6.99895 0C7.38886 0 7.70494 0.31608 7.70494 0.705985V8.43087C7.70494 8.82077 7.38886 9.13685 6.99895 9.13685C6.60905 9.13685 6.29297 8.82077 6.29297 8.43087V0.705985C6.29297 0.31608 6.60905 0 6.99895 0Z" fill="white"/>
</g>
<defs>
<clipPath id="clip0_1212_613">
<rect width="14" height="13" fill="white"/>
</clipPath>
</defs>
</svg>
