<svg width="3" height="16" viewBox="0 0 3 16" fill="none" xmlns="http://www.w3.org/2000/svg">
<path d="M1.45 2.9C2.25081 2.9 2.9 2.25081 2.9 1.45C2.9 0.649187 2.25081 0 1.45 0C0.649187 0 0 0.649187 0 1.45C0 2.25081 0.649187 2.9 1.45 2.9Z" fill="#454A60"/>
<path d="M1.45 9.45078C2.25081 9.45078 2.9 8.80159 2.9 8.00078C2.9 7.19997 2.25081 6.55078 1.45 6.55078C0.649187 6.55078 0 7.19997 0 8.00078C0 8.80159 0.649187 9.45078 1.45 9.45078Z" fill="#454A60"/>
<path d="M1.45 15.9996C2.25081 15.9996 2.9 15.3504 2.9 14.5496C2.9 13.7488 2.25081 13.0996 1.45 13.0996C0.649187 13.0996 0 13.7488 0 14.5496C0 15.3504 0.649187 15.9996 1.45 15.9996Z" fill="#454A60"/>
</svg>
