<svg xmlns="http://www.w3.org/2000/svg" width="6.621" height="9.932" viewBox="0 0 6.621 9.932"><defs><style>.a{fill:#4D5267;}</style></defs><path class="a" d="M3.7-.271,3.618,0H-.469l.1-.271a2.541,2.541,0,0,0,.813-.1A1,1,0,0,0,.923-.718a4.5,4.5,0,0,0,.5-1.23L3.149-7.939a4.414,4.414,0,0,0,.22-1.128.536.536,0,0,0-.1-.322.589.589,0,0,0-.289-.2,2.666,2.666,0,0,0-.758-.07l.088-.271H6.152l-.081.271a1.615,1.615,0,0,0-.7.1,1.108,1.108,0,0,0-.5.417,5.68,5.68,0,0,0-.443,1.2L2.71-1.948A5.424,5.424,0,0,0,2.476-.894a.521.521,0,0,0,.092.311.578.578,0,0,0,.293.2A4.008,4.008,0,0,0,3.7-.271Z" transform="translate(0.469 9.932)"/></svg>