<svg width="16" height="16" viewBox="0 0 16 16" fill="none" xmlns="http://www.w3.org/2000/svg">
<g clip-path="url(#clip0_1212_605)">
<path fill-rule="evenodd" clip-rule="evenodd" d="M0.85 9.33203C1.31944 9.33203 1.7 9.71259 1.7 10.182V13.293C1.7 13.3857 1.71826 13.4775 1.75374 13.5632C1.78922 13.6489 1.84122 13.7267 1.90678 13.7922C1.97234 13.8578 2.05017 13.9098 2.13583 13.9453C2.22148 13.9808 2.31328 13.999 2.406 13.999H13.294C13.3867 13.999 13.4785 13.9808 13.5642 13.9453C13.6498 13.9098 13.7277 13.8578 13.7932 13.7922C13.8588 13.7267 13.9108 13.6489 13.9463 13.5632C13.9817 13.4776 14 13.3857 14 13.293V10.182C14 9.71259 14.3806 9.33203 14.85 9.33203C15.3194 9.33203 15.7 9.71259 15.7 10.182V13.293C15.7 13.609 15.6378 13.9219 15.5169 14.2138C15.3959 14.5057 15.2187 14.7709 14.9953 14.9943C14.7719 15.2177 14.5066 15.395 14.2147 15.5159C13.9228 15.6368 13.61 15.699 13.294 15.699H2.406C2.09004 15.699 1.77718 15.6368 1.48526 15.5159C1.19335 15.395 0.928117 15.2177 0.704701 14.9943C0.481283 14.7709 0.304059 14.5057 0.183146 14.2138C0.0622332 13.9219 0 13.609 0 13.293V10.182C0 9.71259 0.380558 9.33203 0.85 9.33203Z" fill="#5056CA"/>
<path fill-rule="evenodd" clip-rule="evenodd" d="M7.24733 0.248959C7.57928 -0.0829864 8.11747 -0.0829864 8.44942 0.248959L12.3384 4.13796C12.6704 4.4699 12.6704 5.00809 12.3384 5.34004C12.0065 5.67199 11.4683 5.67199 11.1363 5.34004L7.84837 2.05208L4.56042 5.34004C4.22847 5.67199 3.69028 5.67199 3.35833 5.34004C3.02639 5.00809 3.02639 4.4699 3.35833 4.13796L7.24733 0.248959Z" fill="#5056CA"/>
<path fill-rule="evenodd" clip-rule="evenodd" d="M7.85 0C8.31944 0 8.7 0.380558 8.7 0.85V10.183C8.7 10.6524 8.31944 11.033 7.85 11.033C7.38056 11.033 7 10.6524 7 10.183V0.85C7 0.380558 7.38056 0 7.85 0Z" fill="#5056CA"/>
</g>
<defs>
<clipPath id="clip0_1212_605">
<rect width="15.7" height="15.7" fill="white"/>
</clipPath>
</defs>
</svg>
