<svg xmlns="http://www.w3.org/2000/svg" width="24" height="24" viewBox="0 0 24 24"><defs><style>.a{fill:#8C91F9;}.b{fill:none;}</style></defs><path class="a" d="M20.775,7.475l-5.25-5.25A.681.681,0,0,0,15,2H7.5A1.5,1.5,0,0,0,6,3.5v18A1.5,1.5,0,0,0,7.5,23h12A1.5,1.5,0,0,0,21,21.5V8A.681.681,0,0,0,20.775,7.475ZM15,3.8,19.2,8H15Zm4.5,17.7H7.5V3.5h6V8A1.5,1.5,0,0,0,15,9.5h4.5Z" transform="translate(-1.5 -0.5)"/><rect class="a" width="9" height="1.5" transform="translate(7.5 16.5)"/><rect class="a" width="9" height="1.5" transform="translate(7.5 12)"/><rect class="b" width="24" height="24"/></svg>