<svg width="16" height="18" viewBox="0 0 16 18" fill="none" xmlns="http://www.w3.org/2000/svg">
<path fill-rule="evenodd" clip-rule="evenodd" d="M2.4 3.6C1.95817 3.6 1.6 3.95817 1.6 4.4V15.6C1.6 16.0418 1.95817 16.4 2.4 16.4H13.6C14.0418 16.4 14.4 16.0418 14.4 15.6V4.4C14.4 3.95817 14.0418 3.6 13.6 3.6H2.4ZM0 4.4C0 3.07452 1.07452 2 2.4 2H13.6C14.9255 2 16 3.07452 16 4.4V15.6C16 16.9255 14.9255 18 13.6 18H2.4C1.07452 18 0 16.9255 0 15.6V4.4Z" fill="#ABAEBB"/>
<path fill-rule="evenodd" clip-rule="evenodd" d="M11.5 0C11.7761 0 12 0.373096 12 0.833333V4.16667C12 4.6269 11.7761 5 11.5 5C11.2239 5 11 4.6269 11 4.16667V0.833333C11 0.373096 11.2239 0 11.5 0Z" fill="#ABAEBB"/>
<path fill-rule="evenodd" clip-rule="evenodd" d="M4.5 0C4.77614 0 5 0.373096 5 0.833333V4.16667C5 4.6269 4.77614 5 4.5 5C4.22386 5 4 4.6269 4 4.16667V0.833333C4 0.373096 4.22386 0 4.5 0Z" fill="#ABAEBB"/>
<path fill-rule="evenodd" clip-rule="evenodd" d="M0 7C0 6.44772 0.358172 6 0.8 6H15.2C15.6418 6 16 6.44772 16 7C16 7.55228 15.6418 8 15.2 8H0.8C0.358172 8 0 7.55228 0 7Z" fill="#ABAEBB"/>
</svg>
