<svg width="25" height="30" viewBox="0 0 25 30" fill="none" xmlns="http://www.w3.org/2000/svg">
<path d="M17.1267 19.0959L8.93944 23.5276C8.24463 23.9033 7.35294 23.4484 7.35294 22.691V13.8275C7.35294 13.0712 8.24334 12.6151 8.93944 12.992L17.1267 17.4238C17.2848 17.5079 17.4162 17.6296 17.5075 17.7764C17.5989 17.9233 17.6471 18.09 17.6471 18.2598C17.6471 18.4296 17.5989 18.5964 17.5075 18.7432C17.4162 18.89 17.2848 19.0117 17.1267 19.0959Z" fill="#33B6FF"/>
<path d="M24.6662 7.52009L17.0241 0.314732C16.8111 0.113839 16.5234 0 16.2216 0H1.13636C0.507812 0 0 0.478795 0 1.07143V28.9286C0 29.5212 0.507812 30 1.13636 30H23.8636C24.4922 30 25 29.5212 25 28.9286V8.28013C25 7.99554 24.8793 7.72098 24.6662 7.52009ZM22.3793 8.77232H15.696V2.47098L22.3793 8.77232ZM22.4432 27.5893H2.55682V2.41071H13.2812V9.64286C13.2812 10.0158 13.4384 10.3735 13.7181 10.6372C13.9978 10.9009 14.3772 11.0491 14.7727 11.0491H22.4432V27.5893Z" fill="#33B6FF"/>
</svg>
