<svg xmlns="http://www.w3.org/2000/svg" width="13" height="14.5" viewBox="0 0 13 14.5"><path d="M15.854,10.146,14.5,8.793V7A5.007,5.007,0,0,0,10,2.025V1H9V2.025A5.007,5.007,0,0,0,4.5,7V8.793L3.146,10.146A.5.5,0,0,0,3,10.5V12a.5.5,0,0,0,.5.5H7v.388a2.576,2.576,0,0,0,2.25,2.6A2.5,2.5,0,0,0,12,13v-.5h3.5A.5.5,0,0,0,16,12V10.5a.5.5,0,0,0-.146-.353ZM11,13a1.5,1.5,0,1,1-3,0v-.5h3Zm4-1.5H4v-.793L5.353,9.354A.5.5,0,0,0,5.5,9V7a4,4,0,0,1,8,0V9a.5.5,0,0,0,.146.353L15,10.707Z" transform="translate(-3 -1)" fill="#000000" /></svg>