<svg width="15" height="15" viewBox="0 0 15 15" fill="none" xmlns="http://www.w3.org/2000/svg">
<path fill-rule="evenodd" clip-rule="evenodd" d="M7.5014 0C8.6743 0 9.63893 0.38943 10.2625 1.19361C10.7625 1.83856 11 2.68242 11 3.63325H10C10 2.84313 9.80309 2.23312 9.4722 1.80636C9.08385 1.30552 8.44848 1 7.5014 1C6.64317 1 6.03664 1.26502 5.64154 1.68623C5.24207 2.11211 5 2.76044 5 3.63601V6H12C12.5523 6 13 6.44772 13 7V13C13 13.5523 12.5523 14 12 14H3C2.4477 14 2 13.5523 2 13V7C2 6.44771 2.4477 6 3 6H4V3.63601C4 2.58135 4.2935 1.66167 4.9122 1.0021C5.53523 0.337871 6.42939 0 7.5014 0ZM12 7H3V13H12V7Z" fill="white"/>
</svg>
