<svg width="32" height="32" viewBox="0 0 32 32" fill="none" xmlns="http://www.w3.org/2000/svg">
<path d="M29.4139 24.0003L11.9998 6.58621C11.6189 6.22248 11.1125 6.01953 10.5858 6.01953C10.0591 6.01953 9.55266 6.22248 9.17173 6.58621L6.58573 9.17221C6.21127 9.54754 6.00098 10.0561 6.00098 10.5863C6.00098 11.1164 6.21127 11.625 6.58573 12.0003L23.9988 29.4144C24.3742 29.7888 24.8827 29.999 25.4129 29.999C25.943 29.999 26.4516 29.7888 26.8269 29.4144L29.4139 26.8279C29.5997 26.6422 29.747 26.4218 29.8476 26.1792C29.9481 25.9365 29.9998 25.6765 29.9998 25.4139C29.9998 25.1512 29.9481 24.8912 29.8476 24.6485C29.747 24.4059 29.5997 24.1855 29.4139 23.9998V24.0003ZM7.99983 10.5862L10.5857 8.00031L15.5857 13.0003L12.9991 15.5872L7.99913 10.5872L7.99983 10.5862Z" fill="white"/>
<path d="M3.99998 14L2 16L3.99998 18L5.99996 16L3.99998 14Z" fill="white"/>
<path d="M16 2.00002L14 4L16 5.99998L18 4L16 2.00002Z" fill="white"/>
<path d="M3.99998 2.00002L2 4L3.99998 5.99998L5.99996 4L3.99998 2.00002Z" fill="white"/>
</svg>
