<svg width="21" height="18" viewBox="0 0 21 18" fill="none" xmlns="http://www.w3.org/2000/svg">
<mask id="path-1-outside-1" maskUnits="userSpaceOnUse" x="2.18359" y="0" width="16" height="18" fill="black">
<rect fill="white" x="2.18359" width="16" height="18"/>
<path fill-rule="evenodd" clip-rule="evenodd" d="M17.636 12.289V12.0172C17.6379 11.9448 17.624 11.8728 17.5952 11.8063C17.5665 11.7397 17.5235 11.6801 17.4692 11.6316L15.9685 10.1443V7.61031C15.9667 6.2424 15.455 4.92338 14.5317 3.90662C13.6084 2.88986 12.3386 2.24707 10.9662 2.10172V1.55582C10.9662 1.24885 10.7173 1 10.4103 1C10.1034 1 9.85453 1.24885 9.85453 1.55582V2.10172C8.48592 2.25635 7.22168 2.90189 6.3002 3.91663C6.17288 4.05683 6.05332 4.20275 5.94178 4.35372L6.85014 4.9701C6.97645 4.8028 7.11533 4.64367 7.26617 4.49418C8.10006 3.66773 9.23105 3.20344 10.4103 3.20344C11.5896 3.20344 12.7206 3.66773 13.5545 4.49418C14.3884 5.32063 14.8569 6.44154 14.8569 7.61031V10.3646C14.8565 10.3776 14.8567 10.3906 14.8573 10.4036L17.636 12.289ZM5.96919 7.39355C5.96561 7.46558 5.96381 7.53786 5.96381 7.61031V10.3646C5.96578 10.437 5.95189 10.509 5.9231 10.5755C5.89431 10.6421 5.85132 10.7017 5.79707 10.7502L4.29637 12.2375V13.1189H14.4065L16.0301 14.2206H13.1894C13.1894 14.9511 12.8966 15.6517 12.3754 16.1682C11.8543 16.6847 11.1474 16.9749 10.4103 16.9749C9.67328 16.9749 8.96641 16.6847 8.44524 16.1682C7.92406 15.6517 7.63126 14.9511 7.63126 14.2206H3.74055C3.66629 14.2255 3.59183 14.2146 3.52217 14.1886C3.45251 14.1627 3.38925 14.1222 3.33662 14.0701C3.28399 14.0179 3.24322 13.9552 3.21702 13.8862C3.19083 13.8172 3.17982 13.7434 3.18473 13.6698V12.0172C3.18277 11.9448 3.19666 11.8728 3.22545 11.8063C3.25423 11.7397 3.29723 11.6801 3.35148 11.6316L4.85218 10.1443V7.61031C4.85479 7.30087 4.88326 6.99407 4.93648 6.69279L5.96919 7.39355ZM9.23128 15.3892C9.54399 15.6991 9.96811 15.8732 10.4103 15.8732C10.8526 15.8732 11.2767 15.6991 11.5894 15.3892C11.9021 15.0793 12.0778 14.6589 12.0778 14.2206H8.74289C8.74289 14.6589 8.91857 15.0793 9.23128 15.3892Z"/>
</mask>
<path fill-rule="evenodd" clip-rule="evenodd" d="M17.636 12.289V12.0172C17.6379 11.9448 17.624 11.8728 17.5952 11.8063C17.5665 11.7397 17.5235 11.6801 17.4692 11.6316L15.9685 10.1443V7.61031C15.9667 6.2424 15.455 4.92338 14.5317 3.90662C13.6084 2.88986 12.3386 2.24707 10.9662 2.10172V1.55582C10.9662 1.24885 10.7173 1 10.4103 1C10.1034 1 9.85453 1.24885 9.85453 1.55582V2.10172C8.48592 2.25635 7.22168 2.90189 6.3002 3.91663C6.17288 4.05683 6.05332 4.20275 5.94178 4.35372L6.85014 4.9701C6.97645 4.8028 7.11533 4.64367 7.26617 4.49418C8.10006 3.66773 9.23105 3.20344 10.4103 3.20344C11.5896 3.20344 12.7206 3.66773 13.5545 4.49418C14.3884 5.32063 14.8569 6.44154 14.8569 7.61031V10.3646C14.8565 10.3776 14.8567 10.3906 14.8573 10.4036L17.636 12.289ZM5.96919 7.39355C5.96561 7.46558 5.96381 7.53786 5.96381 7.61031V10.3646C5.96578 10.437 5.95189 10.509 5.9231 10.5755C5.89431 10.6421 5.85132 10.7017 5.79707 10.7502L4.29637 12.2375V13.1189H14.4065L16.0301 14.2206H13.1894C13.1894 14.9511 12.8966 15.6517 12.3754 16.1682C11.8543 16.6847 11.1474 16.9749 10.4103 16.9749C9.67328 16.9749 8.96641 16.6847 8.44524 16.1682C7.92406 15.6517 7.63126 14.9511 7.63126 14.2206H3.74055C3.66629 14.2255 3.59183 14.2146 3.52217 14.1886C3.45251 14.1627 3.38925 14.1222 3.33662 14.0701C3.28399 14.0179 3.24322 13.9552 3.21702 13.8862C3.19083 13.8172 3.17982 13.7434 3.18473 13.6698V12.0172C3.18277 11.9448 3.19666 11.8728 3.22545 11.8063C3.25423 11.7397 3.29723 11.6801 3.35148 11.6316L4.85218 10.1443V7.61031C4.85479 7.30087 4.88326 6.99407 4.93648 6.69279L5.96919 7.39355ZM9.23128 15.3892C9.54399 15.6991 9.96811 15.8732 10.4103 15.8732C10.8526 15.8732 11.2767 15.6991 11.5894 15.3892C11.9021 15.0793 12.0778 14.6589 12.0778 14.2206H8.74289C8.74289 14.6589 8.91857 15.0793 9.23128 15.3892Z" fill="#ADB3CC"/>
<path d="M17.636 12.289L17.5068 12.4794L17.866 12.7231V12.289H17.636ZM17.636 12.0172L17.406 12.011V12.0172H17.636ZM17.5952 11.8063L17.3841 11.8976L17.3841 11.8976L17.5952 11.8063ZM17.4692 11.6316L17.3071 11.7952L17.3159 11.803L17.4692 11.6316ZM15.9685 10.1443H15.7385V10.2401L15.8066 10.3076L15.9685 10.1443ZM15.9685 7.61031H16.1985V7.61001L15.9685 7.61031ZM14.5317 3.90662L14.3614 4.06124L14.5317 3.90662ZM10.9662 2.10172H10.7362V2.30865L10.9419 2.33044L10.9662 2.10172ZM9.85453 2.10172L9.88035 2.33026L10.0845 2.3072V2.10172H9.85453ZM6.3002 3.91663L6.12993 3.76201L6.12993 3.76201L6.3002 3.91663ZM5.94178 4.35372L5.75679 4.21704L5.61452 4.4096L5.81263 4.54403L5.94178 4.35372ZM6.85014 4.9701L6.72099 5.16042L6.90193 5.28321L7.03369 5.10869L6.85014 4.9701ZM7.26617 4.49418L7.10427 4.33082L7.26617 4.49418ZM13.5545 4.49418L13.7164 4.33082L13.5545 4.49418ZM14.8569 10.3646L15.0869 10.3708V10.3646H14.8569ZM14.8573 10.4036L14.6276 10.4154L14.6335 10.5296L14.7282 10.5939L14.8573 10.4036ZM5.96919 7.39355L6.19891 7.40496L6.20532 7.27583L6.09834 7.20323L5.96919 7.39355ZM5.96381 10.3646H5.73373L5.7339 10.3708L5.96381 10.3646ZM5.79707 10.7502L5.64354 10.5785L5.63516 10.5868L5.79707 10.7502ZM4.29637 12.2375L4.13446 12.0742L4.06637 12.1417V12.2375H4.29637ZM4.29637 13.1189H4.06637V13.3489H4.29637V13.1189ZM14.4065 13.1189L14.5357 12.9286L14.4772 12.8889H14.4065V13.1189ZM16.0301 14.2206V14.4506H16.7787L16.1593 14.0303L16.0301 14.2206ZM13.1894 14.2206V13.9906H12.9594V14.2206H13.1894ZM12.3754 16.1682L12.2135 16.0048L12.3754 16.1682ZM8.44524 16.1682L8.60714 16.0048L8.44524 16.1682ZM7.63126 14.2206H7.86126V13.9906H7.63126V14.2206ZM3.74055 14.2206V13.9906H3.73302L3.7255 13.9911L3.74055 14.2206ZM3.52217 14.1886L3.44185 14.4041L3.44185 14.4041L3.52217 14.1886ZM3.33662 14.0701L3.49853 13.9067H3.49853L3.33662 14.0701ZM3.21702 13.8862L3.43207 13.8046L3.21702 13.8862ZM3.18473 13.6698L3.41422 13.6851L3.41473 13.6774V13.6698H3.18473ZM3.18473 12.0172H3.41482L3.41465 12.011L3.18473 12.0172ZM3.22545 11.8063L3.01434 11.715L3.22545 11.8063ZM3.35148 11.6316L3.50501 11.8032L3.51338 11.7949L3.35148 11.6316ZM4.85218 10.1443L5.01409 10.3076L5.08218 10.2401V10.1443H4.85218ZM4.85218 7.61031L4.62218 7.60838V7.61031H4.85218ZM4.93648 6.69279L5.06563 6.50247L4.77177 6.30306L4.70999 6.65278L4.93648 6.69279ZM12.0778 14.2206H12.3078V13.9906H12.0778V14.2206ZM8.74289 14.2206V13.9906H8.51289V14.2206H8.74289ZM17.866 12.289V12.0172H17.406V12.289H17.866ZM17.8659 12.0234C17.8687 11.9175 17.8484 11.8122 17.8063 11.715L17.3841 11.8976C17.3996 11.9334 17.4071 11.9721 17.406 12.011L17.8659 12.0234ZM17.8063 11.715C17.7643 11.6177 17.7015 11.5308 17.6225 11.4601L17.3159 11.803C17.3454 11.8294 17.3686 11.8617 17.3841 11.8976L17.8063 11.715ZM17.6311 11.4682L16.1304 9.9809L15.8066 10.3076L17.3073 11.7949L17.6311 11.4682ZM16.1985 10.1443V7.61031H15.7385V10.1443H16.1985ZM16.1985 7.61001C16.1966 6.18478 15.6635 4.81082 14.702 3.752L14.3614 4.06124C15.2466 5.03594 15.7368 6.30003 15.7385 7.61061L16.1985 7.61001ZM14.702 3.752C13.7405 2.69323 12.4186 2.02426 10.9904 1.873L10.9419 2.33044C12.2585 2.46988 13.4763 3.08649 14.3614 4.06124L14.702 3.752ZM11.1962 2.10172V1.55582H10.7362V2.10172H11.1962ZM11.1962 1.55582C11.1962 1.12182 10.8443 0.77 10.4103 0.77V1.23C10.5903 1.23 10.7362 1.37587 10.7362 1.55582H11.1962ZM10.4103 0.77C9.97635 0.77 9.62453 1.12182 9.62453 1.55582H10.0845C10.0845 1.37587 10.2304 1.23 10.4103 1.23V0.77ZM9.62453 1.55582V2.10172H10.0845V1.55582H9.62453ZM9.8287 1.87317C8.40486 2.03404 7.08918 2.70568 6.12993 3.76201L6.47047 4.07125C7.35418 3.09811 8.56698 2.47865 9.88035 2.33026L9.8287 1.87317ZM6.12993 3.76201C5.99739 3.90796 5.87292 4.05986 5.75679 4.21704L6.12676 4.49039C6.23372 4.34563 6.34837 4.20571 6.47047 4.07125L6.12993 3.76201ZM5.81263 4.54403L6.72099 5.16042L6.97928 4.77978L6.07092 4.1634L5.81263 4.54403ZM7.03369 5.10869C7.15342 4.95012 7.28507 4.79928 7.42808 4.65754L7.10427 4.33082C6.9456 4.48807 6.79949 4.65548 6.66658 4.83151L7.03369 5.10869ZM7.42808 4.65754C8.21867 3.874 9.29139 3.43344 10.4103 3.43344V2.97344C9.17071 2.97344 7.98144 3.46147 7.10427 4.33082L7.42808 4.65754ZM10.4103 3.43344C11.5293 3.43344 12.602 3.874 13.3926 4.65754L13.7164 4.33082C12.8392 3.46147 11.65 2.97344 10.4103 2.97344V3.43344ZM13.3926 4.65754C14.1831 5.44102 14.6269 6.5032 14.6269 7.61031H15.0869C15.0869 6.37987 14.5937 5.20024 13.7164 4.33082L13.3926 4.65754ZM14.6269 7.61031V10.3646H15.0869V7.61031H14.6269ZM14.627 10.3584C14.6264 10.3774 14.6267 10.3964 14.6276 10.4154L15.087 10.3918C15.0867 10.3848 15.0866 10.3778 15.0868 10.3708L14.627 10.3584ZM14.7282 10.5939L17.5068 12.4794L17.7651 12.0987L14.9865 10.2132L14.7282 10.5939ZM6.19381 7.61031C6.19381 7.54167 6.19552 7.4732 6.19891 7.40496L5.73947 7.38215C5.73571 7.45797 5.73381 7.53405 5.73381 7.61031H6.19381ZM6.19381 10.3646V7.61031H5.73381V10.3646H6.19381ZM6.13421 10.6668C6.17627 10.5695 6.1966 10.4643 6.19373 10.3584L5.7339 10.3708C5.73495 10.4097 5.7275 10.4484 5.71199 10.4842L6.13421 10.6668ZM5.9504 10.9216C6.02939 10.851 6.09215 10.7641 6.13421 10.6668L5.71199 10.4842C5.69648 10.5201 5.67324 10.5524 5.64374 10.5788L5.9504 10.9216ZM4.45827 12.4009L5.95897 10.9136L5.63516 10.5868L4.13446 12.0742L4.45827 12.4009ZM4.52637 13.1189V12.2375H4.06637V13.1189H4.52637ZM14.4065 12.8889H4.29637V13.3489H14.4065V12.8889ZM16.1593 14.0303L14.5357 12.9286L14.2774 13.3092L15.901 14.4109L16.1593 14.0303ZM13.1894 14.4506H16.0301V13.9906H13.1894V14.4506ZM12.5374 16.3316C13.1019 15.7721 13.4194 15.0128 13.4194 14.2206H12.9594C12.9594 14.8894 12.6914 15.5313 12.2135 16.0048L12.5374 16.3316ZM10.4103 17.2049C11.2077 17.2049 11.9729 16.891 12.5374 16.3316L12.2135 16.0048C11.7357 16.4785 11.0871 16.7449 10.4103 16.7449V17.2049ZM8.28333 16.3316C8.8478 16.891 9.61295 17.2049 10.4103 17.2049V16.7449C9.73362 16.7449 9.08503 16.4785 8.60714 16.0048L8.28333 16.3316ZM7.40126 14.2206C7.40126 15.0128 7.71879 15.7721 8.28333 16.3316L8.60714 16.0048C8.12932 15.5313 7.86126 14.8894 7.86126 14.2206H7.40126ZM3.74055 14.4506H7.63126V13.9906H3.74055V14.4506ZM3.44185 14.4041C3.54199 14.4415 3.64895 14.4571 3.7556 14.4501L3.7255 13.9911C3.68363 13.9939 3.64167 13.9877 3.60249 13.9731L3.44185 14.4041ZM3.17472 14.2335C3.25061 14.3087 3.34171 14.3668 3.44185 14.4041L3.60249 13.9731C3.56331 13.9585 3.52788 13.9358 3.49853 13.9067L3.17472 14.2335ZM3.00198 13.9678C3.03988 14.0677 3.09882 14.1582 3.17472 14.2335L3.49853 13.9067C3.46917 13.8776 3.44656 13.8428 3.43207 13.8046L3.00198 13.9678ZM2.95524 13.6544C2.94813 13.761 2.96408 13.8679 3.00198 13.9678L3.43207 13.8046C3.41758 13.7664 3.41151 13.7257 3.41422 13.6851L2.95524 13.6544ZM2.95473 12.0172V13.6698H3.41473V12.0172H2.95473ZM3.01434 11.715C2.97228 11.8122 2.95195 11.9175 2.95482 12.0234L3.41465 12.011C3.4136 11.9721 3.42105 11.9334 3.43655 11.8976L3.01434 11.715ZM3.19815 11.4601C3.11915 11.5308 3.0564 11.6177 3.01434 11.715L3.43655 11.8976C3.45207 11.8617 3.47531 11.8294 3.50481 11.803L3.19815 11.4601ZM4.69028 9.9809L3.18957 11.4682L3.51338 11.7949L5.01409 10.3076L4.69028 9.9809ZM4.62218 7.61031V10.1443H5.08218V7.61031H4.62218ZM4.70999 6.65278C4.65456 6.96656 4.6249 7.2861 4.62219 7.60838L5.08217 7.61225C5.08467 7.31564 5.11197 7.02157 5.16298 6.7328L4.70999 6.65278ZM6.09834 7.20323L5.06563 6.50247L4.80734 6.88311L5.84004 7.58387L6.09834 7.20323ZM10.4103 15.6432C10.0284 15.6432 9.6626 15.4928 9.39318 15.2258L9.06937 15.5525C9.42537 15.9054 9.90777 16.1032 10.4103 16.1032V15.6432ZM11.4275 15.2258C11.1581 15.4928 10.7922 15.6432 10.4103 15.6432V16.1032C10.9129 16.1032 11.3953 15.9054 11.7513 15.5525L11.4275 15.2258ZM11.8478 14.2206C11.8478 14.5972 11.6969 14.9589 11.4275 15.2258L11.7513 15.5525C12.1074 15.1996 12.3078 14.7206 12.3078 14.2206H11.8478ZM8.74289 14.4506H12.0778V13.9906H8.74289V14.4506ZM9.39318 15.2258C9.12383 14.9589 8.97289 14.5972 8.97289 14.2206H8.51289C8.51289 14.7206 8.71331 15.1996 9.06937 15.5525L9.39318 15.2258Z" fill="#ADB3CC" mask="url(#path-1-outside-1)"/>
<path fill-rule="evenodd" clip-rule="evenodd" d="M19.4741 16.5411L-0.00019492 3.13752L0.714844 2.09863L20.1891 15.5022L19.4741 16.5411Z" fill="#ADB3CC"/>
</svg>
