<svg width="23" height="19" viewBox="0 0 23 19" fill="none" xmlns="http://www.w3.org/2000/svg">
<mask id="path-1-outside-1" maskUnits="userSpaceOnUse" x="2.63672" y="-0.599609" width="18" height="20" fill="black">
<rect fill="white" x="2.63672" y="-0.599609" width="18" height="20"/>
<path fill-rule="evenodd" clip-rule="evenodd" d="M20.1011 13.4684V12.9514C20.1033 12.8689 20.0875 12.7869 20.0547 12.7111C20.0219 12.6352 19.9729 12.5673 19.9111 12.5121L18.2015 10.8177V7.93097C18.1995 6.37262 17.6165 4.86997 16.5647 3.71166C15.5128 2.55335 14.0662 1.82107 12.5027 1.65549V1.03359C12.5027 0.683882 12.2193 0.400391 11.8696 0.400391C11.5198 0.400391 11.2364 0.683882 11.2364 1.03359V1.65549C9.67722 1.83164 8.23697 2.56706 7.18721 3.72306C7.00331 3.92557 6.83363 4.13853 6.67875 4.36043L7.71261 5.06197C7.88247 4.82023 8.07459 4.59219 8.28766 4.38102C9.23764 3.43952 10.5261 2.91058 11.8696 2.91058C13.213 2.91058 14.5015 3.43952 15.4514 4.38102C16.4014 5.32252 16.9351 6.59948 16.9351 7.93097V11.0687C16.9329 11.1512 16.9487 11.2332 16.9815 11.309C16.9912 11.3315 17.0023 11.3532 17.0148 11.3742L20.1011 13.4684ZM6.82441 7.48051C6.81085 7.62969 6.80399 7.77998 6.80399 7.93097V11.0687C6.80623 11.1512 6.7904 11.2332 6.75761 11.309C6.72482 11.3848 6.67583 11.4527 6.61403 11.508L4.90441 13.2024V14.2064H16.7363L18.5859 15.4615H15.0355C15.0355 16.2937 14.702 17.0918 14.1082 17.6803C13.5145 18.2687 12.7092 18.5993 11.8696 18.5993C11.0299 18.5993 10.2246 18.2687 9.63087 17.6803C9.03713 17.0918 8.70358 16.2937 8.70358 15.4615H4.27121C4.18661 15.4671 4.10179 15.4547 4.02243 15.4251C3.94307 15.3955 3.871 15.3495 3.81105 15.2901C3.7511 15.2306 3.70465 15.1592 3.6748 15.0806C3.64496 15.0019 3.63242 14.9178 3.63802 14.834V12.9514C3.63578 12.8689 3.65161 12.7869 3.6844 12.7111C3.71719 12.6352 3.76617 12.5673 3.82798 12.5121L5.5376 10.8177V7.93097C5.54111 7.51365 5.58593 7.10055 5.66992 6.6971L6.82441 7.48051ZM10.5263 16.7928C10.8826 17.1458 11.3658 17.3442 11.8696 17.3442C12.3734 17.3442 12.8565 17.1458 13.2128 16.7928C13.569 16.4397 13.7691 15.9609 13.7691 15.4615H9.96997C9.96997 15.9609 10.1701 16.4397 10.5263 16.7928Z"/>
</mask>
<path fill-rule="evenodd" clip-rule="evenodd" d="M20.1011 13.4684V12.9514C20.1033 12.8689 20.0875 12.7869 20.0547 12.7111C20.0219 12.6352 19.9729 12.5673 19.9111 12.5121L18.2015 10.8177V7.93097C18.1995 6.37262 17.6165 4.86997 16.5647 3.71166C15.5128 2.55335 14.0662 1.82107 12.5027 1.65549V1.03359C12.5027 0.683882 12.2193 0.400391 11.8696 0.400391C11.5198 0.400391 11.2364 0.683882 11.2364 1.03359V1.65549C9.67722 1.83164 8.23697 2.56706 7.18721 3.72306C7.00331 3.92557 6.83363 4.13853 6.67875 4.36043L7.71261 5.06197C7.88247 4.82023 8.07459 4.59219 8.28766 4.38102C9.23764 3.43952 10.5261 2.91058 11.8696 2.91058C13.213 2.91058 14.5015 3.43952 15.4514 4.38102C16.4014 5.32252 16.9351 6.59948 16.9351 7.93097V11.0687C16.9329 11.1512 16.9487 11.2332 16.9815 11.309C16.9912 11.3315 17.0023 11.3532 17.0148 11.3742L20.1011 13.4684ZM6.82441 7.48051C6.81085 7.62969 6.80399 7.77998 6.80399 7.93097V11.0687C6.80623 11.1512 6.7904 11.2332 6.75761 11.309C6.72482 11.3848 6.67583 11.4527 6.61403 11.508L4.90441 13.2024V14.2064H16.7363L18.5859 15.4615H15.0355C15.0355 16.2937 14.702 17.0918 14.1082 17.6803C13.5145 18.2687 12.7092 18.5993 11.8696 18.5993C11.0299 18.5993 10.2246 18.2687 9.63087 17.6803C9.03713 17.0918 8.70358 16.2937 8.70358 15.4615H4.27121C4.18661 15.4671 4.10179 15.4547 4.02243 15.4251C3.94307 15.3955 3.871 15.3495 3.81105 15.2901C3.7511 15.2306 3.70465 15.1592 3.6748 15.0806C3.64496 15.0019 3.63242 14.9178 3.63802 14.834V12.9514C3.63578 12.8689 3.65161 12.7869 3.6844 12.7111C3.71719 12.6352 3.76617 12.5673 3.82798 12.5121L5.5376 10.8177V7.93097C5.54111 7.51365 5.58593 7.10055 5.66992 6.6971L6.82441 7.48051ZM10.5263 16.7928C10.8826 17.1458 11.3658 17.3442 11.8696 17.3442C12.3734 17.3442 12.8565 17.1458 13.2128 16.7928C13.569 16.4397 13.7691 15.9609 13.7691 15.4615H9.96997C9.96997 15.9609 10.1701 16.4397 10.5263 16.7928Z" fill="#ABAEBB"/>
<path d="M20.1011 13.4684L19.9719 13.6588L20.3311 13.9025V13.4684H20.1011ZM20.1011 12.9514L19.8711 12.9451V12.9514H20.1011ZM20.0547 12.7111L20.2658 12.6198L20.2658 12.6198L20.0547 12.7111ZM19.9111 12.5121L19.749 12.6756L19.7578 12.6835L19.9111 12.5121ZM18.2015 10.8177H17.9715V10.9136L18.0396 10.9811L18.2015 10.8177ZM18.2015 7.93097H18.4315L18.4315 7.93067L18.2015 7.93097ZM16.5647 3.71166L16.735 3.55704L16.5647 3.71166ZM12.5027 1.65549H12.2727V1.86241L12.4785 1.88421L12.5027 1.65549ZM11.2364 1.65549L11.2622 1.88403L11.4664 1.86096V1.65549H11.2364ZM7.18721 3.72306L7.35748 3.87769L7.18721 3.72306ZM6.67875 4.36043L6.49014 4.22878L6.35676 4.41989L6.5496 4.55075L6.67875 4.36043ZM7.71261 5.06197L7.58346 5.25229L7.7707 5.37935L7.9008 5.1942L7.71261 5.06197ZM8.28766 4.38102L8.44956 4.54438L8.28766 4.38102ZM16.9351 11.0687L17.1651 11.0749V11.0687H16.9351ZM16.9815 11.309L17.1926 11.2177L17.1926 11.2177L16.9815 11.309ZM17.0148 11.3742L16.8172 11.4918L16.8433 11.5358L16.8857 11.5645L17.0148 11.3742ZM6.82441 7.48051L7.05347 7.50132L7.06573 7.36631L6.95356 7.29019L6.82441 7.48051ZM6.80399 11.0687H6.57391L6.57408 11.0749L6.80399 11.0687ZM6.75761 11.309L6.96872 11.4003L6.96872 11.4003L6.75761 11.309ZM6.61403 11.508L6.4605 11.3363L6.45213 11.3446L6.61403 11.508ZM4.90441 13.2024L4.7425 13.039L4.67441 13.1065V13.2024H4.90441ZM4.90441 14.2064H4.67441V14.4364H4.90441V14.2064ZM16.7363 14.2064L16.8655 14.0161L16.807 13.9764H16.7363V14.2064ZM18.5859 15.4615V15.6915H19.3345L18.7151 15.2712L18.5859 15.4615ZM15.0355 15.4615V15.2315H14.8055V15.4615H15.0355ZM14.1082 17.6803L14.2701 17.8436L14.1082 17.6803ZM9.63087 17.6803L9.46896 17.8436L9.63087 17.6803ZM8.70358 15.4615H8.93358V15.2315H8.70358V15.4615ZM4.27121 15.4615V15.2315H4.26368L4.25616 15.232L4.27121 15.4615ZM4.02243 15.4251L3.94211 15.6406H3.94211L4.02243 15.4251ZM3.81105 15.2901L3.97295 15.1267L3.81105 15.2901ZM3.63802 14.834L3.86751 14.8493L3.86802 14.8417V14.834H3.63802ZM3.63802 12.9514H3.8681L3.86793 12.9451L3.63802 12.9514ZM3.6844 12.7111L3.47329 12.6198L3.6844 12.7111ZM3.82798 12.5121L3.98151 12.6837L3.98988 12.6754L3.82798 12.5121ZM5.5376 10.8177L5.69951 10.9811L5.7676 10.9136V10.8177H5.5376ZM5.5376 7.93097L5.3076 7.92903V7.93097H5.5376ZM5.66992 6.6971L5.79907 6.50678L5.51477 6.31387L5.44475 6.65023L5.66992 6.6971ZM10.5263 16.7928L10.6882 16.6294H10.6882L10.5263 16.7928ZM13.2128 16.7928L13.0509 16.6294L13.2128 16.7928ZM13.7691 15.4615H13.9991V15.2315H13.7691V15.4615ZM9.96997 15.4615V15.2315H9.73997V15.4615H9.96997ZM20.3311 13.4684V12.9514H19.8711V13.4684H20.3311ZM20.331 12.9576C20.3341 12.8416 20.3119 12.7263 20.2658 12.6198L19.8436 12.8024C19.8631 12.8475 19.8725 12.8962 19.8712 12.9451L20.331 12.9576ZM20.2658 12.6198C20.2197 12.5133 20.151 12.418 20.0645 12.3406L19.7578 12.6835C19.7949 12.7166 19.8241 12.7572 19.8436 12.8024L20.2658 12.6198ZM20.073 12.3487L18.3634 10.6543L18.0396 10.9811L19.7492 12.6754L20.073 12.3487ZM18.4315 10.8177V7.93097H17.9715V10.8177H18.4315ZM18.4315 7.93067C18.4294 6.315 17.825 4.75741 16.735 3.55704L16.3944 3.86628C17.4081 4.98253 17.9695 6.43025 17.9715 7.93127L18.4315 7.93067ZM16.735 3.55704C15.6449 2.35672 14.1463 1.59826 12.527 1.42677L12.4785 1.88421C13.9862 2.04388 15.3807 2.74998 16.3944 3.86628L16.735 3.55704ZM12.7327 1.65549V1.03359H12.2727V1.65549H12.7327ZM12.7327 1.03359C12.7327 0.556856 12.3463 0.170391 11.8696 0.170391V0.630391C12.0922 0.630391 12.2727 0.810907 12.2727 1.03359H12.7327ZM11.8696 0.170391C11.3928 0.170391 11.0064 0.556856 11.0064 1.03359H11.4664C11.4664 0.810907 11.6469 0.630391 11.8696 0.630391V0.170391ZM11.0064 1.03359V1.65549H11.4664V1.03359H11.0064ZM11.2105 1.42694C9.59616 1.60934 8.10447 2.37084 7.01694 3.56844L7.35748 3.87769C8.36948 2.76327 9.75827 2.05395 11.2622 1.88403L11.2105 1.42694ZM7.01694 3.56844C6.82643 3.77823 6.65062 3.99887 6.49014 4.22878L6.86735 4.49207C7.01663 4.27819 7.1802 4.07291 7.35748 3.87769L7.01694 3.56844ZM6.5496 4.55075L7.58346 5.25229L7.84175 4.87165L6.80789 4.17011L6.5496 4.55075ZM7.9008 5.1942C8.06287 4.96354 8.2462 4.74593 8.44956 4.54438L8.12576 4.21766C7.90298 4.43845 7.70207 4.67691 7.52442 4.92975L7.9008 5.1942ZM8.44956 4.54438C9.35625 3.64578 10.5864 3.14058 11.8696 3.14058V2.68058C10.4657 2.68058 9.11902 3.23325 8.12576 4.21766L8.44956 4.54438ZM11.8696 3.14058C13.1527 3.14058 14.3828 3.64578 15.2895 4.54438L15.6133 4.21766C14.6201 3.23325 13.2734 2.68058 11.8696 2.68058V3.14058ZM15.2895 4.54438C16.1962 5.44291 16.7051 6.66115 16.7051 7.93097H17.1651C17.1651 6.53781 16.6067 5.20213 15.6133 4.21766L15.2895 4.54438ZM16.7051 7.93097V11.0687H17.1651V7.93097H16.7051ZM16.7052 11.0625C16.7021 11.1785 16.7243 11.2937 16.7704 11.4003L17.1926 11.2177C17.1731 11.1726 17.1637 11.1239 17.165 11.0749L16.7052 11.0625ZM16.7704 11.4003C16.784 11.4318 16.7997 11.4624 16.8172 11.4918L17.2125 11.2566C17.205 11.2441 17.1984 11.2311 17.1926 11.2177L16.7704 11.4003ZM16.8857 11.5645L19.9719 13.6588L20.2302 13.2781L17.144 11.1839L16.8857 11.5645ZM7.03399 7.93097C7.03399 7.78695 7.04054 7.6436 7.05347 7.50132L6.59535 7.45969C6.58117 7.61577 6.57399 7.77301 6.57399 7.93097H7.03399ZM7.03399 11.0687V7.93097H6.57399V11.0687H7.03399ZM6.96872 11.4003C7.01479 11.2937 7.03705 11.1785 7.03391 11.0625L6.57408 11.0749C6.5754 11.1239 6.56602 11.1726 6.5465 11.2177L6.96872 11.4003ZM6.76736 11.6794C6.85391 11.602 6.92265 11.5068 6.96872 11.4003L6.5465 11.2177C6.52698 11.2628 6.49776 11.3034 6.4607 11.3366L6.76736 11.6794ZM5.06631 13.3657L6.77594 11.6714L6.45213 11.3446L4.7425 13.039L5.06631 13.3657ZM5.13441 14.2064V13.2024H4.67441V14.2064H5.13441ZM16.7363 13.9764H4.90441V14.4364H16.7363V13.9764ZM18.7151 15.2712L16.8655 14.0161L16.6072 14.3968L18.4568 15.6519L18.7151 15.2712ZM15.0355 15.6915H18.5859V15.2315H15.0355V15.6915ZM14.2701 17.8436C14.9072 17.2122 15.2655 16.3554 15.2655 15.4615H14.8055C14.8055 16.2321 14.4967 16.9714 13.9463 17.5169L14.2701 17.8436ZM11.8696 18.8293C12.7696 18.8293 13.6331 18.475 14.2701 17.8436L13.9463 17.5169C13.3959 18.0624 12.6489 18.3693 11.8696 18.3693V18.8293ZM9.46896 17.8436C10.106 18.475 10.9695 18.8293 11.8696 18.8293V18.3693C11.0902 18.3693 10.3432 18.0624 9.79277 17.5169L9.46896 17.8436ZM8.47358 15.4615C8.47358 16.3554 8.83187 17.2122 9.46896 17.8436L9.79277 17.5169C9.2424 16.9714 8.93358 16.2321 8.93358 15.4615H8.47358ZM4.27121 15.6915H8.70358V15.2315H4.27121V15.6915ZM3.94211 15.6406C4.05195 15.6815 4.16927 15.6987 4.28626 15.6911L4.25616 15.232C4.20395 15.2355 4.15164 15.2278 4.10275 15.2096L3.94211 15.6406ZM3.64915 15.4534C3.73237 15.5359 3.83227 15.5997 3.94211 15.6406L4.10275 15.2096C4.05387 15.1913 4.00964 15.1631 3.97295 15.1267L3.64915 15.4534ZM3.45976 15.1621C3.50131 15.2717 3.56592 15.3709 3.64915 15.4534L3.97295 15.1267C3.93627 15.0903 3.90798 15.0468 3.88985 14.999L3.45976 15.1621ZM3.40853 14.8187C3.40073 14.9355 3.41821 15.0526 3.45976 15.1621L3.88985 14.999C3.87171 14.9512 3.86411 14.9002 3.86751 14.8493L3.40853 14.8187ZM3.40802 12.9514V14.834H3.86802V12.9514H3.40802ZM3.47329 12.6198C3.42722 12.7263 3.40496 12.8416 3.4081 12.9576L3.86793 12.9451C3.86661 12.8962 3.87599 12.8475 3.89551 12.8024L3.47329 12.6198ZM3.67464 12.3406C3.5881 12.418 3.51936 12.5133 3.47329 12.6198L3.89551 12.8024C3.91502 12.7572 3.94425 12.7166 3.98131 12.6835L3.67464 12.3406ZM5.3757 10.6543L3.66607 12.3487L3.98988 12.6754L5.69951 10.9811L5.3757 10.6543ZM5.3076 7.93097V10.8177H5.7676V7.93097H5.3076ZM5.44475 6.65023C5.3577 7.06836 5.31125 7.49652 5.30761 7.92903L5.76759 7.9329C5.77098 7.53078 5.81417 7.13273 5.89509 6.74398L5.44475 6.65023ZM6.95356 7.29019L5.79907 6.50678L5.54078 6.88742L6.69526 7.67083L6.95356 7.29019ZM11.8696 17.1142C11.4261 17.1142 11.0012 16.9396 10.6882 16.6294L10.3644 16.9561C10.764 17.3521 11.3054 17.5742 11.8696 17.5742V17.1142ZM13.0509 16.6294C12.7379 16.9396 12.313 17.1142 11.8696 17.1142V17.5742C12.4337 17.5742 12.9751 17.3521 13.3747 16.9561L13.0509 16.6294ZM13.5391 15.4615C13.5391 15.8992 13.3637 16.3193 13.0509 16.6294L13.3747 16.9561C13.7743 16.5601 13.9991 16.0225 13.9991 15.4615H13.5391ZM9.96997 15.6915H13.7691V15.2315H9.96997V15.6915ZM10.6882 16.6294C10.3754 16.3193 10.2 15.8992 10.2 15.4615H9.73997C9.73997 16.0225 9.96484 16.5601 10.3644 16.9561L10.6882 16.6294Z" fill="#ABAEBB" mask="url(#path-1-outside-1)"/>
<path fill-rule="evenodd" clip-rule="evenodd" d="M22.1872 18.1035L0.00182238 2.83391L0.816406 1.65039L23.0018 16.92L22.1872 18.1035Z" fill="#ABAEBB"/>
</svg>
