<svg xmlns="http://www.w3.org/2000/svg" width="24" height="24" viewBox="0 0 24 24"><defs><style>.a{fill:#8C91F9;}.b{fill:none;}</style></defs><path class="a" d="M12.32,5.39l2.07,4.185.345.75.75.112,4.62.668L16.82,14.33l-.562.548.135.75.788,4.6-4.133-2.167-.727-.307-.7.368L7.49,20.255l.75-4.6.135-.75L7.82,14.33,4.505,11.068l4.62-.668.75-.112.345-.75,2.1-4.148m0-3.39L8.907,8.915l-7.627,1.1L6.8,15.4,5.5,23l6.825-3.585L19.145,23,17.84,15.4l5.52-5.377-7.628-1.11Z" transform="translate(-0.32 -0.5)"/><rect class="b" width="24" height="24"/></svg>