<svg width="15" height="15" viewBox="0 0 15 15" fill="none" xmlns="http://www.w3.org/2000/svg">
<path fill-rule="evenodd" clip-rule="evenodd" d="M9.84209 9.73662C10.168 9.41071 10.6964 9.41071 11.0223 9.73662L14.3604 13.0747C14.6863 13.4007 14.6863 13.929 14.3604 14.255C14.0345 14.5809 13.5061 14.5809 13.1802 14.255L9.84209 10.9168C9.51618 10.5909 9.51618 10.0625 9.84209 9.73662Z" fill="white"/>
<path fill-rule="evenodd" clip-rule="evenodd" d="M6.73027 1.46043C4.10891 1.46043 1.98387 3.58547 1.98387 6.20683C1.98387 8.8282 4.10891 10.9532 6.73027 10.9532C9.35164 10.9532 11.4767 8.8282 11.4767 6.20683C11.4767 3.58547 9.35164 1.46043 6.73027 1.46043ZM0.523438 6.20683C0.523438 2.77889 3.30233 0 6.73027 0C10.1582 0 12.9371 2.77889 12.9371 6.20683C12.9371 9.63477 10.1582 12.4137 6.73027 12.4137C3.30233 12.4137 0.523438 9.63477 0.523438 6.20683Z" fill="white"/>
<path fill-rule="evenodd" clip-rule="evenodd" d="M6.73137 2.45312C7.07704 2.45312 7.35727 2.73335 7.35727 3.07902V5.94926L8.73869 7.33069C8.98312 7.57512 8.98312 7.97142 8.73869 8.21585C8.49426 8.46028 8.09797 8.46028 7.85354 8.21585L6.28879 6.6511C6.17141 6.53372 6.10547 6.37452 6.10547 6.20852V3.07902C6.10547 2.73335 6.38569 2.45312 6.73137 2.45312Z" fill="white"/>
</svg>
