<svg xmlns="http://www.w3.org/2000/svg" width="16" height="16" viewBox="0 0 16 16"><defs><style>.a{fill:#ffffff;}</style></defs><path class="a" d="M19.807,7.527,16.473,4.193A.667.667,0,0,0,16,4H5.333A1.333,1.333,0,0,0,4,5.333V18.667A1.333,1.333,0,0,0,5.333,20H18.667A1.333,1.333,0,0,0,20,18.667V8A.667.667,0,0,0,19.807,7.527ZM9.333,5.333h5.333V8H9.333Zm5.333,13.333H9.333V13.333h5.333Zm1.333,0V13.333A1.333,1.333,0,0,0,14.667,12H9.333A1.333,1.333,0,0,0,8,13.333v5.333H5.333V5.333H8V8A1.333,1.333,0,0,0,9.333,9.333h5.333A1.333,1.333,0,0,0,16,8V5.607l2.667,2.667V18.667Z" transform="translate(-4 -4)"/></svg>