<svg xmlns="http://www.w3.org/2000/svg" width="14.857" height="16" viewBox="0 0 14.857 16"><path d="M-1920.054,3970.251a1.143,1.143,0,0,1-1.143-1.143v-1.143a1.142,1.142,0,0,1,1.143-1.142h5.715a1.142,1.142,0,0,1,1.142,1.142v1.143a1.143,1.143,0,0,1-1.142,1.143Zm0-1.143h5.715v-1.143h-5.715Zm0-3.428a1.143,1.143,0,0,1-1.143-1.143v-2.286h-2.857a.57.57,0,0,1-.527-.353.572.572,0,0,1,.123-.622l6.857-6.857a.572.572,0,0,1,.808,0l6.857,6.857a.572.572,0,0,1,.124.622.57.57,0,0,1-.527.353h-2.857v2.286a1.144,1.144,0,0,1-1.142,1.143Zm-2.621-4.572h2.621v3.429h5.715v-3.429h2.62l-5.478-5.478Z" transform="translate(1924.625 -3954.251)" fill="#e8e8e9"/></svg>