<svg xmlns="http://www.w3.org/2000/svg" width="14" height="14" viewBox="0 0 14 14">
  <g id="view-filled" transform="translate(-0.005 -0.005)">
    <circle id="Ellipse_42" data-name="Ellipse 42" cx="2" cy="2" r="2" transform="translate(5.005 5.005)" fill="#abaebb"/>
    <path id="Path_11108" data-name="Path 11108" d="M14.108,9.667A7.307,7.307,0,0,0,7.567,5,7.307,7.307,0,0,0,1.027,9.667a.438.438,0,0,0,0,.3,7.307,7.307,0,0,0,6.541,4.667,7.307,7.307,0,0,0,6.541-4.667A.438.438,0,0,0,14.108,9.667ZM7.567,12.662a2.846,2.846,0,1,1,2.846-2.846,2.846,2.846,0,0,1-2.846,2.846Z" transform="translate(-0.562 -2.811)" fill="#abaebb"/>
    <rect id="_Transparent_Rectangle_" data-name="&lt;Transparent Rectangle&gt;" width="14" height="14" transform="translate(0.005 0.005)" fill="none"/>
  </g>
</svg>
