<svg id="user_1_" data-name="user (1)" xmlns="http://www.w3.org/2000/svg" width="16" height="16" viewBox="0 0 16 16">
  <path id="Path_11136" data-name="Path 11136" d="M12.5,3A2.5,2.5,0,1,1,10,5.5,2.5,2.5,0,0,1,12.5,3m0-1A3.5,3.5,0,1,0,16,5.5,3.5,3.5,0,0,0,12.5,2Z" transform="translate(-4.5 -1)" fill="#fff"/>
  <path id="Path_11137" data-name="Path 11137" d="M16,24H15V21.5A2.5,2.5,0,0,0,12.5,19h-3A2.5,2.5,0,0,0,7,21.5V24H6V21.5A3.5,3.5,0,0,1,9.5,18h3A3.5,3.5,0,0,1,16,21.5Z" transform="translate(-3 -9)" fill="#fff"/>
  <rect id="_Transparent_Rectangle_" data-name="&lt;Transparent Rectangle&gt;" width="16" height="16" fill="none"/>
</svg>
