<svg xmlns="http://www.w3.org/2000/svg" width="15.751" height="15.751" viewBox="0 0 15.751 15.751"><defs><style>.a{fill:#abaebb;}</style></defs><path class="a" d="M-782.375,3708.75v-2.813a2.816,2.816,0,0,0-2.813-2.813V3702a3.942,3.942,0,0,1,3.938,3.937v2.813Zm-4.5,0v-2.813a2.816,2.816,0,0,0-2.812-2.813h-3.375a2.816,2.816,0,0,0-2.813,2.813v2.813H-797v-2.813a3.941,3.941,0,0,1,3.938-3.937h3.375a3.941,3.941,0,0,1,3.937,3.937v2.813Zm0-9a2.812,2.812,0,0,0,2.813-2.812,2.813,2.813,0,0,0-2.813-2.813V3693a3.938,3.938,0,0,1,3.938,3.938,3.938,3.938,0,0,1-3.938,3.937Zm-8.437-2.812a3.938,3.938,0,0,1,3.938-3.938,3.938,3.938,0,0,1,3.937,3.938,3.937,3.937,0,0,1-3.937,3.937A3.938,3.938,0,0,1-795.313,3696.938Zm1.125,0a2.812,2.812,0,0,0,2.813,2.812,2.812,2.812,0,0,0,2.812-2.812,2.813,2.813,0,0,0-2.812-2.813A2.813,2.813,0,0,0-794.187,3696.938Z" transform="translate(797 -3693)"/></svg>