<svg xmlns="http://www.w3.org/2000/svg" width="17.066" height="16" viewBox="0 0 17.066 16"><path d="M3.059,16.429a.566.566,0,0,0,.8.632l4.682-2.406,4.681,2.406a.566.566,0,0,0,.8-.631l-.885-5.045,3.758-3.579a.593.593,0,0,0-.3-1.013L11.36,6.05,9.03,1.435a.547.547,0,0,0-.989,0L5.712,6.051.488,6.793a.593.593,0,0,0-.3,1.013l3.758,3.579L3.059,16.43ZM8.29,13.477,4.359,15.5l.74-4.22a.6.6,0,0,0-.174-.538l-3.1-2.955,4.322-.614a.56.56,0,0,0,.419-.307l1.97-3.9,1.969,3.9a.56.56,0,0,0,.419.307l4.322.613-3.1,2.954a.6.6,0,0,0-.174.54l.74,4.22-3.931-2.02a.537.537,0,0,0-.492,0Z" transform="translate(-0.003 -1.122)" fill="#4D5267" fill-rule="evenodd"/></svg>