<svg width="17" height="16" viewBox="0 0 17 16" fill="none" xmlns="http://www.w3.org/2000/svg">
<path d="M16.5416 7.25665C16.7322 7.11661 16.8736 6.92126 16.946 6.69798C17.0183 6.47469 17.018 6.23468 16.945 6.01159C16.8721 5.7885 16.7302 5.59352 16.5392 5.454C16.3482 5.31447 16.1177 5.23738 15.88 5.23356L11.2643 5.06159C11.2416 5.06005 11.2199 5.05207 11.2017 5.03861C11.1835 5.02514 11.1696 5.00678 11.1617 4.98573L9.56675 0.73724C9.48661 0.521093 9.34106 0.334452 9.14979 0.202586C8.95853 0.0707203 8.7308 0 8.49744 0C8.26407 0 8.03634 0.0707203 7.84508 0.202586C7.65382 0.334452 7.50826 0.521093 7.42812 0.73724L5.83826 5.0009C5.8304 5.02195 5.81654 5.04032 5.79834 5.05378C5.78014 5.06724 5.75838 5.07522 5.73569 5.07677L1.11996 5.24873C0.882299 5.25256 0.651816 5.32964 0.460825 5.46917C0.269834 5.6087 0.127911 5.80368 0.0549565 6.02677C-0.0179978 6.24986 -0.0183251 6.48987 0.0540204 6.71315C0.126366 6.93643 0.267756 7.13178 0.458367 7.27182L4.07915 10.0789C4.09727 10.0929 4.11082 10.1119 4.11811 10.1335C4.1254 10.1551 4.12612 10.1783 4.12018 10.2002L2.87393 14.5549C2.80935 14.7767 2.81561 15.0127 2.89185 15.2308C2.96809 15.4489 3.11062 15.6386 3.30004 15.774C3.48946 15.9094 3.71658 15.984 3.9505 15.9876C4.18443 15.9912 4.41379 15.9236 4.6074 15.7941L8.43333 13.2652C8.45218 13.2524 8.47453 13.2455 8.49744 13.2455C8.52034 13.2455 8.5427 13.2524 8.56154 13.2652L12.3875 15.7941C12.5785 15.928 12.807 16 13.0414 16C13.2757 16 13.5043 15.928 13.6953 15.7941C13.8847 15.66 14.0274 15.4712 14.1036 15.2538C14.1799 15.0365 14.1859 14.8011 14.1209 14.5802L12.8644 10.2104C12.8578 10.1884 12.8581 10.165 12.8655 10.1433C12.8728 10.1215 12.8868 10.1026 12.9055 10.089L16.5416 7.25665Z" fill="#4E54C8"/>
</svg>
