<svg xmlns="http://www.w3.org/2000/svg" width="24" height="24" viewBox="0 0 24 24"><defs><style>.a{fill:#ffffff;}.b{fill:none;}</style></defs><path class="a" d="M13.805,23.5,12.5,22.75l3-5.25H20A1.5,1.5,0,0,0,21.5,16V7A1.5,1.5,0,0,0,20,5.5H5A1.5,1.5,0,0,0,3.5,7v9A1.5,1.5,0,0,0,5,17.5h6.75V19H5a3,3,0,0,1-3-3V7A3,3,0,0,1,5,4H20a3,3,0,0,1,3,3v9a3,3,0,0,1-3,3H16.37Z" transform="translate(-0.5 -1)"/><rect class="a" width="12" height="1.5" transform="translate(6 7.5)"/><rect class="a" width="7.5" height="1.5" transform="translate(6 12)"/><rect class="b" width="24" height="24"/></svg>