<svg width="24" height="24" viewBox="0 0 24 24" fill="none" xmlns="http://www.w3.org/2000/svg">
<path d="M20.27 6.38L16 11V8C16 7.46957 15.7893 6.96086 15.4142 6.58579C15.0391 6.21071 14.5304 6 14 6H4C3.46957 6 2.96086 6.21071 2.58579 6.58579C2.21071 6.96086 2 7.46957 2 8V18C2 18.5304 2.21071 19.0391 2.58579 19.4142C2.96086 19.7893 3.46957 20 4 20H14C14.5304 20 15.0391 19.7893 15.4142 19.4142C15.7893 19.0391 16 18.5304 16 18V15.5L20.29 19.79C20.4293 19.9304 20.6071 20.0264 20.8009 20.0658C20.9947 20.1052 21.1958 20.0862 21.3789 20.0113C21.5619 19.9363 21.7186 19.8088 21.8292 19.6448C21.9397 19.4809 21.9992 19.2878 22 19.09V7.09C22.0055 6.88715 21.9491 6.68743 21.8384 6.51738C21.7276 6.34732 21.5678 6.21499 21.38 6.13794C21.1923 6.06089 20.9856 6.04278 20.7873 6.08602C20.589 6.12926 20.4086 6.23179 20.27 6.38V6.38Z" fill="#8C91F9"/>
</svg>
