<svg width="21" height="23" viewBox="0 0 21 23" fill="none" xmlns="http://www.w3.org/2000/svg">
<path fill-rule="evenodd" clip-rule="evenodd" d="M0.87773 3.7C1.43973 3.13799 2.20197 2.82227 2.99676 2.82227H9.98919C10.5409 2.82227 10.9881 3.2695 10.9881 3.82118C10.9881 4.37287 10.5409 4.8201 9.98919 4.8201H2.99676C2.73183 4.8201 2.47775 4.92535 2.29041 5.11268C2.10308 5.30001 1.99784 5.55409 1.99784 5.81902V19.8039C1.99784 20.0688 2.10308 20.3229 2.29041 20.5102C2.47775 20.6976 2.73183 20.8028 2.99676 20.8028H16.9816C17.2465 20.8028 17.5006 20.6976 17.688 20.5102C17.8753 20.3229 17.9805 20.0688 17.9805 19.8039V12.8115C17.9805 12.2598 18.4278 11.8125 18.9795 11.8125C19.5311 11.8125 19.9784 12.2598 19.9784 12.8115V19.8039C19.9784 20.5987 19.6626 21.3609 19.1006 21.9229C18.5386 22.4849 17.7764 22.8006 16.9816 22.8006H2.99676C2.20197 22.8006 1.43973 22.4849 0.87773 21.9229C0.315729 21.3609 0 20.5987 0 19.8039V5.81902C0 5.02423 0.315729 4.262 0.87773 3.7Z" fill="url(#paint0_linear)"/>
<path fill-rule="evenodd" clip-rule="evenodd" d="M17.4194 2.42825C17.1179 2.42825 16.8287 2.54804 16.6155 2.76126L7.18171 12.195L6.64575 14.3389L8.78959 13.8029L18.2234 4.36914C18.4366 4.15592 18.5564 3.86673 18.5564 3.5652C18.5564 3.26366 18.4366 2.97448 18.2234 2.76126C18.0101 2.54804 17.721 2.42825 17.4194 2.42825ZM15.1816 1.32734C15.7751 0.733825 16.5801 0.400391 17.4194 0.400391C18.2588 0.400391 19.0638 0.733825 19.6573 1.32734C20.2508 1.92086 20.5842 2.72584 20.5842 3.5652C20.5842 4.40456 20.2508 5.20954 19.6573 5.80305L10.0249 15.4354C9.89498 15.5654 9.73216 15.6575 9.55388 15.7021L5.49815 16.716C5.15263 16.8024 4.78712 16.7012 4.53528 16.4493C4.28344 16.1975 4.1822 15.832 4.26858 15.4865L5.28251 11.4307C5.32708 11.2525 5.41926 11.0896 5.54921 10.9597L15.1816 1.32734Z" fill="url(#paint1_linear)"/>
<defs>
<linearGradient id="paint0_linear" x1="19.9784" y1="22.8006" x2="-0.987879" y2="3.91922" gradientUnits="userSpaceOnUse">
<stop offset="0.0011704" stop-color="#4E54C8"/>
<stop offset="1" stop-color="#8F94FB"/>
</linearGradient>
<linearGradient id="paint1_linear" x1="20.5842" y1="16.7463" x2="3.43002" y2="1.2979" gradientUnits="userSpaceOnUse">
<stop offset="0.0011704" stop-color="#4E54C8"/>
<stop offset="1" stop-color="#8F94FB"/>
</linearGradient>
</defs>
</svg>
