<svg id="dark-logo" xmlns="http://www.w3.org/2000/svg" xmlns:xlink="http://www.w3.org/1999/xlink" width="95.58" height="40" viewBox="0 0 95.58 40">
  <defs>
    <linearGradient id="linear-gradient" x1="0.996" y1="0.67" x2="0.005" y2="0.33" gradientUnits="objectBoundingBox">
      <stop offset="0.001" stop-color="#5056ca"/>
      <stop offset="0.353" stop-color="#5258cb"/>
      <stop offset="0.502" stop-color="#595fcd"/>
      <stop offset="0.613" stop-color="#666bd1"/>
      <stop offset="0.705" stop-color="#777cd6"/>
      <stop offset="0.786" stop-color="#8e92dd"/>
      <stop offset="0.858" stop-color="#abaee6"/>
      <stop offset="0.924" stop-color="#cdcff0"/>
      <stop offset="0.983" stop-color="#f3f3fb"/>
      <stop offset="1" stop-color="#fff"/>
    </linearGradient>
    <linearGradient id="linear-gradient-2" x1="0.5" y1="0" x2="0.5" y2="1" xlink:href="#linear-gradient"/>
    <linearGradient id="linear-gradient-3" x1="0" y1="0.704" x2="1" y2="0.328" xlink:href="#linear-gradient"/>
  </defs>
  <g id="Group_5560" data-name="Group 5560">
    <g id="Group_5559" data-name="Group 5559">
      <path id="Path_11885" data-name="Path 11885" d="M299.105,401.614c-.849.547-1.7,1.075-2.565,1.566-3.565,2.056-9,5.244-11.657,6.753a.556.556,0,0,0-.283.472v17.938a.554.554,0,0,0,.83.472l15.524-8.96a.556.556,0,0,0,.283-.472V401.425C301.143,400.444,299.9,401.1,299.105,401.614Zm-.924,16.637-9,5.187a.552.552,0,0,1-.754-.755l9-15.618a.546.546,0,0,1,1.019.283V417.76A.547.547,0,0,1,298.181,418.251Z" transform="translate(-265.983 -388.886)" fill="url(#linear-gradient)"/>
      <path id="Path_11886" data-name="Path 11886" d="M196.594,348.249s10.412,5.979,13.619,7.828a.564.564,0,0,0,.547,0l15.524-8.96a.548.548,0,0,0,0-.943L210.76,337.2a.564.564,0,0,0-.547,0l-15.562,8.979C193.482,347.023,196.2,347.853,196.594,348.249Zm14.166-7.828,9,5.206a.546.546,0,0,1-.283,1.019l-18.014.019a.548.548,0,0,1-.283-1.019l9.016-5.206A.482.482,0,0,1,210.76,340.421Z" transform="translate(-192.765 -337.125)" fill="url(#linear-gradient-2)"/>
      <path id="Path_11887" data-name="Path 11887" d="M188.031,401.614c.641.415,1.3.83,1.962,1.207,3.527,2.037,9.469,5.508,12.261,7.111a.556.556,0,0,1,.283.472v17.938a.554.554,0,0,1-.83.472l-15.524-8.96a.556.556,0,0,1-.283-.472V401.425C185.994,400.444,187.239,401.1,188.031,401.614Zm.924,16.637,9,5.187a.552.552,0,0,0,.755-.755l-9-15.618a.546.546,0,0,0-1.019.283V417.76A.547.547,0,0,0,188.956,418.251Z" transform="translate(-185.9 -388.886)" fill="url(#linear-gradient-3)"/>
    </g>
  </g>
  <g id="Group_5561" data-name="Group 5561" transform="translate(40.819 5.88)">
    <path id="Path_11888" data-name="Path 11888" d="M416.617,373.563H406.035l.83-5.263H428.67L413.9,385.522h11.582l-.811,5.187H402.3Z" transform="translate(-402.3 -368.3)" fill="#5056ca"/>
    <path id="Path_11889" data-name="Path 11889" d="M536.965,368.3h6.923l-3.546,22.409H533.4Z" transform="translate(-508.671 -368.3)" fill="#5056ca"/>
    <path id="Path_11890" data-name="Path 11890" d="M602.324,374.681a5.249,5.249,0,0,0-.924-4.489c-.962-1.188-2.716-1.792-5.3-1.792H585.046L581.5,390.809h10.959a11.529,11.529,0,0,0,4.734-.943,8.324,8.324,0,0,0,3.282-2.528,6.315,6.315,0,0,0,1.3-3.358,4.28,4.28,0,0,0-1.943-4.187,7.412,7.412,0,0,0-1.6-.755c.189-.075.377-.151.566-.245A5.8,5.8,0,0,0,602.324,374.681Zm-7.187,8.96a2.158,2.158,0,0,1-1.075,1.509,4.446,4.446,0,0,1-2.207.49H589.29l.6-3.867h3.056a2.527,2.527,0,0,1,1.83.528A1.323,1.323,0,0,1,595.138,383.641Zm.717-8.262a2.177,2.177,0,0,1-1.019,1.471,3.939,3.939,0,0,1-2.113.49h-2.131l.66-4.169h2.377a2.533,2.533,0,0,1,1.849.6A1.689,1.689,0,0,1,595.855,375.379Z" transform="translate(-547.698 -368.381)" fill="#5056ca"/>
  </g>
  <g id="Group_5562" data-name="Group 5562" transform="translate(40.97 32.024)">
    <path id="Path_11891" data-name="Path 11891" d="M404.571,508.358l-.622,3.942H403.1l.849-5.3h1.113l1.056,3.961,2.49-3.961h1.075l-.849,5.3h-.868l.622-3.961-2.4,3.961h-.66Z" transform="translate(-403.1 -506.981)" fill="#33333f"/>
    <path id="Path_11892" data-name="Path 11892" d="M443.892,507h3.546l-.113.773h-2.66l-.245,1.528h2.358l-.132.792h-2.339l-.226,1.434H446.8l-.113.792H443.1Z" transform="translate(-435.555 -506.981)" fill="#33333f"/>
    <path id="Path_11893" data-name="Path 11893" d="M472.025,512.287a1.894,1.894,0,0,1-.736-.641,1.392,1.392,0,0,1-.17-.924h.868a.961.961,0,0,0,.34.773,1.6,1.6,0,0,0,.981.3,2.3,2.3,0,0,0,1.094-.226.918.918,0,0,0,.509-.622.519.519,0,0,0-.264-.547,2.519,2.519,0,0,0-1.094-.245,2.7,2.7,0,0,1-1.471-.472,1.061,1.061,0,0,1-.34-1.056,1.6,1.6,0,0,1,.4-.773,2.278,2.278,0,0,1,.849-.547,3.071,3.071,0,0,1,1.113-.208,2.384,2.384,0,0,1,1.132.245,1.648,1.648,0,0,1,.7.641,1.772,1.772,0,0,1,.226.886h-.905a.957.957,0,0,0-.34-.7,1.322,1.322,0,0,0-.924-.283,1.974,1.974,0,0,0-.679.113,1.075,1.075,0,0,0-.472.3.679.679,0,0,0-.207.4.439.439,0,0,0,.17.472,1.536,1.536,0,0,0,.736.226l.189.019a3.149,3.149,0,0,1,1.717.49,1.073,1.073,0,0,1,.4,1.037,1.433,1.433,0,0,1-.4.811,2.31,2.31,0,0,1-.905.6,3.484,3.484,0,0,1-1.3.226A3.886,3.886,0,0,1,472.025,512.287Z" transform="translate(-458.274 -507.062)" fill="#33333f"/>
    <path id="Path_11894" data-name="Path 11894" d="M504.583,512.287a1.894,1.894,0,0,1-.736-.641,1.52,1.52,0,0,1-.189-.924h.868a.961.961,0,0,0,.34.773,1.6,1.6,0,0,0,.981.3,2.3,2.3,0,0,0,1.094-.226.918.918,0,0,0,.509-.622.519.519,0,0,0-.264-.547,2.518,2.518,0,0,0-1.094-.245,2.7,2.7,0,0,1-1.471-.472,1.061,1.061,0,0,1-.34-1.056,1.6,1.6,0,0,1,.4-.773,2.278,2.278,0,0,1,.849-.547,3.072,3.072,0,0,1,1.113-.208,2.384,2.384,0,0,1,1.132.245,1.648,1.648,0,0,1,.7.641,1.772,1.772,0,0,1,.226.886h-.905a.957.957,0,0,0-.34-.7,1.322,1.322,0,0,0-.924-.283,1.973,1.973,0,0,0-.679.113,1.075,1.075,0,0,0-.472.3.679.679,0,0,0-.207.4.439.439,0,0,0,.17.472,1.535,1.535,0,0,0,.736.226l.189.019a3.149,3.149,0,0,1,1.716.49,1.073,1.073,0,0,1,.4,1.037,1.433,1.433,0,0,1-.4.811,2.31,2.31,0,0,1-.905.6,3.484,3.484,0,0,1-1.3.226A3.9,3.9,0,0,1,504.583,512.287Z" transform="translate(-484.683 -507.062)" fill="#33333f"/>
    <path id="Path_11895" data-name="Path 11895" d="M537.511,507h3.546l-.113.773h-2.678l-.245,1.528h2.358l-.132.792h-2.339l-.226,1.434H540.4l-.113.792H536.7Z" transform="translate(-511.499 -506.981)" fill="#33333f"/>
    <path id="Path_11896" data-name="Path 11896" d="M566.89,508.358l-.622,3.942H565.4l.849-5.3h.868l2.226,4.055.641-4.055h.849l-.849,5.3h-.924Z" transform="translate(-534.786 -506.981)" fill="#33333f"/>
    <path id="Path_11897" data-name="Path 11897" d="M603.182,509.641l-.113.679h1.754a2.813,2.813,0,0,1-.34.566,2.022,2.022,0,0,1-.717.547,1.881,1.881,0,0,1-.849.208,1.488,1.488,0,0,1-.887-.245,1.283,1.283,0,0,1-.509-.7,1.961,1.961,0,0,1-.038-1,2.728,2.728,0,0,1,.4-.962,2.119,2.119,0,0,1,.736-.679,1.923,1.923,0,0,1,.962-.245,1.616,1.616,0,0,1,.773.17,1.049,1.049,0,0,1,.453.453,1.271,1.271,0,0,1,.151.566h.887a1.837,1.837,0,0,0-.208-.924,1.945,1.945,0,0,0-.7-.773,2.141,2.141,0,0,0-1.188-.3,3.048,3.048,0,0,0-1.471.377,3.389,3.389,0,0,0-1.132,1,3.1,3.1,0,0,0-.566,1.339,2.641,2.641,0,0,0,.094,1.4,2.037,2.037,0,0,0,.773,1,2.328,2.328,0,0,0,1.339.358,2.884,2.884,0,0,0,1.4-.339,3.387,3.387,0,0,0,1.056-.868,3.171,3.171,0,0,0,.585-1.151l.075-.453h-2.716Z" transform="translate(-563.287 -506.981)" fill="#33333f"/>
    <path id="Path_11898" data-name="Path 11898" d="M636.23,507h3.546l-.113.754H637l-.245,1.528H639.1l-.132.792h-2.339l-.226,1.434h2.7l-.113.792H635.4Z" transform="translate(-591.582 -506.981)" fill="#33333f"/>
    <path id="Path_11899" data-name="Path 11899" d="M668.438,508.579a1.309,1.309,0,0,0-.113-.849,1.333,1.333,0,0,0-.6-.6,2.164,2.164,0,0,0-1.037-.226h-1.735l-.849,5.3h.887l.339-2.113,1.735,2.113h1.132l-1.754-2.018a2.409,2.409,0,0,0,1.358-.49A1.729,1.729,0,0,0,668.438,508.579Zm-.924,0a.98.98,0,0,1-.415.736,1.475,1.475,0,0,1-.905.264H665.4l.3-1.905h.811a1.148,1.148,0,0,1,.773.207A.747.747,0,0,1,667.514,508.579Z" transform="translate(-614.868 -506.9)" fill="#33333f"/>
  </g>
</svg>
