<svg xmlns="http://www.w3.org/2000/svg" xmlns:xlink="http://www.w3.org/1999/xlink" width="161.195" height="95" viewBox="0 0 161.195 95"><defs><style>.a{fill:#111116;}.b{fill:#aebee1;}.c{fill:#d6d6e3;}.d,.k{opacity:0.1;}.e{fill:#535461;}.f{fill:#e3edf9;}.g{fill:url(#a);}.h{fill:#f8b9bf;}.i{fill:#d9dfe8;}.j{fill:#6c63ff;}.l{fill:#68739d;}.m{fill:#6394e2;}.n{fill:#b96b6b;}.o{fill:url(#b);}.p{fill:#fa595f;}.q{fill:#f37291;}.r{fill:#96a2d0;}</style><linearGradient id="a" x1="0.531" y1="1.017" x2="0.531" y2="-0.007" gradientUnits="objectBoundingBox"><stop offset="0" stop-color="gray" stop-opacity="0.251"/><stop offset="0.54" stop-color="gray" stop-opacity="0.122"/><stop offset="1" stop-color="gray" stop-opacity="0.102"/></linearGradient><linearGradient id="b" x1="0.5" y1="1" x2="0.5" y2="0.001" xlink:href="#a"/></defs><rect class="a" width="3.551" height="39.682" transform="translate(44.699 49.756)"/><path class="b" d="M912.729,311.449v-36.6A3.848,3.848,0,0,1,916.577,271h0a3.848,3.848,0,0,1,3.841,3.846v44.3a3.848,3.848,0,0,1-3.848,3.848H892.738a3.848,3.848,0,0,1-3.848-3.848h0a3.848,3.848,0,0,1,3.848-3.848h16.143A3.848,3.848,0,0,0,912.729,311.449Z" transform="translate(-760.757 -257.527)"/><path class="a" d="M912.729,311.449v-36.6A3.848,3.848,0,0,1,916.577,271h0a3.848,3.848,0,0,1,3.841,3.846v44.3a3.848,3.848,0,0,1-3.848,3.848H892.738a3.848,3.848,0,0,1-3.848-3.848h0a3.848,3.848,0,0,1,3.848-3.848h16.143A3.848,3.848,0,0,0,912.729,311.449Z" transform="translate(-760.757 -257.527)"/><path class="c" d="M888.92,318.939a3.848,3.848,0,0,1,3.843-3.642h16.143a3.848,3.848,0,0,0,3.848-3.848v-36.6A3.848,3.848,0,0,1,916.417,271v47.939Z" transform="translate(-760.781 -257.527)"/><path class="b" d="M197.437,318.261v-36.6a3.848,3.848,0,0,0-3.839-3.848h0a3.848,3.848,0,0,0-3.848,3.848v44.3a3.848,3.848,0,0,0,3.848,3.857h23.83a3.848,3.848,0,0,0,3.848-3.848h0a3.848,3.848,0,0,0-3.848-3.848H201.286a3.848,3.848,0,0,1-3.85-3.857Z" transform="translate(-188.216 -263.104)"/><path class="a" d="M197.437,318.261v-36.6a3.848,3.848,0,0,0-3.839-3.848h0a3.848,3.848,0,0,0-3.848,3.848v44.3a3.848,3.848,0,0,0,3.848,3.857h23.83a3.848,3.848,0,0,0,3.848-3.848h0a3.848,3.848,0,0,0-3.848-3.848H201.286a3.848,3.848,0,0,1-3.85-3.857Z" transform="translate(-188.216 -263.104)"/><path class="c" d="M239.491,325.775a3.848,3.848,0,0,0-3.842-3.642H219.508a3.848,3.848,0,0,1-3.85-3.848v-36.6A3.848,3.848,0,0,0,212,277.84v47.935Z" transform="translate(-206.437 -263.129)"/><rect class="a" width="3.551" height="40.607" transform="translate(114.952 49.756)"/><rect class="d" width="3.551" height="2.933" transform="translate(44.699 49.756)"/><rect class="d" width="3.551" height="2.933" transform="translate(114.952 49.756)"/><path class="d" d="M494.927,337.92q-.085.938-.216,1.9h-.5v-1.9Z" transform="translate(-437.545 -312.329)"/><path class="e" d="M509.477,357.68a1.1,1.1,0,0,1-1.027,1.17H497.612v-1.13h9.018a.567.567,0,0,0,.436-.847l-8.177-16.632a.724.724,0,0,0-.634-.409H494.21v-1.9h5.108a.507.507,0,0,1,.444.286l9.374,18.108A3.078,3.078,0,0,1,509.477,357.68Z" transform="translate(-437.545 -312.337)"/><path class="e" d="M461.647,277.849l-.148.25-1.389-.927,4.3-33.041h1.106s.045.152.12.442C466.373,247.427,470.011,263.6,461.647,277.849Z" transform="translate(-409.62 -235.523)"/><path class="d" d="M465.631,244.572l-3.984,33.277-.148.25-1.389-.927,4.3-33.041h1.106S465.557,244.288,465.631,244.572Z" transform="translate(-409.62 -235.523)"/><rect class="c" width="34.276" height="2.626" transform="translate(49.233 42.299) rotate(-83.17)"/><path class="f" d="M398.928,445.678a.311.311,0,0,1-.31.31h-.464a.31.31,0,0,1-.31-.31.146.146,0,0,1,0-.036.309.309,0,0,1,.306-.272h.464a.311.311,0,0,1,.3.235A.279.279,0,0,1,398.928,445.678Z" transform="translate(-358.629 -400.322)"/><path class="f" d="M406.6,445.678a.311.311,0,0,1-.31.31h-.464a.31.31,0,0,1-.31-.31.3.3,0,0,1,.013-.085.292.292,0,0,1,.078-.132.3.3,0,0,1,.217-.091h.464a.311.311,0,0,1,.284.181A.318.318,0,0,1,406.6,445.678Z" transform="translate(-364.915 -400.322)"/><path class="f" d="M413.423,445.67a.312.312,0,0,1-.31.31h-.463a.31.31,0,0,1-.31-.31.293.293,0,0,1,.027-.129.315.315,0,0,1,.281-.181h.464a.308.308,0,0,1,.31.31Z" transform="translate(-370.5 -400.314)"/><path class="f" d="M421.1,445.678a.312.312,0,0,1-.31.31h-.464a.31.31,0,0,1-.254-.487l.036-.04a.3.3,0,0,1,.217-.091h.464a.311.311,0,0,1,.224.1A.3.3,0,0,1,421.1,445.678Z" transform="translate(-376.79 -400.322)"/><path class="d" d="M398.919,446.66a.285.285,0,0,1,.009.074.311.311,0,0,1-.31.31h-.464a.31.31,0,0,1-.31-.31.146.146,0,0,1,0-.036Z" transform="translate(-358.629 -401.379)"/><path class="d" d="M406.578,446.39a.32.32,0,0,1,.025.121.311.311,0,0,1-.31.31h-.464a.31.31,0,0,1-.31-.31.3.3,0,0,1,.013-.085Z" transform="translate(-364.915 -401.158)"/><path class="d" d="M413.386,446.16a.309.309,0,0,1-.263.473h-.464a.31.31,0,0,1-.31-.31.293.293,0,0,1,.027-.129Z" transform="translate(-370.508 -400.969)"/><path class="d" d="M421.1,446.12a.311.311,0,0,1-.31.31h-.464a.31.31,0,0,1-.254-.487l.942-.033A.3.3,0,0,1,421.1,446.12Z" transform="translate(-376.79 -400.765)"/><path class="c" d="M400.844,447.77H391.89v-.407a.7.7,0,0,1,.674-.7l7.182-.248a1.065,1.065,0,0,1,1.1,1.063Z" transform="translate(-353.753 -401.18)"/><path class="e" d="M685.309,357.68a1.1,1.1,0,0,0,1.027,1.17h10.843v-1.13H688.15a.567.567,0,0,1-.436-.847l8.177-16.632a.724.724,0,0,1,.634-.409h4.047v-1.9h-5.1a.507.507,0,0,0-.437.284l-9.374,18.108A3.078,3.078,0,0,0,685.309,357.68Z" transform="translate(-594.04 -312.337)"/><path class="e" d="M770.763,277.849l.149.25,1.389-.927L768,244.13H766.9s-.045.152-.12.442C766.035,247.427,762.39,263.6,770.763,277.849Z" transform="translate(-659.588 -235.523)"/><path class="d" d="M773.23,244.572l3.984,33.277.148.25,1.389-.927-4.3-33.041H773.35S773.3,244.288,773.23,244.572Z" transform="translate(-666.04 -235.523)"/><rect class="c" width="2.626" height="34.276" transform="translate(107.287 8.575) rotate(-6.83)"/><path class="f" d="M860,445.678a.311.311,0,0,0,.31.31h.463a.31.31,0,0,0,.31-.31.143.143,0,0,0,0-.036.309.309,0,0,0-.306-.272h-.463a.311.311,0,0,0-.3.235A.274.274,0,0,0,860,445.678Z" transform="translate(-737.098 -400.322)"/><path class="f" d="M852.327,445.678a.312.312,0,0,0,.31.31h.464a.31.31,0,0,0,.31-.31.3.3,0,0,0-.013-.085.291.291,0,0,0-.078-.132.3.3,0,0,0-.217-.091h-.473a.284.284,0,0,0-.3.308Z" transform="translate(-730.814 -400.322)"/><path class="f" d="M845.51,445.67a.312.312,0,0,0,.31.31h.464a.31.31,0,0,0,.31-.31.3.3,0,0,0-.027-.129.315.315,0,0,0-.281-.181h-.464a.308.308,0,0,0-.31.31Z" transform="translate(-725.232 -400.314)"/><path class="f" d="M837.83,445.678a.311.311,0,0,0,.31.31h.463a.31.31,0,0,0,.254-.487l-.036-.04a.3.3,0,0,0-.217-.091h-.463a.311.311,0,0,0-.225.1A.3.3,0,0,0,837.83,445.678Z" transform="translate(-718.943 -400.322)"/><path class="d" d="M860.009,446.66a.287.287,0,0,0-.009.074.311.311,0,0,0,.31.31h.464a.31.31,0,0,0,.31-.31.143.143,0,0,0,0-.036Z" transform="translate(-737.098 -401.379)"/><path class="d" d="M852.355,446.39a.321.321,0,0,0-.025.121.311.311,0,0,0,.31.31h.464a.31.31,0,0,0,.31-.31.3.3,0,0,0-.013-.085Z" transform="translate(-730.817 -401.158)"/><path class="d" d="M845.547,446.16a.309.309,0,0,0,.263.473h.464a.31.31,0,0,0,.31-.31.293.293,0,0,0-.027-.129Z" transform="translate(-725.224 -400.969)"/><path class="d" d="M837.83,446.12a.311.311,0,0,0,.31.31h.463a.31.31,0,0,0,.254-.487l-.942-.033A.3.3,0,0,0,837.83,446.12Z" transform="translate(-718.943 -400.765)"/><path class="c" d="M822.482,447.77h8.954v-.407a.7.7,0,0,0-.673-.7l-7.182-.248a1.064,1.064,0,0,0-1.1,1.063Z" transform="translate(-706.372 -401.18)"/><path class="g" d="M828.513,253.394c4.177-7.086,2.664-21.378,2.832-21.652.15-.241-.425-6.972-4.264-8.616-.694-1.374-1.376-2.923-1.376-2.923a1.223,1.223,0,0,1-.221.165q-.045-.123-.089-.25c-.049-.143-.094-.29-.139-.436a2.82,2.82,0,0,0,.328.083,1.365,1.365,0,0,0,.877-.078.978.978,0,0,0,.252-.194,1.909,1.909,0,0,0,.61-.905l1.117-2.676a20.813,20.813,0,0,0,1.279-3.7,10.426,10.426,0,0,0-.446-5.769,3.68,3.68,0,0,0-1.251-1.825c-1.244-.844-2.975-.261-4.4-.755-.467-.163-.889-.438-1.356-.6a4.171,4.171,0,0,0-3.118.283,14.837,14.837,0,0,0-2.606,1.811c-.418.321-1.086.652-1.579,1.086a1.591,1.591,0,0,0-.775,1.418c.08.679.795,1.086,1.461,1.246.11.025.224.045.337.065a6.519,6.519,0,0,0,2.783,10.829,15.248,15.248,0,0,1,.88,1.979q.049.139.1.281a11.3,11.3,0,0,0-2.128.713c-.52.431.569,4.2.569,4.2-.277.351-.559.752-.846,1.181a25.449,25.449,0,0,0-4.013,10.968c-.181,1.432-.417,2.9-.715,4.29l-12.978-2.6-.027.321-.31-.076h0l-.974-.241-.038.219-.149-.071c-2.414-1.132-6.481-2.577-9.235-1.086-2.906,1.565,3.366,3.643,7.392,4.75a6.54,6.54,0,0,0-3.622,1.135c-2.919,2.187,5.336,3.326,9.235,3.73l.158.016v.083l1.351.125.317.029.031.482s1.934.317,4.518.7a78.8,78.8,0,0,1-9.126,1.546,6.677,6.677,0,0,0-5.69,4.79,4.26,4.26,0,0,0-.065,2.3c.753,2.631-.167,21.987-.375,26.155l-4.771,2.747s-7.424.905-2.479,2.646a10.159,10.159,0,0,0,1.364.362c-.652.42-.6.969,1.325,1.642,4.949,1.735,16.453-.076,16.453-.076s-.252-2.039-.661-3.734l.127.011s-1.188-4.42.614-6.649-.3-19.194-.3-19.194,3.154-1.306,12.583-1.391c7.605,1.952,11.312-5.036,11.26-8.648A1.9,1.9,0,0,1,828.513,253.394Z" transform="translate(-674.924 -201.895)"/><path class="h" d="M821.492,408.066l-.806,3.259s-.724-.163-1.811-.442c-3.68-.952-11.44-3.24-8.33-4.918,2.682-1.449,6.631-.04,8.976,1.059.858.4,1.5.766,1.791.936C821.434,408.03,821.492,408.066,821.492,408.066Z" transform="translate(-696.01 -367.547)"/><path class="d" d="M862.19,416.637l-.58,2.354s-.724-.163-1.811-.442l.654-3.859c.858.4,1.5.766,1.791.936Z" transform="translate(-736.935 -375.198)"/><path class="i" d="M823.139,399.777l-2.249-.556.7-4.121,1.8.444Z" transform="translate(-697.881 -355.762)"/><path class="d" d="M828.921,400.834l-.971-.239.366-4.2.853.21Z" transform="translate(-703.663 -356.818)"/><path class="j" d="M891.5,343.5s-4.319-2.5-6.238,4.663a58.741,58.741,0,0,0-2.1,10.456l-13.639-2.727-.433,4.981s14.582,4.708,16.417,4.366,7.787-10.321,7.787-10.321S898.7,347.179,891.5,343.5Z" transform="translate(-744.542 -316.551)"/><g class="k" transform="translate(113.816 26.705)"><path d="M821.492,408.066l-.806,3.259s-.724-.163-1.811-.442c-3.68-.952-11.44-3.24-8.33-4.918,2.682-1.449,6.631-.04,8.976,1.059.858.4,1.5.766,1.791.936C821.434,408.03,821.492,408.066,821.492,408.066Z" transform="translate(-809.826 -394.252)"/><path class="d" d="M862.19,416.637l-.58,2.354s-.724-.163-1.811-.442l.654-3.859c.858.4,1.5.766,1.791.936Z" transform="translate(-850.751 -401.903)"/><path d="M823.139,399.777l-2.249-.556.7-4.121,1.8.444Z" transform="translate(-811.698 -382.467)"/><path class="d" d="M828.921,400.834l-.971-.239.366-4.2.853.21Z" transform="translate(-817.479 -383.523)"/><path d="M891.5,344.5s-4.319-2.5-6.238,4.663a58.739,58.739,0,0,0-2.1,10.455l-13.639-2.727-.433,4.982s14.582,4.708,16.417,4.366,7.787-10.321,7.787-10.321S898.7,348.179,891.5,344.5Z" transform="translate(-858.359 -344.075)"/></g><path class="l" d="M797.609,650.224l-5.568,3.207s-7.214.884-2.408,2.568,15.978-.074,15.978-.074-.621-5.02-1.487-5.72S797.609,650.224,797.609,650.224Z" transform="translate(-678.121 -567.815)"/><path class="m" d="M858.446,452.625a38.754,38.754,0,0,1-7.692,2.7,77.094,77.094,0,0,1-8.99,1.532,6.484,6.484,0,0,0-5.526,4.641,4.134,4.134,0,0,0-.063,2.245c.82,2.866-.4,26.168-.4,26.168l8.456.782s-1.154-4.293.6-6.457-.293-18.635-.293-18.635,3.064-1.268,12.219-1.351c8.482,2.173,11.977-7.111,10.667-9.713S858.446,452.625,858.446,452.625Z" transform="translate(-717.256 -406.196)"/><g class="k" transform="translate(109.861 46.346)"><path d="M797.609,650.224l-5.568,3.207s-7.214.884-2.408,2.568,15.978-.074,15.978-.074-.621-5.02-1.487-5.72S797.609,650.224,797.609,650.224Z" transform="translate(-787.982 -614.161)"/><path d="M858.446,452.625a38.754,38.754,0,0,1-7.692,2.7,77.094,77.094,0,0,1-8.99,1.532,6.484,6.484,0,0,0-5.526,4.641,4.134,4.134,0,0,0-.063,2.245c.82,2.866-.4,26.168-.4,26.168l8.456.782s-1.154-4.293.6-6.457-.293-18.635-.293-18.635,3.064-1.268,12.219-1.351c8.482,2.173,11.977-7.111,10.667-9.713S858.446,452.625,858.446,452.625Z" transform="translate(-827.117 -452.543)"/></g><path class="l" d="M812.036,660.974l-5.568,3.207s-7.211.876-2.409,2.568,15.978-.074,15.978-.074-.621-5.019-1.487-5.72S812.036,660.974,812.036,660.974Z" transform="translate(-689.936 -576.618)"/><path class="m" d="M871.12,474.987c-9.155.083-12.219,1.351-12.219,1.351s2.044,16.478.293,18.635-.6,6.457-.6,6.457l-8.456-.782s.015-.275.038-.768c.2-4.049,1.1-22.845.362-25.4a4.137,4.137,0,0,1,.063-2.238,6.486,6.486,0,0,1,5.525-4.652,74.879,74.879,0,0,0,8.989-1.532l.141-.036a38.42,38.42,0,0,0,7.551-2.664s7.661-.688,8.971,1.914a3.079,3.079,0,0,1,.268,1.313C882.113,470.1,878.51,476.883,871.12,474.987Z" transform="translate(-729.023 -414.985)"/><path class="h" d="M842.584,435.755l-.31,3.35s-.744-.052-1.851-.168c-3.779-.393-11.8-1.5-8.961-3.622,2.437-1.825,6.551-1.029,9.034-.29.906.272,1.6.534,1.91.659C842.521,435.728,842.584,435.755,842.584,435.755Z" transform="translate(-713.241 -391.175)"/><path class="h" d="M976.017,283.834s-1.133.887-2.519,1.861c-1.519.344-3.283.628-4.554.813a7.229,7.229,0,0,0-.331-4.507,16.966,16.966,0,0,0-2.273-4.179L974,275.43a7.039,7.039,0,0,0,.181,4.77A15.733,15.733,0,0,0,976.017,283.834Z" transform="translate(-824.183 -261.155)"/><path class="d" d="M885.714,440.425l-.223,2.406s-.744-.053-1.851-.168l.073-3.913c.905.272,1.6.534,1.91.659Z" transform="translate(-756.458 -394.901)"/><path class="i" d="M847.087,423.463l-2.307-.214.076-4.179,1.845.17Z" transform="translate(-717.445 -375.391)"/><path class="d" d="M986.294,305.363s-1.134.887-2.519,1.862c-1.519.344-3.283.628-4.554.813a7.229,7.229,0,0,0-.331-4.507,40.079,40.079,0,0,0,5.574-1.811A15.715,15.715,0,0,0,986.294,305.363Z" transform="translate(-834.46 -282.684)"/><path class="i" d="M975.218,302.22s1.282,2.91,2.09,4.225-9.384,2.535-9.384,2.535-1.057-3.663-.552-4.083S974.365,303.071,975.218,302.22Z" transform="translate(-824.915 -283.094)"/><path class="d" d="M950.467,466.586a9.164,9.164,0,0,1-1.586,2.053c-4.5,4.277-11.88-.181-15.211-2.618a38.426,38.426,0,0,0,7.551-2.664s7.661-.688,8.971,1.914A3.076,3.076,0,0,1,950.467,466.586Z" transform="translate(-797.428 -414.985)"/><path class="j" d="M941.294,347.692c-5.117,4.86-13.943-1.575-16.322-3.471-.386-.308-.6-.5-.6-.5a11.875,11.875,0,0,0,2.419-5.027,44.122,44.122,0,0,0,1.316-6.66,24.718,24.718,0,0,1,3.9-10.653c.277-.416.543-.806.82-1.146A16.823,16.823,0,0,1,938,316.219c6.852-2,7.774,8.161,7.591,8.455S947.242,342.041,941.294,347.692Z" transform="translate(-789.812 -294.344)"/><path class="d" d="M941.956,363.734s-4.406,10.756-6.167,11.37c-1.009.35-6.4-.313-10.818-.945-.386-.308-.6-.5-.6-.5a11.873,11.873,0,0,0,2.419-5.027l5.695.272a58.156,58.156,0,0,1,.52-10.651c.837-7.366,5.474-5.541,5.474-5.541C946.15,355.283,941.956,363.734,941.956,363.734Z" transform="translate(-789.812 -324.28)"/><path class="d" d="M851.82,423.873l-1-.092-.264-4.21.875.08Z" transform="translate(-722.179 -375.801)"/><path class="j" d="M911.728,350.1s-4.637-1.823-5.474,5.541a58.155,58.155,0,0,0-.52,10.651l-13.894-.664.313,4.991s15.122,2.483,16.884,1.871,6.168-11.37,6.168-11.37S919.393,352.663,911.728,350.1Z" transform="translate(-763.173 -322.136)"/><path class="d" d="M974.883,281.182c-.2-1.1.947-1.087,1.36-2.122l-7.663,2.392A16.893,16.893,0,0,1,970,283.71a6.361,6.361,0,0,0,1.219.235C973.046,284.119,973.616,282.321,974.883,281.182Z" transform="translate(-826.017 -264.128)"/><ellipse class="h" cx="6.331" cy="6.331" rx="6.331" ry="6.331" transform="translate(138.486 18.574) rotate(-84.72)"/><path class="d" d="M949.562,215.585c.078.659.773,1.061,1.419,1.21a6.222,6.222,0,0,1,1.914.5,2.938,2.938,0,0,1,1.036,2.861c-.063.6-.154,1.338.339,1.688a1.312,1.312,0,0,0,.507.181,4.756,4.756,0,0,0,1.561.054,2.22,2.22,0,0,1,.906-.024,1.377,1.377,0,0,1,.847,1.121c.092.483.042.987.116,1.474a3.06,3.06,0,0,0,2.412,2.488,1.327,1.327,0,0,0,.851-.076,1.7,1.7,0,0,0,.668-.927l1.086-2.6a20.239,20.239,0,0,0,1.242-3.6,10.124,10.124,0,0,0-.433-5.6,3.592,3.592,0,0,0-1.215-1.773c-1.208-.82-2.9-.253-4.27-.724-.454-.158-.864-.426-1.316-.587a4.055,4.055,0,0,0-3.03.275,14.328,14.328,0,0,0-2.535,1.766C950.949,213.854,949.426,214.446,949.562,215.585Z" transform="translate(-810.435 -208.45)"/><path class="n" d="M950.482,214.815c.078.659.773,1.061,1.42,1.21a6.219,6.219,0,0,1,1.914.5,2.938,2.938,0,0,1,1.036,2.861c-.063.6-.154,1.338.339,1.688a1.31,1.31,0,0,0,.507.181,4.756,4.756,0,0,0,1.561.054,2.218,2.218,0,0,1,.905-.024,1.377,1.377,0,0,1,.848,1.121c.092.484.042.987.116,1.474a3.06,3.06,0,0,0,2.412,2.488,1.327,1.327,0,0,0,.851-.076,1.7,1.7,0,0,0,.668-.927l1.086-2.6a20.249,20.249,0,0,0,1.242-3.6,10.126,10.126,0,0,0-.433-5.6,3.589,3.589,0,0,0-1.215-1.773c-1.208-.82-2.9-.254-4.27-.724-.455-.158-.864-.426-1.316-.587a4.055,4.055,0,0,0-3.03.275,14.329,14.329,0,0,0-2.535,1.766C951.871,213.084,950.348,213.676,950.482,214.815Z" transform="translate(-811.189 -207.819)"/><path class="d" d="M950.53,373.34s-2.417,9.391-4.824,10.26-1.344,1.116-1.344,1.116" transform="translate(-805.993 -341.336)"/><rect class="a" width="2.627" height="17.269" transform="translate(142.024 66.406)"/><rect class="d" width="2.627" height="1.28" transform="translate(142.024 66.406)"/><path class="a" d="M936.57,558.979v.362a.849.849,0,0,0,.849.849H948.86a.849.849,0,0,0,.849-.849v-.362a.849.849,0,0,0-.849-.849H937.419A.849.849,0,0,0,936.57,558.979Z" transform="translate(-799.803 -492.664)"/><path class="d" d="M937.65,558.44H950.4a.845.845,0,0,0-.655-.31H938.3A.845.845,0,0,0,937.65,558.44Z" transform="translate(-800.687 -492.664)"/><rect class="a" width="21.586" height="2.064" rx="1.032" transform="translate(132.546 82.736)"/><ellipse class="e" cx="1.315" cy="1.315" rx="1.315" ry="1.315" transform="translate(151.597 84.8)"/><ellipse class="e" cx="1.315" cy="1.315" rx="1.315" ry="1.315" transform="translate(132.45 84.8)"/><ellipse class="e" cx="1.315" cy="1.315" rx="1.315" ry="1.315" transform="translate(142.024 84.8)"/><rect class="c" width="20.648" height="3.191" rx="1.595" transform="translate(140.546 45.194)"/><path class="d" d="M968.227,653.5a2.069,2.069,0,0,1-2.628,0" transform="translate(-823.576 -570.765)"/><path class="d" d="M978.088,455.17v.252a1.313,1.313,0,0,1-1.313,1.313H958.753a1.313,1.313,0,0,1-1.313-1.313v-.252Z" transform="translate(-816.894 -408.348)"/><rect class="a" width="3.551" height="45.244" transform="translate(123.289 49.756)"/><rect class="d" width="3.551" height="2.933" transform="translate(123.289 49.756)"/><rect class="a" width="2.627" height="17.269" transform="translate(16.543 67.641)"/><rect class="d" width="2.627" height="1.28" transform="translate(16.543 67.641)"/><path class="a" d="M256.749,565.842v.362a.849.849,0,0,1-.849.849H244.459a.849.849,0,0,1-.849-.849v-.362a.849.849,0,0,1,.849-.842H255.9a.849.849,0,0,1,.849.849Z" transform="translate(-232.323 -498.29)"/><path class="d" d="M257.432,565.3H244.68a.846.846,0,0,1,.655-.3h11.441A.846.846,0,0,1,257.432,565.3Z" transform="translate(-233.2 -498.29)"/><rect class="a" width="21.586" height="2.064" rx="1.032" transform="translate(7.064 83.97)"/><ellipse class="e" cx="1.315" cy="1.315" rx="1.315" ry="1.315" transform="translate(6.97 86.035)"/><ellipse class="e" cx="1.315" cy="1.315" rx="1.315" ry="1.315" transform="translate(26.115 86.035)"/><ellipse class="e" cx="1.315" cy="1.315" rx="1.315" ry="1.315" transform="translate(16.542 86.035)"/><path class="d" d="M272.64,660.32a2.069,2.069,0,0,0,2.628,0" transform="translate(-256.097 -576.349)"/><path class="o" d="M247.7,284.169l-4.6-2.935c-.024-4.134-.089-23.327.771-25.894a4.217,4.217,0,0,0,.036-2.283,6.61,6.61,0,0,0-5.42-4.987,77.87,77.87,0,0,1-8.963-1.928c2.573-.266,4.5-.5,4.5-.5l.051-.476,1.657-.08v-.071l.158-.009c3.87-.23,12.087-1,9.295-3.288a6.439,6.439,0,0,0-3.526-1.282c4.031-.92,10.331-2.7,7.522-4.377-2.669-1.59-6.756-.34-9.2.675l-.15.063-.027-.219-.974.2h0l-.31.062-.015-.319-13.67,2.111a46.669,46.669,0,0,0-.558-4.674c.306-2.039,1.729-5.012,1.228-6.608-.583-1.852-2.977-2.459-3.984-4.132-.264-.436-.527-.846-.784-1.2a12.676,12.676,0,0,0-1.928-2.084,8.8,8.8,0,0,1,.71-3.124,15.128,15.128,0,0,1,.956-1.919,6.446,6.446,0,0,0,4.788-7.424,2.023,2.023,0,0,0,2.459-.315l-.257-.1a.82.82,0,0,0,.072-.085,4.861,4.861,0,0,1-1.5-.795,1.757,1.757,0,0,1-.263-.389c-.25-.507-.221-1.115-.46-1.63a1.885,1.885,0,0,0-.469-.612,3.229,3.229,0,0,0-1.532-.876,19.359,19.359,0,0,1-1.968-.543,6.655,6.655,0,0,0-7.082-1.992l-.226.078a2.953,2.953,0,1,0-5.761-1.3,2.946,2.946,0,0,1,.79-1.764c-.047.04-.1.078-.141.12a2.955,2.955,0,0,0-.129,4.178l.053.051a2.967,2.967,0,0,0,.741.648,2.955,2.955,0,0,1-1.948-2.421v.181a2.955,2.955,0,0,0,3.142,2.778l.081-.009-.043.06a6.647,6.647,0,0,0,.6,8.23,3.078,3.078,0,0,0,.474.761,2.464,2.464,0,0,0,.219.221,2.808,2.808,0,0,0,1.894.873q.181.215.386.415a10.779,10.779,0,0,1-.467,1.492,15.817,15.817,0,0,1-1.434,2.765c-3.911,1.112-4.255,7.754-4.114,8.006a102.875,102.875,0,0,0,2.314,23.33c-.119,3.6,1.981,9.557,9.438,7.987,9.326.5,12.384,1.927,12.384,1.927s-.885,16.219.378,18.581c.791,1.479.23,3.652-.362,5.186a5.7,5.7,0,0,0-.522,1.2c-.181.382-.313.614-.313.614h.127c-.478,1.66-.817,3.665-.817,3.665s11.3,2.294,16.277.793c1.93-.583,2.01-1.123,1.383-1.568a10.081,10.081,0,0,0,1.365-.3C255.015,285.4,247.7,284.169,247.7,284.169Z" transform="translate(-202.875 -196.596)"/><path class="p" d="M234.038,225.519A6.519,6.519,0,1,1,227.519,219,6.519,6.519,0,0,1,234.038,225.519Z" transform="translate(-213.808 -214.943)"/><path class="h" d="M374.09,413.49l.661,3.3s.735-.132,1.823-.362c3.718-.788,11.573-2.733,8.531-4.547-2.617-1.559-6.624-.333-9.014.663-.876.362-1.536.7-1.831.857C374.15,413.455,374.09,413.49,374.09,413.49Z" transform="translate(-339.176 -372.288)"/><path class="d" d="M375.046,420.778l.474,2.368s.735-.132,1.823-.362l-.483-3.884c-.876.362-1.535.7-1.831.857Z" transform="translate(-339.946 -378.646)"/><path class="i" d="M334.512,403.923l2.271-.455-.514-4.149-1.818.364Z" transform="translate(-299.525 -359.218)"/><path class="d" d="M334.512,404.791l.98-.2-.179-4.214-.862.172Z" transform="translate(-299.525 -360.086)"/><path class="j" d="M240.835,342.424s4.42-2.3,6.026,4.934a57.6,57.6,0,0,1,1.63,10.537l13.748-2.124.214,5s-14.776,4.062-16.592,3.638-7.33-10.656-7.33-10.656S233.477,345.791,240.835,342.424Z" transform="translate(-226.777 -315.733)"/><g class="k" transform="translate(10.423 26.705)"><path d="M374.09,413.49l.661,3.3s.735-.132,1.823-.362c3.718-.788,11.573-2.733,8.531-4.547-2.617-1.559-6.624-.333-9.014.663-.876.362-1.536.7-1.831.857C374.15,413.455,374.09,413.49,374.09,413.49Z" transform="translate(-349.599 -398.993)"/><path class="d" d="M375.046,420.778l.474,2.368s.735-.132,1.823-.362l-.483-3.884c-.876.362-1.535.7-1.831.857Z" transform="translate(-350.368 -405.351)"/><path d="M334.512,403.923l2.271-.455-.514-4.149-1.818.364Z" transform="translate(-309.948 -385.923)"/><path class="d" d="M334.512,404.791l.98-.2-.179-4.214-.862.172Z" transform="translate(-309.948 -386.791)"/><path d="M242.835,344.424s4.42-2.3,6.026,4.934a57.6,57.6,0,0,1,1.63,10.537l13.747-2.124.214,5s-14.776,4.062-16.592,3.638-7.33-10.656-7.33-10.656S235.477,347.791,242.835,344.424Z" transform="translate(-238.838 -344.076)"/></g><path class="q" d="M359.714,654.253l5.422,3.441s7.169,1.2,2.292,2.673-15.958-.779-15.958-.779.842-4.987,1.738-5.648S359.714,654.253,359.714,654.253Z" transform="translate(-320.652 -570.937)"/><path class="r" d="M243.57,451.976a38.707,38.707,0,0,0,7.566,3.037,75.452,75.452,0,0,0,8.913,1.929,6.484,6.484,0,0,1,5.315,4.889,4.136,4.136,0,0,1-.034,2.238c-.945,2.828-.753,26.16-.753,26.16l-8.482.407s1.342-4.239-.311-6.477,1.115-18.6,1.115-18.6-3-1.4-12.149-1.889c-8.57,1.811-11.651-7.633-10.227-10.175S243.57,451.976,243.57,451.976Z" transform="translate(-224.607 -405.565)"/><g class="k" transform="translate(9.581 46.207)"><path d="M359.714,654.253l5.422,3.441s7.169,1.2,2.292,2.673-15.958-.779-15.958-.779.842-4.987,1.738-5.648S359.714,654.253,359.714,654.253Z" transform="translate(-330.233 -617.144)"/><path d="M243.57,451.976a38.707,38.707,0,0,0,7.566,3.037,75.452,75.452,0,0,0,8.913,1.929,6.484,6.484,0,0,1,5.315,4.889,4.136,4.136,0,0,1-.034,2.238c-.945,2.828-.753,26.16-.753,26.16l-8.482.407s1.342-4.239-.311-6.477,1.115-18.6,1.115-18.6-3-1.4-12.149-1.889c-8.57,1.811-11.651-7.633-10.227-10.175S243.57,451.976,243.57,451.976Z" transform="translate(-234.188 -451.772)"/></g><path class="q" d="M344.795,664.363l5.422,3.441s7.169,1.2,2.292,2.673-15.958-.779-15.958-.779.842-4.987,1.738-5.648S344.795,664.363,344.795,664.363Z" transform="translate(-308.434 -579.216)"/><path class="r" d="M235.791,474.6c9.144.487,12.149,1.889,12.149,1.889s-.867,15.9.362,18.216c1.313,2.456-1.173,6.863-1.173,6.863l8.482-.407V500.4c-.025-4.053-.087-22.87.755-25.393a4.135,4.135,0,0,0,.034-2.238,6.486,6.486,0,0,0-5.315-4.889,75.015,75.015,0,0,1-8.913-1.927l-.139-.043a37.973,37.973,0,0,1-7.424-2.993s-5.648-.391-7.062,2.151c-.181.329-.962.978-.994,1.5C226.341,470.066,228.334,476.172,235.791,474.6Z" transform="translate(-218.342 -414.67)"/><path class="h" d="M351.81,439.93l.161,3.361s.746-.02,1.858-.087c3.794-.226,11.852-.976,9.114-3.223-2.354-1.932-6.5-1.316-9.012-.688-.922.232-1.63.464-1.938.574C351.873,439.907,351.81,439.93,351.81,439.93Z" transform="translate(-320.931 -394.841)"/><path class="h" d="M233,281.718s1.087.936,2.434,1.972c1.5.409,3.259.773,4.514,1.014a7.243,7.243,0,0,1,.531-4.489,16.968,16.968,0,0,1,2.455-4.076l-7.551-2.729a7.049,7.049,0,0,1-.393,4.757A15.726,15.726,0,0,1,233,281.718Z" transform="translate(-223.635 -259.501)"/><path class="d" d="M352.06,443.656l.116,2.414s.746-.02,1.858-.087l.1-3.913c-.922.232-1.63.464-1.938.574Z" transform="translate(-321.135 -397.62)"/><path class="i" d="M309.62,426.65l2.312-.111.109-4.179-1.851.089Z" transform="translate(-279.192 -378.086)"/><path class="j" d="M216.339,345.435c4.889,5.083,14.006-.958,16.458-2.747.4-.292.621-.471.621-.471-.905-.922-2.354-1.775-2.91-4.083a50.151,50.151,0,0,1-1.076-7.156c-.15-1.91,1.823-5.548,1.253-7.363s-2.919-2.41-3.906-4.053c-.259-.427-.516-.829-.77-1.181a16.908,16.908,0,0,0-5-4.243c-6.763-2.309-7.294,7.35-7.125,7.651A99.864,99.864,0,0,0,216.339,345.435Z" transform="translate(-207.964 -292.563)"/><path class="d" d="M223.016,361.979s3.928,10.941,5.661,11.631c.992.395,6.4-.031,10.848-.467.4-.292.621-.471.621-.471a11.84,11.84,0,0,1-2.2-5.128l-5.7.02A58.1,58.1,0,0,0,232.2,356.9c-.511-7.4-5.224-5.776-5.224-5.776C219.2,353.352,223.016,361.979,223.016,361.979Z" transform="translate(-214.692 -323.017)"/><path class="d" d="M309.62,426.863l1-.047.451-4.2-.878.042Z" transform="translate(-279.192 -378.299)"/><path class="j" d="M227.716,348.533s4.708-1.617,5.224,5.776a57.952,57.952,0,0,1,.054,10.664l13.911-.051-.534,4.972s-15.211,1.811-16.949,1.125-5.662-11.629-5.662-11.629S219.94,350.762,227.716,348.533Z" transform="translate(-215.299 -320.898)"/><path class="d" d="M245.068,279.173c.252-1.086-.905-1.121-1.268-2.173l7.555,2.716a16.909,16.909,0,0,0-1.517,2.193,6.362,6.362,0,0,1-1.228.181C246.773,282.181,246.283,280.364,245.068,279.173Z" transform="translate(-232.479 -262.441)"/><ellipse class="h" cx="6.331" cy="6.331" rx="6.331" ry="6.331" transform="translate(9.631 6.672) rotate(-2.75)"/><path class="d" d="M253,375.14s2,9.487,4.368,10.456,1.293,1.175,1.293,1.175" transform="translate(-240.013 -342.81)"/><path class="d" d="M282.2,395.787s-1.673.523-3.622-1.977" transform="translate(-260.961 -358.099)"/><ellipse class="p" cx="2.897" cy="2.897" rx="2.897" ry="2.897" transform="translate(5.744 0.978)"/><path class="p" d="M213.008,208.524a2.9,2.9,0,0,1,0-3.964c-.047.038-.094.076-.138.118a2.9,2.9,0,0,0,3.969,4.223c.045-.042.085-.087.125-.13a2.9,2.9,0,0,1-3.957-.246Z" transform="translate(-206.403 -203.118)"/><path class="p" d="M213.109,219.387a2.9,2.9,0,0,1-3.049-2.535v.181a2.9,2.9,0,0,0,5.784-.362,1.549,1.549,0,0,0-.02-.181A2.9,2.9,0,0,1,213.109,219.387Z" transform="translate(-204.849 -212.888)"/><path class="d" d="M238.195,224.674a12.974,12.974,0,0,0,2.173.636,2.693,2.693,0,0,1,1.782,1.278c.234.5.206,1.1.451,1.6a3.2,3.2,0,0,0,1.909,1.342c-.641.86-2.017.627-2.915.042a8.951,8.951,0,0,0-2.716-1.675,2.55,2.55,0,0,0-2.682,1.193,6.442,6.442,0,0,0-.529,1.644,6.164,6.164,0,0,1-2.354,3.768,3.271,3.271,0,0,1-4.15-.313,5.132,5.132,0,0,1-.945-2.439,4.956,4.956,0,0,1-.139-1.233,4.645,4.645,0,0,1,1.449-2.7c.824-.905,1.7-1.775,2.577-2.638.757-.746,1.63-2.01,2.77-2.1C236.189,222.975,237.118,224.147,238.195,224.674Z" transform="translate(-219.604 -218.279)"/><path class="p" d="M237.195,223.674a12.976,12.976,0,0,0,2.173.636,2.693,2.693,0,0,1,1.782,1.278c.234.5.206,1.1.451,1.6a3.2,3.2,0,0,0,1.909,1.342c-.641.86-2.017.626-2.915.042a8.952,8.952,0,0,0-2.716-1.675,2.55,2.55,0,0,0-2.682,1.193,6.44,6.44,0,0,0-.529,1.644,6.164,6.164,0,0,1-2.354,3.768,3.271,3.271,0,0,1-4.15-.313,5.132,5.132,0,0,1-.945-2.439,4.957,4.957,0,0,1-.139-1.233,4.645,4.645,0,0,1,1.449-2.7c.824-.905,1.7-1.775,2.577-2.638.757-.746,1.63-2.01,2.77-2.1C235.189,221.975,236.118,223.147,237.195,223.674Z" transform="translate(-218.785 -217.46)"/><rect class="c" width="20.648" height="3.191" rx="1.595" transform="translate(0 46.429)"/><path class="d" d="M181.28,462v.252a1.313,1.313,0,0,0,1.313,1.313h18.023a1.313,1.313,0,0,0,1.313-1.313V462Z" transform="translate(-181.28 -413.941)"/><rect class="a" width="3.551" height="45.239" transform="translate(36.362 49.756)"/><rect class="d" width="3.551" height="2.933" transform="translate(36.362 49.756)"/><rect class="a" width="93.875" height="5.867" transform="translate(34.664 46.513)"/></svg>