<svg xmlns="http://www.w3.org/2000/svg" width="97.809" height="100" viewBox="0 0 97.809 100"><defs><style>.a{fill:#ccc;}.b{fill:#6c63ff;}.c{fill:#ffb8b8;}.d{fill:#2f2e41;}.e{fill:#202028;}.f{fill:#3339b0;}.g{fill:#3e3e47;}</style></defs><path class="a" d="M609.384,523.928l1.107-2.625.95-2.252.777-1.842a1.341,1.341,0,0,1,1.755-.714l10.558,4.454a1.345,1.345,0,0,1,.713,1.754l-2.834,6.718a1.339,1.339,0,0,1-1.754.714L610.1,525.684A1.342,1.342,0,0,1,609.384,523.928Zm.829,1.481,10.557,4.453a1.042,1.042,0,0,0,1.365-.554l2.834-6.718a1.03,1.03,0,0,0,.047-.664,1,1,0,0,0-.117-.28,1.04,1.04,0,0,0-.485-.421l-10.558-4.453a1.038,1.038,0,0,0-.679-.045.99.99,0,0,0-.276.122,1.031,1.031,0,0,0-.408.477l-.812,1.926h0l-.88,2.084-1.142,2.707A1.042,1.042,0,0,0,610.213,525.409Z" transform="translate(-543.465 -469.098)"/><path class="a" d="M615.577,524.663a1.494,1.494,0,0,0,.893.086l6.86-1.469-.062-.291-6.86,1.469a1.2,1.2,0,0,1-1.253-.517l-3.9-5.987-.249.162,3.9,5.987A1.494,1.494,0,0,0,615.577,524.663Z" transform="translate(-541.647 -470.481)"/><ellipse class="b" cx="1.786" cy="1.786" rx="1.786" ry="1.786" transform="translate(72.16 52.393)"/><path class="b" d="M799.646,420.739s5.172-3.267,10.072.544l3.267,34.028s-12.25,9.528-15.245.544Z" transform="translate(-760.87 -400.989)"/><path class="c" d="M661.4,531.467h-3.131l-1.043-12.032,4.174-.044Z" transform="translate(-623.884 -434.375)"/><path class="d" d="M0,3.8H9.84V0H3.8A3.8,3.8,0,0,0,0,3.8H0Z" transform="translate(28.344 96.198)"/><path class="c" d="M594.819,531.467h3.131l1.49-12.076h-4.621Z" transform="translate(-545.99 -434.375)"/><path class="d" d="M583.046,563.176h-6.038v3.8h9.84A3.8,3.8,0,0,0,583.046,563.176Z" transform="translate(-528.85 -466.978)"/><path class="e" d="M787.614,550.887l2.722,40.561,4.219-.136,5.581-32.531,5.172,32.122,4.9.272,1.361-41.923S790.881,544.626,787.614,550.887Z" transform="translate(-756.869 -496.429)"/><circle class="c" cx="6.272" cy="6.272" r="6.272" transform="translate(37.318 3.761)"/><path class="f" d="M842.948,419.741l-1.633,1.089s-6.806,0-7.35,4.083-2.042,31.987-.408,31.987,1.906-2.178,1.906-2.178,1.089.272,3.267,2.45,3.539,2.178,4.356-1.089,6.261-28.311,1.089-32.939Z" transform="translate(-803.219 -401.217)"/><path class="f" d="M779.08,419.741l1.633,1.089s6.806,0,7.35,4.083,2.042,31.987.408,31.987-1.906-2.178-1.906-2.178-1.089.272-3.267,2.45-3.539,2.178-4.355-1.089-6.261-28.311-1.089-32.939Z" transform="translate(-731.457 -401.217)"/><path class="e" d="M802.528,361.063a3.414,3.414,0,0,1,2.591-5.762,9.628,9.628,0,0,1,2.512.644,8.308,8.308,0,0,0,3.9.352,5.212,5.212,0,0,0,3.324-1.963,3.82,3.82,0,0,0,.47-3.746c-.633-1.385-2.111-2.148-3.5-2.768a6.4,6.4,0,0,0-1.778-.584,2.28,2.28,0,0,0-1.769.446c-.391.336-.62.841-1.045,1.133a3.509,3.509,0,0,1-1.678.377,6.437,6.437,0,0,0-3.118,11.63Z" transform="translate(-764.027 -347.205)"/><path class="c" d="M734.94,524.128a2.743,2.743,0,0,0-2.58-3.322l-4.167-5.87-2.686,2.736,3.977,5.971a2.758,2.758,0,0,0,5.457.485Z" transform="translate(-664.441 -472.101)"/><path class="c" d="M871.62,538.675a2.743,2.743,0,0,0-.224-4.2l-.074-7.2-3.767.714-.14,7.173a2.758,2.758,0,0,0,4.2,3.512Z" transform="translate(-838.057 -481.29)"/><path class="f" d="M740.162,452.008l1.072-17.1.3-1.195s10.836,13.934,10.861,24.417c0,0-5.308,2.586-6.125.681C745.953,458.067,744.857,456.957,740.162,452.008Z" transform="translate(-685.58 -411.625)"/><path class="f" d="M869.734,438.4l-.979.621s-3.508,15.439-2.559,25.785c0,0,5.581,2.586,6.4.681S869.734,438.4,869.734,438.4Z" transform="translate(-838.037 -415.108)"/><path class="g" d="M619.065,737.229h97.3a.255.255,0,0,0,0-.511h-97.3a.255.255,0,0,0,0,.511Z" transform="translate(-618.81 -637.246)"/></svg>