<svg width="276" height="54" viewBox="0 0 276 54" fill="none" xmlns="http://www.w3.org/2000/svg">
<path fill-rule="evenodd" clip-rule="evenodd" d="M20.1975 1.93162C21.2797 1.30593 22.5068 0.976562 23.7558 0.976562C25.0049 0.976562 26.232 1.30596 27.3142 1.9317L27.3192 1.93457L43.9483 11.4688C44.8302 11.9797 45.5904 12.6729 46.18 13.4994C46.3203 13.6415 46.445 13.8037 46.5494 13.985C46.6392 14.1406 46.7094 14.3022 46.7609 14.4668C47.2527 15.4549 47.5105 16.5458 47.5117 17.6541V36.7274C47.5104 37.9814 47.1805 39.213 46.555 40.2986C45.9296 41.3843 45.0306 42.2858 43.9483 42.9128L43.9391 42.918L27.3192 52.447L27.3149 52.4494C26.5606 52.8857 25.7359 53.178 24.8824 53.3151C24.5473 53.4964 24.1638 53.5994 23.7563 53.5994C23.349 53.5994 22.9656 53.4965 22.6306 53.3153C21.7767 53.1783 20.9515 52.886 20.1968 52.4495L20.1925 52.447L3.57254 42.918L3.56337 42.9128C2.48104 42.2858 1.58207 41.3843 0.956629 40.2986C0.33119 39.213 0.00128187 37.9814 0 36.7274V17.6541C0.00112673 16.5519 0.256152 15.467 0.7426 14.4833C0.794522 14.3129 0.86642 14.1458 0.959132 13.985C1.06633 13.799 1.19474 13.633 1.33951 13.4883C1.92805 12.6667 2.68538 11.9774 3.56337 11.4688L3.57253 11.4635L20.1975 1.93162ZM26.1319 47.6372L41.5727 38.7843L41.5765 38.7821C41.9356 38.5732 42.2339 38.2736 42.4416 37.9129C42.6501 37.5511 42.7601 37.1405 42.7605 36.7225V18.9377L26.1319 28.5891V47.6372ZM21.3807 28.5914V47.6378L5.93895 38.7843L5.93521 38.7821C5.57611 38.5732 5.2778 38.2736 5.07004 37.9129C4.86173 37.5514 4.75177 37.1412 4.75116 36.7236V18.9395L21.3807 28.5914ZM24.9436 6.06303L40.2922 14.8631L23.7543 24.4618L7.21789 14.864L22.5589 6.06831L22.568 6.06301C22.9292 5.85381 23.3388 5.74367 23.7558 5.74367C24.1728 5.74367 24.5825 5.85383 24.9436 6.06303Z" fill="url(#paint0_linear)"/>
<path d="M69.7113 31.78H74.3113V34H66.9113V20.04H69.7113V31.78ZM75.3709 28.42C75.3709 27.3 75.5909 26.3067 76.0309 25.44C76.4843 24.5733 77.0909 23.9067 77.8509 23.44C78.6243 22.9733 79.4843 22.74 80.4309 22.74C81.2576 22.74 81.9776 22.9067 82.5909 23.24C83.2176 23.5733 83.7176 23.9933 84.0909 24.5V22.92H86.9109V34H84.0909V32.38C83.7309 32.9 83.2309 33.3333 82.5909 33.68C81.9643 34.0133 81.2376 34.18 80.4109 34.18C79.4776 34.18 78.6243 33.94 77.8509 33.46C77.0909 32.98 76.4843 32.3067 76.0309 31.44C75.5909 30.56 75.3709 29.5533 75.3709 28.42ZM84.0909 28.46C84.0909 27.78 83.9576 27.2 83.6909 26.72C83.4243 26.2267 83.0643 25.8533 82.6109 25.6C82.1576 25.3333 81.6709 25.2 81.1509 25.2C80.6309 25.2 80.1509 25.3267 79.7109 25.58C79.2709 25.8333 78.9109 26.2067 78.6309 26.7C78.3643 27.18 78.2309 27.7533 78.2309 28.42C78.2309 29.0867 78.3643 29.6733 78.6309 30.18C78.9109 30.6733 79.2709 31.0533 79.7109 31.32C80.1643 31.5867 80.6443 31.72 81.1509 31.72C81.6709 31.72 82.1576 31.5933 82.6109 31.34C83.0643 31.0733 83.4243 30.7 83.6909 30.22C83.9576 29.7267 84.0909 29.14 84.0909 28.46ZM100.106 22.92V34H97.2856V32.6C96.9256 33.08 96.4523 33.46 95.8656 33.74C95.2923 34.0067 94.6656 34.14 93.9856 34.14C93.119 34.14 92.3523 33.96 91.6856 33.6C91.019 33.2267 90.4923 32.6867 90.1056 31.98C89.7323 31.26 89.5456 30.4067 89.5456 29.42V22.92H92.3456V29.02C92.3456 29.9 92.5656 30.58 93.0056 31.06C93.4456 31.5267 94.0456 31.76 94.8056 31.76C95.579 31.76 96.1856 31.5267 96.6256 31.06C97.0656 30.58 97.2856 29.9 97.2856 29.02V22.92H100.106ZM109.008 22.76C110.328 22.76 111.395 23.18 112.208 24.02C113.022 24.8467 113.428 26.0067 113.428 27.5V34H110.628V27.88C110.628 27 110.408 26.3267 109.968 25.86C109.528 25.38 108.928 25.14 108.168 25.14C107.395 25.14 106.782 25.38 106.328 25.86C105.888 26.3267 105.668 27 105.668 27.88V34H102.868V22.92H105.668V24.3C106.042 23.82 106.515 23.4467 107.088 23.18C107.675 22.9 108.315 22.76 109.008 22.76ZM115.371 28.46C115.371 27.3133 115.604 26.3133 116.071 25.46C116.538 24.5933 117.184 23.9267 118.011 23.46C118.838 22.98 119.784 22.74 120.851 22.74C122.224 22.74 123.358 23.0867 124.251 23.78C125.158 24.46 125.764 25.42 126.071 26.66H123.051C122.891 26.18 122.618 25.8067 122.231 25.54C121.858 25.26 121.391 25.12 120.831 25.12C120.031 25.12 119.398 25.4133 118.931 26C118.464 26.5733 118.231 27.3933 118.231 28.46C118.231 29.5133 118.464 30.3333 118.931 30.92C119.398 31.4933 120.031 31.78 120.831 31.78C121.964 31.78 122.704 31.2733 123.051 30.26H126.071C125.764 31.46 125.158 32.4133 124.251 33.12C123.344 33.8267 122.211 34.18 120.851 34.18C119.784 34.18 118.838 33.9467 118.011 33.48C117.184 33 116.538 32.3333 116.071 31.48C115.604 30.6133 115.371 29.6067 115.371 28.46ZM134.362 22.76C135.202 22.76 135.949 22.9467 136.602 23.32C137.256 23.68 137.762 24.22 138.122 24.94C138.496 25.6467 138.682 26.5 138.682 27.5V34H135.882V27.88C135.882 27 135.662 26.3267 135.222 25.86C134.782 25.38 134.182 25.14 133.422 25.14C132.649 25.14 132.036 25.38 131.582 25.86C131.142 26.3267 130.922 27 130.922 27.88V34H128.122V19.2H130.922V24.3C131.282 23.82 131.762 23.4467 132.362 23.18C132.962 22.9 133.629 22.76 134.362 22.76ZM150.93 34.14C149.957 34.14 149.077 33.9733 148.29 33.64C147.517 33.3067 146.904 32.8267 146.45 32.2C145.997 31.5733 145.764 30.8333 145.75 29.98H148.75C148.79 30.5533 148.99 31.0067 149.35 31.34C149.724 31.6733 150.23 31.84 150.87 31.84C151.524 31.84 152.037 31.6867 152.41 31.38C152.784 31.06 152.97 30.6467 152.97 30.14C152.97 29.7267 152.844 29.3867 152.59 29.12C152.337 28.8533 152.017 28.6467 151.63 28.5C151.257 28.34 150.737 28.1667 150.07 27.98C149.164 27.7133 148.424 27.4533 147.85 27.2C147.29 26.9333 146.804 26.54 146.39 26.02C145.99 25.4867 145.79 24.78 145.79 23.9C145.79 23.0733 145.997 22.3533 146.41 21.74C146.824 21.1267 147.404 20.66 148.15 20.34C148.897 20.0067 149.75 19.84 150.71 19.84C152.15 19.84 153.317 20.1933 154.21 20.9C155.117 21.5933 155.617 22.5667 155.71 23.82H152.63C152.604 23.34 152.397 22.9467 152.01 22.64C151.637 22.32 151.137 22.16 150.51 22.16C149.964 22.16 149.524 22.3 149.19 22.58C148.87 22.86 148.71 23.2667 148.71 23.8C148.71 24.1733 148.83 24.4867 149.07 24.74C149.324 24.98 149.63 25.18 149.99 25.34C150.364 25.4867 150.884 25.66 151.55 25.86C152.457 26.1267 153.197 26.3933 153.77 26.66C154.344 26.9267 154.837 27.3267 155.25 27.86C155.664 28.3933 155.87 29.0933 155.87 29.96C155.87 30.7067 155.677 31.4 155.29 32.04C154.904 32.68 154.337 33.1933 153.59 33.58C152.844 33.9533 151.957 34.14 150.93 34.14ZM172.058 22.76C173.418 22.76 174.511 23.18 175.338 24.02C176.178 24.8467 176.598 26.0067 176.598 27.5V34H173.798V27.88C173.798 27.0133 173.578 26.3533 173.138 25.9C172.698 25.4333 172.098 25.2 171.338 25.2C170.578 25.2 169.971 25.4333 169.518 25.9C169.078 26.3533 168.858 27.0133 168.858 27.88V34H166.058V27.88C166.058 27.0133 165.838 26.3533 165.398 25.9C164.958 25.4333 164.358 25.2 163.598 25.2C162.825 25.2 162.211 25.4333 161.758 25.9C161.318 26.3533 161.098 27.0133 161.098 27.88V34H158.298V22.92H161.098V24.26C161.458 23.7933 161.918 23.4267 162.478 23.16C163.051 22.8933 163.678 22.76 164.358 22.76C165.225 22.76 165.998 22.9467 166.678 23.32C167.358 23.68 167.885 24.2 168.258 24.88C168.618 24.24 169.138 23.7267 169.818 23.34C170.511 22.9533 171.258 22.76 172.058 22.76ZM178.535 28.42C178.535 27.3 178.755 26.3067 179.195 25.44C179.648 24.5733 180.255 23.9067 181.015 23.44C181.788 22.9733 182.648 22.74 183.595 22.74C184.422 22.74 185.142 22.9067 185.755 23.24C186.382 23.5733 186.882 23.9933 187.255 24.5V22.92H190.075V34H187.255V32.38C186.895 32.9 186.395 33.3333 185.755 33.68C185.128 34.0133 184.402 34.18 183.575 34.18C182.642 34.18 181.788 33.94 181.015 33.46C180.255 32.98 179.648 32.3067 179.195 31.44C178.755 30.56 178.535 29.5533 178.535 28.42ZM187.255 28.46C187.255 27.78 187.122 27.2 186.855 26.72C186.588 26.2267 186.228 25.8533 185.775 25.6C185.322 25.3333 184.835 25.2 184.315 25.2C183.795 25.2 183.315 25.3267 182.875 25.58C182.435 25.8333 182.075 26.2067 181.795 26.7C181.528 27.18 181.395 27.7533 181.395 28.42C181.395 29.0867 181.528 29.6733 181.795 30.18C182.075 30.6733 182.435 31.0533 182.875 31.32C183.328 31.5867 183.808 31.72 184.315 31.72C184.835 31.72 185.322 31.5933 185.775 31.34C186.228 31.0733 186.588 30.7 186.855 30.22C187.122 29.7267 187.255 29.14 187.255 28.46ZM195.61 24.64C195.97 24.0533 196.436 23.5933 197.01 23.26C197.596 22.9267 198.263 22.76 199.01 22.76V25.7H198.27C197.39 25.7 196.723 25.9067 196.27 26.32C195.83 26.7333 195.61 27.4533 195.61 28.48V34H192.81V22.92H195.61V24.64ZM204.156 25.22V30.58C204.156 30.9533 204.242 31.2267 204.416 31.4C204.602 31.56 204.909 31.64 205.336 31.64H206.636V34H204.876C202.516 34 201.336 32.8533 201.336 30.56V25.22H200.016V22.92H201.336V20.18H204.156V22.92H206.636V25.22H204.156ZM219.895 34.14C218.588 34.14 217.388 33.8333 216.295 33.22C215.202 32.6067 214.335 31.76 213.695 30.68C213.055 29.5867 212.735 28.3533 212.735 26.98C212.735 25.62 213.055 24.4 213.695 23.32C214.335 22.2267 215.202 21.3733 216.295 20.76C217.388 20.1467 218.588 19.84 219.895 19.84C221.215 19.84 222.415 20.1467 223.495 20.76C224.588 21.3733 225.448 22.2267 226.075 23.32C226.715 24.4 227.035 25.62 227.035 26.98C227.035 28.3533 226.715 29.5867 226.075 30.68C225.448 31.76 224.588 32.6067 223.495 33.22C222.402 33.8333 221.202 34.14 219.895 34.14ZM219.895 31.64C220.735 31.64 221.475 31.4533 222.115 31.08C222.755 30.6933 223.255 30.1467 223.615 29.44C223.975 28.7333 224.155 27.9133 224.155 26.98C224.155 26.0467 223.975 25.2333 223.615 24.54C223.255 23.8333 222.755 23.2933 222.115 22.92C221.475 22.5467 220.735 22.36 219.895 22.36C219.055 22.36 218.308 22.5467 217.655 22.92C217.015 23.2933 216.515 23.8333 216.155 24.54C215.795 25.2333 215.615 26.0467 215.615 26.98C215.615 27.9133 215.795 28.7333 216.155 29.44C216.515 30.1467 217.015 30.6933 217.655 31.08C218.308 31.4533 219.055 31.64 219.895 31.64ZM234.198 25.22H232.258V34H229.418V25.22H228.158V22.92H229.418V22.36C229.418 21 229.805 20 230.578 19.36C231.352 18.72 232.518 18.42 234.078 18.46V20.82C233.398 20.8067 232.925 20.92 232.658 21.16C232.392 21.4 232.258 21.8333 232.258 22.46V22.92H234.198V25.22ZM241.093 25.22H239.153V34H236.313V25.22H235.053V22.92H236.313V22.36C236.313 21 236.699 20 237.473 19.36C238.246 18.72 239.413 18.42 240.973 18.46V20.82C240.293 20.8067 239.819 20.92 239.553 21.16C239.286 21.4 239.153 21.8333 239.153 22.46V22.92H241.093V25.22ZM244.327 21.6C243.834 21.6 243.421 21.4467 243.087 21.14C242.767 20.82 242.607 20.4267 242.607 19.96C242.607 19.4933 242.767 19.1067 243.087 18.8C243.421 18.48 243.834 18.32 244.327 18.32C244.821 18.32 245.227 18.48 245.547 18.8C245.881 19.1067 246.047 19.4933 246.047 19.96C246.047 20.4267 245.881 20.82 245.547 21.14C245.227 21.4467 244.821 21.6 244.327 21.6ZM245.707 22.92V34H242.907V22.92H245.707ZM247.754 28.46C247.754 27.3133 247.987 26.3133 248.454 25.46C248.92 24.5933 249.567 23.9267 250.394 23.46C251.22 22.98 252.167 22.74 253.234 22.74C254.607 22.74 255.74 23.0867 256.634 23.78C257.54 24.46 258.147 25.42 258.454 26.66H255.434C255.274 26.18 255 25.8067 254.614 25.54C254.24 25.26 253.774 25.12 253.214 25.12C252.414 25.12 251.78 25.4133 251.314 26C250.847 26.5733 250.614 27.3933 250.614 28.46C250.614 29.5133 250.847 30.3333 251.314 30.92C251.78 31.4933 252.414 31.78 253.214 31.78C254.347 31.78 255.087 31.2733 255.434 30.26H258.454C258.147 31.46 257.54 32.4133 256.634 33.12C255.727 33.8267 254.594 34.18 253.234 34.18C252.167 34.18 251.22 33.9467 250.394 33.48C249.567 33 248.92 32.3333 248.454 31.48C247.987 30.6133 247.754 29.6067 247.754 28.46ZM270.805 28.22C270.805 28.62 270.778 28.98 270.725 29.3H262.625C262.692 30.1 262.972 30.7267 263.465 31.18C263.958 31.6333 264.565 31.86 265.285 31.86C266.325 31.86 267.065 31.4133 267.505 30.52H270.525C270.205 31.5867 269.592 32.4667 268.685 33.16C267.778 33.84 266.665 34.18 265.345 34.18C264.278 34.18 263.318 33.9467 262.465 33.48C261.625 33 260.965 32.3267 260.485 31.46C260.018 30.5933 259.785 29.5933 259.785 28.46C259.785 27.3133 260.018 26.3067 260.485 25.44C260.952 24.5733 261.605 23.9067 262.445 23.44C263.285 22.9733 264.252 22.74 265.345 22.74C266.398 22.74 267.338 22.9667 268.165 23.42C269.005 23.8733 269.652 24.52 270.105 25.36C270.572 26.1867 270.805 27.14 270.805 28.22ZM267.905 27.42C267.892 26.7 267.632 26.1267 267.125 25.7C266.618 25.26 265.998 25.04 265.265 25.04C264.572 25.04 263.985 25.2533 263.505 25.68C263.038 26.0933 262.752 26.6733 262.645 27.42H267.905Z" fill="white"/>
<defs>
<linearGradient id="paint0_linear" x1="47.5117" y1="53.5994" x2="-6.84859" y2="9.39946" gradientUnits="userSpaceOnUse">
<stop offset="0.0011704" stop-color="#4E54C8"/>
<stop offset="1" stop-color="#8F94FB"/>
</linearGradient>
</defs>
</svg>
