<svg xmlns="http://www.w3.org/2000/svg" width="86.266" height="99.534" viewBox="0 0 86.266 99.534"><defs><style>.a{fill:#abaebb;}.b{opacity:0.1;}.c{fill:#202028;}.d{fill:#3e3e47;}.e{fill:#e6e6e6;}.f{fill:#9f7a61;}.g{fill:#2f2e41;}.h{fill:#5056ca;}.i{opacity:0.25;}.j{fill:#111116;}</style></defs><g transform="translate(0 0)"><g transform="translate(63.93 20.348)"><path class="a" d="M571.122,353.3a4.967,4.967,0,0,1-4.459.561l-1.14-.484,2.285-2.561a10.912,10.912,0,1,1,3.314,2.484Z" transform="translate(-564.979 -332.576)"/><path class="b" d="M682.7,351.412A10.957,10.957,0,0,0,672.71,340.5c.318-.028.641-.043.968-.043a10.956,10.956,0,1,1,0,21.913c-.326,0-.648-.015-.967-.043A10.957,10.957,0,0,0,682.7,351.412Z" transform="translate(-662.298 -340.455)"/><rect class="c" width="7.176" height="0.666" transform="translate(5.154 8.842)"/><rect class="c" width="12.506" height="0.666" transform="translate(5.154 11.147)"/><rect class="c" width="12.494" height="0.666" transform="translate(5.154 13.452)"/></g><path class="d" d="M232.824,838.277h73.289a.192.192,0,0,0,0-.385H232.824a.192.192,0,1,0,0,.385Z" transform="translate(-232.632 -738.743)"/><path class="e" d="M416.417,402.026l.29-1.448s4.261-1.448,4.737,1.448Z" transform="translate(-381.064 -385.258)"/><path class="f" d="M226.292,718.862h2.793l1.329-10.774h-4.123Z" transform="translate(-182.762 -622.346)"/><path class="g" d="M455.222,819.464h5.5a3.506,3.506,0,0,1,3.506,3.505v.114h-9.007Z" transform="translate(-412.404 -723.86)"/><path class="f" d="M156.292,718.862h2.793l1.329-10.774h-4.123Z" transform="translate(-126.227 -622.346)"/><path class="g" d="M385.222,819.464h5.5a3.506,3.506,0,0,1,3.506,3.505v.114h-9.007Z" transform="translate(-355.87 -723.86)"/><path class="h" d="M140.811,379.927l-3.186-.29L135.6,389.2l.29,8.69,3.186,11.587,4.345-2.607L141.1,394.989Z" transform="translate(-109.513 -357.076)"/><path class="c" d="M151.565,524.607l.713,6.083.67,14.194-1.539,21.152,5.5-.3,2.7-22.015,1.647-10.139,2.317,11.587,1.448,21.725,5.648-.453V545.1l.145-15.566-2.028-6.083Z" transform="translate(-122.284 -473.223)"/><path class="h" d="M390.589,404.46s-2.028-2.9-5.793-.869l-1.738,2.317-5.5,4.055,1.159,13.615-1.448,17.091,20.567-.29-3.476-17.091V405.039Z" transform="translate(-349.443 -387.403)"/><path class="i" d="M148.953,404.632l-1.661,19.859,2.1-10.763Z" transform="translate(-118.959 -377.263)"/><path class="f" d="M536.631,526.415a2.136,2.136,0,0,1-2.8-1.7l-4.74-1.171.009-3.054,6.67,1.748a2.148,2.148,0,0,1,.86,4.179Z" transform="translate(-472.065 -482.396)"/><rect class="e" width="4.635" height="2.028" transform="matrix(0.172, -0.985, 0.985, 0.172, 58.813, 42.623)"/><circle class="f" cx="5.817" cy="5.817" r="5.817" transform="translate(30.028 5.58) rotate(-28.663)"/><path class="j" d="M401.475,341.1a5.9,5.9,0,0,1-3.86-11.09,6.9,6.9,0,0,1,3.258-.585c1.74.091,3.431.734,5.172.687l.252.406.951-.231.2.755.251-.009a1.442,1.442,0,0,1-1.22,2.018,5.634,5.634,0,0,1-1.1-.239,1.1,1.1,0,0,0-1.051.218c-.329.36-.186.922-.117,1.4s-.1,1.132-.59,1.148c-.249.008-.485-.17-.73-.124a.593.593,0,0,0-.387.685,2.729,2.729,0,0,0,.341.8,3.2,3.2,0,0,1-1.271,4.087" transform="translate(-363.117 -328.073)"/><path class="h" d="M449.368,415.253l1.383-1.119a2.525,2.525,0,0,1,2.74,2.764l4.465,13.966,8.565,3.034-1.154,5.963-12.119-4.617-6.156-10.2Z" transform="translate(-405.839 -396.497)"/></g></svg>