<svg xmlns="http://www.w3.org/2000/svg" width="285.902" height="250" viewBox="0 0 285.902 250">
  <g id="Congratulations" transform="translate(0 0)">
    <path id="Path_11930" data-name="Path 11930" d="M366.765,666.755c-9.393,5.065-13.425,15.814-13.425,15.814s11.2,2.538,20.589-2.527,13.425-15.814,13.425-15.814S376.157,661.69,366.765,666.755Z" transform="translate(-318.549 -444.932)" fill="#484855"/>
    <path id="Path_11931" data-name="Path 11931" d="M369.508,652.561c-5.5,9.144-16.428,12.665-16.428,12.665s-2.008-11.3,3.494-20.447S373,632.114,373,632.114,375.01,643.418,369.508,652.561Z" transform="translate(-318.203 -427.257)" fill="#484855"/>
    <rect id="Rectangle_2935" data-name="Rectangle 2935" width="33.326" height="19.733" transform="translate(191.82 17.595)" fill="#2f2e41"/>
    <path id="Path_11932" data-name="Path 11932" d="M614.15,193.646H596.968v-5.992a8.591,8.591,0,1,1,17.182,0Zm-16.8-.38H613.77v-5.611a8.211,8.211,0,1,0-16.421,0Z" transform="translate(-455.346 -172.869)" fill="#70758b"/>
    <path id="Path_11933" data-name="Path 11933" d="M323.8,42.5V40.162l-43.7,1.171-1.383,59.312,6.467,7.989Z" transform="translate(-156.503 -22.551)" fill="#099542"/>
    <path id="Path_11934" data-name="Path 11934" d="M338.52,43.622,291.158,44.7l1.014,65.876,45.707-4.927Z" transform="translate(-163.485 -24.494)" fill="#32cc71"/>
    <path id="Path_11935" data-name="Path 11935" d="M480.838,503.8h-5.376l-2.557-20.736h7.934Z" transform="translate(-265.536 -271.242)" fill="#ffb6b6"/>
    <path id="Path_11936" data-name="Path 11936" d="M745.926,698.255H728.592v-.219a6.747,6.747,0,0,1,6.746-6.747h10.588Z" transform="translate(-529.253 -460.483)" fill="#2f2e41"/>
    <path id="Path_11937" data-name="Path 11937" d="M435.838,503.8h-5.376L427.9,483.067h7.934Z" transform="translate(-240.268 -271.242)" fill="#ffb6b6"/>
    <path id="Path_11938" data-name="Path 11938" d="M700.926,698.255H683.592v-.219a6.747,6.747,0,0,1,6.746-6.747h10.588Z" transform="translate(-503.986 -460.483)" fill="#2f2e41"/>
    <path id="Path_11939" data-name="Path 11939" d="M679.22,399.2s-7.855,16.915-.759,50.963,7.155,71.426,7.155,71.426l10.85.177,6.1-80.474,3.191,79.338h10.69l9.421-78.083s6.2-34.867-7.625-41.109Z" transform="translate(-499.438 -296.474)" fill="#2f2e41"/>
    <path id="Path_11940" data-name="Path 11940" d="M714.544,260.259l-23.757-2.19h0c-7.45,5.43-11.631,15.183-10.773,25.246,1.164,13.644.77,32.42-8.569,40.577,0,0,25.455,20.09,48.066,1.03,0,0-7.732-20.714-2.423-28.986S724.311,264.425,714.544,260.259Z" transform="translate(-497.165 -217.231)" fill="#e4e4e4"/>
    <path id="Path_11941" data-name="Path 11941" d="M608.493,180.717a4.711,4.711,0,0,0,5.016,5.2l31.367,29.273,5.622-8.564-32.6-26.082a4.736,4.736,0,0,0-9.4.175Z" transform="translate(-461.803 -171.402)" fill="#ffb6b6"/>
    <path id="Path_11942" data-name="Path 11942" d="M677.375,243.87l7.441-7.644a2.112,2.112,0,0,1,3.193.192l6.451,8.455a5.866,5.866,0,1,1-8.208,8.382l-8.6-6.2a2.112,2.112,0,0,1-.278-3.186Z" transform="translate(-500.159 -204.607)" fill="#e4e4e4"/>
    <path id="Path_11943" data-name="Path 11943" d="M818.736,307.266a4.711,4.711,0,0,0-5.3-4.911L780.493,274.87l-5.138,8.863,34,24.23a4.736,4.736,0,0,0,9.38-.7Z" transform="translate(-555.511 -226.664)" fill="#ffb6b6"/>
    <path id="Path_11944" data-name="Path 11944" d="M776.5,271.2l-7.005,8.045a2.112,2.112,0,0,1-3.2-.014l-6.911-8.084a5.866,5.866,0,0,1,7.73-8.825l8.93,5.712a2.112,2.112,0,0,1,.454,3.166Z" transform="translate(-545.422 -218.8)" fill="#e4e4e4"/>
    <path id="Path_11945" data-name="Path 11945" d="M865.252,361.109H852.237V356.57a6.508,6.508,0,0,1,13.015,0Zm-12.727-.288h12.439v-4.25a6.219,6.219,0,0,0-12.439,0Z" transform="translate(-598.68 -268.885)" fill="#70758b"/>
    <path id="Path_11946" data-name="Path 11946" d="M578.87,206.621v-1.774l-33.1.887-1.048,44.927,4.9,6.051Z" transform="translate(-305.862 -115.021)" fill="#099542"/>
    <path id="Path_11947" data-name="Path 11947" d="M590.017,207.468l-35.875.816.768,49.9,34.622-3.732Z" transform="translate(-311.15 -116.493)" fill="#32cc71"/>
    <circle id="Ellipse_97" data-name="Ellipse 97" cx="14.032" cy="14.032" r="14.032" transform="translate(193.135 8.825)" fill="#ffb6b6"/>
    <path id="Path_11948" data-name="Path 11948" d="M714.264,181.541a14.622,14.622,0,0,0,18.64,1.006,31.477,31.477,0,0,1-6.7,29.676,10.475,10.475,0,0,0,9.042-1.343,18.7,18.7,0,0,0,6.1-7.108,28.7,28.7,0,0,0,1.993-22.7,24.458,24.458,0,0,0-16.382-15.463c-7.561-1.979-16.231.466-21.282,6.43-5.282,6.236-6.138,15.374-3.823,23.213s7.392,14.57,12.97,20.543a85.711,85.711,0,0,1-5.286-21.443,19.214,19.214,0,0,1,.261-7.539,7.645,7.645,0,0,1,4.9-5.376" transform="translate(-513.557 -164.937)" fill="#2f2e41"/>
    <path id="Path_11949" data-name="Path 11949" d="M710.507,707.94H543.438a.438.438,0,0,1,0-.877H710.507a.438.438,0,0,1,0,.877Z" transform="translate(-425.043 -469.341)" fill="#cacaca"/>
    <path id="Path_11950" data-name="Path 11950" d="M345.476,707.94H274.439a.438.438,0,1,1,0-.877h71.037a.438.438,0,0,1,0,.877Z" transform="translate(-274 -469.341)" fill="#cacaca"/>
    <path id="Path_11951" data-name="Path 11951" d="M849.252,608.109H836.237V603.57a6.508,6.508,0,0,1,13.015,0Zm-12.727-.288h12.439v-4.25a6.219,6.219,0,1,0-12.439,0Z" transform="translate(-589.696 -407.575)" fill="#cacaca"/>
    <path id="Path_11952" data-name="Path 11952" d="M562.87,453.621v-1.774l-33.1.887-1.048,44.927,4.9,6.051Z" transform="translate(-296.878 -253.712)" fill="#3339b0"/>
    <path id="Path_11953" data-name="Path 11953" d="M574.017,454.468l-35.875.816.768,49.9,34.622-3.732Z" transform="translate(-302.167 -255.183)" fill="#5056ca"/>
  </g>
</svg>
