<svg xmlns="http://www.w3.org/2000/svg" width="26" height="26" viewBox="0 0 26 26">
  <g id="chat-bot" transform="translate(-2.25 -2.25)">
    <path id="Path_6686" data-name="Path 6686" d="M16.854,20.543a6.491,6.491,0,0,1-5.416-2.905l1.547-1.028a4.643,4.643,0,0,0,7.739,0l1.547,1.028A6.491,6.491,0,0,1,16.854,20.543Z" transform="translate(-1.604 -2.507)" fill="#ff6f00"/>
    <path id="Path_6687" data-name="Path 6687" d="M22.107,9a1.839,1.839,0,1,0,1.319.539A1.857,1.857,0,0,0,22.107,9Z" transform="translate(-3.143 -1.179)" fill="#ff6f00"/>
    <path id="Path_6688" data-name="Path 6688" d="M13.107,9a1.839,1.839,0,1,0,1.319.539A1.857,1.857,0,0,0,13.107,9Z" transform="translate(-1.571 -1.179)" fill="#ff6f00"/>
    <path id="Path_6689" data-name="Path 6689" d="M16.862,28.25l-1.612-.929,3.714-6.5h5.571a1.855,1.855,0,0,0,1.857-1.857v-13a1.855,1.855,0,0,0-1.857-1.857H5.964A1.855,1.855,0,0,0,4.107,5.964v13a1.855,1.855,0,0,0,1.857,1.857h8.357v1.857H5.964A3.714,3.714,0,0,1,2.25,18.964v-13A3.714,3.714,0,0,1,5.965,2.25H24.536A3.714,3.714,0,0,1,28.25,5.965v13a3.714,3.714,0,0,1-3.714,3.714H20.046Z" transform="translate(0 0)" fill="#ff6f00"/>
  </g>
</svg>
