<svg xmlns="http://www.w3.org/2000/svg" width="11" height="11" viewBox="0 0 11 11">
  <path id="Icon_feather-command" data-name="Icon feather-command" d="M5.2,3A2.2,2.2,0,0,1,7.4,5.2V6.3H9.6V5.2a2.2,2.2,0,1,1,2.2,2.2H10.7V9.6h1.1a2.2,2.2,0,1,1-2.2,2.2V10.7H7.4v1.1A2.2,2.2,0,1,1,5.2,9.6H6.3V7.4H5.2A2.2,2.2,0,0,1,5.2,3ZM6.3,6.3V5.2A1.1,1.1,0,1,0,5.2,6.3Zm5.5,0a1.1,1.1,0,1,0-1.1-1.1V6.3ZM9.6,7.4H7.4V9.6H9.6ZM6.3,10.7H5.2a1.1,1.1,0,1,0,1.1,1.1Zm5.5,2.2a1.1,1.1,0,1,0,0-2.2H10.7v1.1A1.1,1.1,0,0,0,11.8,12.9Z" transform="translate(-3 -3)" fill="#e1e1e1" opacity="0.55"/>
</svg>
