<svg width="9" height="15" viewBox="0 0 9 15" fill="none" xmlns="http://www.w3.org/2000/svg">
<g clip-path="url(#clip0_1351_612)">
<path d="M5.98996 7.50203L0.313958 13.173C0.115462 13.3748 0.00481437 13.6469 0.00615788 13.9299C0.00750138 14.213 0.120725 14.484 0.321128 14.6838C0.521531 14.8837 0.792848 14.9962 1.07589 14.9968C1.35893 14.9974 1.63071 14.8861 1.83196 14.687L8.26196 8.26103C8.4563 8.06598 8.56797 7.80352 8.57374 7.52824C8.57951 7.25296 8.47895 6.98605 8.29296 6.78303L1.83596 0.313028C1.63471 0.114 1.36292 0.00263815 1.07989 0.00323486C0.796848 0.00383157 0.525532 0.116339 0.32513 0.316214C0.124727 0.516088 0.011503 0.787107 0.0101595 1.07014C0.00881598 1.35318 0.119462 1.62526 0.317958 1.82703L5.98996 7.50203Z" fill="#D1D1D1"/>
</g>
<defs>
<clipPath id="clip0_1351_612">
<rect width="8.576" height="15" fill="white"/>
</clipPath>
</defs>
</svg>
