<svg width="13" height="16" viewBox="0 0 13 16" fill="none" xmlns="http://www.w3.org/2000/svg">
<path fill-rule="evenodd" clip-rule="evenodd" d="M6.28731 0C7.62777 0 8.7302 0.445063 9.44286 1.36413C10.0143 2.10121 10.2857 3.06562 10.2857 4.15229H9.14286C9.14286 3.24929 8.91782 2.55214 8.53966 2.06441C8.09583 1.49202 7.36969 1.14286 6.28731 1.14286C5.30648 1.14286 4.6133 1.44574 4.16176 1.92712C3.70522 2.41384 3.42857 3.15479 3.42857 4.15544V6.85714H11.4286C12.0598 6.85714 12.5714 7.36882 12.5714 8V14.8571C12.5714 15.4883 12.0598 16 11.4286 16H1.14286C0.511657 16 0 15.4883 0 14.8571V8C0 7.36881 0.511657 6.85714 1.14286 6.85714H2.28571V4.15544C2.28571 2.95011 2.62114 1.89905 3.32823 1.14526C4.04026 0.386138 5.06216 0 6.28731 0ZM11.4286 8H1.14286V14.8571H11.4286V8Z" fill="#FF6F00"/>
<path d="M10.2874 6.85714H9.14453V4H10.2874V6.85714Z" fill="#FF6F00"/>
</svg>
