<svg xmlns="http://www.w3.org/2000/svg" width="22.573" height="22.573" viewBox="0 0 22.573 22.573"><path d="M14.849,3.833a1.093,1.093,0,0,1,0,1.531L11.456,8.748l1.269,1.269-1.354,1.354a5.31,5.31,0,0,1-3.3,1.578,5.121,5.121,0,0,1-3.482-.85L1.531,15.162H0V13.63l3.063-3.063a5.119,5.119,0,0,1-.85-3.482A5.31,5.31,0,0,1,3.79,3.79L5.144,2.437,6.413,3.706,9.8.313A1.065,1.065,0,0,1,10.567,0a1.036,1.036,0,0,1,.761.313,1.041,1.041,0,0,1,.313.766,1.041,1.041,0,0,1-.313.766L7.945,5.237l1.98,1.98,3.393-3.384a1.065,1.065,0,0,1,.77-.313,1.036,1.036,0,0,1,.761.313Z" transform="translate(11.287 0.566) rotate(45)" fill="none" stroke="#ffb300" stroke-width="0.8"/></svg>