<svg width="20" height="20" viewBox="0 0 20 20" fill="none" xmlns="http://www.w3.org/2000/svg">
<path d="M10 5C9.38194 5 8.77775 5.18328 8.26384 5.52666C7.74994 5.87004 7.3494 6.3581 7.11288 6.92911C6.87635 7.50013 6.81447 8.12847 6.93505 8.73466C7.05563 9.34085 7.35325 9.89767 7.79029 10.3347C8.22733 10.7717 8.78415 11.0694 9.39034 11.19C9.99654 11.3105 10.6249 11.2486 11.1959 11.0121C11.7669 10.7756 12.255 10.3751 12.5983 9.86116C12.9417 9.34725 13.125 8.74307 13.125 8.125C13.125 7.2962 12.7958 6.50134 12.2097 5.91529C11.6237 5.32924 10.8288 5 10 5Z" fill="white"/>
<path d="M10 1.25C8.26942 1.25 6.57769 1.76318 5.13876 2.72464C3.69983 3.6861 2.57832 5.05267 1.91606 6.65152C1.25379 8.25037 1.08051 10.0097 1.41813 11.707C1.75575 13.4044 2.58911 14.9635 3.81282 16.1872C5.03653 17.4109 6.59563 18.2443 8.29296 18.5819C9.9903 18.9195 11.7496 18.7462 13.3485 18.0839C14.9473 17.4217 16.3139 16.3002 17.2754 14.8612C18.2368 13.4223 18.75 11.7306 18.75 10C18.7474 7.68016 17.8247 5.45608 16.1843 3.8157C14.5439 2.17533 12.3198 1.25261 10 1.25V1.25ZM14.9953 15.5786C14.9829 14.7588 14.6488 13.9766 14.0652 13.4008C13.4815 12.8249 12.6949 12.5014 11.875 12.5H8.125C7.30507 12.5014 6.5185 12.8249 5.93483 13.4008C5.35116 13.9766 5.01712 14.7588 5.00469 15.5786C3.87129 14.5666 3.07202 13.2342 2.71271 11.7578C2.3534 10.2814 2.451 8.73071 2.99259 7.31104C3.53418 5.89136 4.4942 4.66967 5.74555 3.80773C6.99689 2.94579 8.48053 2.48427 10 2.48427C11.5195 2.48427 13.0031 2.94579 14.2545 3.80773C15.5058 4.66967 16.4658 5.89136 17.0074 7.31104C17.549 8.73071 17.6466 10.2814 17.2873 11.7578C16.928 13.2342 16.1287 14.5666 14.9953 15.5786V15.5786Z" fill="white"/>
</svg>
