<svg xmlns="http://www.w3.org/2000/svg" width="20.067" height="18.462" viewBox="0 0 20.067 18.462">
  <g id="comment_1_" data-name="comment (1)" transform="translate(0 0)">
    <path id="Path_10" data-name="Path 10" d="M17.309-1.332H2.76A2.762,2.762,0,0,0,0,1.427v8.9A2.762,2.762,0,0,0,2.75,13.089v4.04l5.807-4.04h8.752a2.762,2.762,0,0,0,2.759-2.759v-8.9a2.762,2.762,0,0,0-2.759-2.759Zm1.583,11.663a1.585,1.585,0,0,1-1.583,1.583H8.187L3.925,14.879V11.914H2.76a1.585,1.585,0,0,1-1.583-1.583v-8.9A1.585,1.585,0,0,1,2.76-.156H17.309a1.585,1.585,0,0,1,1.583,1.583Zm0,0" transform="translate(-0.001 1.332)" fill="#fff"/>
    <path id="Path_11" data-name="Path 11" d="M171.293,131.172h9.325v1.176h-9.325Zm0,0" transform="translate(-165.922 -127.017)" fill="#fff"/>
    <path id="Path_12" data-name="Path 12" d="M171.293,211.172h9.325v1.176h-9.325Zm0,0" transform="translate(-165.922 -204.509)" fill="#fff"/>
    <path id="Path_13" data-name="Path 13" d="M171.293,291.172h9.325v1.176h-9.325Zm0,0" transform="translate(-165.922 -282.001)" fill="#fff"/>
  </g>
</svg>
