<svg id="no-video_1_" data-name="no-video (1)" xmlns="http://www.w3.org/2000/svg" width="20.163" height="20.163" viewBox="0 0 20.163 20.163">
  <path id="Path_8" data-name="Path 8" d="M151.074,85.79a.631.631,0,0,1,.63.63v2.016a.63.63,0,0,0,.954.54l3.456-2.074v7.855l-3.456-2.074a.626.626,0,0,0-.29-.082l3.444,3.444.608.365a.63.63,0,0,0,.954-.54V85.79a.63.63,0,0,0-.954-.54l-3.456,2.074v-.9a1.892,1.892,0,0,0-1.89-1.89H144.3l1.26,1.26Z" transform="translate(-137.841 -80.749)" fill="#fff"/>
  <path id="Path_9" data-name="Path 9" d="M20.163,19.272.891,0,0,.891l2.89,2.89h-1A1.892,1.892,0,0,0,0,5.671v8.821a1.892,1.892,0,0,0,1.89,1.89H13.232a1.874,1.874,0,0,0,1.5-.758l4.539,4.539Zm-6.931-4.15H1.89a.631.631,0,0,1-.63-.63V5.671a.631.631,0,0,1,.63-.63H4.15l9.669,9.669A.627.627,0,0,1,13.232,15.122Z" transform="translate(0)" fill="#fff"/>
</svg>
