<svg xmlns="http://www.w3.org/2000/svg" width="29.903" height="29.903" viewBox="0 0 29.903 29.903">
  <g id="phone" transform="translate(29.903 14.951) rotate(135)">
    <g id="phone-2" data-name="phone">
      <g id="Group_27" data-name="Group 27">
        <path id="Path_84" data-name="Path 84" d="M19.448,13.879a12.005,12.005,0,0,1-3.77-.6A1.66,1.66,0,0,0,14,13.632l-2.377,1.795A13.139,13.139,0,0,1,5.717,9.52L7.459,7.2a1.709,1.709,0,0,0,.42-1.732,12.023,12.023,0,0,1-.6-3.776A1.7,1.7,0,0,0,5.58,0H1.7A1.7,1.7,0,0,0,0,1.7,19.47,19.47,0,0,0,19.448,21.144a1.7,1.7,0,0,0,1.7-1.7V15.576A1.7,1.7,0,0,0,19.448,13.879Z" fill="#fff"/>
      </g>
    </g>
  </g>
</svg>
