<svg xmlns="http://www.w3.org/2000/svg" width="16" height="18.821" viewBox="0 0 16 18.821">
  <g id="star" transform="translate(-0.003 -0.39)">
    <path id="Path_8677" data-name="Path 8677" d="M2.868,15.473a.531.531,0,0,0,.746.593L8,13.81l4.389,2.256a.531.531,0,0,0,.746-.592l-.83-4.73,3.523-3.356a.556.556,0,0,0-.283-.95l-4.9-.7L8.466,1.415a.513.513,0,0,0-.927,0L5.355,5.743l-4.9.7a.556.556,0,0,0-.283.95L3.7,10.744l-.83,4.73Zm4.9-2.767L4.087,14.6l.694-3.957a.565.565,0,0,0-.163-.5L1.712,7.368l4.052-.576A.525.525,0,0,0,6.156,6.5L8,2.846,9.85,6.5a.525.525,0,0,0,.393.288l4.052.575-2.906,2.77a.564.564,0,0,0-.163.506l.694,3.957L8.234,12.706a.5.5,0,0,0-.461,0Z" transform="translate(0)" fill="#2b7ad5"/>
    <g id="Rectangle_151" data-name="Rectangle 151" transform="translate(1.704 17.71) rotate(-60)" fill="#2b7ad5" stroke="#fff" stroke-width="1">
      <rect width="20" height="3" stroke="none"/>
      <rect x="0.5" y="0.5" width="19" height="2" fill="none"/>
    </g>
  </g>
</svg>
