<svg id="Icon" xmlns="http://www.w3.org/2000/svg" width="13.867" height="11.733" viewBox="0 0 13.867 11.733">
  <rect id="Rectangle_3" data-name="Rectangle 3" width="13.867" height="11.733" rx="2" fill="#fff"/>
  <path id="Path_29" data-name="Path 29" d="M.533,0H11.2a.533.533,0,0,1,.533.533V5.867A.533.533,0,0,1,11.2,6.4H.533A.533.533,0,0,1,0,5.867V.533A.533.533,0,0,1,.533,0Z" transform="translate(1.067 1.067)" fill="#343434"/>
  <path id="Path_46" data-name="Path 46" d="M-3.467,0h3.2A.533.533,0,0,1,.267.533V1.6a.533.533,0,0,1-.533.533h-3.2A.533.533,0,0,1-4,1.6V.533A.533.533,0,0,1-3.467,0Z" transform="translate(12.533 8.533)" fill="#343434"/>
</svg>
