<svg width="32" height="32" viewBox="0 0 32 32" fill="none" xmlns="http://www.w3.org/2000/svg">
<g clip-path="url(#clip0_1258_622)">
<path d="M28 4H4C3.46957 4 2.96086 4.21071 2.58579 4.58579C2.21071 4.96086 2 5.46957 2 6V22C2 22.5304 2.21071 23.0391 2.58579 23.4142C2.96086 23.7893 3.46957 24 4 24H12V28H8V30H24V28H20V24H28C28.5304 24 29.0391 23.7893 29.4142 23.4142C29.7893 23.0391 30 22.5304 30 22V6C30 5.46957 29.7893 4.96086 29.4142 4.58579C29.0391 4.21071 28.5304 4 28 4V4ZM18 28H14V24H18V28ZM28 22H4V6H28V22Z" fill="white"/>
<path d="M16.5303 7.46967C16.2374 7.17678 15.7626 7.17678 15.4697 7.46967L10.6967 12.2426C10.4038 12.5355 10.4038 13.0104 10.6967 13.3033C10.9896 13.5962 11.4645 13.5962 11.7574 13.3033L16 9.06066L20.2426 13.3033C20.5355 13.5962 21.0104 13.5962 21.3033 13.3033C21.5962 13.0104 21.5962 12.5355 21.3033 12.2426L16.5303 7.46967ZM16.75 20L16.75 8L15.25 8L15.25 20L16.75 20Z" fill="white"/>
</g>
<defs>
<clipPath id="clip0_1258_622">
<rect width="32" height="32" fill="white"/>
</clipPath>
</defs>
</svg>
