<svg width="14" height="9" viewBox="0 0 14 9" fill="none" xmlns="http://www.w3.org/2000/svg">
<g clip-path="url(#clip0_1262_834)">
<path d="M8.568 8.75H1.641C1.20594 8.74947 0.788855 8.57641 0.481222 8.26878C0.17359 7.96115 0.000529268 7.54406 0 7.109L0 1.641C0.000529268 1.20594 0.17359 0.788855 0.481222 0.481222C0.788855 0.17359 1.20594 0.000529268 1.641 0H8.568C9.00306 0.000529268 9.42014 0.17359 9.72778 0.481222C10.0354 0.788855 10.2085 1.20594 10.209 1.641V7.11C10.2082 7.54489 10.035 7.96172 9.72742 8.26913C9.41982 8.57655 9.00288 8.74947 8.568 8.75V8.75ZM1.641 1.094C1.49601 1.09426 1.35703 1.15198 1.2545 1.2545C1.15198 1.35703 1.09426 1.49601 1.094 1.641V7.11C1.09426 7.25499 1.15198 7.39397 1.2545 7.4965C1.35703 7.59902 1.49601 7.65674 1.641 7.657H8.568C8.71299 7.65674 8.85197 7.59902 8.9545 7.4965C9.05702 7.39397 9.11474 7.25499 9.115 7.11V1.641C9.11474 1.49601 9.05702 1.35703 8.9545 1.2545C8.85197 1.15198 8.71299 1.09426 8.568 1.094H1.641Z" fill="#5056CA"/>
<path d="M13.3082 8.38585C13.2306 8.38623 13.1538 8.36985 13.0832 8.33785L9.43716 6.69685C9.3715 6.66743 9.31228 6.62537 9.26287 6.57307C9.21347 6.52076 9.17485 6.45924 9.14922 6.39201C9.12359 6.32478 9.11145 6.25316 9.1135 6.18124C9.11555 6.10932 9.13175 6.03851 9.16116 5.97285C9.19058 5.90719 9.23264 5.84796 9.28495 5.79856C9.33725 5.74915 9.39877 5.71053 9.466 5.6849C9.53323 5.65927 9.60485 5.64714 9.67677 5.64919C9.74869 5.65124 9.8195 5.66743 9.88517 5.69685L12.7602 6.98985V1.75785L9.88616 3.05085C9.75356 3.11025 9.60278 3.11455 9.467 3.06279C9.33123 3.01103 9.22157 2.90745 9.16216 2.77485C9.10276 2.64224 9.09846 2.49146 9.15022 2.35569C9.20198 2.21991 9.30556 2.11025 9.43816 2.05085L13.0842 0.409846C13.1675 0.372146 13.259 0.355994 13.3502 0.362875C13.4415 0.369756 13.5295 0.399449 13.6063 0.449226C13.683 0.499004 13.746 0.56727 13.7895 0.647755C13.833 0.728239 13.8556 0.818363 13.8552 0.909846V7.83685C13.8552 7.98192 13.7975 8.12105 13.695 8.22363C13.5924 8.32622 13.4532 8.38385 13.3082 8.38385V8.38585Z" fill="#5056CA"/>
</g>
<defs>
<clipPath id="clip0_1262_834">
<rect width="13.854" height="8.75" fill="white"/>
</clipPath>
</defs>
</svg>
