<svg xmlns="http://www.w3.org/2000/svg" xmlns:xlink="http://www.w3.org/1999/xlink" width="46" height="136" viewBox="0 0 46 136"><defs><style>.a{fill:#fff;}.b{fill:#7a7f93;}.c{filter:url(#a);}</style><filter id="a" x="0" y="0" width="46" height="136" filterUnits="userSpaceOnUse"><feOffset dx="5" input="SourceAlpha"/><feGaussianBlur stdDeviation="2.5" result="b"/><feFlood flood-opacity="0.078"/><feComposite operator="in" in2="b"/><feComposite in="SourceGraphic"/></filter></defs><g transform="translate(-597.5 -317.5)"><g class="c" transform="matrix(1, 0, 0, 1, 597.5, 317.5)"><path class="a" d="M0-14S2.6-4.5,7.853-2,21,0,21,0A10,10,0,0,1,31,10V82A10,10,0,0,1,21,92,24.911,24.911,0,0,0,9.711,94C4.461,96.5,0,107,0,107Z" transform="translate(2.5 21.5)"/></g><path class="b" d="M5.362-9.982a4.828,4.828,0,0,1,3.066.952,4.5,4.5,0,0,1,1.61,2.59H7.966a2.711,2.711,0,0,0-1-1.26,2.829,2.829,0,0,0-1.631-.462A2.622,2.622,0,0,0,3.92-7.77a2.616,2.616,0,0,0-.98,1.12,3.9,3.9,0,0,0-.35,1.708,3.868,3.868,0,0,0,.35,1.694,2.616,2.616,0,0,0,.98,1.12,2.622,2.622,0,0,0,1.414.392A2.829,2.829,0,0,0,6.965-2.2a2.711,2.711,0,0,0,1-1.26h2.072a4.5,4.5,0,0,1-1.61,2.59A4.828,4.828,0,0,1,5.362.084a4.843,4.843,0,0,1-2.5-.637,4.337,4.337,0,0,1-1.68-1.785,5.576,5.576,0,0,1-.6-2.6,5.607,5.607,0,0,1,.6-2.618A4.351,4.351,0,0,1,2.856-9.345,4.833,4.833,0,0,1,5.362-9.982Zm9.814,8.47h3.318V0H13.2V-9.884h1.974Zm10.808-8.512A4.975,4.975,0,0,1,28.5-9.38a4.672,4.672,0,0,1,1.778,1.8,5.224,5.224,0,0,1,.651,2.611,5.263,5.263,0,0,1-.651,2.618A4.658,4.658,0,0,1,28.5-.546,4.975,4.975,0,0,1,25.984.1a4.975,4.975,0,0,1-2.513-.644,4.658,4.658,0,0,1-1.778-1.806,5.263,5.263,0,0,1-.651-2.618,5.224,5.224,0,0,1,.651-2.611,4.672,4.672,0,0,1,1.778-1.8A4.975,4.975,0,0,1,25.984-10.024Zm0,1.82a2.924,2.924,0,0,0-1.526.392,2.682,2.682,0,0,0-1.029,1.127,3.759,3.759,0,0,0-.371,1.715,3.759,3.759,0,0,0,.371,1.715,2.682,2.682,0,0,0,1.029,1.127,2.924,2.924,0,0,0,1.526.392,2.924,2.924,0,0,0,1.526-.392,2.682,2.682,0,0,0,1.029-1.127A3.759,3.759,0,0,0,28.91-4.97a3.759,3.759,0,0,0-.371-1.715A2.682,2.682,0,0,0,27.51-7.812,2.924,2.924,0,0,0,25.984-8.2Zm14.9,5.5A2.68,2.68,0,0,1,40.5-1.309a2.715,2.715,0,0,1-1.12,1.022A3.883,3.883,0,0,1,37.576.1,4.686,4.686,0,0,1,35.7-.259a3.172,3.172,0,0,1-1.323-1.029,2.968,2.968,0,0,1-.567-1.568h2.1a1.6,1.6,0,0,0,.483,1,1.515,1.515,0,0,0,1.1.4,1.279,1.279,0,0,0,.945-.329,1.146,1.146,0,0,0,.329-.847,1.11,1.11,0,0,0-.266-.763,1.941,1.941,0,0,0-.672-.483q-.406-.182-1.12-.42A11.072,11.072,0,0,1,35.2-4.907a2.8,2.8,0,0,1-1-.875,2.507,2.507,0,0,1-.413-1.5A2.436,2.436,0,0,1,34.7-9.289a3.769,3.769,0,0,1,2.429-.735,3.847,3.847,0,0,1,2.5.756,2.854,2.854,0,0,1,1.057,2.016H38.556a1.482,1.482,0,0,0-.448-.875,1.391,1.391,0,0,0-.994-.343,1.311,1.311,0,0,0-.882.287,1.035,1.035,0,0,0-.336.833,1.036,1.036,0,0,0,.259.721,1.976,1.976,0,0,0,.658.469,10.8,10.8,0,0,0,1.085.406,14.425,14.425,0,0,1,1.547.63,2.726,2.726,0,0,1,1.015.882A2.592,2.592,0,0,1,40.88-2.7Zm5.11-5.614v2.562h3.5v1.512h-3.5v2.66h3.92V0H44.016V-9.884H49.91v1.568Z" transform="translate(611 360) rotate(90)"/></g></svg>