<svg xmlns="http://www.w3.org/2000/svg" width="126" height="34" viewBox="0 0 126 34"><g transform="translate(-167 -726)"><text transform="translate(199 736)" fill="#adb3cc" font-size="10" font-family="IBMPlexSans-MediumItalic, IBM Plex Sans" font-weight="500" font-style="italic"><tspan x="0" y="0">Switch to</tspan><tspan fill="#f2f5f9" font-size="16" font-family="IBMPlexSans-SemiBold, IBM Plex Sans" font-weight="600" font-style="normal"><tspan x="0" y="20">Smart Office</tspan></tspan></text><g transform="translate(167 731)"><path d="M22.128,6.352l-9-5.25a.75.75,0,0,0-.756,0l-9,5.25A.75.75,0,0,0,3,7V17.5a.75.75,0,0,0,.372.648l9,5.25a.75.75,0,0,0,.756,0l9-5.25A.75.75,0,0,0,22.5,17.5V7a.75.75,0,0,0-.372-.648ZM12.75,2.618,20.262,7,12.75,11.382,5.238,7ZM4.5,8.306,12,12.681v8.763L4.5,17.069Zm9,13.138V12.681L21,8.306v8.763Z" transform="translate(-0.75 -0.25)" fill="#8c91f9"/><rect width="24" height="24" fill="none"/></g></g></svg>