<svg id="light-logo" xmlns="http://www.w3.org/2000/svg" xmlns:xlink="http://www.w3.org/1999/xlink" width="119.475" height="50" viewBox="0 0 119.475 50">
  <defs>
    <linearGradient id="linear-gradient" x1="0.996" y1="0.67" x2="0.005" y2="0.33" gradientUnits="objectBoundingBox">
      <stop offset="0.001" stop-color="#8c91f9"/>
      <stop offset="0.389" stop-color="#8e93f9"/>
      <stop offset="0.554" stop-color="#959af9"/>
      <stop offset="0.677" stop-color="#a2a6fa"/>
      <stop offset="0.778" stop-color="#b3b7fb"/>
      <stop offset="0.867" stop-color="#cacdfc"/>
      <stop offset="0.945" stop-color="#e6e7fe"/>
      <stop offset="1" stop-color="#fff"/>
    </linearGradient>
    <linearGradient id="linear-gradient-2" x1="0.5" y1="0" x2="0.5" y2="1" xlink:href="#linear-gradient"/>
    <linearGradient id="linear-gradient-3" x1="0" y1="0.662" x2="0.987" y2="0.326" xlink:href="#linear-gradient"/>
  </defs>
  <g id="Group_5564" data-name="Group 5564">
    <g id="Group_5563" data-name="Group 5563">
      <path id="Path_11900" data-name="Path 11900" d="M302.732,111.167c-1.061.684-2.122,1.344-3.207,1.957-4.456,2.57-11.247,6.555-14.571,8.441a.7.7,0,0,0-.354.589v22.423a.692.692,0,0,0,1.037.589l19.405-11.2a.7.7,0,0,0,.354-.589V110.931C305.278,109.7,303.722,110.507,302.732,111.167Zm-1.155,20.8-11.247,6.484a.69.69,0,0,1-.943-.943l11.247-19.523a.682.682,0,0,1,1.273.354V131.35A.684.684,0,0,1,301.576,131.963Z" transform="translate(-261.328 -95.257)" fill="url(#linear-gradient)"/>
      <path id="Path_11901" data-name="Path 11901" d="M197.153,60.43s13.015,7.474,17.024,9.785a.705.705,0,0,0,.684,0l19.4-11.2a.685.685,0,0,0,0-1.179l-19.4-11.223a.705.705,0,0,0-.684,0L194.724,57.837C193.262,58.9,196.658,59.935,197.153,60.43Zm17.707-9.809,11.247,6.508a.682.682,0,0,1-.354,1.273l-22.517.024a.685.685,0,0,1-.354-1.273l11.27-6.508A.693.693,0,0,1,214.86,50.622Z" transform="translate(-192.366 -46.525)" fill="url(#linear-gradient-2)"/>
      <path id="Path_11902" data-name="Path 11902" d="M188.564,111.167c.8.519,1.627,1.037,2.452,1.509,4.409,2.546,11.836,6.885,15.326,8.889a.7.7,0,0,1,.354.589v22.423a.692.692,0,0,1-1.037.589l-19.405-11.2a.7.7,0,0,1-.354-.589V110.931C186.018,109.7,187.574,110.507,188.564,111.167Zm1.155,20.8,11.247,6.484a.69.69,0,0,0,.943-.943L190.663,118a.682.682,0,0,0-1.273.354v13.015A.672.672,0,0,0,189.72,131.963Z" transform="translate(-185.9 -95.257)" fill="url(#linear-gradient-3)"/>
    </g>
  </g>
  <g id="Group_5565" data-name="Group 5565" transform="translate(51.024 7.351)">
    <path id="Path_11903" data-name="Path 11903" d="M420.2,84.278H406.968l1.037-6.578h27.257L416.8,99.227h14.477l-1.014,6.484H402.3Z" transform="translate(-402.3 -77.7)" fill="#8c91f9"/>
    <path id="Path_11904" data-name="Path 11904" d="M537.856,77.7h8.653l-4.433,28.011H533.4Z" transform="translate(-502.489 -77.7)" fill="#8c91f9"/>
    <path id="Path_11905" data-name="Path 11905" d="M607.531,85.552a6.561,6.561,0,0,0-1.155-5.612c-1.2-1.485-3.4-2.24-6.625-2.24H585.933L581.5,105.711h13.7a14.412,14.412,0,0,0,5.918-1.179,10.406,10.406,0,0,0,4.1-3.16,7.894,7.894,0,0,0,1.627-4.2,5.35,5.35,0,0,0-2.429-5.234,9.265,9.265,0,0,0-2-.943c.236-.094.472-.189.707-.307A7.169,7.169,0,0,0,607.531,85.552Zm-8.983,11.223a2.7,2.7,0,0,1-1.344,1.886,5.558,5.558,0,0,1-2.759.613h-3.207l.755-4.834h3.82a3.158,3.158,0,0,1,2.287.66A1.64,1.64,0,0,1,598.547,96.775Zm.9-10.327a2.721,2.721,0,0,1-1.273,1.839,4.924,4.924,0,0,1-2.641.613h-2.664l.825-5.211h2.971a3.166,3.166,0,0,1,2.311.755A2.1,2.1,0,0,1,599.443,86.448Z" transform="translate(-539.248 -77.7)" fill="#8c91f9"/>
  </g>
  <g id="Group_5566" data-name="Group 5566" transform="translate(51.212 40.03)">
    <path id="Path_11906" data-name="Path 11906" d="M404.939,218l-.778,4.928H403.1l1.061-6.626h1.391l1.32,4.951,3.112-4.951h1.344l-1.061,6.626h-1.085l.778-4.951-2.994,4.951h-.825Z" transform="translate(-403.1 -216.3)" fill="#e8e8f0"/>
    <path id="Path_11907" data-name="Path 11907" d="M444.09,216.3h4.433l-.141.967h-3.325l-.307,1.91H447.7l-.165.99h-2.924l-.283,1.792h3.4l-.141.99H443.1Z" transform="translate(-433.669 -216.3)" fill="#e8e8f0"/>
    <path id="Path_11908" data-name="Path 11908" d="M472.256,222.984a2.367,2.367,0,0,1-.92-.8,1.74,1.74,0,0,1-.212-1.155h1.085a1.2,1.2,0,0,0,.424.967,2,2,0,0,0,1.226.377,2.874,2.874,0,0,0,1.368-.283,1.147,1.147,0,0,0,.637-.778.648.648,0,0,0-.33-.684,3.147,3.147,0,0,0-1.368-.307,3.374,3.374,0,0,1-1.839-.589,1.326,1.326,0,0,1-.424-1.32,2,2,0,0,1,.5-.967,2.847,2.847,0,0,1,1.061-.684,3.841,3.841,0,0,1,1.391-.259,2.98,2.98,0,0,1,1.415.307,2.06,2.06,0,0,1,.872.8,2.214,2.214,0,0,1,.283,1.108h-1.132a1.2,1.2,0,0,0-.424-.872,1.653,1.653,0,0,0-1.155-.354,2.467,2.467,0,0,0-.849.141,1.344,1.344,0,0,0-.589.377.848.848,0,0,0-.259.5.548.548,0,0,0,.212.589,1.92,1.92,0,0,0,.92.283l.236.024a3.935,3.935,0,0,1,2.146.613,1.341,1.341,0,0,1,.5,1.3,1.791,1.791,0,0,1-.5,1.014,2.887,2.887,0,0,1-1.132.755,4.356,4.356,0,0,1-1.627.283A5.624,5.624,0,0,1,472.256,222.984Z" transform="translate(-455.067 -216.453)" fill="#e8e8f0"/>
    <path id="Path_11909" data-name="Path 11909" d="M504.816,222.984a2.368,2.368,0,0,1-.919-.8,1.9,1.9,0,0,1-.236-1.155h1.085a1.2,1.2,0,0,0,.424.967,2,2,0,0,0,1.226.377,2.874,2.874,0,0,0,1.367-.283,1.147,1.147,0,0,0,.637-.778.648.648,0,0,0-.33-.684,3.147,3.147,0,0,0-1.368-.307,3.374,3.374,0,0,1-1.839-.589,1.326,1.326,0,0,1-.424-1.32,2,2,0,0,1,.5-.967,2.848,2.848,0,0,1,1.061-.684,3.841,3.841,0,0,1,1.391-.259,2.98,2.98,0,0,1,1.415.307,2.061,2.061,0,0,1,.872.8,2.214,2.214,0,0,1,.283,1.108h-1.132a1.2,1.2,0,0,0-.424-.872,1.653,1.653,0,0,0-1.155-.354,2.466,2.466,0,0,0-.849.141,1.344,1.344,0,0,0-.59.377.848.848,0,0,0-.259.5.548.548,0,0,0,.212.589,1.92,1.92,0,0,0,.92.283l.236.024a3.935,3.935,0,0,1,2.146.613,1.341,1.341,0,0,1,.5,1.3,1.791,1.791,0,0,1-.5,1.014,2.888,2.888,0,0,1-1.132.755,4.357,4.357,0,0,1-1.627.283A5.671,5.671,0,0,1,504.816,222.984Z" transform="translate(-479.941 -216.453)" fill="#e8e8f0"/>
    <path id="Path_11910" data-name="Path 11910" d="M537.714,216.3h4.433l-.142.967h-3.348l-.307,1.91H541.3l-.165.99h-2.924l-.283,1.792h3.4l-.142.99H536.7Z" transform="translate(-505.199 -216.3)" fill="#e8e8f0"/>
    <path id="Path_11911" data-name="Path 11911" d="M567.263,218l-.778,4.928H565.4l1.061-6.626h1.085l2.782,5.069.8-5.069h1.061l-1.061,6.626h-1.155Z" transform="translate(-527.132 -216.3)" fill="#e8e8f0"/>
    <path id="Path_11912" data-name="Path 11912" d="M603.845,219.6l-.141.849H605.9a3.519,3.519,0,0,1-.424.707,2.528,2.528,0,0,1-.9.684,2.35,2.35,0,0,1-1.061.259,1.86,1.86,0,0,1-1.108-.307,1.6,1.6,0,0,1-.637-.872,2.451,2.451,0,0,1-.047-1.25,3.409,3.409,0,0,1,.5-1.2,2.648,2.648,0,0,1,.919-.849,2.4,2.4,0,0,1,1.2-.307,2.019,2.019,0,0,1,.967.212,1.311,1.311,0,0,1,.566.566,1.589,1.589,0,0,1,.189.707h1.108a2.3,2.3,0,0,0-.259-1.155,2.432,2.432,0,0,0-.872-.967,2.677,2.677,0,0,0-1.485-.377,3.811,3.811,0,0,0-1.839.472,4.236,4.236,0,0,0-1.415,1.25,3.873,3.873,0,0,0-.707,1.674,3.3,3.3,0,0,0,.118,1.745,2.547,2.547,0,0,0,.967,1.25,2.91,2.91,0,0,0,1.674.448,3.6,3.6,0,0,0,1.745-.424,4.232,4.232,0,0,0,1.32-1.085,3.961,3.961,0,0,0,.731-1.438l.094-.566h-3.4Z" transform="translate(-553.977 -216.3)" fill="#e8e8f0"/>
    <path id="Path_11913" data-name="Path 11913" d="M636.437,216.3h4.433l-.141.967H637.4l-.307,1.91h2.924l-.165.99h-2.924l-.283,1.792h3.372l-.141.99H635.4Z" transform="translate(-580.627 -216.3)" fill="#e8e8f0"/>
    <path id="Path_11914" data-name="Path 11914" d="M669.523,218.4a1.636,1.636,0,0,0-.141-1.061,1.667,1.667,0,0,0-.755-.755,2.705,2.705,0,0,0-1.3-.283h-2.169l-1.061,6.626h1.108l.424-2.641,2.169,2.641h1.415l-2.193-2.523a3.011,3.011,0,0,0,1.7-.613A2.161,2.161,0,0,0,669.523,218.4Zm-1.155,0a1.225,1.225,0,0,1-.519.92,1.843,1.843,0,0,1-1.132.33h-.99l.377-2.381h1.014a1.434,1.434,0,0,1,.967.259A.894.894,0,0,1,668.368,218.4Z" transform="translate(-602.56 -216.3)" fill="#e8e8f0"/>
  </g>
</svg>
