<svg xmlns="http://www.w3.org/2000/svg" width="200" height="195.224" viewBox="0 0 200 195.224"><defs><style>.a{fill:#f2f2f2;}.b{fill:#3f3d56;}.c{fill:#5056ca;}.d{fill:#202028;}.e{fill:#fff;}.f{fill:#e6e6e6;}</style></defs><g transform="translate(-0.001 -0.004)"><path class="a" d="M430.207,197.31H376.315a4.638,4.638,0,0,0-4.632,4.632V321.717l-.618.188-13.22,4.049a2.473,2.473,0,0,1-3.085-1.64L315.435,195.862a2.471,2.471,0,0,1,1.64-3.085l20.373-6.238,59.061-18.078,20.372-6.238a2.467,2.467,0,0,1,3.085,1.637l10.052,32.833Z" transform="translate(-303.238 -153.402)"/><path class="b" d="M414.911,179.351,402.8,137.816a5.209,5.209,0,0,0-6.556-3.656l-28.643,9.2-59.058,18.978L279.9,171.546a5.568,5.568,0,0,0-3.484,6.881l41.406,141.95a5.3,5.3,0,0,0,5.021,3.9,4.959,4.959,0,0,0,1.535-.243l19.635-6.308.618-.2v-.677l-.618.2-19.817,6.369a4.6,4.6,0,0,1-5.784-3.225l-41.4-141.953a5.072,5.072,0,0,1,.336-3.7,4.684,4.684,0,0,1,2.736-2.367l28.643-9.206,59.058-18.975,28.643-9.206a4.477,4.477,0,0,1,1.362-.214A4.67,4.67,0,0,1,402.206,138l12.059,41.347.192.648h.642Z" transform="translate(-276.182 -133.913)"/><path class="c" d="M383.734,182.982a2.784,2.784,0,0,1-2.659-1.966L377.1,168.024a2.779,2.779,0,0,1,1.844-3.471l54.333-16.634a2.782,2.782,0,0,1,3.471,1.844l3.978,12.993a2.783,2.783,0,0,1-1.844,3.471L384.546,182.86A2.772,2.772,0,0,1,383.734,182.982Z" transform="translate(-345.847 -143.507)"/><circle class="d" cx="6.176" cy="6.176" r="6.176" transform="translate(52.547 1.533)"/><circle class="e" cx="3.911" cy="3.911" r="3.911" transform="translate(54.812 3.798)"/><path class="f" d="M639.323,424.407H534.943a2.628,2.628,0,0,1-2.625-2.625V296.712a2.628,2.628,0,0,1,2.625-2.625h104.38a2.628,2.628,0,0,1,2.625,2.625v125.07A2.628,2.628,0,0,1,639.323,424.407Z" transform="translate(-453.218 -244.62)"/><path class="b" d="M566.074,274.087H501.068a5.257,5.257,0,0,0-5.25,5.25V405.272l.618-.188V279.337a4.638,4.638,0,0,1,4.632-4.632h65.2Zm56.668,0H501.068a5.257,5.257,0,0,0-5.25,5.25V420.775a5.257,5.257,0,0,0,5.25,5.25H622.741a5.257,5.257,0,0,0,5.25-5.25V279.337A5.257,5.257,0,0,0,622.741,274.087Zm4.632,146.688a4.638,4.638,0,0,1-4.632,4.632H501.068a4.638,4.638,0,0,1-4.632-4.632V279.337a4.638,4.638,0,0,1,4.632-4.632H622.741a4.638,4.638,0,0,1,4.632,4.632Z" transform="translate(-427.99 -230.797)"/><path class="c" d="M668.419,275.234H611.6a2.783,2.783,0,0,1-2.779-2.779V258.866a2.782,2.782,0,0,1,2.779-2.779h56.822a2.782,2.782,0,0,1,2.779,2.779v13.588A2.782,2.782,0,0,1,668.419,275.234Z" transform="translate(-506.094 -218.355)"/><circle class="d" cx="6.176" cy="6.176" r="6.176" transform="translate(127.738 26.306)"/><circle class="e" cx="3.762" cy="3.762" r="3.762" transform="translate(130.152 28.72)"/></g></svg>