<svg width="45" height="50" viewBox="0 0 45 50" fill="none" xmlns="http://www.w3.org/2000/svg">
<path d="M41.404 15.9101C40.343 16.5941 39.282 17.2541 38.197 17.8671C33.741 20.4371 26.95 24.4221 23.626 26.3081C23.5213 26.3675 23.4337 26.453 23.3717 26.5561C23.3097 26.6593 23.2754 26.7767 23.272 26.8971V49.3201C23.2739 49.4405 23.3072 49.5584 23.3686 49.662C23.43 49.7657 23.5174 49.8515 23.6222 49.911C23.7269 49.9705 23.8454 50.0016 23.9658 50.0012C24.0863 50.0009 24.2046 49.9691 24.309 49.9091L43.714 38.7091C43.8187 38.6496 43.9063 38.5642 43.9683 38.461C44.0303 38.3578 44.0646 38.2404 44.068 38.1201V15.6741C43.95 14.4431 42.394 15.2501 41.404 15.9101ZM40.249 36.7101L29.002 43.1941C28.8704 43.2704 28.7173 43.301 28.5665 43.2813C28.4157 43.2616 28.2756 43.1926 28.168 43.085C28.0605 42.9775 27.9915 42.8374 27.9718 42.6866C27.9521 42.5358 27.9827 42.3827 28.059 42.2511L39.306 22.7281C39.3815 22.5968 39.4985 22.4944 39.6386 22.4371C39.7788 22.3797 39.934 22.3705 40.0799 22.4111C40.2257 22.4517 40.354 22.5396 40.4443 22.6611C40.5347 22.7826 40.5821 22.9307 40.579 23.0821V36.0931C40.5838 36.2155 40.5556 36.337 40.4974 36.4449C40.4391 36.5527 40.353 36.6429 40.248 36.7061L40.249 36.7101Z" fill="url(#paint0_linear)"/>
<path d="M4.787 13.905C4.787 13.905 17.802 21.379 21.811 23.69C21.9156 23.7481 22.0333 23.7785 22.153 23.7785C22.2727 23.7785 22.3904 23.7481 22.495 23.69L41.895 12.49C41.9974 12.4294 42.0822 12.3432 42.1412 12.2398C42.2001 12.1365 42.2311 12.0195 42.2311 11.9005C42.2311 11.7815 42.2001 11.6646 42.1412 11.5612C42.0822 11.4579 41.9974 11.3716 41.895 11.311L22.495 0.0880203C22.3904 0.0299705 22.2727 -0.000488281 22.153 -0.000488281C22.0333 -0.000488281 21.9156 0.0299705 21.811 0.0880203L2.358 11.312C0.895998 12.375 4.292 13.41 4.787 13.905ZM22.494 4.09602L33.741 10.604C33.8722 10.6795 33.9746 10.7966 34.032 10.9367C34.0894 11.0768 34.0985 11.232 34.0579 11.3779C34.0174 11.5238 33.9294 11.652 33.8079 11.7424C33.6865 11.8327 33.5384 11.8801 33.387 11.877L10.87 11.901C10.7199 11.9016 10.5737 11.8528 10.454 11.7622C10.3343 11.6716 10.2476 11.5442 10.2074 11.3996C10.1672 11.2549 10.1756 11.1011 10.2314 10.9617C10.2871 10.8223 10.3871 10.705 10.516 10.628L21.786 4.12002C21.891 4.05286 22.0122 4.01527 22.1368 4.01122C22.2614 4.00717 22.3848 4.03682 22.494 4.09702V4.09602Z" fill="url(#paint1_linear)"/>
<path d="M2.664 15.9101C3.464 16.4291 4.29101 16.9471 5.11601 17.4191C9.52501 19.9651 16.952 24.3041 20.442 26.3081C20.5467 26.3675 20.6342 26.453 20.6963 26.5561C20.7583 26.6593 20.7926 26.7767 20.796 26.8971V49.3201C20.7941 49.4405 20.7608 49.5584 20.6994 49.662C20.638 49.7657 20.5506 49.8515 20.4459 49.911C20.3411 49.9705 20.2226 50.0016 20.1022 50.0012C19.9817 50.0009 19.8634 49.9691 19.759 49.9091L0.354004 38.7091C0.249333 38.6496 0.161773 38.5642 0.099762 38.461C0.0377512 38.3578 0.00338203 38.2404 0 38.1201V15.6741C0.118 14.4431 1.674 15.2501 2.664 15.9101ZM3.819 36.7101L15.066 43.1941C15.1976 43.2704 15.3507 43.301 15.5015 43.2813C15.6523 43.2616 15.7924 43.1926 15.9 43.085C16.0075 42.9775 16.0765 42.8374 16.0962 42.6866C16.116 42.5358 16.0853 42.3827 16.009 42.2511L4.763 22.7431C4.68749 22.6118 4.57047 22.5095 4.43036 22.4521C4.29025 22.3947 4.13502 22.3855 3.98915 22.4261C3.84328 22.4667 3.71505 22.5546 3.62468 22.6761C3.53431 22.7976 3.48692 22.9457 3.49001 23.0971V36.1121C3.48726 36.2315 3.5164 36.3494 3.5744 36.4539C3.6324 36.5583 3.71718 36.6453 3.82001 36.7061L3.819 36.7101Z" fill="url(#paint2_linear)"/>
<defs>
<linearGradient id="paint0_linear" x1="43.9848" y1="38.462" x2="21.8708" y2="33.9498" gradientUnits="userSpaceOnUse">
<stop offset="0.001" stop-color="#8C91F9"/>
<stop offset="0.389" stop-color="#8E93F9"/>
<stop offset="0.554" stop-color="#959AF9"/>
<stop offset="0.677" stop-color="#A2A6FA"/>
<stop offset="0.778" stop-color="#B3B7FB"/>
<stop offset="0.867" stop-color="#CACDFC"/>
<stop offset="0.945" stop-color="#E6E7FE"/>
<stop offset="1" stop-color="white"/>
</linearGradient>
<linearGradient id="paint1_linear" x1="22.1132" y1="-0.000488281" x2="22.1132" y2="23.7785" gradientUnits="userSpaceOnUse">
<stop offset="0.001" stop-color="#8C91F9"/>
<stop offset="0.389" stop-color="#8E93F9"/>
<stop offset="0.554" stop-color="#959AF9"/>
<stop offset="0.677" stop-color="#A2A6FA"/>
<stop offset="0.778" stop-color="#B3B7FB"/>
<stop offset="0.867" stop-color="#CACDFC"/>
<stop offset="0.945" stop-color="#E6E7FE"/>
<stop offset="1" stop-color="white"/>
</linearGradient>
<linearGradient id="paint2_linear" x1="-9.55052e-08" y1="38.1822" x2="22.0025" y2="33.7276" gradientUnits="userSpaceOnUse">
<stop offset="0.001" stop-color="#8C91F9"/>
<stop offset="0.389" stop-color="#8E93F9"/>
<stop offset="0.554" stop-color="#959AF9"/>
<stop offset="0.677" stop-color="#A2A6FA"/>
<stop offset="0.778" stop-color="#B3B7FB"/>
<stop offset="0.867" stop-color="#CACDFC"/>
<stop offset="0.945" stop-color="#E6E7FE"/>
<stop offset="1" stop-color="white"/>
</linearGradient>
</defs>
</svg>
