<svg xmlns="http://www.w3.org/2000/svg" width="16" height="15.99" viewBox="0 0 16 15.99">
  <g id="bx-bot" transform="translate(-2.985 -3)">
    <path id="Path_6670" data-name="Path 6670" d="M18.925,10.68a.836.836,0,0,0-.742-.506V7.8a1.6,1.6,0,0,0-1.6-1.6h-4.8V5.087a1.2,1.2,0,1,0-1.6,0V6.2h-4.8a1.6,1.6,0,0,0-1.6,1.6v2.4l-.066,0a.8.8,0,0,0-.742.8v1.6a.8.8,0,0,0,.8.8h.008v4a1.6,1.6,0,0,0,1.6,1.6H16.584a1.6,1.6,0,0,0,1.6-1.6v-4a.8.8,0,0,0,.8-.8V11.044a.8.8,0,0,0-.058-.364ZM5.391,17.391V7.8H16.584V17.39H5.391Z" transform="translate(0)" fill="#ffb300"/>
    <path id="Path_6671" data-name="Path 6671" d="M12.9,16.6c0,.883-.537,1.6-1.2,1.6s-1.2-.716-1.2-1.6.537-1.6,1.2-1.6S12.9,15.716,12.9,16.6Z" transform="translate(-3.51 -5.604)" fill="#ffb300"/>
    <path id="Path_6672" data-name="Path 6672" d="M23.4,16.6c0,.883-.537,1.6-1.2,1.6S21,17.482,21,16.6s.537-1.6,1.2-1.6S23.4,15.716,23.4,16.6Z" transform="translate(-8.413 -5.604)" fill="#ffb300"/>
    <path id="Path_6673" data-name="Path 6673" d="M12,24h6.4v1.6H12Z" transform="translate(-4.21 -9.807)" fill="#ffb300"/>
  </g>
</svg>
