<svg width="24" height="24" viewBox="0 0 24 24" fill="none" xmlns="http://www.w3.org/2000/svg">
<path d="M19.275 6.97527L14.025 1.72527C13.959 1.65198 13.8779 1.5939 13.7872 1.55505C13.6966 1.5162 13.5986 1.49751 13.5 1.50027H6C5.60253 1.50143 5.22168 1.65984 4.94063 1.9409C4.65958 2.22195 4.50117 2.6028 4.5 3.00027V21.0003C4.50117 21.3977 4.65958 21.7786 4.94063 22.0596C5.22168 22.3407 5.60253 22.4991 6 22.5003H18C18.3975 22.4991 18.7783 22.3407 19.0594 22.0596C19.3404 21.7786 19.4988 21.3977 19.5 21.0003V7.50027C19.5028 7.40168 19.4841 7.30368 19.4452 7.21303C19.4064 7.12238 19.3483 7.04126 19.275 6.97527V6.97527ZM13.5 3.30027L17.7 7.50027H13.5V3.30027ZM18 21.0003H6V3.00027H12V7.50027C12.0012 7.89773 12.1596 8.27858 12.4406 8.55964C12.7217 8.84069 13.1025 8.9991 13.5 9.00027H18V21.0003Z" fill="#5351FB"/>
</svg>
