<svg xmlns="http://www.w3.org/2000/svg" width="206.797" height="30" viewBox="0 0 206.797 30"><g transform="translate(-128 -24.193)"><g transform="translate(-130.871 -23)"><g transform="translate(258.871 47.193)"><path d="M291.89,77.193a10.5,10.5,0,0,1-3.953-6.157,11.374,11.374,0,0,1,.24-5.411,14.92,14.92,0,0,0,.428-3.764,15.1,15.1,0,0,0-14.734-14.667,14.868,14.868,0,1,0,8.763,26.782l-1.1-.953a5.03,5.03,0,0,0-4.753-1.016,10.4,10.4,0,1,1,7.357-9.909,15.324,15.324,0,0,1-.3,2.454c-.5,3.06-.418,5.07.778,7.2C286.64,75.372,291.89,77.193,291.89,77.193Z" transform="translate(-258.871 -47.193)" fill="#fff"/><g transform="translate(6.869 12.662)"><circle cx="1.568" cy="1.568" r="1.568" transform="translate(0 2.217) rotate(-45)" fill="#fff"/><path d="M404.422,191.457a1.569,1.569,0,1,1-1.281-1.28A1.57,1.57,0,0,1,404.422,191.457Z" transform="translate(-394.914 -189.505)" fill="#fff"/><path d="M466.111,191.457a1.569,1.569,0,1,1-1.281-1.28A1.57,1.57,0,0,1,466.111,191.457Z" transform="translate(-450.86 -189.505)" fill="#fff"/></g></g></g><g transform="translate(18 -397.461)"><g transform="translate(153.807 426.723)"><path d="M154.171,427.863h2.63a.338.338,0,0,1,.364.364v18.855a.338.338,0,0,1-.364.364h-2.63a.338.338,0,0,1-.364-.364V428.227A.338.338,0,0,1,154.171,427.863Z" transform="translate(-153.807 -427.583)" fill="#fff"/><path d="M180.17,428.227a.338.338,0,0,1,.364-.364h.42a.933.933,0,0,1,.587.252l10.714,11.5c.14.14.224.2.336.2s.2-.14.2-.419V428.227a.338.338,0,0,1,.364-.364h2.63a.338.338,0,0,1,.364.364v18.855a.338.338,0,0,1-.364.364h-.392a.849.849,0,0,1-.615-.28l-14.351-15.442a1.085,1.085,0,0,1-.252-.644Zm0,7.749c0-.224.112-.251.252-.083l2.853,3.077a.947.947,0,0,1,.252.616v7.5a.338.338,0,0,1-.364.364h-2.629a.338.338,0,0,1-.364-.364Z" transform="translate(-172.561 -427.583)" fill="#fff"/><path d="M246.737,456.457H256a.338.338,0,0,1,.364.363v2.322a.338.338,0,0,1-.364.364h-9.26a.338.338,0,0,1-.364-.364V456.82A.338.338,0,0,1,246.737,456.457Z" transform="translate(-219.658 -447.925)" fill="#fff"/><path d="M288.359,446.419l8.84-19.274a.481.481,0,0,1,.42-.252.438.438,0,0,1,.392.252l8.84,19.274c.084.2,0,.335-.223.335h-2.742a.593.593,0,0,1-.531-.335l-.783-1.707a1.247,1.247,0,0,0-1.119-.7h-7.693a1.246,1.246,0,0,0-1.119.7l-.783,1.707a.585.585,0,0,1-.5.335h-2.77C288.359,446.755,288.276,446.615,288.359,446.419Zm6.854-5.539h4.811c.476,0,.644-.28.448-.728l-2.517-5.483q-.168-.336-.336-.336t-.336.336l-2.546,5.483C294.542,440.6,294.738,440.881,295.213,440.881Z" transform="translate(-249.504 -426.893)" fill="#fff"/><path d="M363.848,437.738a.339.339,0,0,1,.364-.364h6.1c4.252,0,4.224-6.35,0-6.35h-6.1a.338.338,0,0,1-.364-.363v-2.434a.338.338,0,0,1,.364-.364h6.1a6.223,6.223,0,0,1,6.63,6.351,6.135,6.135,0,0,1-5.819,6.294c-.335.027-.811.027-1.594.027h-1.539a.749.749,0,0,0-.783.784v5.763a.338.338,0,0,1-.364.364h-2.63a.338.338,0,0,1-.364-.364Z" transform="translate(-303.229 -427.583)" fill="#fff"/><path d="M422,437.738a.339.339,0,0,1,.364-.364h6.1c4.252,0,4.224-6.35,0-6.35h-6.1a.338.338,0,0,1-.364-.363v-2.434a.339.339,0,0,1,.364-.364h6.1a6.223,6.223,0,0,1,6.63,6.351,6.135,6.135,0,0,1-5.819,6.294c-.335.027-.811.027-1.594.027h-1.539a.75.75,0,0,0-.783.784v5.763a.338.338,0,0,1-.363.364h-2.63a.339.339,0,0,1-.364-.364Z" transform="translate(-344.602 -427.583)" fill="#fff"/></g><g transform="translate(249.922 426.654)"><path d="M503.276,443.079a7.9,7.9,0,0,1-1.127,1.372,7.363,7.363,0,0,1-1.529,1.138,8.356,8.356,0,0,1-1.918.779,8.694,8.694,0,0,1-2.293.287,9.676,9.676,0,0,1-3.836-.753,9.031,9.031,0,0,1-3.033-2.084,9.519,9.519,0,0,1-1.982-3.158,10.929,10.929,0,0,1-.713-4.006,10.762,10.762,0,0,1,.726-4,9.591,9.591,0,0,1,2.009-3.159,9.233,9.233,0,0,1,3.033-2.083,9.521,9.521,0,0,1,3.8-.752,9.153,9.153,0,0,1,3.81.833,7.665,7.665,0,0,1,1.556.951,5.475,5.475,0,0,1,1.167,1.253l-1.555,1.183a4.794,4.794,0,0,0-.765-.914,5.2,5.2,0,0,0-1.127-.807,6.959,6.959,0,0,0-1.413-.565,6.1,6.1,0,0,0-1.646-.215,7.378,7.378,0,0,0-3.2.67,7.216,7.216,0,0,0-2.4,1.808,7.969,7.969,0,0,0-1.5,2.64,9.605,9.605,0,0,0-.518,3.161,9.409,9.409,0,0,0,.531,3.163,8.127,8.127,0,0,0,1.517,2.639,7.22,7.22,0,0,0,2.4,1.809,7.319,7.319,0,0,0,3.175.669,6.971,6.971,0,0,0,3.007-.672,5.769,5.769,0,0,0,2.385-2.151Z" transform="translate(-486.842 -426.654)" fill="#fff"/><path d="M554.919,428.33h1.866v8.252h10.006V428.33h1.866v19.033h-1.866v-9.005H556.785v9.005h-1.866Z" transform="translate(-535.272 -427.846)" fill="#fff"/><path d="M613.909,447.363h-2.048l7.933-19.033h1.813l7.88,19.033h-2.074l-2.022-5h-9.486Zm2.7-6.774h8.087l-4.043-10.107Z" transform="translate(-575.78 -427.846)" fill="#fff"/><path d="M677.531,447.363h-1.866V430.051h-6.143V428.33h14.152v1.721h-6.144Z" transform="translate(-616.8 -427.846)" fill="#fff"/></g></g></g></svg>