<svg width="16" height="20" viewBox="0 0 16 20" fill="none" xmlns="http://www.w3.org/2000/svg">
<g clip-path="url(#clip0_1202_598)">
<path d="M15.9994 13.955C15.6696 14.9754 15.1938 15.9426 14.5866 16.8264C13.5989 18.3268 12.615 19.0771 11.6349 19.0771C11.0839 19.0388 10.5422 18.9147 10.0295 18.7093C9.47727 18.486 8.89012 18.3616 8.29483 18.3416C7.73188 18.364 7.1784 18.4937 6.66417 18.7239C6.18711 18.9487 5.67156 19.0805 5.14513 19.1122C3.98158 19.1122 2.82924 18.1207 1.68811 16.1376C0.634514 14.3903 0.0528572 12.3993 0.000116011 10.3596C-0.0643095 8.82202 0.393772 7.30792 1.29975 6.06393C1.67177 5.54823 2.16179 5.12904 2.72888 4.84138C3.29597 4.55371 3.92367 4.40591 4.55953 4.41034C5.24959 4.43288 5.93341 4.54887 6.59231 4.75512C7.10658 4.92785 7.6383 5.04348 8.17786 5.09991C8.74174 5.05132 9.29535 4.91968 9.82075 4.70925C10.4588 4.47572 11.1295 4.3439 11.8084 4.3186C12.6816 4.30684 13.5368 4.56766 14.2548 5.06474C14.7045 5.38928 15.1064 5.77528 15.4489 6.21148C14.9566 6.60646 14.5166 7.06244 14.1393 7.56844C13.6494 8.26409 13.3886 9.09518 13.3932 9.94601C13.3827 10.8619 13.66 11.758 14.186 12.5078C14.6083 13.183 15.2486 13.6936 16.0009 13.955H15.9994ZM11.6808 0.482393C11.6665 1.01899 11.5538 1.54841 11.3482 2.04424C11.1036 2.64038 10.7393 3.18001 10.2779 3.6298C9.9343 3.99758 9.51012 4.28071 9.03867 4.45697C8.64769 4.55969 8.24786 4.62521 7.84454 4.65268C7.83998 3.60113 8.1522 2.57257 8.74052 1.70099C9.44941 0.792745 10.4748 0.185317 11.6119 0C11.6242 0.041419 11.6339 0.0835437 11.641 0.126141C11.6479 0.168722 11.6573 0.210846 11.6693 0.252282C11.6693 0.282861 11.6713 0.321086 11.6754 0.366955C11.6795 0.412824 11.6815 0.451049 11.6815 0.481628L11.6808 0.482393Z" fill="black"/>
</g>
<defs>
<clipPath id="clip0_1202_598">
<rect width="16" height="19.1122" fill="white"/>
</clipPath>
</defs>
</svg>
