<svg xmlns="http://www.w3.org/2000/svg" width="17.504" height="18.75" viewBox="0 0 17.504 18.75"><path d="M1028.265,3708.817a8.75,8.75,0,0,1,5.489-15.567v1.25a7.5,7.5,0,1,0,7.5,7.5,7.674,7.674,0,0,0-.244-1.875h1.287a8.75,8.75,0,0,1-14.032,8.692Zm1.207-4.267,1.069-.625a3.74,3.74,0,0,0,6.425,0l1.068.625a5,5,0,0,1-8.563,0Zm5.532-4.112a1.563,1.563,0,1,1,1.562,1.562A1.562,1.562,0,0,1,1035,3700.438Zm-5.625,0a1.563,1.563,0,1,1,1.562,1.562A1.562,1.562,0,0,1,1029.379,3700.438Zm9.375-2.188v-2.5h-2.5v-1.25h2.5V3692H1040v2.5h2.5v1.25H1040v2.5Z" transform="translate(-1025 -3692)" fill="#4D5267"/></svg>