<svg xmlns="http://www.w3.org/2000/svg" width="13.002" height="13.502" viewBox="0 0 13.002 13.502"><defs><style>.a{fill:#70758B;}</style></defs><path class="a" d="M9.5,3A6.46,6.46,0,0,0,3,9.5V10a6.5,6.5,0,0,0,6.5,6.5H13v-1H9.5A5.5,5.5,0,0,1,4,10V9.5A5.47,5.47,0,0,1,9.5,4,5.32,5.32,0,0,1,15,9.5c0,1.795-.7,2.5-1.83,2.5-.79,0-1.17-.645-1.17-1.5v-4H11v.97A1.92,1.92,0,0,0,9.25,6.5,2.74,2.74,0,0,0,6.5,9.218v1.06A2.74,2.74,0,0,0,9.25,13a2.14,2.14,0,0,0,2-1.23A2.175,2.175,0,0,0,13.2,13C14.74,13,16,12,16,9.5A6.36,6.36,0,0,0,9.5,3Zm1.5,7.28a1.75,1.75,0,1,1-3.5,0V9.218a1.75,1.75,0,1,1,3.5,0Z" transform="translate(-3 -2.997)"/></svg>