<svg width="34" height="34" viewBox="0 0 34 34" fill="none" xmlns="http://www.w3.org/2000/svg">
<circle cx="17" cy="17" r="17" transform="rotate(-180 17 17)" fill="#f2f5f9"/>
<path d="M13.5524 23.2968C13.784 23.5365 14.1695 23.5365 14.4091 23.2968C14.6407 23.0652 14.6407 22.6797 14.4091 22.4487L10.0649 18.1045L24.4002 18.1045C24.7344 18.1039 25 17.8383 25 17.5042C25 17.17 24.7344 16.8957 24.4002 16.8957L10.0649 16.8957L14.4091 12.5596C14.6407 12.3199 14.6407 11.9339 14.4091 11.7029C14.1695 11.4632 13.7835 11.4632 13.5524 11.7029L8.17977 17.0755C7.94008 17.3071 7.94008 17.6926 8.17977 17.9236L13.5524 23.2968Z" fill="#33333f"/>
</svg>
