<svg width="16" height="17" viewBox="0 0 16 17" fill="none" xmlns="http://www.w3.org/2000/svg">
<path d="M9.41502 8.50018L15.7068 1.81486C16.0977 1.39986 16.0977 0.726511 15.7068 0.311514C15.3159 -0.103838 14.6829 -0.103838 14.292 0.311514L8.00017 6.99683L1.70803 0.311514C1.31713 -0.103838 0.68408 -0.103838 0.293177 0.311514C-0.0977257 0.726511 -0.0977257 1.39986 0.293177 1.81486L6.58531 8.50018L0.293177 15.1855C-0.0977257 15.6005 -0.0977257 16.2738 0.293177 16.6888C0.488629 16.8962 0.744783 17 1.0006 17C1.25643 17 1.51258 16.8962 1.70803 16.6885L8.00017 10.0032L14.292 16.6885C14.4874 16.8962 14.7436 17 14.9994 17C15.2552 17 15.5114 16.8962 15.7068 16.6885C16.0977 16.2735 16.0977 15.6001 15.7068 15.1851L9.41502 8.50018Z" fill="url(#paint0_linear)"/>
<defs>
<linearGradient id="paint0_linear" x1="16" y1="17" x2="-1.69605" y2="2.00104" gradientUnits="userSpaceOnUse">
<stop offset="0.0011704" stop-color="#202028"/>
<stop offset="1" stop-color="#202028"/>
</linearGradient>
</defs>
</svg>
