<svg width="30" height="25" viewBox="0 0 30 25" fill="none" xmlns="http://www.w3.org/2000/svg">
<g clip-path="url(#clip0)">
<path opacity="0.4" d="M18.1085 14.0576H8.63997L4.50716 17.0898C4.43509 17.1424 4.34947 17.1744 4.2599 17.182C4.17033 17.1897 4.08034 17.1728 4.00003 17.1333C3.91971 17.0938 3.85223 17.0331 3.80516 16.9582C3.75809 16.8832 3.73327 16.7969 3.73351 16.709V14.0625C2.88653 14.0617 2.07447 13.7322 1.47557 13.1464C0.876667 12.5605 0.539855 11.7661 0.539063 10.9375L0.539062 3.125C0.539855 2.29644 0.876667 1.50203 1.47557 0.916148C2.07447 0.330265 2.88653 0.000775688 3.73351 0H18.1085C18.9555 0.000775688 19.7675 0.330265 20.3664 0.916148C20.9653 1.50203 21.3022 2.29644 21.303 3.125V10.9375C21.3029 11.3476 21.2202 11.7537 21.0596 12.1326C20.8989 12.5114 20.6636 12.8556 20.3669 13.1453C20.0702 13.4351 19.718 13.6648 19.3305 13.8214C18.943 13.9779 18.5278 14.0582 18.1085 14.0576Z" fill="#ADB3CC"/>
<path d="M29.2878 10.9375V18.75C29.287 19.5786 28.9502 20.373 28.3512 20.9589C27.7523 21.5447 26.9403 21.8742 26.0933 21.875H24.4961V24.5264C24.4963 24.6143 24.4715 24.7006 24.4244 24.7756C24.3774 24.8505 24.3099 24.9111 24.2296 24.9507C24.1493 24.9902 24.0593 25.0071 23.9697 24.9994C23.8801 24.9918 23.7945 24.9598 23.7224 24.9072L19.5896 21.875H13.3155C12.4686 21.8742 11.6565 21.5447 11.0576 20.9589C10.4587 20.373 10.1219 19.5786 10.1211 18.75V15.625H18.1072C19.3774 15.6231 20.5951 15.1286 21.4932 14.2499C22.3914 13.3713 22.8969 12.1801 22.8989 10.9375V7.8125H26.0933C26.9403 7.81328 27.7523 8.14277 28.3512 8.72865C28.9502 9.31453 29.287 10.1089 29.2878 10.9375Z" fill="#454A60"/>
</g>
<defs>
<clipPath id="clip0">
<rect width="28.75" height="25" fill="white" transform="translate(0.539062)"/>
</clipPath>
</defs>
</svg>
