<svg xmlns="http://www.w3.org/2000/svg" width="20.571" height="24" viewBox="0 0 20.571 24"><g transform="translate(-6.75 -2.25)"><path d="M29.615,22.5l-.779,7.381L27.643,22.5H25.929l-1.192,7.381L23.957,22.5H22.5l1.166,8.571H25.62l1.166-7.178,1.166,7.178h1.954L31.071,22.5Z" transform="translate(-3.75 -4.821)" fill="#e2e5e9"/><path d="M23.641,8.5l-6-6a.857.857,0,0,0-.606-.251H8.464A1.716,1.716,0,0,0,6.75,3.964V24.536A1.716,1.716,0,0,0,8.464,26.25h6.857V24.536H8.464V3.964h6.857V9.107a1.716,1.716,0,0,0,1.714,1.714h5.143V14.25h1.714V9.107A.857.857,0,0,0,23.641,8.5ZM17.036,4.319l4.788,4.788H17.036Z" fill="#e2e5e9"/></g></svg>