<svg width="21" height="16" viewBox="0 0 21 16" fill="none" xmlns="http://www.w3.org/2000/svg">
<path d="M12.7863 12.4797H11.1317V7.06926C11.1317 6.97101 11.0513 6.89062 10.953 6.89062H9.61325C9.515 6.89062 9.43462 6.97101 9.43462 7.06926V12.4797H7.78447C7.63486 12.4797 7.55224 12.6516 7.64379 12.7678L10.1447 15.9318C10.1614 15.9532 10.1828 15.9705 10.2071 15.9823C10.2315 15.9942 10.2583 16.0004 10.2854 16.0004C10.3125 16.0004 10.3392 15.9942 10.3636 15.9823C10.388 15.9705 10.4093 15.9532 10.426 15.9318L12.9269 12.7678C13.0185 12.6516 12.9359 12.4797 12.7863 12.4797Z" fill="#4D5267"/>
<path d="M16.9664 4.89578C15.9437 2.19838 13.3379 0.280273 10.2854 0.280273C7.23298 0.280273 4.62713 2.19614 3.60444 4.89355C1.6908 5.39596 0.277344 7.1399 0.277344 9.21207C0.277344 11.6795 2.27583 13.678 4.74101 13.678H5.63642C5.73467 13.678 5.81506 13.5976 5.81506 13.4993V12.1596C5.81506 12.0613 5.73467 11.9809 5.63642 11.9809H4.74101C3.98851 11.9809 3.28066 11.6817 2.75369 11.1391C2.22894 10.5987 1.94982 9.8708 1.97439 9.11606C1.99448 8.52656 2.19545 7.97279 2.55942 7.5061C2.93232 7.03048 3.45483 6.68437 4.0354 6.5303L4.88169 6.30924L5.19207 5.49198C5.3841 4.98287 5.65205 4.50725 5.98923 4.07629C6.3221 3.64914 6.7164 3.27365 7.1593 2.96205C8.07704 2.31672 9.15779 1.97508 10.2854 1.97508C11.4131 1.97508 12.4938 2.31672 13.4116 2.96205C13.8559 3.27466 14.2489 3.6498 14.5816 4.07629C14.9188 4.50725 15.1868 4.9851 15.3788 5.49198L15.6869 6.30701L16.531 6.5303C17.7412 6.85631 18.5875 7.95716 18.5875 9.21207C18.5875 9.95118 18.2995 10.6479 17.777 11.1704C17.5207 11.4281 17.2159 11.6325 16.8801 11.7716C16.5444 11.9107 16.1844 11.9819 15.8209 11.9809H14.9255C14.8272 11.9809 14.7469 12.0613 14.7469 12.1596V13.4993C14.7469 13.5976 14.8272 13.678 14.9255 13.678H15.8209C18.2861 13.678 20.2846 11.6795 20.2846 9.21207C20.2846 7.14213 18.8756 5.40043 16.9664 4.89578Z" fill="#4D5267"/>
<path fill-rule="evenodd" clip-rule="evenodd" d="M4.88506 6.30968L4.03877 6.53074C3.4582 6.68481 2.93569 7.03092 2.56279 7.50654C2.19882 7.97323 1.99785 8.527 1.97775 9.1165C1.95319 9.87123 2.23231 10.5992 2.75705 11.1395C3.28403 11.6822 3.99187 11.9814 4.74438 11.9814H5.63979C5.73804 11.9814 5.81843 12.0618 5.81843 12.16V13.4998C5.81843 13.598 5.73804 13.6784 5.63979 13.6784H4.74438C2.2792 13.6784 0.280711 11.6799 0.280711 9.21251C0.280711 7.14033 1.69417 5.3964 3.60781 4.89399C4.6305 2.19658 7.23635 0.280711 10.2888 0.280711C13.3412 0.280711 15.9471 2.19882 16.9698 4.89622C18.879 5.40087 20.2879 7.14257 20.2879 9.21251C20.2879 11.6799 18.2895 13.6784 15.8243 13.6784H14.9289C14.8306 13.6784 14.7502 13.598 14.7502 13.4998V12.16C14.7502 12.0618 14.8306 11.9814 14.9289 11.9814H15.8243C16.1877 11.9823 16.5477 11.9112 16.8835 11.772C17.2193 11.6329 17.5241 11.4286 17.7803 11.1708C18.3029 10.6483 18.5909 9.95162 18.5909 9.21251C18.5909 7.95759 17.7446 6.85675 16.5344 6.53074L15.6903 6.30744L15.3822 5.49242C15.1901 4.98554 14.9222 4.50769 14.585 4.07673C14.2523 3.65023 13.8593 3.2751 13.4149 2.96248C12.4972 2.31716 11.4164 1.97552 10.2888 1.97552C9.16116 1.97552 8.08041 2.31716 7.16266 2.96248C6.71977 3.27409 6.32547 3.64958 5.9926 4.07673C5.65542 4.50769 5.38747 4.9833 5.19544 5.49242L4.88506 6.30968ZM7.32419 3.19207C6.90397 3.48772 6.52985 3.84399 6.21402 4.24927C5.89422 4.65802 5.64001 5.10918 5.45808 5.59149L5.09608 6.54469L4.11077 6.80206C4.11059 6.80211 4.11095 6.80201 4.11077 6.80206C3.59016 6.94035 3.11943 7.25163 2.78388 7.6795C2.45652 8.09938 2.27642 8.59588 2.25831 9.12583C2.23626 9.80508 2.48733 10.4588 2.95844 10.944C3.43269 11.4323 4.06795 11.7007 4.74438 11.7007H5.63979C5.89307 11.7007 6.09914 11.9067 6.09914 12.16V13.4998C6.09914 13.7531 5.89307 13.9591 5.63979 13.9591H4.74438C2.12408 13.9591 0 11.8349 0 9.21251C0 7.06021 1.43433 5.24176 3.39729 4.66133C4.49425 1.92881 7.16631 0 10.2888 0C13.4115 0 16.0836 1.93123 17.1804 4.66384C19.1389 5.24641 20.5687 7.06264 20.5687 9.21251C20.5687 11.8349 18.4446 13.9591 15.8243 13.9591H14.9289C14.6756 13.9591 14.4695 13.7531 14.4695 13.4998V12.16C14.4695 11.9067 14.6756 11.7007 14.9289 11.7007H15.8243C16.1506 11.7015 16.4746 11.6376 16.776 11.5127C17.0775 11.3878 17.3512 11.2043 17.5813 10.9729C18.051 10.5031 18.3102 9.87731 18.3102 9.21251C18.3102 8.08506 17.5497 7.09526 16.462 6.80196C16.4618 6.8019 16.4622 6.80201 16.462 6.80196L15.4788 6.54187L15.1197 5.59187M7.32419 3.19207C8.19448 2.58013 9.21877 2.25623 10.2888 2.25623C11.3588 2.25623 12.3832 2.58015 13.2535 3.19211C13.675 3.48867 14.0479 3.84456 14.3637 4.24939C14.6832 4.65783 14.9376 5.11128 15.1197 5.59187" fill="#4D5267"/>
</svg>
