<svg xmlns="http://www.w3.org/2000/svg" width="19.285" height="18" viewBox="0 0 19.285 18"><defs><style>.a{fill:#8c91f9;}</style></defs><path class="a" d="M-782.429,3670v-3.215a3.215,3.215,0,0,0-3.214-3.214H-789.5a3.214,3.214,0,0,0-3.214,3.214V3670H-794v-3.215a4.5,4.5,0,0,1,4.5-4.5h3.857a4.5,4.5,0,0,1,4.5,4.5V3670Zm3.856-6.429V3661h-2.571v-1.285h2.571v-2.572h1.286v2.572h2.571V3661h-2.571v2.571Zm-13.5-7.072a4.5,4.5,0,0,1,4.5-4.5,4.5,4.5,0,0,1,4.5,4.5,4.5,4.5,0,0,1-4.5,4.5A4.5,4.5,0,0,1-792.072,3656.5Zm1.286,0a3.215,3.215,0,0,0,3.214,3.215,3.215,3.215,0,0,0,3.214-3.215,3.215,3.215,0,0,0-3.214-3.214A3.214,3.214,0,0,0-790.786,3656.5Z" transform="translate(794 -3652)"/></svg>