<svg width="12" height="12" viewBox="0 0 12 12" fill="none" xmlns="http://www.w3.org/2000/svg">
<g clip-path="url(#clip0)">
<path d="M8.9987 9H3.33203V12H10.332V10.3333C10.332 9.597 9.73503 9 8.9987 9Z" fill="#4289C1"/>
<path d="M8.66797 10.666H9.0013V11.9993H8.66797V10.666Z" fill="#2A6797"/>
<path d="M3 1.97852V5.66585C3 7.32285 4.343 8.66585 6 8.66585C7.657 8.66585 9 7.32285 9 5.66585V2.08252L3 1.97852Z" fill="#FFDC5D"/>
<path d="M6.33333 6.49935H5.66667C5.57467 6.49935 5.5 6.42468 5.5 6.33268C5.5 6.24068 5.57467 6.16602 5.66667 6.16602H6.33333C6.42533 6.16602 6.5 6.24068 6.5 6.33268C6.5 6.42468 6.42533 6.49935 6.33333 6.49935Z" fill="#C1694F"/>
<path d="M3.61388 4.57085C3.61388 5.09752 3.34721 5.52452 3.01788 5.52452C2.68854 5.52452 2.42188 5.09752 2.42188 4.57085C2.42188 4.04419 2.68888 3.61719 3.01788 3.61719C3.34687 3.61719 3.61388 4.04419 3.61388 4.57085ZM9.57454 4.57085C9.57454 5.09752 9.30787 5.52452 8.97854 5.52452C8.64921 5.52452 8.38254 5.09752 8.38254 4.57085C8.38254 4.04419 8.64921 3.61719 8.97854 3.61719C9.30787 3.61719 9.57454 4.04419 9.57454 4.57085Z" fill="#FFDC5D"/>
<path d="M6.00076 0.273438C3.66109 0.273438 2.62109 1.83477 2.62109 3.1361C2.62109 4.4371 3.06876 4.7981 3.14109 4.4371C3.40109 3.1361 4.18109 2.73677 4.18109 2.73677C5.74109 4.0381 5.48109 2.9971 5.48109 2.9971C7.04076 4.55844 6.26109 2.9971 6.26109 2.9971C6.78109 3.51777 8.34076 3.51777 8.34076 3.51777C8.34076 3.51777 8.60076 3.9171 8.86043 4.43744C9.12043 4.9581 9.38043 4.43744 9.38043 3.13644C9.38043 1.83477 8.08043 0.273438 6.00076 0.273438Z" fill="#FFAC33"/>
<path d="M5 8V9.33333C5 9.88567 5.44767 10.3333 6 10.3333C6.55233 10.3333 7 9.88567 7 9.33333V8H5Z" fill="#FFDC5D"/>
<path d="M6.24471 6.12891L6.85371 6.35924C6.85371 6.35924 4.67737 10.9412 4.38271 11.3666C4.08804 11.7919 3.75938 12.0516 2.85938 11.9532L6.24471 6.12891ZM8.66671 10.6669H9.00004V12.0002H8.66671V10.6669Z" fill="#2A6797"/>
<path d="M4.50497 2.61466C4.81997 2.51766 5.03763 2.78399 5.09497 3.01299L5.18963 3.39299L5.44163 2.67466C5.56363 2.32733 5.94397 2.14433 6.2913 2.26633L7.5493 2.70766C7.89663 2.82966 8.07963 3.20999 7.95763 3.55733L7.07497 6.07366C7.07497 6.07366 6.96463 6.38833 6.64997 6.27799L4.76263 5.61599L4.5583 5.19099L4.6733 4.86299L4.26463 3.21999C4.20797 2.99066 4.2793 2.68433 4.50497 2.61466Z" fill="#EF9645"/>
<path d="M8.05426 5.45693C8.04559 5.4376 7.85559 5.0276 7.47193 4.94727L7.30859 5.41226C7.32093 5.41193 7.32959 5.40927 7.34226 5.40927C7.72959 5.40927 7.92893 5.54993 7.93359 5.55326C7.94759 5.56393 7.96459 5.56893 7.98126 5.56893C7.99893 5.56893 8.01659 5.56293 8.03093 5.5516C8.05926 5.52926 8.06893 5.49026 8.05426 5.45693Z" fill="#662113"/>
<path d="M7.33997 4.93164C6.86763 4.93164 6.63763 5.43664 6.62797 5.45831C6.6133 5.49131 6.62263 5.52997 6.65097 5.55264C6.67897 5.57531 6.71897 5.57597 6.7483 5.55497C6.74997 5.55364 6.94097 5.42264 7.30597 5.41397L7.4693 4.94897C7.42797 4.93997 7.38597 4.93164 7.33997 4.93164Z" fill="#4F140B"/>
<path d="M7.00021 7.78885C7.00021 7.78885 6.81354 7.41652 6.44087 7.22852C6.35887 7.39985 6.26887 7.58785 6.17188 7.78885H7.00021Z" fill="#C1694F"/>
<path d="M6.24415 6.12891L5.61081 7.20691L5.26948 7.78824L4.88281 8.44624L4.99948 9.33357C4.99948 9.53157 5.05881 9.71491 5.15815 9.87024C5.48481 9.20824 5.85715 8.43857 6.16981 7.78824L6.43881 7.22791C6.68581 6.71224 6.85348 6.35924 6.85348 6.35924L6.24415 6.12891Z" fill="#EF9645"/>
<path d="M6.43853 7.22743C6.31286 7.16376 6.16586 7.12109 5.99786 7.12109C5.85186 7.12109 5.72486 7.15676 5.61086 7.20643L5.26953 7.78776H6.16986L6.43853 7.22743Z" fill="#894935"/>
<path d="M4.17206 2.55322C4.40106 2.49622 4.63306 2.63589 4.69039 2.86456L4.78506 3.24456L5.03706 2.52622C5.15906 2.17889 5.53939 1.99589 5.88673 2.11789L7.14473 2.55922C7.49206 2.68122 7.67506 3.06156 7.55306 3.40889L6.67039 5.92522C6.67039 5.92522 6.56006 6.23989 6.24539 6.12956L4.35839 5.46756L4.15406 5.04256L4.26906 4.71456L3.86039 3.07156C3.80339 2.84222 3.94306 2.60989 4.17206 2.55322Z" fill="#FFDC5D"/>
<path d="M6.24802 4.0189L6.79969 2.44623L7.11436 2.55657L6.56269 4.12923L6.24802 4.0189ZM5.30469 3.6879L5.85669 2.11523L6.17102 2.22557L5.61935 3.79823L5.30469 3.6879Z" fill="#EF9645"/>
<path d="M4.75839 9.9492C4.75839 9.9492 4.18539 11.1422 4.05606 11.4212C3.82706 11.9159 3.33239 11.9992 3.33239 11.9992C0.665727 11.9992 2.12506 9.2182 2.12506 9.2182L4.26906 5.26953L6.44939 6.12953L4.75839 9.9492V9.9492Z" fill="#4289C1"/>
</g>
<defs>
<clipPath id="clip0">
<rect width="12" height="12" fill="white"/>
</clipPath>
</defs>
</svg>
