<svg xmlns="http://www.w3.org/2000/svg" width="15.999" height="16" viewBox="0 0 15.999 16"><path d="M1988.25,3742.25a8,8,0,1,1,8,8A8,8,0,0,1,1988.25,3742.25Zm1.143,0a6.857,6.857,0,1,0,6.858-6.858A6.857,6.857,0,0,0,1989.393,3742.25Zm6,4.286a.857.857,0,1,1,.857.856A.858.858,0,0,1,1995.393,3746.536Zm.285-2.286v-2.571h1.144a1.429,1.429,0,0,0,0-2.858h-.857a1.429,1.429,0,0,0-1.429,1.429v.286h-1.144v-.286a2.566,2.566,0,0,1,2.572-2.572h.857a2.571,2.571,0,0,1,0,5.143v1.429Z" transform="translate(-1988.25 -3734.25)" fill="#e8e8e9"/></svg>