<svg xmlns="http://www.w3.org/2000/svg" width="15" height="12" fill="none"><path fill="#207700" d="M1.63 8.5l.47-.24.47.23V11l-.47.24-.47-.24V8.5zM0 8.5l.47-.24.46.23V11l-.46.24L0 11V8.5z"/><path fill="#239B02" d="M2.1 9.35H.47v.47H2.1v-.47z"/><path fill="#C43D27" d="M7.07 7.93c.16.14.14.4 0 .56-.14.15-.4.13-.56 0"/><path fill="#C43D27" d="M11.44 1.32H9.42v.34h2.02v-.34z"/><path fill="#680B09" d="M12.83 0H10.5v4.42h2.33V0z"/><path fill="#E8F9FC" d="M12.83 5.12H3.27v6.52h9.56V5.12zM3.27 5.12h9.56v6.52"/><path fill="#FCA12A" d="M7.46 11.18V6.82c0-.2-.07-.3-.28-.3H5c-.2 0-.34.12-.34.3v4.36h2.8z"/><path fill="#E58613" d="M7.46 9.08V6.82c0-.2-.07-.3-.28-.3H5c-.2 0-.34.12-.34.3"/><path fill="#DB5435" d="M7.18 8.87c0 .2-.16.4-.4.4-.2 0-.4-.17-.4-.4 0-.2.17-.4.4-.4.22 0 .4.17.4.4z"/><path fill="#0E75AF" d="M10.03 7.68h1.4v-.86c0-.2-.23-.3-.44-.3h-.97v1.16z"/><path fill="#1EA4C4" d="M9.8 7.68V6.52H8.75c-.2 0-.35.12-.35.3v.86h1.4z"/><path fill="#0E75AF" d="M9.8 7.92H8.4v.9c0 .2.14.26.35.26H9.8V7.92z"/><path fill="#1EA4C4" d="M10.03 7.92v1.16H11c.2 0 .43-.05.43-.26v-.9h-1.4z"/><path fill="#C43D27" d="M14.44 5.12L8.04.14 1.7 5.12h12.76z"/><path fill="#AA1E0F" d="M14.44 5.12L8.04.14 4.82 5.12h9.64z"/><path fill="#C43D27" d="M3.47 3.72h9.17l-.58-.46h-8l-.6.46zM5.55 2.1h5.02l-.3-.24H5.84l-.3.23z"/></svg>