<svg width="20" height="14" viewBox="0 0 20 14" fill="none" xmlns="http://www.w3.org/2000/svg">
<path d="M12.8071 11.2285C12.6106 11.7338 12.2794 12.0707 11.9032 12.0707H7.15313C6.77134 12.0707 6.44568 11.7338 6.24917 11.2285H0V12.2111C0.0287369 12.5712 0.197944 12.9055 0.47108 13.1418C0.744216 13.3782 1.09936 13.4977 1.45982 13.4744H17.6302C17.9906 13.4977 18.3458 13.3782 18.6189 13.1418C18.8921 12.9055 19.0613 12.5712 19.09 12.2111V11.2285H12.8071Z" fill="#ffffff"/>
<path d="M3.36818 2.24588H15.7205V10.1065H17.4049V0.881509C17.4095 0.653124 17.3234 0.432228 17.1656 0.267063C17.0078 0.101899 16.7911 0.0058884 16.5627 0H2.52597C2.29762 0.0058884 2.08087 0.101899 1.92307 0.267063C1.76527 0.432228 1.67924 0.653124 1.68376 0.881509V10.1065H3.36818V2.24588Z" fill="#ffffff"/>
</svg>
