<svg xmlns="http://www.w3.org/2000/svg" width="24" height="24" viewBox="0 0 24 24"><path d="M26.5,9,25,18.75,23.5,9H22l1.887,10.5h2.226L28,9Z" transform="translate(-5.5 -2.25)" fill="#8c91f9"/><path d="M16.5,19.5H12V18h4.5V15h-3A1.5,1.5,0,0,1,12,13.5v-3A1.5,1.5,0,0,1,13.5,9H18v1.5H13.5v3h3A1.5,1.5,0,0,1,18,15v3A1.5,1.5,0,0,1,16.5,19.5Z" transform="translate(-3 -2.25)" fill="#8c91f9"/><path d="M8,19.5H3.5A1.5,1.5,0,0,1,2,18V10.5A1.5,1.5,0,0,1,3.5,9H8v1.5H3.5V18H8Z" transform="translate(-0.5 -2.25)" fill="#8c91f9"/><rect width="24" height="24" fill="none"/></svg>