<svg xmlns="http://www.w3.org/2000/svg" width="12" height="11.2" viewBox="0 0 12 11.2"><defs><style>.a{fill:#fff;}</style></defs><g transform="translate(-2.25 -2.25)"><path class="a" d="M28.75,12.85h-1.6v-1.6h-.8v1.6h-1.6v.8h1.6v1.6h.8v-1.6h1.6Z" transform="translate(-14.5 -5.8)"/><path class="a" d="M8.425,3.05a2,2,0,1,1-2,2,2,2,0,0,1,2-2m0-.8a2.8,2.8,0,1,0,2.8,2.8A2.8,2.8,0,0,0,8.425,2.25Z" transform="translate(-2.175)"/><path class="a" d="M10.25,25.05h-.8v-2a2,2,0,0,0-2-2H5.05a2,2,0,0,0-2,2v2h-.8v-2a2.8,2.8,0,0,1,2.8-2.8h2.4a2.8,2.8,0,0,1,2.8,2.8Z" transform="translate(0 -11.6)"/></g></svg>