<svg width="20" height="16" viewBox="0 0 20 16" fill="none" xmlns="http://www.w3.org/2000/svg">
<path d="M6.25264 0L6.049 0.341091L0.272171 9.79564L0.046875 10.1593L0.249786 10.5455L3.1382 15.6364L3.34111 16H15.7526L15.9555 15.6364L18.844 10.5455L19.0469 10.1593L18.8216 9.79564L13.0447 0.341091L12.8411 0H6.25264ZM7.94453 1.45455H12.0287L16.9261 9.45455H12.8411L7.94453 1.45455ZM6.65846 2.11345L8.80239 5.63636L3.79171 13.8407L1.71638 10.1818L6.65846 2.11345ZM9.65952 7.02255L11.1499 9.45455H8.17127L9.65952 7.02255ZM7.2903 10.9091H16.9708L14.8948 14.5455H5.05611L7.2903 10.9091Z" fill="#ffffff"/>
</svg>
