<svg xmlns="http://www.w3.org/2000/svg" width="8.445" height="10.605" viewBox="0 0 8.445 10.605"><defs><style>.a{fill:#ADB3CC;}</style></defs><path class="a" d="M7.245-5.46a2.656,2.656,0,0,1,1.522.93A2.546,2.546,0,0,1,9.33-2.895a2.634,2.634,0,0,1-.908,2.13A3.932,3.932,0,0,1,5.82,0H.885V-10.605H5.7a3.931,3.931,0,0,1,2.505.7A2.421,2.421,0,0,1,9.09-7.89a2.476,2.476,0,0,1-.51,1.6A2.35,2.35,0,0,1,7.245-5.46Zm-3.8-.81H5.13q1.335,0,1.335-1.14T5.1-8.55H3.45ZM5.28-2.085q1.425,0,1.425-1.17a1.115,1.115,0,0,0-.375-.892A1.585,1.585,0,0,0,5.265-4.47H3.45v2.385Z" transform="translate(-0.885 10.605)"/></svg>