<svg width="17" height="16" viewBox="0 0 17 16" fill="none" xmlns="http://www.w3.org/2000/svg">
<path fill-rule="evenodd" clip-rule="evenodd" d="M3.28952 10.4C2.85674 9.54317 2.63247 8.59626 2.63497 7.63636C2.63542 6.48855 2.95542 5.36353 3.55913 4.38731C4.16284 3.4111 5.02642 2.62224 6.05314 2.1091C6.90995 1.67633 7.85687 1.45206 8.81677 1.45456H9.1804C10.6963 1.53819 12.1281 2.17802 13.2016 3.25154C14.2751 4.32506 14.9149 5.75684 14.9986 7.27272V7.63636C15.0011 8.59626 14.7768 9.54317 14.344 10.4C13.8309 11.4267 13.042 12.2903 12.0658 12.894C11.0896 13.4977 9.96458 13.8177 8.81677 13.8181C7.85687 13.8207 6.90995 13.5964 6.05314 13.1636L1.9077 14.5454L3.28952 10.4ZM5.97368 14.7233L2.36767 15.9253C1.845 16.0995 1.26876 15.9635 0.879189 15.5739C0.489617 15.1844 0.353584 14.6081 0.527807 14.0855L1.72981 10.4794C1.36541 9.57724 1.1781 8.61115 1.18044 7.63417C1.18129 6.21685 1.57656 4.82772 2.32204 3.62227C3.06726 2.41723 4.13303 1.44331 5.40011 0.809395C6.46009 0.274541 7.63128 -0.00276079 8.81857 2.07202e-05H9.1804C9.20713 2.07202e-05 9.23385 0.000757127 9.26053 0.00222925C11.1339 0.105583 12.9034 0.896317 14.2301 2.22303C15.5568 3.54974 16.3475 5.31919 16.4509 7.1926C16.4524 7.21928 16.4531 7.246 16.4531 7.27272V7.63482C16.4558 8.82203 16.1785 9.99315 15.6437 11.0531C15.0098 12.3201 14.0359 13.3859 12.8309 14.1311C11.6254 14.8766 10.2363 15.2718 8.81895 15.2727C7.84197 15.275 6.87588 15.0877 5.97368 14.7233Z" fill="#454A60"/>
</svg>
