<svg xmlns="http://www.w3.org/2000/svg" width="16.475" height="19.506" viewBox="0 0 16.475 19.506"><defs><style>.a{fill:#adb3cc;}.b,.c{fill:#fff;}.c{stroke:#202028;stroke-width:0.8px;}</style></defs><g transform="translate(-292 -36.75)"><path class="a" d="M14,23.256a2.006,2.006,0,0,0,2-2H12A2,2,0,0,0,14,23.256Zm6-6v-5c0-3.071-1.641-5.642-4.5-6.322V5.25a1.5,1.5,0,0,0-3,0v.68C9.631,6.611,8,9.172,8,12.253v5l-2,2v1H22v-1Z" transform="translate(286 33)"/><circle class="b" cx="2.5" cy="2.5" r="2.5" transform="translate(301.002 40.878)"/><path class="c" d="M13.055,9.162a1.2,1.2,0,0,1,.77-1.119,4.756,4.756,0,0,0-.576-1.387,1.216,1.216,0,0,1-.488.1,1.2,1.2,0,0,1-1.1-1.685A4.742,4.742,0,0,0,10.282,4.5a1.2,1.2,0,0,1-2.239,0,4.756,4.756,0,0,0-1.387.576,1.2,1.2,0,0,1-1.1,1.685,1.176,1.176,0,0,1-.488-.1A4.861,4.861,0,0,0,4.5,8.045a1.2,1.2,0,0,1,0,2.239,4.756,4.756,0,0,0,.576,1.387,1.2,1.2,0,0,1,1.581,1.581,4.784,4.784,0,0,0,1.387.576,1.2,1.2,0,0,1,2.234,0,4.756,4.756,0,0,0,1.387-.576,1.2,1.2,0,0,1,1.581-1.581,4.784,4.784,0,0,0,.576-1.387A1.206,1.206,0,0,1,13.055,9.162ZM9.184,11.1A1.943,1.943,0,1,1,11.127,9.16,1.942,1.942,0,0,1,9.184,11.1Z" transform="translate(294.18 34.241)"/></g></svg>