<svg width="25" height="30" viewBox="0 0 25 30" fill="none" xmlns="http://www.w3.org/2000/svg">
<path d="M23.9072 7.52009L16.5003 0.314732C16.2938 0.113839 16.015 0 15.7225 0H1.1014C0.492188 0 0 0.478795 0 1.07143V28.9286C0 29.5212 0.492188 30 1.1014 30H23.1294C23.7386 30 24.2308 29.5212 24.2308 28.9286V8.28013C24.2308 7.99554 24.1137 7.72098 23.9072 7.52009ZM21.6907 8.77232H15.2131V2.47098L21.6907 8.77232ZM21.7526 27.5893H2.47815V2.41071H12.8726V9.64286C12.8726 10.0158 13.0249 10.3735 13.296 10.6372C13.5671 10.9009 13.9348 11.0491 14.3182 11.0491H21.7526V27.5893Z" fill="#1160D7"/>
<path d="M17.308 13.8477L15.3548 21.9246H12.6339L11.5388 16.9753L10.421 21.9246H7.70013L5.76953 13.8477H8.16303L9.08881 19.3698L10.342 13.8477H12.7694L13.9887 19.3239L14.9145 13.8477H17.308Z" fill="#1160D7"/>
</svg>
