<svg width="36" height="42" viewBox="0 0 36 42" fill="none" xmlns="http://www.w3.org/2000/svg">
<path d="M18.9869 23.925L19.0023 23.8594C19.2989 22.7391 19.6722 21.3422 19.3807 20.0766C19.1864 19.0781 18.3835 18.6891 17.6983 18.6609C16.8903 18.6281 16.1693 19.05 15.9903 19.6641C15.6528 20.7891 15.9545 22.3266 16.5068 24.2859C15.8114 25.8047 14.7017 28.0125 13.8886 29.325C12.375 30.0422 10.3449 31.1484 10.0432 32.5453C9.98182 32.8031 10.0534 33.1312 10.2222 33.4266C10.4114 33.7547 10.7131 34.0078 11.0659 34.1297C11.2193 34.1812 11.4034 34.2234 11.6182 34.2234C12.5182 34.2234 13.9756 33.5578 15.9187 30.5016C16.2153 30.4125 16.5222 30.3187 16.8188 30.225C18.2097 29.7937 19.6517 29.3438 20.9557 29.1422C22.3977 29.85 24.0392 30.3047 25.154 30.3047C26.2585 30.3047 26.6932 29.7047 26.8568 29.3437C27.1432 28.7109 27.0051 27.9141 26.5398 27.4875C25.8648 26.8781 24.2233 26.7188 21.6665 27.0094C20.4085 26.3062 19.5852 25.35 18.9869 23.925ZM13.3773 31.0453C12.6665 31.9922 12.1295 32.4656 11.8381 32.6719C12.1807 32.0953 12.8506 31.4859 13.3773 31.0453ZM17.8568 20.0062C18.1227 20.4234 18.0869 21.6844 17.8824 22.3219C17.6318 21.3891 17.596 20.0672 17.7443 19.9125C17.7852 19.9172 17.821 19.9453 17.8568 20.0062ZM17.775 25.6547C18.3222 26.5219 19.0125 27.2672 19.7744 27.8203C18.6699 28.05 17.6625 28.4297 16.7625 28.7672C16.5477 28.8469 16.3381 28.9266 16.1335 29.0016C16.8136 27.8719 17.3813 26.5922 17.775 25.6547ZM25.7318 28.725C25.7369 28.7344 25.742 28.7484 25.7114 28.7672H25.7011L25.6909 28.7812C25.65 28.8047 25.2307 29.0297 23.4256 28.3781C25.5017 28.2891 25.7267 28.7203 25.7318 28.725ZM35.5193 10.5281L24.5148 0.440625C24.208 0.159375 23.7938 0 23.3591 0H1.63636C0.73125 0 0 0.670312 0 1.5V40.5C0 41.3297 0.73125 42 1.63636 42H34.3636C35.2687 42 36 41.3297 36 40.5V11.5922C36 11.1937 35.8261 10.8094 35.5193 10.5281ZM32.2261 12.2812H22.6023V3.45938L32.2261 12.2812ZM32.3182 38.625H3.68182V3.375H19.125V13.5C19.125 14.0221 19.3513 14.5229 19.7541 14.8921C20.1568 15.2613 20.7031 15.4688 21.2727 15.4688H32.3182V38.625Z" fill="#EC4E4E"/>
</svg>
