<svg width="22" height="20" viewBox="0 0 22 20" fill="none" xmlns="http://www.w3.org/2000/svg">
<path d="M9.33187 7.99629L9.57902 12.3713C9.59301 12.6191 9.79008 12.8125 10.0284 12.8125H11.5804C11.6952 12.8125 11.8057 12.7668 11.8893 12.6848C11.9728 12.6028 12.0231 12.4906 12.0298 12.3713L12.277 7.99629C12.2922 7.72703 12.0866 7.5 11.8276 7.5H9.78123C9.52226 7.5 9.31667 7.72703 9.33187 7.99629ZM12.3801 15C12.3801 15.9061 11.6747 16.6406 10.8045 16.6406C9.93425 16.6406 9.22881 15.9061 9.22881 15C9.22881 14.0939 9.93425 13.3594 10.8045 13.3594C11.6747 13.3594 12.3801 14.0939 12.3801 15ZM12.3642 0.936914C11.6727 -0.311172 9.93748 -0.313437 9.24468 0.936914L0.242994 17.188C-0.448117 18.4354 0.417103 20 1.80277 20H19.8059C21.1889 20 22.0582 18.4378 21.3657 17.188L12.3642 0.936914ZM1.99549 17.7735L10.6095 2.22688C10.6961 2.07055 10.9128 2.07055 10.9994 2.22688L19.6134 17.7735C19.7 17.9297 19.5917 18.125 19.4185 18.125H2.19046C2.01725 18.125 1.90894 17.9298 1.99549 17.7735Z" fill="#ED2727"/>
</svg>
