<svg xmlns="http://www.w3.org/2000/svg" width="19.637" height="18.818" viewBox="0 0 19.637 18.818"><defs><style>.a,.c{fill:#adb3cc;}.b{fill:#202028;}.c{stroke:rgba(0,0,0,0);}</style></defs><g transform="translate(-1179.5 -15.028)"><path class="a" d="M18.82,12.257l-1.666-1.666V8.385a6.162,6.162,0,0,0-5.538-6.123V1H10.385V2.262A6.162,6.162,0,0,0,4.846,8.385v2.207L3.18,12.257a.615.615,0,0,0-.18.435v1.846a.615.615,0,0,0,.615.615H7.923v.478a3.17,3.17,0,0,0,2.769,3.2,3.08,3.08,0,0,0,3.385-3.062v-.615h4.308A.615.615,0,0,0,19,14.538V12.692a.615.615,0,0,0-.18-.435Zm-5.974,3.512a1.846,1.846,0,0,1-3.692,0v-.615h3.692Zm4.923-1.846H4.231v-.976L5.9,11.281a.615.615,0,0,0,.18-.435V8.385a4.923,4.923,0,1,1,9.846,0v2.462a.615.615,0,0,0,.18.435l1.666,1.666Z" transform="translate(1176.5 15)"/><path class="b" d="M2008.184,3958.945a.924.924,0,0,1-.907-.745l-.233-1.163a5.242,5.242,0,0,1-.606-.352l-1.125.38a.911.911,0,0,1-.3.05.923.923,0,0,1-.8-.463l-1.092-1.889a.926.926,0,0,1,.19-1.157l.888-.78c-.008-.117-.013-.235-.013-.354s.01-.234.018-.351l-.893-.784a.926.926,0,0,1-.19-1.158l1.092-1.89a.923.923,0,0,1,.8-.462.935.935,0,0,1,.3.048l1.118.379a5.257,5.257,0,0,1,.614-.349l.233-1.164a.925.925,0,0,1,.907-.744h2.182a.925.925,0,0,1,.907.744l.233,1.164a5.314,5.314,0,0,1,.606.351l1.125-.381a.926.926,0,0,1,1.1.414l1.092,1.89a.927.927,0,0,1-.191,1.158l-.888.78q.013.176.013.354c0,.117-.009.233-.017.349l.893.785a.926.926,0,0,1,.191,1.157l-1.092,1.889a.925.925,0,0,1-.8.463.9.9,0,0,1-.3-.05l-1.118-.377a5.254,5.254,0,0,1-.613.349l-.233,1.163a.925.925,0,0,1-.907.745Z" transform="translate(-816.412 -3930.972)"/><path class="c" d="M2007.2,3956.5a.75.75,0,0,1-.736-.6l-.189-.943a4.217,4.217,0,0,1-.492-.285l-.913.309a.735.735,0,0,1-.24.04.75.75,0,0,1-.649-.375l-.885-1.533a.75.75,0,0,1,.154-.938l.72-.633c-.006-.1-.01-.191-.01-.288s.008-.189.015-.284l-.724-.636a.751.751,0,0,1-.154-.938l.885-1.533a.75.75,0,0,1,.89-.335l.907.307a4.124,4.124,0,0,1,.5-.283l.189-.944a.751.751,0,0,1,.736-.6h1.77a.751.751,0,0,1,.736.6l.188.944a4.234,4.234,0,0,1,.492.284l.913-.309a.75.75,0,0,1,.89.335l.885,1.533a.751.751,0,0,1-.155.938l-.72.632q.011.143.01.288c0,.1-.007.189-.014.283l.724.637a.75.75,0,0,1,.155.938l-.885,1.533a.751.751,0,0,1-.65.375.733.733,0,0,1-.24-.04l-.907-.307a4.149,4.149,0,0,1-.5.283l-.188.943a.751.751,0,0,1-.736.6Z" transform="translate(-815.227 -3929.75)"/><circle class="b" cx="2" cy="2" r="2" transform="translate(1191 19.528)"/></g></svg>