<svg width="24" height="24" viewBox="0 0 24 24" fill="none" xmlns="http://www.w3.org/2000/svg">
<path d="M17.8732 3.40918C17.1476 3.40918 16.4656 3.69173 15.9525 4.20476C14.8934 5.26384 14.8934 6.98708 15.9525 8.04616C16.4655 8.5592 17.1476 8.84175 17.8731 8.84175C18.5986 8.84175 19.2808 8.5592 19.7938 8.04616C20.8529 6.98708 20.8529 5.26384 19.7938 4.20476C19.2808 3.69173 18.5987 3.40918 17.8732 3.40918ZM18.7442 6.99644C18.5115 7.2291 18.2022 7.35726 17.8731 7.35726C17.5441 7.35726 17.2348 7.2291 17.0021 6.99649C16.5218 6.51621 16.5218 5.73472 17.0021 5.25444C17.2348 5.02177 17.5441 4.89366 17.8731 4.89366C18.2022 4.89366 18.5115 5.02177 18.7442 5.25444C19.2245 5.73472 19.2245 6.51616 18.7442 6.99644Z" fill="white"/>
<path d="M21.8694 2.12954C20.4962 0.756295 18.6704 0 16.7283 0C14.7862 0 12.9604 0.756295 11.5872 2.12954C9.49776 4.219 8.89086 7.33409 10.0006 10.0318L0.0125592 20.0199L0.00439453 23.9918L7.15772 24V21.2427H9.91416V18.4863H12.6706V15.295L13.9676 13.998C14.8393 14.3544 15.7836 14.5411 16.7287 14.5411C18.6706 14.5411 20.4963 13.7849 21.8694 12.4118C24.7043 9.57695 24.7043 4.96436 21.8694 2.12954ZM20.8198 11.3621C19.727 12.4548 18.2741 13.0566 16.7287 13.0566C15.8315 13.0566 14.9356 12.8456 14.1382 12.4464L13.6596 12.2068L11.1861 14.6802V17.0018H8.42968V19.7582H5.67324V22.5138L1.49195 22.5091L1.4958 20.6362L11.7923 10.3394L11.5527 9.86083C10.4358 7.6298 10.8715 4.94467 12.6369 3.17922C13.7298 2.08634 15.1828 1.48448 16.7283 1.48448C18.2739 1.48448 19.7269 2.08634 20.8198 3.17922C23.0758 5.43524 23.0758 9.10607 20.8198 11.3621Z" fill="white"/>
</svg>
