<svg width="24" height="24" viewBox="0 0 24 24" fill="none" xmlns="http://www.w3.org/2000/svg">
<path d="M18.2222 10H19.1111C19.3469 10 19.573 10.1054 19.7397 10.2929C19.9064 10.4804 20 10.7348 20 11V21C20 21.2652 19.9064 21.5196 19.7397 21.7071C19.573 21.8946 19.3469 22 19.1111 22H4.88889C4.65314 22 4.42705 21.8946 4.26035 21.7071C4.09365 21.5196 4 21.2652 4 21V11C4 10.7348 4.09365 10.4804 4.26035 10.2929C4.42705 10.1054 4.65314 10 4.88889 10H5.77778V9C5.77778 8.08075 5.93872 7.1705 6.25142 6.32122C6.56411 5.47194 7.02244 4.70026 7.60022 4.05025C8.17801 3.40024 8.86394 2.88463 9.61886 2.53284C10.3738 2.18106 11.1829 2 12 2C12.8171 2 13.6262 2.18106 14.3811 2.53284C15.1361 2.88463 15.822 3.40024 16.3998 4.05025C16.9776 4.70026 17.4359 5.47194 17.7486 6.32122C18.0613 7.1705 18.2222 8.08075 18.2222 9V10ZM16.4444 10V9C16.4444 7.67392 15.9762 6.40215 15.1427 5.46447C14.3092 4.52678 13.1787 4 12 4C10.8213 4 9.6908 4.52678 8.8573 5.46447C8.02381 6.40215 7.55556 7.67392 7.55556 9V10H16.4444ZM11.1111 14V18H12.8889V14H11.1111Z" fill="white"/>
</svg>
