<svg width="23" height="13" viewBox="0 0 23 13" fill="none" xmlns="http://www.w3.org/2000/svg">
<path fill-rule="evenodd" clip-rule="evenodd" d="M7.15753 0.272743C7.24399 0.35898 7.31258 0.461427 7.35938 0.574215C7.40618 0.687003 7.43027 0.807916 7.43027 0.930028C7.43027 1.05214 7.40618 1.17305 7.35938 1.28584C7.31258 1.39863 7.24399 1.50108 7.15753 1.58731L2.24274 6.50024L7.15753 11.4132C7.24385 11.4995 7.31231 11.602 7.35903 11.7147C7.40574 11.8275 7.42979 11.9484 7.42979 12.0705C7.42979 12.1925 7.40574 12.3134 7.35903 12.4262C7.31231 12.539 7.24385 12.6414 7.15753 12.7277C7.07121 12.8141 6.96874 12.8825 6.85596 12.9292C6.74319 12.976 6.62231 13 6.50024 13C6.37817 13 6.2573 12.976 6.14452 12.9292C6.03175 12.8825 5.92927 12.8141 5.84296 12.7277L0.272743 7.15753C0.186287 7.07129 0.117694 6.96884 0.0708927 6.85606C0.0240909 6.74327 0 6.62236 0 6.50024C0 6.37813 0.0240909 6.25722 0.0708927 6.14443C0.117694 6.03164 0.186287 5.9292 0.272743 5.84296L5.84296 0.272743C5.9292 0.186287 6.03164 0.117694 6.14443 0.0708918C6.25722 0.02409 6.37813 0 6.50024 0C6.62236 0 6.74327 0.02409 6.85606 0.0708918C6.96885 0.117694 7.07129 0.186287 7.15753 0.272743Z" fill="url(#paint0_linear)"/>
<path fill-rule="evenodd" clip-rule="evenodd" d="M0.929688 6.50063C0.929688 6.25442 1.0275 6.01828 1.2016 5.84418C1.3757 5.67008 1.61184 5.57227 1.85806 5.57227H21.3538C21.6 5.57227 21.8362 5.67008 22.0103 5.84418C22.1844 6.01828 22.2822 6.25442 22.2822 6.50063C22.2822 6.74685 22.1844 6.98299 22.0103 7.15709C21.8362 7.33119 21.6 7.429 21.3538 7.429H1.85806C1.61184 7.429 1.3757 7.33119 1.2016 7.15709C1.0275 6.98299 0.929688 6.74685 0.929688 6.50063Z" fill="url(#paint1_linear)"/>
<defs>
<linearGradient id="paint0_linear" x1="7.43027" y1="13" x2="-3.73364" y2="7.25366" gradientUnits="userSpaceOnUse">
<stop offset="0.0011704" stop-color="#4E54C8"/>
<stop offset="1" stop-color="#8F94FB"/>
</linearGradient>
<linearGradient id="paint1_linear" x1="22.2822" y1="7.429" x2="21.9073" y2="3.54671" gradientUnits="userSpaceOnUse">
<stop offset="0.0011704" stop-color="#4E54C8"/>
<stop offset="1" stop-color="#8F94FB"/>
</linearGradient>
</defs>
</svg>
