<svg xmlns="http://www.w3.org/2000/svg" width="24" height="24" viewBox="0 0 24 24"><defs><style>.a{fill:#8C91F9;}.b{fill:none;}</style></defs><path class="a" d="M12.75,3A9.69,9.69,0,0,0,3,12.749v.75a9.75,9.75,0,0,0,9.75,9.75H18v-1.5H12.75A8.25,8.25,0,0,1,4.5,13.5v-.75A8.2,8.2,0,0,1,12.75,4.5,7.98,7.98,0,0,1,21,12.749c0,2.692-1.05,3.75-2.745,3.75-1.185,0-1.755-.967-1.755-2.25v-6H15V9.7a2.88,2.88,0,0,0-2.625-1.455,4.11,4.11,0,0,0-4.125,4.08v1.59A4.11,4.11,0,0,0,12.375,18a3.21,3.21,0,0,0,3-1.845A3.262,3.262,0,0,0,18.307,18c2.3,0,4.193-1.5,4.193-5.25A9.54,9.54,0,0,0,12.75,3ZM15,13.919a2.625,2.625,0,1,1-5.25,0v-1.59a2.625,2.625,0,1,1,5.25,0Z" transform="translate(-0.75 -0.749)"/><rect class="b" width="24" height="24"/></svg>