<svg xmlns="http://www.w3.org/2000/svg" width="15.928" height="16" viewBox="0 0 15.928 16"><g transform="translate(-2.25 -2.108)"><path d="M9.115,18.35a4.215,4.215,0,0,1-.1-.893V15.75H7.875v1.707a5.029,5.029,0,0,0,.33,1.809Z" transform="translate(-2.781 -6.744)" fill="#e73c3c"/><path d="M13.512,9.575V5.024a1.707,1.707,0,1,1,3.413,0v1l1.138-1.138a2.845,2.845,0,0,0-5.689.142V9.575Z" transform="translate(-5.004 0)" fill="#e73c3c"/><path d="M14.2,10.783a3.982,3.982,0,0,1-6.673,2.924l.808-.8a2.844,2.844,0,0,0,4.727-2.122V8.178l5.12-5.12-.8-.808L2.25,17.376l.8.8,3.663-3.663a5.069,5.069,0,0,0,2.93,1.354V17.04H7.37v1.138h5.689V17.04H10.783V15.869a5.12,5.12,0,0,0,4.551-5.086V9.076H14.2Zm-2.275,0A1.707,1.707,0,0,1,9.133,12.1l2.788-2.782Z" transform="translate(0 -0.07)" fill="#e73c3c"/></g></svg>