<svg xmlns="http://www.w3.org/2000/svg" width="13.401" height="11.51" viewBox="0 0 13.401 11.51"><defs><style>.a{fill:#ADB3CC;}</style></defs><g transform="translate(-0.136 -1.172)"><path class="a" d="M6.991,17.194H17.075V15.753H6.991Zm0-4.322H17.075V11.432H6.991Zm0-5.762V8.551H17.075V7.11Z" transform="translate(-3.537 -4.902)"/><path class="a" d="M.044-2.188v-.64H1.188V0H.468V-2.188Z" transform="translate(0.5 4)"/><path class="a" d="M.136-.544q1.272-.908,1.272-1.444,0-.328-.284-.328A.26.26,0,0,0,.89-2.2a.687.687,0,0,0-.082.348H.14a1.063,1.063,0,0,1,.312-.776,1.045,1.045,0,0,1,.728-.26.946.946,0,0,1,.694.232.813.813,0,0,1,.234.6,1.28,1.28,0,0,1-.316.806,2.947,2.947,0,0,1-.756.666H2.152v.552H.136Z" transform="translate(0 7.654)"/><path class="a" d="M1.208-2.952a1.162,1.162,0,0,1,.508.1.747.747,0,0,1,.322.28.749.749,0,0,1,.11.4.665.665,0,0,1-.142.444.616.616,0,0,1-.354.212v.02A.683.683,0,0,1,2.2-.808a.838.838,0,0,1-.112.434.757.757,0,0,1-.326.3,1.148,1.148,0,0,1-.514.106,1.166,1.166,0,0,1-.774-.24.967.967,0,0,1-.31-.732H.832a.461.461,0,0,0,.1.3.355.355,0,0,0,.28.108A.312.312,0,0,0,1.45-.628a.312.312,0,0,0,.086-.228q0-.348-.5-.348H.9V-1.76h.124q.452.008.452-.324A.3.3,0,0,0,1.4-2.306a.284.284,0,0,0-.21-.078.285.285,0,0,0-.228.1.441.441,0,0,0-.1.262H.2a.951.951,0,0,1,.28-.688A1.033,1.033,0,0,1,1.208-2.952Z" transform="translate(0 12.654)"/></g></svg>