<svg xmlns="http://www.w3.org/2000/svg" width="22.5" height="18.837" viewBox="0 0 22.5 18.837"><g transform="translate(-1214.5 -14.981)"><path d="M3609,3887.286l2.286-4h3.429a1.142,1.142,0,0,0,1.143-1.143v-6.857a1.143,1.143,0,0,0-1.143-1.144h-11.428a1.144,1.144,0,0,0-1.144,1.144v6.857a1.143,1.143,0,0,0,1.144,1.143h5.143v1.143h-5.143a2.285,2.285,0,0,1-2.286-2.286v-6.857a2.285,2.285,0,0,1,2.286-2.286h11.428a2.286,2.286,0,0,1,2.286,2.286v6.857a2.286,2.286,0,0,1-2.286,2.286h-2.766l-1.955,3.428Zm-4.572-6.286v-1.143h5.715V3881Zm0-3.428v-1.143h9.143v1.143Z" transform="translate(-2386.5 -3854.039)" fill="#E8E8E9"/><g transform="translate(-2 -0.019)"><rect width="12" height="12" transform="translate(1227 15)" fill="#202028"/><path d="M11.5,6.039l.5-.5L8.429,2l-.468.507.421.421L4.279,6.4l-.614-.611-.5.5L5.182,8.314,2,11.493,2.5,12,5.686,8.818l2.029,2.021.5-.507L7.6,9.721l3.471-4.1Z" transform="translate(1226 14)" fill="#E8E8E9"/></g></g></svg>