<svg xmlns="http://www.w3.org/2000/svg" width="12.308" height="16" viewBox="0 0 12.308 16">
  <g id="data-base" transform="translate(-6.75 -3.375)">
    <path id="Path_11958" data-name="Path 11958" d="M17.827,3.375H7.981A1.231,1.231,0,0,0,6.75,4.606V18.144a1.231,1.231,0,0,0,1.231,1.231h9.846a1.231,1.231,0,0,0,1.231-1.231V4.606A1.231,1.231,0,0,0,17.827,3.375Zm0,1.231V8.3H7.981V4.606ZM7.981,13.221V9.529h9.846v3.692Zm0,4.923V14.452h9.846v3.692Z" fill="#8c91f9"/>
    <path id="Path_11959" data-name="Path 11959" d="M12.481,8.49a.615.615,0,1,1-.615-.615A.615.615,0,0,1,12.481,8.49Z" transform="translate(-2.038 -2.038)" fill="#8c91f9"/>
    <path id="Path_11960" data-name="Path 11960" d="M12.481,17.49a.615.615,0,1,1-.615-.615A.615.615,0,0,1,12.481,17.49Z" transform="translate(-2.038 -6.115)" fill="#8c91f9"/>
    <path id="Path_11961" data-name="Path 11961" d="M12.481,26.49a.615.615,0,1,1-.615-.615A.615.615,0,0,1,12.481,26.49Z" transform="translate(-2.038 -10.192)" fill="#8c91f9"/>
  </g>
</svg>
