<svg xmlns="http://www.w3.org/2000/svg" width="17.45" height="18" viewBox="0 0 17.45 18"><defs><style>.a{fill:#abaebb;}</style></defs><path class="a" d="M2010.208,3964a1.286,1.286,0,0,1-1.261-1.034l-.323-1.618a7.159,7.159,0,0,1-.843-.488l-1.565.529a1.282,1.282,0,0,1-1.525-.575l-1.518-2.628a1.286,1.286,0,0,1,.265-1.609l1.235-1.084c-.011-.163-.018-.327-.018-.493s.014-.324.025-.487l-1.242-1.091a1.286,1.286,0,0,1-.265-1.609l1.518-2.628a1.287,1.287,0,0,1,1.525-.575l1.555.527a7,7,0,0,1,.853-.485l.323-1.619a1.286,1.286,0,0,1,1.261-1.034h3.035a1.287,1.287,0,0,1,1.261,1.034l.323,1.619a7.123,7.123,0,0,1,.843.488l1.565-.53a1.288,1.288,0,0,1,1.526.575l1.517,2.628a1.286,1.286,0,0,1-.265,1.609l-1.235,1.085q.018.244.018.492c0,.164-.013.325-.024.486l1.241,1.091a1.286,1.286,0,0,1,.265,1.609l-1.517,2.628a1.284,1.284,0,0,1-1.526.575l-1.556-.526a7.188,7.188,0,0,1-.853.485l-.323,1.618a1.286,1.286,0,0,1-1.261,1.034Zm-.457-3.569.457,2.282h3.035l.457-2.282a5.8,5.8,0,0,0,1.744-1.005l2.2.745,1.516-2.628-1.747-1.535a5.745,5.745,0,0,0,0-2.011l1.751-1.539-1.516-2.628-2.216.749a5.852,5.852,0,0,0-1.731-1.01l-.457-2.284h-3.035l-.457,2.284a5.777,5.777,0,0,0-1.745,1.005l-2.2-.745-1.518,2.628,1.748,1.536a5.743,5.743,0,0,0,0,2.01l-1.751,1.54,1.516,2.628,2.216-.749A5.842,5.842,0,0,0,2009.751,3960.432Zm-1.883-5.432a3.857,3.857,0,1,1,3.857,3.857A3.817,3.817,0,0,1,2007.868,3955Zm1.286,0a2.571,2.571,0,1,0,2.571-2.571A2.515,2.515,0,0,0,2009.154,3955Z" transform="translate(-2003 -3946)"/></svg>