<svg xmlns="http://www.w3.org/2000/svg" width="14.143" height="18" viewBox="0 0 14.143 18"><defs><style>.a{fill:#abaebb;}</style></defs><path class="a" d="M-711.143,3544a.64.64,0,0,1-.514-.257l-1.415-1.885-1.414,1.885a.667.667,0,0,1-.515.243.664.664,0,0,1-.514-.243l-1.415-1.885-1.414,1.885a.667.667,0,0,1-.515.243.664.664,0,0,1-.514-.243l-1.415-1.885-1.414,1.885a.641.641,0,0,1-.515.257h-.643a.643.643,0,0,1-.643-.643v-16.072a1.286,1.286,0,0,1,1.285-1.285h11.572a1.287,1.287,0,0,1,1.286,1.285v16.072a.643.643,0,0,1-.643.643Zm-1.414-3.6,1.414,1.886v-15h-11.572v15l1.415-1.886a.664.664,0,0,1,.514-.243.667.667,0,0,1,.515.243l1.414,1.886,1.415-1.886a.664.664,0,0,1,.514-.243.667.667,0,0,1,.515.243l1.414,1.886,1.415-1.886a.664.664,0,0,1,.514-.243A.667.667,0,0,1-712.557,3540.4Zm-1.157-4.114V3535h1.286v1.286Zm-7.714,0V3535h5.143v1.286Zm7.714-2.571v-1.286h1.286v1.286Zm-7.714,0v-1.286h5.143v1.286Zm0-2.572v-1.285h9v1.285Z" transform="translate(724 -3526)"/></svg>