<svg xmlns="http://www.w3.org/2000/svg" width="12.857" height="18" viewBox="0 0 12.857 18"><defs><style>.a{fill:#abaebb;}</style></defs><path class="a" d="M-782.429,3836v-3.215a3.214,3.214,0,0,0-3.214-3.214H-789.5a3.214,3.214,0,0,0-3.214,3.214V3836H-794v-3.215a4.5,4.5,0,0,1,4.5-4.5h3.857a4.5,4.5,0,0,1,4.5,4.5V3836Zm-9.643-13.5a4.5,4.5,0,0,1,4.5-4.5,4.5,4.5,0,0,1,4.5,4.5,4.5,4.5,0,0,1-4.5,4.5A4.5,4.5,0,0,1-792.072,3822.5Zm1.286,0a3.215,3.215,0,0,0,3.214,3.215,3.215,3.215,0,0,0,3.215-3.215,3.215,3.215,0,0,0-3.215-3.214A3.215,3.215,0,0,0-790.786,3822.5Z" transform="translate(794 -3818)"/></svg>