<svg xmlns="http://www.w3.org/2000/svg" width="17.19" height="16" viewBox="0 0 17.19 16">
  <path id="reply" d="M1.782,19.378a.593.593,0,0,0,.522-.3,9,9,0,0,1,7.7-4.445v3.556a.6.6,0,0,0,1.014.421L18.133,11.5a.593.593,0,0,0,0-.841L11.022,3.549a.6.6,0,0,0-1.014.42V7.59a10.188,10.188,0,0,0-8.89,10.075A9.685,9.685,0,0,0,1.2,18.851a.593.593,0,0,0,.468.51ZM10.3,13.451a10.443,10.443,0,0,0-8,3.556,9.074,9.074,0,0,1,8.35-8.3.593.593,0,0,0,.539-.593V5.4l5.684,5.684-5.684,5.684v-2.72a.593.593,0,0,0-.593-.593h-.32Z" transform="translate(-1.118 -3.378)" fill="#4d5267"/>
</svg>
