<svg width="17" height="16" viewBox="0 0 17 16" fill="none" xmlns="http://www.w3.org/2000/svg">
<path fill-rule="evenodd" clip-rule="evenodd" d="M14.1452 1.19394H2.16136C1.8965 1.19394 1.64249 1.30183 1.45521 1.49387C1.26793 1.68591 1.16271 1.94637 1.16271 2.21796V14.0822L3.16001 12.0342C3.53449 11.6501 4.04243 11.4342 4.5721 11.4341H14.1452C14.41 11.4341 14.664 11.3262 14.8513 11.1342C15.0386 10.9422 15.1438 10.6817 15.1438 10.4101V2.21796C15.1438 1.94637 15.0386 1.68591 14.8513 1.49387C14.664 1.30183 14.41 1.19394 14.1452 1.19394ZM2.16136 0.169922C1.63164 0.169922 1.12362 0.385697 0.749058 0.769778C0.374492 1.15386 0.164063 1.67479 0.164062 2.21796L0.164063 15.3182C0.164083 15.4195 0.193415 15.5186 0.248346 15.6028C0.303276 15.687 0.381336 15.7526 0.472644 15.7913C0.563953 15.83 0.664407 15.8401 0.761291 15.8202C0.858175 15.8003 0.947134 15.7514 1.01691 15.6797L3.86606 12.7582C4.05329 12.5661 4.30726 12.4582 4.5721 12.4581H14.1452C14.6749 12.4581 15.1829 12.2424 15.5575 11.8583C15.932 11.4742 16.1424 10.9533 16.1424 10.4101V2.21796C16.1424 1.67479 15.932 1.15386 15.5575 0.769778C15.1829 0.385697 14.6749 0.169922 14.1452 0.169922L2.16136 0.169922Z" fill="#454A60"/>
<path fill-rule="evenodd" clip-rule="evenodd" d="M4.57372 11.4341H14.1468C14.4116 11.4341 14.6656 11.3262 14.8529 11.1342C15.0402 10.9421 15.1454 10.6817 15.1454 10.4101V2.21793C15.1454 1.94634 15.0402 1.68588 14.8529 1.49384C14.6656 1.3018 14.4116 1.19391 14.1468 1.19391H2.16298C1.89812 1.19391 1.64411 1.3018 1.45683 1.49384C1.26955 1.68588 1.16433 1.94634 1.16433 2.21793V14.0822L3.16163 12.0342C3.53611 11.6501 4.04405 11.4342 4.57372 11.4341ZM3.04448 11.914C3.04448 11.914 3.04447 11.9141 3.04448 11.914C3.45002 11.4981 4.00008 11.2643 4.57369 11.2642H14.1468C14.3677 11.2642 14.5796 11.1742 14.7358 11.014C14.892 10.8539 14.9797 10.6366 14.9797 10.4101V2.21793C14.9797 1.9914 14.892 1.77415 14.7358 1.61397C14.5796 1.45379 14.3677 1.36381 14.1468 1.36381H2.16298C1.94207 1.36381 1.7302 1.45379 1.57399 1.61397C1.41778 1.77415 1.33002 1.9914 1.33002 2.21793V13.6721L3.04448 11.914ZM0 15.3182V2.21793C0 1.6297 0.227885 1.06556 0.633523 0.649617C1.03916 0.233674 1.58932 0 2.16298 0H14.1468C14.7204 0 15.2706 0.233674 15.6762 0.649617C16.0819 1.06556 16.3098 1.6297 16.3098 2.21793V10.4101C16.3098 10.9983 16.0819 11.5625 15.6762 11.9784C15.2706 12.3943 14.7204 12.628 14.1468 12.628L4.57376 12.628C4.57375 12.628 4.57377 12.628 4.57376 12.628C4.35287 12.6281 4.14102 12.7181 3.98485 12.8783L1.13584 15.7997C1.04291 15.8952 0.924431 15.9603 0.795398 15.9868C0.666366 16.0132 0.532581 15.9998 0.410975 15.9483C0.289368 15.8967 0.185407 15.8094 0.11225 15.6972C0.0390928 15.5851 2.79577e-05 15.4531 0 15.3182ZM4.57372 12.4581H14.1468C14.6765 12.4581 15.1845 12.2423 15.5591 11.8583C15.9336 11.4742 16.1441 10.9533 16.1441 10.4101V2.21793C16.1441 1.67476 15.9336 1.15383 15.5591 0.76975C15.1845 0.385668 14.6765 0.169893 14.1468 0.169893H2.16298C1.63327 0.169893 1.12525 0.385668 0.750679 0.76975C0.376113 1.15383 0.165684 1.67476 0.165684 2.21793V15.3182C0.165705 15.4195 0.195037 15.5185 0.249967 15.6028C0.304898 15.687 0.382957 15.7526 0.474266 15.7913C0.565575 15.83 0.666028 15.84 0.762912 15.8202C0.859796 15.8003 0.948756 15.7514 1.01853 15.6797L3.86768 12.7582C4.05492 12.5661 4.30889 12.4582 4.57372 12.4581Z" fill="#454A60"/>
</svg>
