<svg width="22" height="22" viewBox="0 0 22 22" fill="none" xmlns="http://www.w3.org/2000/svg">
<path d="M11 0C4.92634 0 0 4.92634 0 11C0 17.0737 4.92634 22 11 22C17.0737 22 22 17.0737 22 11C22 4.92634 17.0737 0 11 0ZM15.8524 11.1833L9.39435 15.882C9.35895 15.9074 9.31722 15.9226 9.27374 15.9259C9.23027 15.9292 9.18673 15.9204 9.14792 15.9005C9.10911 15.8806 9.07653 15.8505 9.05375 15.8133C9.03097 15.7761 9.01889 15.7334 9.01882 15.6898V6.29839C9.01867 6.2547 9.03063 6.21183 9.05336 6.17452C9.07609 6.13722 9.10871 6.10693 9.1476 6.08703C9.18649 6.06713 9.23013 6.05838 9.27368 6.06176C9.31723 6.06514 9.359 6.08052 9.39435 6.10618L15.8524 10.8019C15.8829 10.8235 15.9078 10.852 15.925 10.8852C15.9422 10.9184 15.9511 10.9552 15.9511 10.9926C15.9511 11.03 15.9422 11.0668 15.925 11.1C15.9078 11.1332 15.8829 11.1618 15.8524 11.1833Z" fill="#ffffff"/>
<path d="M15.8531 10.7994L9.39507 6.10372C9.35972 6.07806 9.31795 6.06268 9.2744 6.0593C9.23084 6.05592 9.1872 6.06467 9.14831 6.08457C9.10942 6.10448 9.07681 6.13476 9.05408 6.17207C9.03135 6.20937 9.01939 6.25224 9.01953 6.29593V15.6873C9.0196 15.7309 9.03169 15.7737 9.05447 15.8108C9.07724 15.848 9.10983 15.8782 9.14864 15.8981C9.18745 15.9179 9.23098 15.9267 9.27446 15.9234C9.31793 15.9202 9.35967 15.905 9.39507 15.8795L15.8531 11.1809C15.8836 11.1593 15.9085 11.1307 15.9257 11.0975C15.9429 11.0643 15.9519 11.0275 15.9519 10.9901C15.9519 10.9528 15.9429 10.916 15.9257 10.8828C15.9085 10.8496 15.8836 10.821 15.8531 10.7994Z" fill="url(#paint0_linear)"/>
<defs>
<linearGradient id="paint0_linear" x1="15.9519" y1="15.9241" x2="6.54393" y2="9.97067" gradientUnits="userSpaceOnUse">
<stop offset="0.0011704" stop-color="transparent"/>
<stop offset="1" stop-color="transparent"/>
</linearGradient>
</defs>
</svg>
