<svg xmlns="http://www.w3.org/2000/svg" width="16.363" height="12" viewBox="0 0 16.363 12">
  <g id="view" transform="translate(-1.126 -5.625)">
    <path id="Path_12135" data-name="Path 12135" d="M17.457,11.439A9.1,9.1,0,0,0,9.307,5.625a9.1,9.1,0,0,0-8.149,5.814.545.545,0,0,0,0,.371,9.1,9.1,0,0,0,8.149,5.815,9.1,9.1,0,0,0,8.149-5.814.545.545,0,0,0,0-.371ZM9.307,16.534a8.1,8.1,0,0,1-7.053-4.909A8.1,8.1,0,0,1,9.307,6.716a8.1,8.1,0,0,1,7.053,4.909A8.1,8.1,0,0,1,9.307,16.534Z" fill="#fff"/>
    <path id="Path_12136" data-name="Path 12136" d="M14.523,11.25A3.273,3.273,0,1,0,17.8,14.523,3.273,3.273,0,0,0,14.523,11.25Zm0,5.455A2.182,2.182,0,1,1,16.7,14.523,2.182,2.182,0,0,1,14.523,16.7Z" transform="translate(-5.215 -2.898)" fill="#fff"/>
  </g>
</svg>
