<svg xmlns="http://www.w3.org/2000/svg" width="16.577" height="16" viewBox="0 0 16.577 16">
  <g id="volume-mute" transform="translate(-2.25 -2.261)">
    <path id="Path_12141" data-name="Path 12141" d="M29.341,13.181l-.806-.806-2.052,2.052-2.052-2.052-.806.806,2.052,2.052-2.052,2.052.806.806,2.052-2.052,2.052,2.052.806-.806-2.052-2.052Z" transform="translate(-10.514 -4.975)" fill="#fff"/>
    <path id="Path_12142" data-name="Path 12142" d="M11.4,18.261a.572.572,0,0,1-.406-.171l-4.356-4.4H2.822a.572.572,0,0,1-.572-.572V7.4a.572.572,0,0,1,.572-.572H6.635l4.356-4.4a.574.574,0,0,1,.977.4V17.689a.572.572,0,0,1-.572.572Zm-8-5.716h3.43a.669.669,0,0,1,.452.171l3.55,3.584V4.216L7.275,7.8a.669.669,0,0,1-.452.171H3.393Z" fill="#fff"/>
  </g>
</svg>
