<svg id="sheet" xmlns="http://www.w3.org/2000/svg" width="12.508" height="12.508" viewBox="0 0 12.508 12.508">
  <g id="Group_20" data-name="Group 20">
    <g id="Group_19" data-name="Group 19">
      <path id="Path_27" data-name="Path 27" d="M105.381,96h-8.6a.782.782,0,0,0-.782.782v8.6a.782.782,0,0,0,.782.782h8.6a.782.782,0,0,0,.782-.782v-8.6A.782.782,0,0,0,105.381,96Zm0,9.381h-8.6v-8.6h8.6Z" transform="translate(-93.655 -93.655)" fill="#fff"/>
      <path id="Path_28" data-name="Path 28" d="M.782.782h8.6v.782h.782V.782A.782.782,0,0,0,9.381,0H.782A.782.782,0,0,0,0,.782v8.6a.782.782,0,0,0,.782.782h.782V9.381H.782Z" fill="#fff"/>
    </g>
  </g>
</svg>
