<svg xmlns="http://www.w3.org/2000/svg" width="10.434" height="10.444" viewBox="0 0 10.434 10.444">
  <path id="headphones" d="M9.952,3.927a1.143,1.143,0,0,0-.377-.31,4.133,4.133,0,0,0-8.2,0A1.143,1.143,0,0,0,1,3.927,3.544,3.544,0,0,0,1,8.26a1.163,1.163,0,0,0,1.84-.022,1.143,1.143,0,0,0,.189-1.01,4.435,4.435,0,0,1,0-2.268,1.16,1.16,0,0,0-.773-1.422,3.276,3.276,0,0,1,6.442,0A1.158,1.158,0,0,0,7.922,4.96a4.431,4.431,0,0,1,0,2.268,1.152,1.152,0,0,0,.4,1.229,1.772,1.772,0,0,1-.335.3,2.655,2.655,0,0,1-.7.311,2.924,2.924,0,0,1-.516.083.429.429,0,0,0-.429-.436H4.6a.429.429,0,0,0-.429.429v.872a.429.429,0,0,0,.429.429H6.346a.429.429,0,0,0,.429-.434A2.97,2.97,0,0,0,9.218,8.687a1.161,1.161,0,0,0,.733-.427,3.544,3.544,0,0,0,0-4.333Z" transform="translate(-0.257)" fill="#343434"/>
</svg>
