<svg id="info" xmlns="http://www.w3.org/2000/svg" width="6.55" height="14.822" viewBox="0 0 6.55 14.822">
  <path id="Path_24" data-name="Path 24" d="M14.4,18.612q-.932.368-1.487.56a3.923,3.923,0,0,1-1.29.193,2.571,2.571,0,0,1-1.755-.551,1.778,1.778,0,0,1-.625-1.4,5.076,5.076,0,0,1,.046-.674c.032-.229.082-.487.15-.776l.778-2.748c.068-.264.128-.514.175-.747a3.313,3.313,0,0,0,.07-.647,1,1,0,0,0-.217-.733,1.231,1.231,0,0,0-.831-.205,2.181,2.181,0,0,0-.618.092c-.21.064-.391.123-.541.18l.205-.846Q9.228,10,9.926,9.78a4.318,4.318,0,0,1,1.319-.223,2.523,2.523,0,0,1,1.729.542,1.8,1.8,0,0,1,.607,1.406q0,.179-.042.631a4.22,4.22,0,0,1-.155.829L12.61,15.7c-.063.22-.12.471-.171.752a3.978,3.978,0,0,0-.075.64.919.919,0,0,0,.244.744,1.368,1.368,0,0,0,.845.2,2.452,2.452,0,0,0,.64-.1,3.638,3.638,0,0,0,.517-.174ZM14.267,7.493a1.847,1.847,0,0,1-1.3.5,1.866,1.866,0,0,1-1.308-.5,1.605,1.605,0,0,1-.545-1.219,1.622,1.622,0,0,1,.545-1.222,1.853,1.853,0,0,1,1.308-.508,1.832,1.832,0,0,1,1.3.508,1.647,1.647,0,0,1,0,2.442Z" transform="translate(-8.259 -4.543)" fill="#fff"/>
</svg>
