<svg id="turn-microphone-off-button" xmlns="http://www.w3.org/2000/svg" width="11.354" height="11.984" viewBox="0 0 11.354 11.984">
  <g id="mic-off">
    <path id="Path_42" data-name="Path 42" d="M368.525,229.5h-1.072a4.079,4.079,0,0,1-.252,1.262l.757.757A3.6,3.6,0,0,0,368.525,229.5Z" transform="translate(-358.433 -223.823)" fill="#e92424"/>
    <path id="Path_43" data-name="Path 43" d="M169.535,5.8V1.892a1.892,1.892,0,1,0-3.785,0v.126Z" transform="translate(-161.965)" fill="#e92424"/>
    <path id="Path_44" data-name="Path 44" d="M13.57,25.5l-.82.82L16.535,30.1v.442a1.858,1.858,0,0,0,1.892,1.892,1.231,1.231,0,0,0,.442-.063l1.072,1.072a3.742,3.742,0,0,1-1.451.315,3.257,3.257,0,0,1-3.343-3.217H14.012A4.391,4.391,0,0,0,17.8,34.772v2.081h1.262V34.772a4.28,4.28,0,0,0,1.577-.568l2.649,2.649.82-.82Z" transform="translate(-12.75 -24.869)" fill="#e92424"/>
  </g>
</svg>
