<svg width="32" height="32" viewBox="0 0 32 32" fill="none" xmlns="http://www.w3.org/2000/svg">
<path d="M9.18005 18.57C9.06426 18.0546 9.00392 17.5283 9.00005 17V14H7.00005V17C6.99629 18.0866 7.19291 19.1647 7.58005 20.18L9.18005 18.57Z" fill="white"/>
<path d="M12.9996 15.0001V7.0001C12.9996 6.20445 13.3157 5.44139 13.8783 4.87878C14.4409 4.31617 15.204 4.0001 15.9996 4.0001C16.7953 4.0001 17.5583 4.31617 18.1209 4.87878C18.6835 5.44139 18.9996 6.20445 18.9996 7.0001V8.7501L20.9996 6.7501C20.9665 5.42402 20.4079 4.16542 19.4468 3.25118C18.4856 2.33694 17.2007 1.84195 15.8746 1.8751C14.5485 1.90825 13.2899 2.46683 12.3757 3.42795C11.4614 4.38908 10.9665 5.67402 10.9996 7.0001V15.0001H12.9996Z" fill="white"/>
<path d="M23 17C22.9961 18.3569 22.5979 19.6833 21.854 20.818C21.11 21.9527 20.0523 22.8468 18.8095 23.3913C17.5667 23.9359 16.1924 24.1076 14.8539 23.8854C13.5154 23.6633 12.2702 23.0569 11.27 22.14L12.69 20.73C13.4103 21.3662 14.2987 21.7814 15.2489 21.9258C16.1991 22.0701 17.1707 21.9376 18.0475 21.5441C18.9243 21.1505 19.6691 20.5126 20.1927 19.7067C20.7164 18.9008 20.9966 17.9611 21 17V12.42L30 3.42L28.59 2L2 28.59L3.41 30L9.85 23.56C11.2615 24.8933 13.0699 25.729 15 25.94V28H11V30H21V28H17V25.94C19.1994 25.6941 21.231 24.6465 22.7068 22.9973C24.1825 21.3482 24.9989 19.2131 25 17V14H23V17ZM19 17C18.9978 17.5669 18.835 18.1217 18.5305 18.5999C18.2259 19.0781 17.7921 19.4602 17.2793 19.702C16.7665 19.9437 16.1956 20.0352 15.6329 19.9658C15.0703 19.8965 14.5387 19.6691 14.1 19.31L19 14.42V17Z" fill="white"/>
</svg>
