<svg id="Google_Icon" data-name="Google Icon" xmlns="http://www.w3.org/2000/svg" width="24.503" height="25" viewBox="0 0 24.503 25">
  <path id="Path_12072" data-name="Path 12072" d="M87.91,69.333a15.633,15.633,0,0,0-.218-2.533H75.9v4.82h6.754a5.682,5.682,0,0,1-2.505,3.785l4.03,3.132a12.292,12.292,0,0,0,3.731-9.2Z" transform="translate(-63.407 -56.533)" fill="#4280ef"/>
  <path id="Path_12073" data-name="Path 12073" d="M46.065,93.976a11.958,11.958,0,0,0,8.279-3.023l-4.03-3.1A7.582,7.582,0,0,1,39.039,83.9L34.9,87.086A12.487,12.487,0,0,0,46.065,93.976Z" transform="translate(-33.572 -68.976)" fill="#34a353"/>
  <path id="Path_12074" data-name="Path 12074" d="M35.492,62.406a7.594,7.594,0,0,1,0-4.793L31.353,54.4a12.516,12.516,0,0,0,0,11.22Z" transform="translate(-30.025 -47.51)" fill="#f6b704"/>
  <path id="Path_12075" data-name="Path 12075" d="M46.065,34.055a6.82,6.82,0,0,1,4.793,1.879l3.567-3.595a12.029,12.029,0,0,0-8.36-3.241A12.487,12.487,0,0,0,34.9,35.989L39.039,39.2A7.478,7.478,0,0,1,46.065,34.055Z" transform="translate(-33.572 -29.098)" fill="#e54335"/>
</svg>
