<svg width="16" height="20" viewBox="0 0 16 20" fill="none" xmlns="http://www.w3.org/2000/svg">
<path d="M14.2222 8H15.1111C15.3469 8 15.573 8.1054 15.7397 8.2929C15.9064 8.4804 16 8.7348 16 9V19C16 19.2652 15.9064 19.5196 15.7397 19.7071C15.573 19.8946 15.3469 20 15.1111 20H0.88889C0.65314 20 0.42705 19.8946 0.26035 19.7071C0.0936502 19.5196 0 19.2652 0 19V9C0 8.7348 0.0936502 8.4804 0.26035 8.2929C0.42705 8.1054 0.65314 8 0.88889 8H1.77778V7C1.77778 6.08075 1.93872 5.1705 2.25142 4.32122C2.56411 3.47194 3.02244 2.70026 3.60022 2.05025C4.17801 1.40024 4.86394 0.88463 5.61886 0.53284C6.3738 0.18106 7.1829 0 8 0C8.8171 0 9.6262 0.18106 10.3811 0.53284C11.1361 0.88463 11.822 1.40024 12.3998 2.05025C12.9776 2.70026 13.4359 3.47194 13.7486 4.32122C14.0613 5.1705 14.2222 6.08075 14.2222 7V8ZM12.4444 8V7C12.4444 5.67392 11.9762 4.40215 11.1427 3.46447C10.3092 2.52678 9.1787 2 8 2C6.8213 2 5.6908 2.52678 4.8573 3.46447C4.02381 4.40215 3.55556 5.67392 3.55556 7V8H12.4444ZM7.1111 12V16H8.8889V12H7.1111Z" fill="#5056CA"/>
</svg>
