<svg xmlns="http://www.w3.org/2000/svg" width="275.542" height="240" viewBox="0 0 275.542 240">
  <g id="Group_4426" data-name="Group 4426" transform="translate(0 0)">
    <path id="Path_6690" data-name="Path 6690" d="M423.17,204.485a114.75,114.75,0,0,1-32.024,79.662q-1.861,1.949-3.823,3.8-2.989,2.843-6.178,5.465a114.661,114.661,0,0,1-70.487,26.14q-1.288.029-2.585.029c-20.549,0-46.395-10.976-69.849-26.17q-2.911-1.885-5.77-3.858-1.336-.914-2.66-1.853a236.633,236.633,0,0,1-25.7-20.993,166.554,166.554,0,0,1-14.821-15.848c-18.022-22.23-22-42.261,3.7-46.378q4.563-.729,8.857-1.558,6.22-1.2,11.906-2.582,7.658-1.861,14.39-4.037,2.264-.729,4.425-1.487c21.3-7.48,35.551-17.235,45.254-27.819q2.469-2.687,4.552-5.439a76.474,76.474,0,0,0,5.776-8.786,82.582,82.582,0,0,0,5.964-13.3l.087-.253c7.72-22.269,5.371-42.925,13.888-49.838,36.407-29.555,81.732,12.534,103.007,62.168q1.608,3.751,3.026,7.548.637,1.7,1.228,3.4,1.555,4.437,2.822,8.9.486,1.7.927,3.4c.314,1.221.616,2.439.894,3.658A116.02,116.02,0,0,1,423.17,204.485Z" transform="translate(-174.731 -79.585)" fill="#f2f2f2"/>
    <path id="Path_6691" data-name="Path 6691" d="M431.113,722.475q-1.288.029-2.585.029c-20.549,0-46.394-10.976-69.849-26.17q-2.911-1.886-5.77-3.858l1.672-10.172,50.606-6.719,25.4,19.422Z" transform="translate(-295.186 -482.504)" fill="#2f2e41"/>
    <path id="Path_6692" data-name="Path 6692" d="M585.023,259.635h-7.211a.843.843,0,0,0-.842.842v7.215a.84.84,0,0,0,.842.839h7.211a.842.842,0,0,0,.842-.839v-7.215A.845.845,0,0,0,585.023,259.635Z" transform="translate(-446.659 -201.306)" fill="#f2f2f2"/>
    <path id="Path_6693" data-name="Path 6693" d="M585.023,297.585h-7.211a.843.843,0,0,0-.842.842v7.215a.84.84,0,0,0,.842.839h7.211a.842.842,0,0,0,.842-.839v-7.215A.845.845,0,0,0,585.023,297.585Z" transform="translate(-446.66 -226.961)" fill="#f2f2f2"/>
    <path id="Path_6694" data-name="Path 6694" d="M585.023,335.535h-7.211a.843.843,0,0,0-.842.842v7.211a.84.84,0,0,0,.842.842h7.211a.843.843,0,0,0,.842-.842v-7.211A.845.845,0,0,0,585.023,335.535Z" transform="translate(-446.66 -252.617)" fill="#e6e6e6"/>
    <path id="Path_6695" data-name="Path 6695" d="M585.852,374.178a.848.848,0,0,0-.829-.693h-7.211a.843.843,0,0,0-.842.842v7.211a.841.841,0,0,0,.842.842h7.211a.843.843,0,0,0,.842-.842v-7.211A.758.758,0,0,0,585.852,374.178Z" transform="translate(-446.659 -278.273)" fill="#e6e6e6"/>
    <path id="Path_6696" data-name="Path 6696" d="M585.35,411.5a.853.853,0,0,0-.327-.065h-7.211a.841.841,0,0,0-.842.842v7.211a.838.838,0,0,0,.842.842h7.211a.843.843,0,0,0,.842-.842v-7.211A.847.847,0,0,0,585.35,411.5Z" transform="translate(-446.66 -303.928)" fill="#e6e6e6"/>
    <path id="Path_6697" data-name="Path 6697" d="M631.783,259.635h-7.211a.843.843,0,0,0-.842.842v7.215a.84.84,0,0,0,.842.839h7.211a.842.842,0,0,0,.842-.839v-7.215a.845.845,0,0,0-.842-.842Z" transform="translate(-478.271 -201.306)" fill="#f2f2f2"/>
    <path id="Path_6698" data-name="Path 6698" d="M631.783,297.585h-7.211a.843.843,0,0,0-.842.842v7.215a.84.84,0,0,0,.842.839h7.211a.842.842,0,0,0,.842-.839v-7.215a.845.845,0,0,0-.842-.842Z" transform="translate(-478.271 -226.961)" fill="#ff6f00"/>
    <path id="Path_6699" data-name="Path 6699" d="M631.783,335.535h-7.211a.843.843,0,0,0-.842.842v7.211a.84.84,0,0,0,.842.842h7.211a.843.843,0,0,0,.842-.842v-7.211A.845.845,0,0,0,631.783,335.535Z" transform="translate(-478.271 -252.617)" fill="#ff6f00"/>
    <path id="Path_6700" data-name="Path 6700" d="M631.783,373.485h-7.211a.84.84,0,0,0-.8.577.8.8,0,0,0-.045.266v7.211a.84.84,0,0,0,.842.842h7.211a.843.843,0,0,0,.842-.842v-7.211A.845.845,0,0,0,631.783,373.485Z" transform="translate(-478.271 -278.273)" fill="#ff6f00"/>
    <path id="Path_6701" data-name="Path 6701" d="M631.783,411.435h-7.211a.84.84,0,0,0-.842.842v7.211a.84.84,0,0,0,.842.842h7.211a.843.843,0,0,0,.842-.842v-7.211A.843.843,0,0,0,631.783,411.435Z" transform="translate(-478.271 -303.928)" fill="#e6e6e6"/>
    <path id="Path_6702" data-name="Path 6702" d="M678.543,259.635h-7.211a.843.843,0,0,0-.842.842v7.215a.84.84,0,0,0,.842.839h7.211a.842.842,0,0,0,.842-.839v-7.215A.845.845,0,0,0,678.543,259.635Z" transform="translate(-509.883 -201.306)" fill="#ff6f00"/>
    <path id="Path_6703" data-name="Path 6703" d="M678.543,297.585h-7.211a.843.843,0,0,0-.842.842v7.215a.84.84,0,0,0,.842.839h7.211a.842.842,0,0,0,.842-.839v-7.215A.845.845,0,0,0,678.543,297.585Z" transform="translate(-509.883 -226.961)" fill="#ff6f00"/>
    <path id="Path_6704" data-name="Path 6704" d="M678.543,335.535h-7.211a.843.843,0,0,0-.842.842v7.211a.84.84,0,0,0,.842.842h7.211a.843.843,0,0,0,.842-.842v-7.211A.845.845,0,0,0,678.543,335.535Z" transform="translate(-509.883 -252.617)" fill="#f2f2f2"/>
    <path id="Path_6705" data-name="Path 6705" d="M678.543,373.485h-7.211a.843.843,0,0,0-.842.842v7.211a.841.841,0,0,0,.842.842h7.211a.843.843,0,0,0,.842-.842v-7.211A.845.845,0,0,0,678.543,373.485Z" transform="translate(-509.883 -278.273)" fill="#ff6f00"/>
    <path id="Path_6706" data-name="Path 6706" d="M678.543,411.435h-7.211a.841.841,0,0,0-.842.842v7.211a.841.841,0,0,0,.842.842h7.211a.843.843,0,0,0,.842-.842v-7.211A.843.843,0,0,0,678.543,411.435Z" transform="translate(-509.883 -303.928)" fill="#ff6f00"/>
    <path id="Path_6707" data-name="Path 6707" d="M725.3,259.635h-7.211a.843.843,0,0,0-.842.842v7.215a.84.84,0,0,0,.842.839H725.3a.842.842,0,0,0,.842-.839v-7.215A.845.845,0,0,0,725.3,259.635Z" transform="translate(-541.494 -201.306)" fill="#ff6f00"/>
    <path id="Path_6708" data-name="Path 6708" d="M725.3,297.585h-7.211a.843.843,0,0,0-.842.842v7.215a.84.84,0,0,0,.842.839H725.3a.842.842,0,0,0,.842-.839v-7.215A.845.845,0,0,0,725.3,297.585Z" transform="translate(-541.494 -226.961)" fill="#f2f2f2"/>
    <path id="Path_6709" data-name="Path 6709" d="M725.3,335.535h-7.211a.843.843,0,0,0-.842.842v7.211a.841.841,0,0,0,.842.842H725.3a.843.843,0,0,0,.842-.842v-7.211A.845.845,0,0,0,725.3,335.535Z" transform="translate(-541.494 -252.617)" fill="#f2f2f2"/>
    <path id="Path_6710" data-name="Path 6710" d="M725.3,373.485h-7.211a.843.843,0,0,0-.842.842v7.211a.841.841,0,0,0,.842.842H725.3a.843.843,0,0,0,.842-.842v-7.211A.845.845,0,0,0,725.3,373.485Z" transform="translate(-541.494 -278.273)" fill="#f2f2f2"/>
    <path id="Path_6711" data-name="Path 6711" d="M725.3,411.435h-7.211a.841.841,0,0,0-.842.842v7.211a.841.841,0,0,0,.842.842H725.3a.843.843,0,0,0,.842-.842v-7.211A.843.843,0,0,0,725.3,411.435Z" transform="translate(-541.494 -303.928)" fill="#ff6f00"/>
    <path id="Path_6712" data-name="Path 6712" d="M772.063,259.635h-7.215a.842.842,0,0,0-.839.842v7.215a.839.839,0,0,0,.839.839h7.215a.842.842,0,0,0,.842-.839v-7.215A.845.845,0,0,0,772.063,259.635Z" transform="translate(-573.106 -201.306)" fill="#ff6f00"/>
    <path id="Path_6713" data-name="Path 6713" d="M772.063,297.585h-7.215a.842.842,0,0,0-.839.842v7.215a.839.839,0,0,0,.839.839h7.215a.842.842,0,0,0,.842-.839v-7.215A.845.845,0,0,0,772.063,297.585Z" transform="translate(-573.106 -226.961)" fill="#ff6f00"/>
    <path id="Path_6714" data-name="Path 6714" d="M772.063,335.535h-7.215a.842.842,0,0,0-.839.842v7.211a.84.84,0,0,0,.839.842h7.215a.843.843,0,0,0,.842-.842v-7.211A.845.845,0,0,0,772.063,335.535Z" transform="translate(-573.106 -252.617)" fill="#f2f2f2"/>
    <path id="Path_6715" data-name="Path 6715" d="M772.063,373.485h-7.215a.842.842,0,0,0-.839.842v7.211a.84.84,0,0,0,.839.842h7.215a.843.843,0,0,0,.842-.842v-7.211A.845.845,0,0,0,772.063,373.485Z" transform="translate(-573.106 -278.273)" fill="#ff6f00"/>
    <path id="Path_6716" data-name="Path 6716" d="M772.063,411.435h-7.215a.84.84,0,0,0-.839.842v7.211a.84.84,0,0,0,.839.842h7.215a.843.843,0,0,0,.842-.842v-7.211A.843.843,0,0,0,772.063,411.435Z" transform="translate(-573.106 -303.928)" fill="#ff6f00"/>
    <path id="Path_6717" data-name="Path 6717" d="M818.823,259.635h-7.215a.842.842,0,0,0-.839.842v7.215a.839.839,0,0,0,.839.839h7.215a.842.842,0,0,0,.842-.839v-7.215A.845.845,0,0,0,818.823,259.635Z" transform="translate(-604.717 -201.306)" fill="#ff6f00"/>
    <path id="Path_6718" data-name="Path 6718" d="M818.823,297.585h-7.215a.842.842,0,0,0-.839.842v7.215a.839.839,0,0,0,.839.839h7.215a.842.842,0,0,0,.842-.839v-7.215A.845.845,0,0,0,818.823,297.585Z" transform="translate(-604.717 -226.961)" fill="#ff6f00"/>
    <path id="Path_6719" data-name="Path 6719" d="M818.823,335.535h-7.215a.842.842,0,0,0-.839.842v7.211a.84.84,0,0,0,.839.842h7.215a.843.843,0,0,0,.842-.842v-7.211A.845.845,0,0,0,818.823,335.535Z" transform="translate(-604.717 -252.617)" fill="#f2f2f2"/>
    <path id="Path_6720" data-name="Path 6720" d="M818.823,373.485h-7.215a.842.842,0,0,0-.839.842v7.211a.84.84,0,0,0,.839.842h7.215a.843.843,0,0,0,.842-.842v-7.211A.845.845,0,0,0,818.823,373.485Z" transform="translate(-604.717 -278.273)" fill="#ff6f00"/>
    <path id="Path_6721" data-name="Path 6721" d="M818.823,411.435h-7.215a.84.84,0,0,0-.839.842v7.211a.84.84,0,0,0,.839.842h7.215a.843.843,0,0,0,.842-.842v-7.211A.843.843,0,0,0,818.823,411.435Z" transform="translate(-604.717 -303.928)" fill="#ff6f00"/>
    <path id="Path_6722" data-name="Path 6722" d="M865.582,259.635h-7.215a.842.842,0,0,0-.839.842v7.215a.839.839,0,0,0,.839.839h7.215a.842.842,0,0,0,.842-.839v-7.215A.845.845,0,0,0,865.582,259.635Z" transform="translate(-636.329 -201.306)" fill="#ff6f00"/>
    <path id="Path_6723" data-name="Path 6723" d="M865.582,297.585h-7.215a.842.842,0,0,0-.839.842v7.215a.839.839,0,0,0,.839.839h7.215a.842.842,0,0,0,.842-.839v-7.215A.845.845,0,0,0,865.582,297.585Z" transform="translate(-636.329 -226.961)" fill="#f2f2f2"/>
    <path id="Path_6724" data-name="Path 6724" d="M865.583,335.535h-7.215a.842.842,0,0,0-.839.842v7.211a.84.84,0,0,0,.839.842h7.215a.843.843,0,0,0,.842-.842v-7.211a.845.845,0,0,0-.842-.842Z" transform="translate(-636.329 -252.617)" fill="#f2f2f2"/>
    <path id="Path_6725" data-name="Path 6725" d="M865.583,373.485h-7.215a.842.842,0,0,0-.839.842v7.211a.84.84,0,0,0,.839.842h7.215a.843.843,0,0,0,.842-.842v-7.211A.845.845,0,0,0,865.583,373.485Z" transform="translate(-636.329 -278.273)" fill="#f2f2f2"/>
    <path id="Path_6726" data-name="Path 6726" d="M865.583,411.435h-7.215a.84.84,0,0,0-.839.842v7.211a.84.84,0,0,0,.839.842h7.215a.843.843,0,0,0,.842-.842v-7.211A.843.843,0,0,0,865.583,411.435Z" transform="translate(-636.329 -303.928)" fill="#ff6f00"/>
    <path id="Path_6727" data-name="Path 6727" d="M912.343,259.635h-7.214a.842.842,0,0,0-.839.842v7.215a.839.839,0,0,0,.839.839h7.215a.842.842,0,0,0,.842-.839v-7.215A.845.845,0,0,0,912.343,259.635Z" transform="translate(-667.94 -201.306)" fill="#ff6f00"/>
    <path id="Path_6728" data-name="Path 6728" d="M912.343,297.585h-7.214a.842.842,0,0,0-.839.842v7.215a.839.839,0,0,0,.839.839h7.215a.842.842,0,0,0,.842-.839v-7.215A.845.845,0,0,0,912.343,297.585Z" transform="translate(-667.94 -226.961)" fill="#ff6f00"/>
    <path id="Path_6729" data-name="Path 6729" d="M912.343,335.535h-7.214a.842.842,0,0,0-.839.842v7.211a.84.84,0,0,0,.839.842h7.214a.843.843,0,0,0,.842-.842v-7.211A.845.845,0,0,0,912.343,335.535Z" transform="translate(-667.94 -252.617)" fill="#f2f2f2"/>
    <path id="Path_6730" data-name="Path 6730" d="M912.343,373.485h-7.214a.842.842,0,0,0-.839.842v7.211a.84.84,0,0,0,.839.842h7.214a.843.843,0,0,0,.842-.842v-7.211A.845.845,0,0,0,912.343,373.485Z" transform="translate(-667.94 -278.273)" fill="#ff6f00"/>
    <path id="Path_6731" data-name="Path 6731" d="M912.343,411.435h-7.214a.84.84,0,0,0-.839.842v7.211a.84.84,0,0,0,.839.842h7.214a.843.843,0,0,0,.842-.842v-7.211a.843.843,0,0,0-.842-.842Z" transform="translate(-667.94 -303.928)" fill="#ff6f00"/>
    <path id="Path_6732" data-name="Path 6732" d="M959.1,259.635h-7.215a.842.842,0,0,0-.839.842v7.215a.839.839,0,0,0,.839.839H959.1a.842.842,0,0,0,.842-.839v-7.215A.845.845,0,0,0,959.1,259.635Z" transform="translate(-699.552 -201.306)" fill="#e6e6e6"/>
    <path id="Path_6733" data-name="Path 6733" d="M959.1,297.585h-7.215a.842.842,0,0,0-.839.842v7.215a.839.839,0,0,0,.839.839H959.1a.842.842,0,0,0,.842-.839v-7.215A.845.845,0,0,0,959.1,297.585Z" transform="translate(-699.552 -226.961)" fill="#ff6f00"/>
    <path id="Path_6734" data-name="Path 6734" d="M959.1,335.535h-7.215a.842.842,0,0,0-.839.842v7.211a.84.84,0,0,0,.839.842H959.1a.843.843,0,0,0,.842-.842v-7.211A.845.845,0,0,0,959.1,335.535Z" transform="translate(-699.552 -252.617)" fill="#ff6f00"/>
    <path id="Path_6735" data-name="Path 6735" d="M959.1,373.485h-7.215a.842.842,0,0,0-.839.842v7.211a.84.84,0,0,0,.839.842H959.1a.843.843,0,0,0,.842-.842v-7.211A.845.845,0,0,0,959.1,373.485Z" transform="translate(-699.552 -278.273)" fill="#ff6f00"/>
    <path id="Path_6736" data-name="Path 6736" d="M959.1,411.435h-7.215a.84.84,0,0,0-.839.842v7.211a.84.84,0,0,0,.839.842H959.1a.843.843,0,0,0,.842-.842v-7.211a.843.843,0,0,0-.842-.842Z" transform="translate(-699.552 -303.928)" fill="#e6e6e6"/>
    <path id="Path_6737" data-name="Path 6737" d="M1005.864,259.635h-7.215a.842.842,0,0,0-.839.842v7.215a.839.839,0,0,0,.839.839h7.215a.842.842,0,0,0,.842-.839v-7.215A.845.845,0,0,0,1005.864,259.635Z" transform="translate(-731.164 -201.306)" fill="#e6e6e6"/>
    <path id="Path_6738" data-name="Path 6738" d="M1005.864,297.585h-7.215a.842.842,0,0,0-.839.842v7.215a.839.839,0,0,0,.839.839h7.215a.842.842,0,0,0,.842-.839v-7.215a.845.845,0,0,0-.842-.842Z" transform="translate(-731.164 -226.961)" fill="#e6e6e6"/>
    <path id="Path_6739" data-name="Path 6739" d="M1005.864,335.535h-7.215a.842.842,0,0,0-.839.842v7.211a.84.84,0,0,0,.839.842h7.215a.843.843,0,0,0,.842-.842v-7.211A.845.845,0,0,0,1005.864,335.535Z" transform="translate(-731.164 -252.617)" fill="#ff6f00"/>
    <path id="Path_6740" data-name="Path 6740" d="M1005.864,373.485h-7.215a.842.842,0,0,0-.839.842v7.211a.84.84,0,0,0,.839.842h7.215a.843.843,0,0,0,.842-.842v-7.211a.845.845,0,0,0-.842-.842Z" transform="translate(-731.164 -278.273)" fill="#e6e6e6"/>
    <path id="Path_6741" data-name="Path 6741" d="M1005.864,411.435h-7.215a.84.84,0,0,0-.839.842v7.211a.84.84,0,0,0,.839.842h7.215a.843.843,0,0,0,.842-.842v-7.211a.843.843,0,0,0-.842-.842Z" transform="translate(-731.164 -303.928)" fill="#e6e6e6"/>
    <path id="Path_6742" data-name="Path 6742" d="M335.676,660h-.2l.172-.023Z" transform="translate(-226.794 -446.173)" fill="#2f2e41"/>
    <circle id="ab6171fa-7d69-4734-b81c-8dff60f9761b" cx="22.134" cy="22.134" r="22.134" transform="translate(69.487 35.121)" fill="#ffb6b6"/>
    <path id="bf427902-b9bf-4946-b5d7-5c1c7e04535e" d="M422.337,170.674s5.789-11.067-6.947-12.073c0,0-10.858-9.849-21.924-1.8,0,0-6.036,0-9.337,6.831,0,0-4.748-1.8-5.791,3.018,0,0-3.474,10.061,0,19.115s4.628,10.061,4.628,10.061-5.708-18.984,8.186-19.99,29.444-9.689,30.6,1.377,2.9,13.794,2.9,13.794S435.652,175.2,422.337,170.674Z" transform="translate(-311.333 -129.647)" fill="#2f2e41"/>
    <path id="Path_6743" data-name="Path 6743" d="M434,373.526l-.071.376-.8,4.224-5.53,29.221-.327,1.72-.687,3.638-.939,4.963-2.083,11-.6,3.152L422.745,433l-.078.415-.619,3.262-.188.985-1.51,11.186-1.319,9.748,4.412,4.412-2.631,2.631-1.727,9.891,0,.023H348.619q-4.276-2.77-8.429-5.711l.58-4.341s2-7.752,1.156-8.679-2.669-2.582-2.669-2.582l2.31-5.391.321-.748-.538-11.154-.013-.269L341.159,433l-.023-.473-.036-.709-.684-14.151-.013-.233-.207-4.289L340,409.067l-.084-1.72-.833-17.212-.564-11.688-.492-10.176,1.979-.671,21.171-7.2,8.77-11.4,18.252.136,8.935.068,14.909,13.827,3.392,1.62.026.013,2.433,1.163,6.168,2.945,6.521,3.117,3.346,1.6Z" transform="translate(-285.127 -261.723)" fill="#cacaca"/>
    <path id="Path_6744" data-name="Path 6744" d="M344.312,583.425a9.811,9.811,0,0,1-13.174-7.266l-34.521-4.9,12-13.575,30.942,6.732a9.865,9.865,0,0,1,4.752,19.007Z" transform="translate(-257.131 -402.8)" fill="#ffb6b6"/>
    <path id="Path_6745" data-name="Path 6745" d="M286.78,445.33a4.381,4.381,0,0,0-2.556-1.578l-14.164-2.945-1.455-.3a6.133,6.133,0,0,1-4.059-2.938,6.207,6.207,0,0,1-.794-2.559,6.121,6.121,0,0,1,.288-2.423l4.908-14.789,3.185-9.6a13.54,13.54,0,0,0,.677-3.58,14.043,14.043,0,0,0-2.938-9.359A13.831,13.831,0,0,0,254,390.843c-.081.029-.165.062-.246.094a13.8,13.8,0,0,0-8.2,9.2l-3.46,12.586-7.137,25.946a18.714,18.714,0,0,0,15.861,23.545l20.4,2.391,9.44,1.108a4.372,4.372,0,0,0,4.808-3.476,1.589,1.589,0,0,0,.036-.178l.227-1.4,1.921-11.786.019-.12A4.365,4.365,0,0,0,286.78,445.33Z" transform="translate(-214.991 -289.385)" fill="#cacaca"/>
    <path id="Path_6746" data-name="Path 6746" d="M495.652,574.624a9.811,9.811,0,0,0,12.017-9.052l33.485-9.717L527.36,544.109l-29.683,11.028a9.865,9.865,0,0,0-2.024,19.487Z" transform="translate(-386.483 -393.621)" fill="#ffb6b6"/>
    <path id="Path_6747" data-name="Path 6747" d="M597.132,419.32l-15.926-36.653a13.871,13.871,0,0,0-6.567-6.917,14.047,14.047,0,0,0-2.844-1.037c-.152-.039-.3-.075-.457-.1a13.648,13.648,0,0,0-6.311.117,13.87,13.87,0,0,0-8.857,7.04.329.329,0,0,0-.026.045,13.963,13.963,0,0,0-.12,12.586l.2.4,11.254,22.6a6.123,6.123,0,0,1-3.4,8.484l-.791.285L549.069,431.3a4.372,4.372,0,0,0-2.7,5.439l.036.113,3.985,12.751c.019.058.039.117.062.175a2.281,2.281,0,0,0,.13.321,4.368,4.368,0,0,0,5.122,2.439l7.671-2.025,1.565-.415,19.81-5.232a18.712,18.712,0,0,0,12.382-25.548Z" transform="translate(-425.835 -278.821)" fill="#cacaca"/>
    <path id="Path_6748" data-name="Path 6748" d="M219.629,608.285a166.555,166.555,0,0,0,14.821,15.848H380.871a5.328,5.328,0,0,1,5.319,5.323l.211,37.1a115.143,115.143,0,0,0,25.1-15.722q3.188-2.619,6.178-5.465,1.958-1.856,3.823-3.8a115.211,115.211,0,0,0,22.295-33.284Z" transform="translate(-205.084 -437.007)" fill="#3f3d56"/>
    <path id="Path_6749" data-name="Path 6749" d="M769.74,711.025q-1.861,1.949-3.823,3.8H734.749v-3.8Z" transform="translate(-553.325 -506.463)" fill="#fff"/>
    <path id="Path_6750" data-name="Path 6750" d="M404.709,333.575a1.794,1.794,0,0,0-1.578-.939H296.924a1.8,1.8,0,0,0-1.795,1.8V398h109.8V334.433A1.745,1.745,0,0,0,404.709,333.575Z" transform="translate(-256.125 -250.657)" fill="#3f3d56"/>
    <path id="Path_6751" data-name="Path 6751" d="M294.832,529.092v7.844a2.476,2.476,0,0,0,2.476,2.476h40.527v15.481H337.3a.322.322,0,0,0-.322.322v1.077a.322.322,0,0,0,.322.322h25.158a.322.322,0,0,0,.322-.322v-1.077a.322.322,0,0,0-.322-.322h-.538V539.413h40.526a2.476,2.476,0,0,0,2.476-2.476v-7.844Z" transform="translate(-255.924 -383.469)" fill="#3f3d56"/>
    <path id="Path_6752" data-name="Path 6752" d="M427.5,200.633h-1.62c0-12.246-12.119-20.27-24.346-20.277a26.69,26.69,0,0,0-5.3.515c-1.963.392-4,.862-6,1.474-7.895,2.42-15.216,7.1-15.216,18.288a25.46,25.46,0,0,0,.823,6.44l-1.568.408a27.171,27.171,0,0,1-.875-6.849c0-9.777,4.014-16.493,10.947-20.5a35.371,35.371,0,0,1,13.188-4.124,31.468,31.468,0,0,1,6.4-.194C417.992,176.828,427.5,187.609,427.5,200.633Z" transform="translate(-309.038 -144.587)" fill="gray"/>
    <path id="Path_6753" data-name="Path 6753" d="M529.09,236.209l-.638-4.717a5.156,5.156,0,0,0-5.912-4.393l-1.014.139a2.132,2.132,0,0,0-1.827,2.4l1.474,10.866a2.131,2.131,0,0,0,1.717,1.8,1.994,1.994,0,0,0,.4.039,2.108,2.108,0,0,0,.285-.019l1.134-.152a5.116,5.116,0,0,0,3.479-2.083c.087-.123.172-.249.249-.379A5.426,5.426,0,0,0,529.09,236.209Z" transform="translate(-407.929 -179.266)" fill="#ff6f00"/>
    <path id="Path_6754" data-name="Path 6754" d="M520.871,228.275a2.083,2.083,0,0,0-.755.622,2.121,2.121,0,0,0-.418,1.578l1.474,10.866a2.131,2.131,0,0,0,1.717,1.8Z" transform="translate(-407.929 -180.105)" fill="#fff"/>
    <path id="Path_6755" data-name="Path 6755" d="M544.017,239.049l-.638-4.717a5.089,5.089,0,0,0-1.62-3.1l1.468,10.811a2,2,0,0,0,.133.505A5.426,5.426,0,0,0,544.017,239.049Z" transform="translate(-422.856 -182.106)" fill="#3f3d56"/>
    <ellipse id="Ellipse_63" data-name="Ellipse 63" cx="0.81" cy="2.268" rx="0.81" ry="2.268" transform="translate(114.704 55.955) rotate(-7.726)" fill="#3f3d56"/>
    <ellipse id="Ellipse_64" data-name="Ellipse 64" cx="0.81" cy="2.268" rx="0.81" ry="2.268" transform="translate(113.732 50.124) rotate(-7.726)" fill="#3f3d56"/>
    <ellipse id="Ellipse_65" data-name="Ellipse 65" cx="0.81" cy="2.268" rx="0.81" ry="2.268" transform="translate(119.888 52.392) rotate(-7.726)" fill="#3f3d56"/>
    <path id="Path_6756" data-name="Path 6756" d="M424.378,180.356a26.689,26.689,0,0,0-5.3.515c-1.963.392-4,.862-6,1.474-3.126-.152-5.426-.962-5.89-2.209a35.37,35.37,0,0,1,13.188-4.124,31.468,31.468,0,0,1,6.4-.194,1.856,1.856,0,0,1,.881,1.238C427.809,178.182,426.523,179.381,424.378,180.356Z" transform="translate(-331.882 -144.587)" fill="#3f3d56"/>
    <path id="Path_6757" data-name="Path 6757" d="M376.558,262.515l-2.495-10.37a1.951,1.951,0,0,0-1.581-1.474,2.182,2.182,0,0,0-.324-.026,1.952,1.952,0,0,0-.454.055l-.965.233a4.828,4.828,0,0,0-3.56,5.818L368.3,261.4a5.133,5.133,0,0,0,1.73,2.793,4.557,4.557,0,0,0,.441.314,4.8,4.8,0,0,0,3.683.6l.962-.233a1.892,1.892,0,0,0,.7-.327A1.942,1.942,0,0,0,376.558,262.515Z" transform="translate(-304.743 -195.228)" fill="#ff6f00"/>
    <ellipse id="Ellipse_66" data-name="Ellipse 66" cx="0.81" cy="2.268" rx="0.81" ry="2.268" transform="translate(64.737 61.138) rotate(-13.53)" fill="#3f3d56"/>
    <ellipse id="Ellipse_67" data-name="Ellipse 67" cx="0.81" cy="2.268" rx="0.81" ry="2.268" transform="translate(61.498 62.11) rotate(-13.53)" fill="#3f3d56"/>
    <path id="Path_6758" data-name="Path 6758" d="M388.117,262.2l-2.494-10.37a2.116,2.116,0,0,0-1.714-1.594l3.4,14.164A2.109,2.109,0,0,0,388.117,262.2Z" transform="translate(-316.143 -194.951)" fill="#fff"/>
    <path id="Path_6759" data-name="Path 6759" d="M367.74,261.5a2.1,2.1,0,0,0-.379-.794,4.77,4.77,0,0,0-.185,2.848l1.118,4.652a5.133,5.133,0,0,0,1.73,2.793Z" transform="translate(-304.74 -202.029)" fill="#3f3d56"/>
    <g id="bx-bot" transform="translate(78.239 100.574)">
      <path id="Path_6767" data-name="Path 6767" d="M37.539,19.649a1.812,1.812,0,0,0-1.608-1.1V13.4a3.469,3.469,0,0,0-3.466-3.466h-10.4V7.523a2.6,2.6,0,1,0-3.466,0V9.932H8.2A3.469,3.469,0,0,0,4.735,13.4v5.193l-.142.01a1.733,1.733,0,0,0-1.608,1.728V23.8A1.733,1.733,0,0,0,4.718,25.53h.017V34.2A3.469,3.469,0,0,0,8.2,37.662H32.465A3.469,3.469,0,0,0,35.931,34.2V25.53A1.733,1.733,0,0,0,37.664,23.8V20.438a1.744,1.744,0,0,0-.125-.788ZM8.2,34.2V13.4H32.465l0,6.925,0,.007V23.8l0,.008,0,10.389H8.2Z" transform="translate(-2.985 -3)" fill="#ff6f00"/>
      <path id="Path_6768" data-name="Path 6768" d="M15.7,18.466c0,1.914-1.164,3.466-2.6,3.466s-2.6-1.552-2.6-3.466S11.664,15,13.1,15,15.7,16.552,15.7,18.466Z" transform="translate(-1.817 -1.135)" fill="#ff6f00"/>
      <path id="Path_6769" data-name="Path 6769" d="M26.2,18.466c0,1.914-1.164,3.466-2.6,3.466S21,20.38,21,18.466,22.164,15,23.6,15,26.2,16.552,26.2,18.466Z" transform="translate(-0.186 -1.135)" fill="#ff6f00"/>
      <path id="Path_6770" data-name="Path 6770" d="M12,24H25.865v3.466H12Z" transform="translate(-1.584 0.263)" fill="#ff6f00"/>
    </g>
  </g>
</svg>
