<svg xmlns="http://www.w3.org/2000/svg" xmlns:xlink="http://www.w3.org/1999/xlink" width="241.263" height="35" viewBox="0 0 241.263 35">
  <defs>
    <linearGradient id="linear-gradient" x1="0.272" y1="0.13" x2="0.699" y2="1.011" gradientUnits="objectBoundingBox">
      <stop offset="0" stop-color="#f4a121"/>
      <stop offset="0.552" stop-color="#f36f29"/>
      <stop offset="0.988" stop-color="#f24d23"/>
    </linearGradient>
    <linearGradient id="linear-gradient-2" x1="-1.586" y1="-3.408" x2="4.694" y2="8.358" xlink:href="#linear-gradient"/>
    <linearGradient id="linear-gradient-3" x1="-2.133" y1="-4.434" x2="4.146" y2="7.332" xlink:href="#linear-gradient"/>
    <linearGradient id="linear-gradient-4" x1="-2.681" y1="-5.46" x2="3.599" y2="6.306" xlink:href="#linear-gradient"/>
  </defs>
  <g id="Logo" transform="translate(-128 -24.193)">
    <g id="Group_3" data-name="Group 3" transform="translate(128 24.193)">
      <g id="Group_2" data-name="Group 2">
        <path id="Path_1" data-name="Path 1" d="M297.393,82.193s-3.22-1.978-4.611-7.184a13.271,13.271,0,0,1,.28-6.313,17.4,17.4,0,0,0,.5-4.391,17.614,17.614,0,0,0-17.19-17.112A17.346,17.346,0,1,0,286.6,78.439l-1.286-1.112a5.868,5.868,0,0,0-5.545-1.185,12.132,12.132,0,1,1,8.584-11.56,17.89,17.89,0,0,1-.35,2.863c-.587,3.57-.487,5.915.907,8.4C291.268,80.068,297.393,82.193,297.393,82.193Z" transform="translate(-258.871 -47.193)" fill="url(#linear-gradient)"/>
        <g id="Group_1" data-name="Group 1" transform="translate(8.014 14.772)">
          <circle id="Ellipse_1" data-name="Ellipse 1" cx="1.829" cy="1.829" r="1.829" transform="translate(0 2.587) rotate(-45)" fill="url(#linear-gradient-2)"/>
          <path id="Path_2" data-name="Path 2" d="M404.941,191.674a1.83,1.83,0,1,1-1.494-1.494A1.831,1.831,0,0,1,404.941,191.674Z" transform="translate(-393.849 -189.397)" fill="url(#linear-gradient-3)"/>
          <path id="Path_3" data-name="Path 3" d="M466.63,191.674a1.83,1.83,0,1,1-1.494-1.494A1.831,1.831,0,0,1,466.63,191.674Z" transform="translate(-448.837 -189.397)" fill="url(#linear-gradient-4)"/>
        </g>
      </g>
    </g>
    <g id="Group_6" data-name="Group 6" transform="translate(179.108 32.56)">
      <g id="Group_4" data-name="Group 4" transform="translate(0 0.08)">
        <path id="Path_4" data-name="Path 4" d="M154.231,427.863H157.3a.4.4,0,0,1,.425.424v22a.4.4,0,0,1-.425.424h-3.068a.394.394,0,0,1-.424-.424v-22A.394.394,0,0,1,154.231,427.863Z" transform="translate(-153.807 -427.536)" fill="#fff"/>
        <path id="Path_5" data-name="Path 5" d="M180.17,428.287a.4.4,0,0,1,.425-.424h.489a1.088,1.088,0,0,1,.685.294l12.5,13.414c.163.163.261.228.392.228s.228-.163.228-.489V428.287a.4.4,0,0,1,.424-.424h3.068a.394.394,0,0,1,.424.424v22a.394.394,0,0,1-.424.424h-.457a.99.99,0,0,1-.718-.326l-16.743-18.016a1.265,1.265,0,0,1-.294-.751Zm0,9.041c0-.261.131-.293.294-.1l3.329,3.589a1.105,1.105,0,0,1,.294.719v8.746a.4.4,0,0,1-.425.424h-3.068a.4.4,0,0,1-.425-.424Z" transform="translate(-171.293 -427.536)" fill="#fff"/>
        <path id="Path_6" data-name="Path 6" d="M246.8,456.457h10.8a.394.394,0,0,1,.424.424v2.709a.394.394,0,0,1-.424.424H246.8a.394.394,0,0,1-.424-.424v-2.709A.394.394,0,0,1,246.8,456.457Z" transform="translate(-215.206 -446.502)" fill="#fff"/>
        <path id="Path_7" data-name="Path 7" d="M288.364,449.674l10.314-22.486a.562.562,0,0,1,.49-.295.511.511,0,0,1,.457.295l10.313,22.486c.1.228,0,.391-.261.391h-3.2a.692.692,0,0,1-.62-.391l-.914-1.991a1.454,1.454,0,0,0-1.305-.816h-8.976a1.454,1.454,0,0,0-1.305.816l-.914,1.991a.682.682,0,0,1-.587.391h-3.231C288.364,450.065,288.267,449.9,288.364,449.674Zm8-6.462h5.613c.555,0,.751-.327.522-.849l-2.937-6.4q-.2-.392-.392-.392t-.392.392l-2.97,6.4C295.578,442.885,295.806,443.212,296.361,443.212Z" transform="translate(-243.033 -426.893)" fill="#fff"/>
        <path id="Path_8" data-name="Path 8" d="M363.848,439.384a.4.4,0,0,1,.424-.425h7.115c4.961,0,4.928-7.408,0-7.408h-7.115a.394.394,0,0,1-.424-.424v-2.84a.4.4,0,0,1,.424-.424h7.115c5.157,0,7.735,3.688,7.735,7.41a7.157,7.157,0,0,1-6.789,7.343c-.391.032-.947.032-1.86.032h-1.8a.874.874,0,0,0-.913.914v6.723a.4.4,0,0,1-.424.424h-3.069a.4.4,0,0,1-.424-.424Z" transform="translate(-293.126 -427.536)" fill="#fff"/>
        <path id="Path_9" data-name="Path 9" d="M422,439.384a.4.4,0,0,1,.425-.425h7.115c4.961,0,4.928-7.408,0-7.408H422.43a.4.4,0,0,1-.425-.424v-2.84a.4.4,0,0,1,.425-.424h7.115c5.157,0,7.735,3.688,7.735,7.41a7.157,7.157,0,0,1-6.789,7.343c-.391.032-.946.032-1.86.032h-1.8a.875.875,0,0,0-.914.914v6.723a.394.394,0,0,1-.424.424H422.43a.4.4,0,0,1-.425-.424Z" transform="translate(-331.701 -427.536)" fill="#fff"/>
      </g>
      <g id="Group_5" data-name="Group 5" transform="translate(112.135)">
        <path id="Path_10" data-name="Path 10" d="M506.015,445.816a9.209,9.209,0,0,1-1.315,1.6,8.584,8.584,0,0,1-1.784,1.328,9.746,9.746,0,0,1-2.238.909,10.142,10.142,0,0,1-2.676.334,11.289,11.289,0,0,1-4.476-.878,10.537,10.537,0,0,1-3.539-2.431,11.106,11.106,0,0,1-2.313-3.684,12.75,12.75,0,0,1-.832-4.674,12.557,12.557,0,0,1,.846-4.672,11.189,11.189,0,0,1,2.344-3.685,10.773,10.773,0,0,1,3.538-2.431,11.108,11.108,0,0,1,4.431-.877,10.679,10.679,0,0,1,4.445.971,8.944,8.944,0,0,1,1.815,1.11,6.389,6.389,0,0,1,1.361,1.462l-1.814,1.38a5.593,5.593,0,0,0-.892-1.066,6.074,6.074,0,0,0-1.315-.941,8.121,8.121,0,0,0-1.648-.659,7.113,7.113,0,0,0-1.921-.251,8.608,8.608,0,0,0-3.735.782,8.418,8.418,0,0,0-2.8,2.109,9.3,9.3,0,0,0-1.755,3.08,11.207,11.207,0,0,0-.6,3.687,10.977,10.977,0,0,0,.62,3.69,9.481,9.481,0,0,0,1.769,3.079,8.425,8.425,0,0,0,2.8,2.111,8.539,8.539,0,0,0,3.7.781,8.133,8.133,0,0,0,3.508-.784,6.731,6.731,0,0,0,2.783-2.509Z" transform="translate(-486.842 -426.654)" fill="#fff"/>
        <path id="Path_11" data-name="Path 11" d="M554.919,428.33H557.1v9.628h11.674V428.33h2.177v22.2h-2.177V440.028H557.1v10.506h-2.177Z" transform="translate(-531.997 -427.766)" fill="#fff"/>
        <path id="Path_12" data-name="Path 12" d="M614.25,450.535h-2.389l9.255-22.2h2.116l9.194,22.2h-2.419l-2.36-5.834H616.579Zm3.146-7.9h9.435l-4.717-11.792Z" transform="translate(-569.766 -427.766)" fill="#fff"/>
        <path id="Path_13" data-name="Path 13" d="M678.866,450.535h-2.177v-20.2h-7.166V428.33h16.511v2.007h-7.167Z" transform="translate(-608.013 -427.766)" fill="#fff"/>
      </g>
    </g>
  </g>
</svg>
