<svg width="26" height="20" viewBox="0 0 26 20" fill="none" xmlns="http://www.w3.org/2000/svg">
<path d="M20.0046 10.5C20.0046 12.4886 19.2149 14.3958 17.809 15.8022C16.4032 17.2086 14.4963 17.9992 12.5077 18V18C10.5186 18.002 8.61013 17.2138 7.20216 15.8088C5.79419 14.4037 5.00205 12.4968 5 10.5077C4.99796 8.51859 5.78617 6.61012 7.19125 5.20215C8.59632 3.79418 10.5032 3.00205 12.4923 3V3C12.8625 3 13.5906 3.08021 13.5906 3.08021L19.6961 8.37742C19.8557 9.07552 19.9589 9.78534 20.0046 10.5V10.5Z" fill="white"/>
<path d="M19.042 8.59912L19.1531 8.69167L19.2086 8.73486C19.2086 8.80274 19.1654 8.78731 19.1284 8.79348C19.0529 8.77896 18.9767 8.76866 18.9001 8.76263H18.8322C18.8322 8.76263 18.3509 8.74103 18.1103 8.72561C17.9961 8.72561 17.8789 8.72561 17.7647 8.7071C17.555 8.69167 17.3452 8.67008 17.1477 8.64231C16.8504 8.60527 16.5557 8.54962 16.2654 8.47571C16.1882 8.45412 16.1173 8.43869 16.0401 8.41401C15.7044 8.31373 15.383 8.17064 15.0838 7.98826C14.7646 7.79387 14.4765 7.55258 14.2292 7.2725C13.9931 6.99109 13.795 6.67992 13.6399 6.34696C13.6399 6.30685 13.6183 6.25749 13.5813 6.22972C13.5196 6.06929 13.4579 5.92121 13.4054 5.74227C13.2961 5.38572 13.2247 5.0186 13.1926 4.64704C13.1626 4.42412 13.1482 4.19939 13.1494 3.97448C13.1481 3.95599 13.1481 3.93744 13.1494 3.91895C13.174 4.08246 13.1895 4.24597 13.2203 4.40331C13.3241 4.96469 13.5876 5.48422 13.9793 5.89961C14.2723 6.19266 14.6083 6.43923 14.9758 6.63079C15.3759 6.83819 15.7879 7.02157 16.2098 7.17995C16.7004 7.37431 17.1971 7.55634 17.6722 7.78155C17.7987 7.84326 17.9221 7.91113 18.0548 7.96358C18.0548 7.979 18.0825 7.979 18.0979 7.98826C18.3755 8.12284 18.6382 8.28622 18.8816 8.47571C18.9279 8.5254 18.9821 8.56709 19.042 8.59912V8.59912Z" fill="#B54E24"/>
<path d="M18.441 14.2112C18.2778 14.4871 18.0909 14.7483 17.8826 14.9918C17.191 15.8243 16.3162 16.4854 15.3266 16.9236C14.337 17.3618 13.2594 17.5651 12.1782 17.5176C11.097 17.4701 10.0414 17.1731 9.0941 16.6498C8.14675 16.1265 7.3333 15.3912 6.7174 14.5012C6.69889 14.4704 6.68038 14.4365 6.65878 14.4056C6.6716 14.3847 6.67839 14.3607 6.67839 14.3362C6.67839 14.3117 6.6716 14.2877 6.65878 14.2668C6.52268 14.0578 6.40005 13.8404 6.29165 13.6158C6.19909 13.443 6.12813 13.2579 6.051 13.0759C6.03386 13.0347 6.01943 12.9925 6.00781 12.9494C6.00781 12.9217 6.00781 12.8877 6.04175 12.8815C6.05273 12.89 6.06037 12.902 6.06335 12.9155C6.17403 13.2021 6.30072 13.4822 6.44282 13.7546C6.58792 14.0203 6.74757 14.2778 6.92102 14.5259C7.13539 14.8208 7.37155 15.0993 7.62752 15.3589C7.75362 15.4921 7.88646 15.6188 8.0255 15.7384C8.22074 15.9099 8.42685 16.0686 8.64253 16.2135C8.95639 16.4236 9.28652 16.6082 9.62978 16.7657C10.0077 16.9408 10.3999 17.0832 10.8021 17.1915C11.0212 17.247 11.2464 17.2902 11.4716 17.3242L11.8264 17.3643C11.9707 17.3832 12.1159 17.3946 12.2614 17.3982C12.6357 17.4112 13.0104 17.3916 13.3813 17.3396C13.5695 17.3149 13.7577 17.2871 13.9397 17.247C14.2946 17.1704 14.6431 17.0673 14.9825 16.9385C15.337 16.799 15.6796 16.6308 16.0068 16.4356C16.2197 16.3023 16.4256 16.1581 16.6238 16.0037C16.8459 15.834 17.0526 15.6489 17.2594 15.4576C17.3491 15.3746 17.4336 15.286 17.5123 15.1923C17.645 15.0504 17.7684 14.9023 17.8887 14.7481C18.0693 14.5227 18.2332 14.2845 18.3793 14.0354C18.5177 13.8033 18.6423 13.5633 18.7526 13.3166C18.842 13.1037 18.9253 12.8908 18.9994 12.6687C19.1141 12.3163 19.1997 11.9552 19.2554 11.5889C19.311 11.5889 19.3202 11.6351 19.311 11.6783C19.3017 11.7215 19.311 11.737 19.2925 11.7678C19.2393 12.0812 19.164 12.3905 19.0673 12.6934C18.9819 12.9561 18.8788 13.2128 18.7587 13.4616C18.6909 13.6127 18.6168 13.7701 18.5366 13.8996C18.4813 13.9809 18.4348 14.0678 18.3978 14.1588C18.4194 14.1681 18.407 14.1927 18.441 14.2112Z" fill="#E16C2E"/>
<path d="M6.03275 12.8723C5.98339 12.8723 5.98956 12.9063 5.99882 12.9402C6.00892 12.9823 6.02233 13.0236 6.03893 13.0636C6.11605 13.2425 6.1901 13.4307 6.27957 13.6066C6.39105 13.8285 6.51358 14.0448 6.6467 14.2545C6.65947 14.2759 6.6662 14.3005 6.6662 14.3254C6.6662 14.3504 6.65947 14.3749 6.6467 14.3964C6.55519 14.2751 6.4727 14.1472 6.39989 14.0138C5.89591 13.1333 5.58882 12.154 5.49975 11.1434C5.41069 10.1328 5.54178 9.11488 5.88399 8.1598C6.2262 7.20472 6.77139 6.33519 7.48201 5.6111C8.19263 4.88701 9.05177 4.32558 10.0003 3.9655C10.4338 3.80493 10.8824 3.68814 11.3392 3.61688C11.8492 3.5363 12.3662 3.50941 12.8818 3.53666C12.9627 3.5464 13.044 3.55155 13.1255 3.55209C13.1408 3.59921 13.1408 3.64997 13.1255 3.69709C13.1084 3.70182 13.0902 3.70182 13.0731 3.69709C12.9219 3.69709 12.7646 3.67241 12.6165 3.67241C12.3406 3.66694 12.0646 3.67621 11.7896 3.70018C11.6137 3.71601 11.4386 3.74072 11.2652 3.77422C10.87 3.84629 10.481 3.94945 10.1021 4.08273C9.65852 4.25104 9.23274 4.46289 8.83099 4.71519C8.58118 4.86901 8.34392 5.04232 8.1214 5.2335C7.96097 5.37233 7.78512 5.49882 7.63395 5.65616C7.48278 5.8135 7.38405 5.94616 7.26681 6.085C7.11877 6.26011 6.98075 6.44346 6.8534 6.63415C6.61563 6.96608 6.40908 7.31929 6.23637 7.68927C6.07567 8.04605 5.94462 8.41546 5.84456 8.79376C5.78286 9.04057 5.7335 9.29047 5.69647 9.54345C5.65945 9.79643 5.63374 10.0463 5.61934 10.2931C5.60389 10.6622 5.62248 11.0319 5.67488 11.3976C5.70948 11.6602 5.75788 11.9207 5.81988 12.1782C5.88158 12.4034 5.95871 12.6379 6.03275 12.8723Z" fill="#EF8C56"/>
<path d="M13.1367 3.67555C13.149 3.628 13.149 3.5781 13.1367 3.53055C13.1367 3.46268 13.1521 3.45651 13.1953 3.49661L13.6766 3.92545C13.8926 4.11364 14.1147 4.29567 14.3368 4.49003L14.7225 4.82631L15.0896 5.13483L15.4444 5.44334C15.5802 5.56366 15.7159 5.67781 15.8547 5.79196C15.9936 5.90611 16.0923 6.00792 16.2126 6.10048L16.6044 6.43676C16.7247 6.53857 16.8451 6.64655 16.9685 6.74528L17.5115 7.20805L17.8724 7.51656L18.2673 7.88061L18.6221 8.18913L19.0047 8.52232C19.0294 8.54392 19.1466 8.66424 19.2114 8.73211C19.1466 8.67966 18.9275 8.51924 18.872 8.46987C18.6337 8.28254 18.3774 8.11926 18.1069 7.98242C18.1069 7.98242 18.073 7.98242 18.0668 7.95774C18.0514 7.87753 17.9835 7.84359 17.9341 7.79731C17.8231 7.69859 17.712 7.60912 17.5948 7.51348L17.2862 7.24198L16.9407 6.95507C16.8235 6.85943 16.7186 6.76379 16.6075 6.66815L16.2404 6.35963L15.9319 6.09122C15.7807 5.96473 15.6233 5.84441 15.4783 5.71175C15.3333 5.57909 15.2531 5.52356 15.1452 5.42483C15.0372 5.32611 14.8366 5.15951 14.6731 5.02993C14.5096 4.90036 14.3646 4.75844 14.2073 4.63195C14.0499 4.50546 13.8988 4.38514 13.7507 4.25556C13.6026 4.12598 13.4421 3.9779 13.2694 3.84215C13.2394 3.81302 13.2 3.79552 13.1583 3.79279C13.1558 3.75299 13.1485 3.71364 13.1367 3.67555V3.67555Z" fill="#DDDDDC"/>
<path d="M18.439 14.2117C18.4051 14.1932 18.4174 14.1685 18.439 14.1438C18.4709 14.0495 18.5178 13.961 18.5779 13.8816C18.6581 13.7427 18.729 13.5916 18.8 13.4466C18.9169 13.1964 19.0199 12.9399 19.1085 12.6784C19.2066 12.3759 19.2819 12.0665 19.3337 11.7528L19.3522 11.6634C19.3522 11.6171 19.3522 11.5831 19.2967 11.5739C19.3152 11.4505 19.3307 11.3271 19.3399 11.2037C19.3399 11.0309 19.3738 10.8581 19.3738 10.6854C19.3738 10.5126 19.3738 10.3151 19.3584 10.127C19.343 9.93876 19.3337 9.81844 19.3183 9.67035C19.2815 9.38113 19.2259 9.09463 19.1517 8.81268C19.1887 8.81268 19.2412 8.81268 19.2319 8.75098C19.2848 8.84907 19.3272 8.95249 19.3584 9.05949C19.4922 9.67205 19.5399 10.3003 19.5003 10.926C19.4823 11.27 19.4338 11.6118 19.3553 11.9472C19.3337 12.0428 19.2998 12.1323 19.2813 12.2218C19.1903 12.6486 19.0484 13.0629 18.8586 13.4558C18.7461 13.7047 18.6172 13.9458 18.473 14.1778C18.4643 14.1914 18.4527 14.203 18.439 14.2117V14.2117Z" fill="#EF8C56"/>
<path d="M13.1511 3.92525C13.1269 3.91344 13.1008 3.90612 13.074 3.90365C12.9007 3.88716 12.7266 3.87995 12.5526 3.88206C12.4353 3.88206 12.315 3.88206 12.1947 3.88206C12.0744 3.88206 11.9263 3.89748 11.7905 3.92525C11.6548 3.95301 11.482 3.96227 11.3154 3.99004C11.1387 4.0189 10.9637 4.05701 10.7909 4.10419C10.528 4.17418 10.2694 4.25969 10.0166 4.36025C9.69598 4.49029 9.38645 4.64608 9.09102 4.82611C8.87614 4.95193 8.66999 5.0921 8.47399 5.24569C8.30972 5.36202 8.15309 5.48877 8.00505 5.62517C7.93409 5.70229 7.84462 5.75783 7.77058 5.84113C7.60707 6.03241 7.4343 6.21134 7.27387 6.40879C7.07294 6.66672 6.88948 6.93779 6.72471 7.22019C6.59422 7.44363 6.47878 7.67553 6.37918 7.91435C6.30205 8.09946 6.228 8.28148 6.16939 8.46967C6.06411 8.79948 5.98367 9.1367 5.92875 9.47852C5.90406 9.65746 5.88864 9.84257 5.86704 10.0246C5.84854 10.3205 5.84854 10.6172 5.86704 10.9131C5.88027 11.1701 5.91224 11.4259 5.96268 11.6782C6.01801 11.9918 6.09533 12.3011 6.19407 12.6038C6.29957 12.9219 6.42953 13.2313 6.5828 13.5293C6.76828 13.8927 6.98615 14.2386 7.23376 14.5628C7.34791 14.7233 7.47132 14.8837 7.62866 15.0318C7.70271 15.1058 7.76132 15.186 7.83845 15.2539C8.2071 15.6051 8.61258 15.9154 9.04783 16.1795C9.2145 16.2839 9.38647 16.3797 9.56305 16.4664C9.93122 16.6443 10.3142 16.7899 10.7076 16.9014C10.9736 16.975 11.2434 17.0337 11.516 17.0772C11.6671 17.105 11.8245 17.1112 11.9726 17.1297C12.241 17.1605 12.5125 17.1297 12.7809 17.1297C12.9193 17.1277 13.0574 17.1163 13.1943 17.0958C13.306 17.0874 13.4173 17.073 13.5275 17.0526C13.7462 17.0249 13.9628 16.9816 14.1753 16.923C14.5354 16.8339 14.8882 16.7173 15.2305 16.5744C15.6085 16.4002 15.9708 16.1938 16.3134 15.9573C16.4849 15.8393 16.6487 15.7105 16.8039 15.5717C16.9458 15.4452 17.0939 15.3249 17.2266 15.1891C17.3592 15.0534 17.5042 14.8806 17.6369 14.7233C17.8093 14.5165 17.967 14.298 18.1089 14.0692C18.3052 13.7659 18.4746 13.4458 18.6149 13.1128C18.6858 12.9339 18.763 12.7549 18.8185 12.5698C18.926 12.2442 19.0045 11.9097 19.053 11.5702C19.0807 11.3882 19.1023 11.2 19.1178 11.0149C19.1425 10.7193 19.1425 10.4221 19.1178 10.1264C19.0958 9.68536 19.0223 9.24842 18.8987 8.82447C18.8971 8.81012 18.8971 8.79562 18.8987 8.78127C18.9744 8.77758 19.0503 8.78486 19.1239 8.80287C19.1978 9.08593 19.2535 9.37344 19.2905 9.66363C19.309 9.8148 19.3214 9.97214 19.3337 10.1202C19.3461 10.2683 19.3337 10.4935 19.3337 10.6786C19.3316 10.8509 19.3203 11.0229 19.2998 11.1939C19.2998 11.3204 19.2782 11.4438 19.2566 11.5672C19.2009 11.9335 19.1152 12.2946 19.0005 12.647C18.9296 12.866 18.8432 13.082 18.7537 13.2979C18.6458 13.5442 18.5221 13.7833 18.3835 14.0137C18.2422 14.2612 18.0835 14.4984 17.9084 14.7233C17.7911 14.8775 17.6647 15.0318 17.5351 15.1675C17.4518 15.257 17.3716 15.3526 17.2821 15.4329C17.0754 15.621 16.8718 15.8092 16.6466 15.9789C16.4213 16.1486 16.2301 16.2874 16.0141 16.4108C15.3741 16.793 14.6774 17.071 13.9501 17.2346C13.765 17.2778 13.5768 17.3025 13.3886 17.3271C13.0186 17.377 12.6451 17.3976 12.2718 17.3888C12.1268 17.3888 11.9818 17.3703 11.8337 17.3549L11.482 17.3117C11.2545 17.2857 11.0289 17.2455 10.8064 17.1914C10.4032 17.0791 10.0101 16.9336 9.63092 16.7564C9.29085 16.5984 8.96383 16.4138 8.65293 16.2041C8.43754 16.0599 8.23146 15.9023 8.0359 15.7321C7.89707 15.6056 7.75207 15.4884 7.62249 15.3496C7.36752 15.0899 7.13239 14.8114 6.91908 14.5166C6.74344 14.2699 6.58372 14.0123 6.44088 13.7453C6.29684 13.4749 6.1701 13.1956 6.06141 12.9092C6.05971 12.9014 6.05636 12.8941 6.05156 12.8877C6.04677 12.8813 6.04066 12.876 6.03364 12.8722C5.9596 12.6315 5.88247 12.3971 5.82385 12.1564C5.76159 11.899 5.71319 11.6385 5.67885 11.3759C5.62867 11.0121 5.60906 10.6447 5.62023 10.2776C5.65761 9.37717 5.86706 8.49225 6.23726 7.67062C6.40989 7.30158 6.61646 6.94939 6.85429 6.61858C6.98695 6.4273 7.12887 6.2422 7.27696 6.06634C7.42504 5.89049 7.496 5.77634 7.62558 5.64676C7.75515 5.51719 7.94952 5.36601 8.11303 5.2241C8.33636 5.03488 8.57356 4.86266 8.82262 4.70888C9.22369 4.45954 9.64969 4.25274 10.0937 4.09185C10.472 3.9564 10.8611 3.8532 11.2568 3.78333C11.4296 3.74939 11.6054 3.73088 11.7813 3.70929C12.062 3.68461 12.3428 3.66918 12.6266 3.67227C12.7809 3.67227 12.9351 3.69695 13.0832 3.69695C13.1004 3.70153 13.1185 3.70153 13.1357 3.69695C13.1357 3.73397 13.1357 3.77716 13.1357 3.82035C13.1357 3.86355 13.1511 3.87897 13.1511 3.92525Z" fill="#C74528"/>
<path d="M13.1484 3.92563V3.79297C13.1694 3.79287 13.1901 3.79722 13.2093 3.80573C13.2284 3.81424 13.2455 3.82672 13.2595 3.84233L13.7377 4.25574C13.8889 4.38532 14.0462 4.50255 14.1943 4.63213C14.3424 4.76171 14.5028 4.90054 14.6602 5.03012C14.8175 5.15969 14.9687 5.28927 15.1353 5.42501C15.3019 5.56076 15.3574 5.61321 15.4685 5.71193C15.5795 5.81066 15.777 5.96492 15.922 6.09141L16.2305 6.35981C16.357 6.46471 16.4742 6.56652 16.6007 6.66833L16.9339 6.95525L17.2795 7.24217C17.3843 7.33164 17.4862 7.42419 17.588 7.51366C17.6898 7.60313 17.8132 7.69877 17.9242 7.79749C17.9767 7.84377 18.0446 7.87771 18.0569 7.95792C17.9242 7.90856 17.8008 7.8376 17.6744 7.77898C17.1962 7.55377 16.7056 7.36866 16.212 7.16195C15.79 7.00252 15.378 6.81812 14.9779 6.60971C14.6094 6.42109 14.2731 6.17535 13.9814 5.88162C13.5984 5.46954 13.3405 4.95699 13.2379 4.40383C13.204 4.2434 13.1916 4.09532 13.1669 3.92255C13.1484 3.92563 13.1484 3.92563 13.1484 3.92563Z" fill="#F3F3F3"/>
<path d="M19.192 10.1144C19.1696 9.66964 19.0971 9.22877 18.976 8.80017C18.9746 8.78581 18.9746 8.77134 18.976 8.75698C18.9515 8.75401 18.9266 8.75401 18.902 8.75698C18.6583 8.75698 18.4207 8.72304 18.1801 8.70145C18.0628 8.70145 17.9425 8.70145 17.8284 8.68294C17.6155 8.66751 17.4057 8.64591 17.1928 8.61815C16.8935 8.58111 16.5967 8.52547 16.3043 8.45155V8.45155L16.076 8.38985C15.7369 8.28667 15.4116 8.14267 15.1073 7.96101C14.789 7.76174 14.502 7.51637 14.2558 7.23292C14.0177 6.95177 13.8175 6.6406 13.6603 6.30737C13.6517 6.26282 13.6315 6.22133 13.6017 6.18705C13.54 6.02354 13.4783 5.86311 13.4228 5.69034C13.3121 5.33081 13.2397 4.96059 13.2068 4.58586C13.1756 4.36697 13.1561 4.14659 13.1482 3.92564C13.1494 3.90715 13.1494 3.88859 13.1482 3.8701V3.8701C13.1234 3.86064 13.0975 3.85442 13.0711 3.85159C12.8969 3.83362 12.7217 3.82641 12.5466 3.83H12.1918C12.0561 3.83 11.9203 3.85159 11.7815 3.86393C11.6426 3.87627 11.473 3.90712 11.3033 3.92564C11.1336 3.94415 10.9454 3.99659 10.7695 4.04287C10.504 4.11203 10.2432 4.19861 9.98901 4.30202C9.66246 4.43444 9.34681 4.59227 9.04495 4.77405C8.8302 4.90121 8.62407 5.0424 8.42792 5.19672C8.26119 5.31773 8.10438 5.45184 7.95898 5.59779C7.88493 5.67491 7.79238 5.73045 7.72142 5.81375C7.55482 6.00811 7.38206 6.19013 7.22163 6.39067C7.01663 6.64982 6.83004 6.92301 6.66322 7.20823C6.52986 7.43381 6.41333 7.66892 6.31459 7.91165C6.23746 8.09676 6.16034 8.27878 6.09863 8.47006C5.99334 8.8007 5.91392 9.13903 5.86108 9.48199C5.8364 9.6671 5.81788 9.84912 5.79629 10.0342C5.77624 10.3332 5.77624 10.6331 5.79629 10.932C5.80848 11.191 5.83942 11.4488 5.88884 11.7033C5.9446 12.0168 6.02191 12.326 6.12023 12.6288C6.22603 12.9537 6.3581 13.2694 6.51513 13.5729C6.69928 13.9337 6.91506 14.2775 7.15992 14.6003C7.28751 14.7711 7.42558 14.9339 7.57333 15.0877C7.64738 15.1587 7.71217 15.2389 7.78312 15.3129C8.15627 15.6747 8.56804 15.9944 9.01101 16.2662C9.18072 16.3719 9.35578 16.4687 9.53549 16.5562C9.90913 16.7355 10.2972 16.8831 10.6955 16.9974C10.9631 17.0721 11.2351 17.1298 11.51 17.1702C11.6642 17.1979 11.8185 17.2041 11.9697 17.2226C12.2443 17.2535 12.5127 17.2226 12.7872 17.2226C12.9236 17.2242 13.0599 17.2139 13.1945 17.1918C13.3055 17.1918 13.4228 17.1609 13.5338 17.1486C13.7547 17.1195 13.9732 17.0752 14.1879 17.0159C14.553 16.9172 14.9099 16.7903 15.2554 16.6364C15.6373 16.4641 16.0028 16.2576 16.3475 16.0194C16.5204 15.8994 16.6862 15.7696 16.8442 15.6307C16.9892 15.5011 17.1527 15.3808 17.27 15.242C17.3872 15.1031 17.5507 14.9334 17.6895 14.7699C17.8605 14.5574 18.0201 14.336 18.1677 14.1066C18.3652 13.7991 18.5355 13.475 18.6768 13.1379C18.7508 12.9528 18.8249 12.7738 18.8835 12.5856C18.9916 12.2556 19.0721 11.9171 19.1241 11.5737C19.1488 11.3855 19.1704 11.1973 19.1889 11.0153C19.2101 10.7154 19.2112 10.4145 19.192 10.1144V10.1144ZM8.85984 16.0719C8.861 16.0626 8.861 16.0533 8.85984 16.0441C8.861 16.0533 8.861 16.0626 8.85984 16.0719L8.87527 16.0873L8.85984 16.0719Z" fill="url(#paint0_linear_184_329)"/>
<path d="M12.8789 14.7021H12.9005C12.9005 14.7021 12.8851 14.7237 12.8789 14.7021Z" fill="#EF8C56"/>
<path d="M12.5486 6.70208C12.7708 6.85326 13.0083 6.98592 13.2366 7.12475L15.5381 8.55317L15.6338 8.61488C15.6338 8.66424 15.569 8.67658 15.5443 8.71052C15.3684 8.85243 12.5764 10.9318 12.5147 10.9318C12.453 10.9318 12.4005 10.864 12.345 10.8269C12.1136 10.6634 9.41103 8.73211 9.29688 8.61796C9.3123 8.58711 9.33698 8.58094 9.35858 8.56243C9.90156 8.20764 10.4322 7.83742 10.9659 7.47337L12.1599 6.67432C12.2216 6.65889 12.2555 6.58176 12.3203 6.5941C12.3769 6.61603 12.4299 6.64618 12.4777 6.68357C12.5005 6.69254 12.5243 6.69876 12.5486 6.70208Z" fill="#FFFEFE"/>
<path d="M12.1634 13.5389C12.1634 13.8104 12.1634 14.0788 12.1634 14.3472C12.1634 14.523 12.1634 14.6927 12.1634 14.8686C12.1634 14.8932 12.1819 14.9334 12.1479 14.9488C12.114 14.9642 12.0924 14.9488 12.0646 14.921C11.9659 14.8655 9.59652 13.1656 9.19237 12.8817C9.16641 12.8658 9.14544 12.8429 9.13181 12.8156C9.11818 12.7883 9.11244 12.7578 9.11524 12.7275C9.11524 12.0888 9.11524 11.4441 9.11524 10.8023C9.11524 10.7653 9.11524 10.7252 9.11524 10.6913C9.11524 10.5864 9.11524 10.4815 9.11524 10.3828V9.36466C9.10742 9.33013 9.10742 9.29429 9.11524 9.25977C9.14983 9.26189 9.18258 9.27608 9.20779 9.29987C9.71067 9.64232 11.9135 11.2312 12.077 11.3361C12.1046 11.3506 12.1273 11.3731 12.1421 11.4005C12.1569 11.428 12.1633 11.4593 12.1603 11.4903C12.1603 12.1351 12.1603 12.7799 12.1603 13.4278L12.1634 13.5389Z" fill="#FFFEFE"/>
<path d="M12.9912 14.8317L12.9018 14.8718H12.8802C12.8618 14.8204 12.8555 14.7655 12.8616 14.7113C12.8616 14.3473 12.8616 13.9832 12.8616 13.6223C12.8616 13.5945 12.8616 13.5667 12.8616 13.539C12.8633 13.5123 12.8633 13.4855 12.8616 13.4588C12.8616 12.8417 12.8616 12.1939 12.8771 11.5645C12.8756 11.536 12.882 11.5077 12.8956 11.4826C12.9092 11.4576 12.9295 11.4368 12.9542 11.4226C13.0714 11.3362 13.1856 11.2498 13.2967 11.1603C13.4941 11.0122 13.6946 10.8703 13.8828 10.713C13.9608 10.664 14.0351 10.6094 14.105 10.5495L15.7277 9.31541L15.8326 9.23828C15.8326 9.83063 15.8326 10.4137 15.8635 10.9937C15.8542 11.0561 15.8542 11.1195 15.8635 11.1819C15.8635 11.7157 15.882 12.2432 15.882 12.7769C15.885 12.8053 15.8795 12.8338 15.8663 12.859C15.8532 12.8843 15.8329 12.9051 15.808 12.9189C15.6043 13.07 13.1609 14.7237 12.9912 14.8317Z" fill="#FFFEFE"/>
<defs>
<linearGradient id="paint0_linear_184_329" x1="12.488" y1="3.8084" x2="12.488" y2="17.2319" gradientUnits="userSpaceOnUse">
<stop stop-color="#ED5B26"/>
<stop offset="1" stop-color="#CA4627"/>
</linearGradient>
</defs>
</svg>
