<svg width="49" height="45" viewBox="0 0 49 45" fill="none" xmlns="http://www.w3.org/2000/svg">
<g clip-path="url(#clip0_110_5938)">
<path d="M46.3785 28.9804L42.1064 28.0931L40.1193 22.0796C39.4238 19.96 37.3871 18.5306 35.102 18.5306H31.724V15.4252C31.724 14.2915 30.8298 13.4043 29.6873 13.4043H25.2661C24.2725 15.5731 22.8816 18.2841 20.8449 21.7838C19.9507 23.3119 18.2617 24.2977 16.4733 24.2977C14.685 24.2977 12.996 23.3611 12.1515 21.7838C10.1147 18.2841 8.67412 15.5731 7.73027 13.4043H3.25939C2.11683 13.4043 1.22266 14.2915 1.22266 15.4252V37.2613C1.22266 38.395 2.11683 39.2822 3.25939 39.2822H5.44515C5.44515 42.4369 8.02833 45 11.2076 45C14.3869 45 16.9701 42.4369 16.9701 39.2822H32.3201C32.3201 42.4369 34.9033 45 38.0826 45C41.2619 45 43.8451 42.4369 43.8451 39.2822H45.9811C47.1237 39.2822 48.0179 38.395 48.0179 37.2613V30.9027C47.9682 29.9662 47.3224 29.1282 46.3785 28.9804ZM11.2076 41.944C9.71733 41.944 8.47542 40.7117 8.47542 39.233C8.47542 37.7542 9.71733 36.5219 11.2076 36.5219C12.6979 36.5219 13.9398 37.7542 13.9398 39.233C13.9398 40.7117 12.6979 41.944 11.2076 41.944ZM31.724 27.5509V21.5374H35.102C36.0955 21.5374 36.94 22.1289 37.2381 23.0654L38.7781 27.6002H31.724V27.5509ZM38.0329 41.944C36.5426 41.944 35.3007 40.7117 35.3007 39.233C35.3007 37.7542 36.5426 36.5219 38.0329 36.5219C39.5232 36.5219 40.7651 37.7542 40.7651 39.233C40.7651 40.7117 39.5232 41.944 38.0329 41.944Z" fill="url(#paint0_linear_110_5938)"/>
<path d="M17.4059 22.0911C19.6838 18.1463 23.6453 10.8483 23.6453 7.79107C23.6453 3.50105 20.1294 0 15.8213 0C11.5132 0 8.04688 3.50105 8.04688 7.79107C8.04688 10.8483 12.0084 18.1463 14.2862 22.0911C14.9795 23.2746 16.7127 23.2746 17.4059 22.0911ZM12.2064 7.79107C12.2064 5.76934 13.8406 4.14209 15.8708 4.14209C17.9011 4.14209 19.5352 5.76934 19.5352 7.79107C19.5352 9.8128 17.9011 11.4401 15.8708 11.4401C13.8406 11.4401 12.2064 9.8128 12.2064 7.79107Z" fill="url(#paint1_linear_110_5938)"/>
</g>
<defs>
<linearGradient id="paint0_linear_110_5938" x1="1.22266" y1="13.4043" x2="52.8509" y2="28.957" gradientUnits="userSpaceOnUse">
<stop stop-color="#3A2270"/>
<stop offset="1" stop-color="#43CCD1"/>
</linearGradient>
<linearGradient id="paint1_linear_110_5938" x1="15.8374" y1="-0.0260752" x2="15.8374" y2="22.9513" gradientUnits="userSpaceOnUse">
<stop stop-color="#ED5B26"/>
<stop offset="1" stop-color="#CA4627"/>
</linearGradient>
<clipPath id="clip0_110_5938">
<rect width="47.7701" height="45" fill="white" transform="translate(0.316406)"/>
</clipPath>
</defs>
</svg>
