<svg width="43" height="45" viewBox="0 0 43 45" fill="none" xmlns="http://www.w3.org/2000/svg">
<g clip-path="url(#clip0_110_5988)">
<path d="M4.70067 16.7441C7.14577 16.7441 9.12791 18.8303 9.12791 21.4036V34.5348H8.72543C4.05752 34.5348 0.273438 30.5523 0.273438 25.6395V21.4036C0.273438 18.8303 2.25558 16.7441 4.70067 16.7441Z" fill="url(#paint0_linear_110_5988)"/>
<path d="M17.2608 25.0547V40.0136C17.2608 42.7675 15.0691 45 12.3656 45C9.6621 45 7.47047 42.7675 7.47047 40.0136V25.0547H7.46398V21.9486C7.46398 19.1917 6.37833 17.4569 4.20703 16.7441H29.4987C34.0045 16.7441 37.6573 20.4649 37.6573 25.0547H17.2608Z" fill="url(#paint1_linear_110_5988)"/>
<path d="M16.2533 36.5094V3.39623C16.2533 1.52054 17.6818 0 19.4441 0H20.2418C22.0441 0.852622 21.8375 3.39623 23.4326 3.39623C25.0277 3.39623 25.0265 0 26.6234 0C28.2202 0 28.2378 3.39623 29.8178 3.39623C31.3977 3.39623 31.4099 0 33.005 0C34.6 0 34.6119 3.39623 36.1958 3.39623C37.7796 3.39623 37.115 0.784388 38.5889 0H39.3866C41.1488 0 42.5774 1.52054 42.5774 3.39623V36.5094V38.2075C42.5774 41.9589 39.7202 45 36.1958 45H13.0625C15.1855 44.2718 16.247 42.4994 16.247 39.6828V36.5094H16.2533Z" fill="url(#paint2_linear_110_5988)"/>
<path d="M29.7891 15.1743C29.7891 14.3073 30.2846 13.6045 30.8959 13.6045H37.5367C38.148 13.6045 38.6435 14.3073 38.6435 15.1743C38.6435 16.0412 38.148 16.744 37.5367 16.744H30.8959C30.2846 16.744 29.7891 16.0412 29.7891 15.1743Z" fill="white"/>
<path d="M29.7891 21.4536C29.7891 20.5866 30.2846 19.8838 30.8959 19.8838H37.5367C38.148 19.8838 38.6435 20.5866 38.6435 21.4536C38.6435 22.3205 38.148 23.0233 37.5367 23.0233H30.8959C30.2846 23.0233 29.7891 22.3205 29.7891 21.4536Z" fill="white"/>
<path d="M20.9336 28.7788C20.9336 29.6457 21.4419 30.3485 22.069 30.3485H37.5072C38.1342 30.3485 38.6425 29.6457 38.6425 28.7788C38.6425 27.9118 38.1342 27.209 37.5072 27.209H22.069C21.4419 27.209 20.9336 27.9118 20.9336 28.7788Z" fill="white"/>
<path d="M20.9336 35.0581C20.9336 35.925 21.4475 36.6278 22.0814 36.6278H33.5594C34.1933 36.6278 34.7072 35.925 34.7072 35.0581C34.7072 34.1911 34.1933 33.4883 33.5594 33.4883H22.0814C21.4475 33.4883 20.9336 34.1911 20.9336 35.0581Z" fill="white"/>
<path d="M25.1687 11.9009C25.5325 11.9458 25.8886 12.0455 26.2371 12.2001C26.319 12.1552 26.3972 12.1216 26.4715 12.0991C26.5458 12.0767 26.6188 12.0655 26.6905 12.0655C26.9262 12.0655 27.1171 12.144 27.2632 12.3011C27.4092 12.4581 27.4822 12.7212 27.4822 13.0902V13.5838C27.4822 13.9528 27.4092 14.2158 27.2632 14.3729C27.1171 14.53 26.9288 14.6085 26.6982 14.6085C26.4881 14.6085 26.3101 14.5412 26.164 14.4066C26.018 14.2719 25.9322 14.075 25.9065 13.8157C25.5376 13.5315 25.0764 13.3893 24.523 13.3893C23.944 13.3893 23.52 13.4903 23.251 13.6923C22.982 13.8942 22.8475 14.1173 22.8475 14.3617C22.8475 14.5512 22.9294 14.7207 23.0934 14.8703C23.2574 15.0199 23.6007 15.147 24.1234 15.2517L25.1687 15.4687C26.05 15.6432 26.6828 15.905 27.0672 16.254C27.5693 16.6978 27.8204 17.2837 27.8204 18.0117C27.8204 18.65 27.5911 19.2171 27.1325 19.7133C26.6739 20.2094 26.0193 20.5373 25.1687 20.6968V21.9983C25.1687 22.3673 25.0957 22.6303 24.9496 22.7874C24.8036 22.9444 24.6127 23.023 24.377 23.023C24.1464 23.023 23.9581 22.9444 23.8121 22.7874C23.666 22.6303 23.593 22.3673 23.593 21.9983V20.6968C23.1831 20.6121 22.7732 20.4799 22.3632 20.3004C22.1429 20.4799 21.9379 20.5697 21.7483 20.5697C21.4972 20.5697 21.2987 20.4924 21.1526 20.3378C21.0066 20.1833 20.9336 19.9215 20.9336 19.5525V18.5876C20.9336 18.2186 21.0066 17.9556 21.1526 17.7985C21.2987 17.6415 21.4896 17.5629 21.7253 17.5629C21.9149 17.5629 22.0737 17.6128 22.2018 17.7125C22.3299 17.8122 22.4221 17.9656 22.4785 18.1725C22.5349 18.3794 22.6143 18.5353 22.7168 18.64C22.8705 18.7995 23.1049 18.9329 23.4201 19.0401C23.7352 19.1473 24.0593 19.2009 24.3924 19.2009C24.9765 19.2009 25.4633 19.0538 25.8527 18.7596C26.1141 18.5652 26.2447 18.3134 26.2447 18.0042C26.2447 17.7499 26.1576 17.5405 25.9834 17.3759C25.8092 17.2164 25.4428 17.0817 24.8843 16.972L23.7006 16.7402C22.8654 16.5806 22.2531 16.2889 21.8636 15.8651C21.4742 15.4412 21.2795 14.9326 21.2795 14.3392C21.2795 13.7508 21.4896 13.2273 21.9097 12.7685C22.3299 12.3098 22.891 12.0206 23.593 11.9009V11.4821C23.593 11.1181 23.666 10.8575 23.8121 10.7004C23.9581 10.5434 24.149 10.4648 24.3847 10.4648C24.6153 10.4648 24.8036 10.5434 24.9496 10.7004C25.0957 10.8575 25.1687 11.1181 25.1687 11.4821V11.9009Z" fill="white"/>
</g>
<defs>
<linearGradient id="paint0_linear_110_5988" x1="0.273438" y1="16.7441" x2="10.8208" y2="17.8119" gradientUnits="userSpaceOnUse">
<stop stop-color="#3A2270"/>
<stop offset="1" stop-color="#43CCD1"/>
</linearGradient>
<linearGradient id="paint1_linear_110_5988" x1="4.20703" y1="16.7441" x2="42.2551" y2="25.9057" gradientUnits="userSpaceOnUse">
<stop stop-color="#3A2270"/>
<stop offset="1" stop-color="#43CCD1"/>
</linearGradient>
<linearGradient id="paint2_linear_110_5988" x1="27.8036" y1="-0.0510639" x2="27.8036" y2="44.9463" gradientUnits="userSpaceOnUse">
<stop stop-color="#ED5B26"/>
<stop offset="1" stop-color="#CA4627"/>
</linearGradient>
<clipPath id="clip0_110_5988">
<rect width="42.3047" height="45" fill="white" transform="translate(0.273438)"/>
</clipPath>
</defs>
</svg>
