<svg width="54" height="54" viewBox="0 0 54 54" fill="none" xmlns="http://www.w3.org/2000/svg">
<g clip-path="url(#clip0_110_6006)">
<path d="M26.3964 53.6424C40.5368 53.6424 51.9999 41.6341 51.9999 26.8212C51.9999 12.0083 40.5368 0 26.3964 0C12.256 0 0.792969 12.0083 0.792969 26.8212C0.792969 41.6341 12.256 53.6424 26.3964 53.6424Z" fill="url(#paint0_linear_110_6006)"/>
<path d="M26.9178 41.6001C35.5752 41.6001 42.5933 34.2481 42.5933 25.1789C42.5933 16.1098 35.5752 8.75781 26.9178 8.75781C18.2604 8.75781 11.2422 16.1098 11.2422 25.1789C11.2422 34.2481 18.2604 41.6001 26.9178 41.6001Z" fill="white"/>
<path d="M26.396 4.37891C14.5835 4.37891 4.97266 14.4468 4.97266 26.8211C4.97266 39.1965 14.5835 49.2633 26.396 49.2633C38.2095 49.2633 47.8192 39.1965 47.8192 26.8211C47.8192 14.4468 38.2095 4.37891 26.396 4.37891ZM30.8567 36.673L27.5608 40.1257C27.2386 40.4632 26.8178 40.6317 26.396 40.6317C25.9741 40.6317 25.5522 40.4632 25.2311 40.1257C24.5877 39.4517 24.5877 38.359 25.2311 37.6845L25.7468 37.1443C19.6882 36.7891 14.8603 31.5289 14.8603 25.0948C14.8603 24.1419 15.5986 23.3685 16.5083 23.3685C17.4179 23.3685 18.1562 24.1419 18.1562 25.0948C18.1562 29.5998 21.4695 33.3055 25.6767 33.6883L25.23 33.2204C24.5866 32.5464 24.5866 31.4538 25.23 30.7792C25.8728 30.1053 26.9164 30.1053 27.5603 30.7792L30.8562 34.2319C31.5006 34.9064 31.5006 35.9991 30.8567 36.673ZM36.2836 30.2738C35.374 30.2738 34.6357 29.5004 34.6357 28.5475C34.6357 24.0419 31.3224 20.3368 27.1152 19.9539L27.5619 20.4218C28.2053 21.0958 28.2053 22.1885 27.5619 22.863C27.2386 23.2 26.8178 23.3685 26.396 23.3685C25.9741 23.3685 25.5522 23.2 25.2311 22.8625L21.9352 19.4098C21.2918 18.7358 21.2918 17.6432 21.9352 16.9686L25.2311 13.516C25.8739 12.842 26.9175 12.842 27.5614 13.516C28.2047 14.19 28.2047 15.2826 27.5614 15.9572L27.0456 16.4974C33.1043 16.8537 37.9321 22.1134 37.9321 28.5475C37.9316 29.5004 37.1933 30.2738 36.2836 30.2738Z" fill="url(#paint1_linear_110_6006)"/>
</g>
<defs>
<linearGradient id="paint0_linear_110_6006" x1="0.792969" y1="0" x2="60.1767" y2="11.5301" gradientUnits="userSpaceOnUse">
<stop stop-color="#3A2270"/>
<stop offset="1" stop-color="#43CCD1"/>
</linearGradient>
<linearGradient id="paint1_linear_110_6006" x1="26.3721" y1="4.32797" x2="26.3721" y2="49.2098" gradientUnits="userSpaceOnUse">
<stop stop-color="#ED5B26"/>
<stop offset="1" stop-color="#CA4627"/>
</linearGradient>
<clipPath id="clip0_110_6006">
<rect width="52.2519" height="53.6424" fill="white" transform="translate(0.792969)"/>
</clipPath>
</defs>
</svg>
