<svg width="50" height="36" viewBox="0 0 50 36" fill="none" xmlns="http://www.w3.org/2000/svg">
<g clip-path="url(#clip0_110_5950)">
<path d="M43.949 0C44.8712 0 45.6197 0.900628 45.6197 2.01033C45.6197 3.12003 44.8712 4.02066 43.949 4.02066H36.8107V15.5881C36.8107 16.6988 36.0631 17.5984 35.14 17.5984C34.2178 17.5984 33.4693 16.6988 33.4693 15.5881V4.02066H28.4696C27.0737 4.33327 15.3844 7.38998 14.0061 22.2534C13.9117 23.2806 13.1882 24.0405 12.3487 24.0405C12.2869 24.0405 12.2234 24.0365 12.1607 24.0285C11.2443 23.9048 10.5836 22.9107 10.6863 21.8071C12.4055 3.25271 27.9041 0.0552841 28.0594 0.0251291C28.1472 0.00804133 28.2357 0 28.3243 0H43.949Z" fill="url(#paint0_linear_110_5950)"/>
<path d="M12.5625 29.8101H47.5064V25.002H12.5625V29.8101Z" fill="url(#paint1_linear_110_5950)"/>
<path d="M36.2077 21.1553L38.027 17.7063C40.047 13.8753 43.6374 11.5391 47.507 11.5391H37.0845C33.2156 11.5391 29.6244 13.8753 27.6044 17.7063L25.7852 21.1553H36.2077Z" fill="url(#paint2_linear_110_5950)"/>
<path d="M16.1328 32.5711C16.2651 32.0145 16.3424 31.4089 16.3424 30.7725C16.3424 30.1351 16.2651 29.5294 16.1328 28.9728V25.9649H13.5139C13.5123 25.9649 13.5107 25.9639 13.5091 25.9639C13.5075 25.9639 13.5059 25.9649 13.5035 25.9649H13.47V25.971C11.9239 26.0068 10.6758 28.139 10.6758 30.7725C10.6758 33.4049 11.9239 35.5371 13.47 35.5739V35.575H13.4748C13.4868 35.575 13.4971 35.5801 13.5091 35.5801C13.5202 35.5801 13.5314 35.575 13.5425 35.575H16.1328V32.5711Z" fill="url(#paint3_linear_110_5950)"/>
<path d="M16.3411 25.9639C17.9056 25.9639 19.1744 28.1165 19.1744 30.7725C19.1744 33.4275 17.9056 35.5801 16.3411 35.5801C14.7766 35.5801 13.5078 33.4275 13.5078 30.7725C13.5078 28.1165 14.7766 25.9639 16.3411 25.9639Z" fill="url(#paint4_linear_110_5950)"/>
<path d="M15.8698 28.8486C16.6518 28.8486 17.2864 29.7095 17.2864 30.7714C17.2864 31.8333 16.6518 32.6951 15.8698 32.6951C15.0877 32.6951 14.4531 31.8333 14.4531 30.7714C14.4531 29.7095 15.0877 28.8486 15.8698 28.8486Z" fill="#FEFEFE"/>
<path d="M45.8504 0C45.8455 0 45.8405 0.00204416 45.8355 0.00204416C45.8306 0.00204416 45.8264 0 45.8214 0C26.5963 0 24.9015 17.5502 24.84 22.9294C24.8269 24.0588 25.558 24.9868 26.4729 25.0022H26.4969C27.4002 25.0022 28.1388 24.1058 28.152 22.9876C28.2141 17.5072 29.9429 5.02455 44.1945 4.1425V15.8504C44.1945 16.9798 44.9364 17.8946 45.8504 17.8946C46.7645 17.8946 47.5063 16.9798 47.5063 15.8504V2.04416C47.5063 0.915785 46.7645 0 45.8504 0Z" fill="url(#paint5_linear_110_5950)"/>
<path d="M46.3515 32.5711C46.4838 32.0145 46.5611 31.4089 46.5611 30.7725C46.5611 30.1351 46.4838 29.5294 46.3515 28.9728V25.9649H43.7326C43.731 25.9649 43.7294 25.9639 43.7278 25.9639C43.7262 25.9639 43.7246 25.9649 43.7222 25.9649H43.6888V25.971C42.1426 26.0068 40.8945 28.139 40.8945 30.7725C40.8945 33.4049 42.1426 35.5371 43.6888 35.5739V35.575H43.6935C43.7055 35.575 43.7159 35.5801 43.7278 35.5801C43.739 35.5801 43.7501 35.575 43.7613 35.575H46.3515V32.5711Z" fill="url(#paint6_linear_110_5950)"/>
<path d="M46.5638 25.9639C48.1282 25.9639 49.397 28.1165 49.397 30.7725C49.397 33.4275 48.1282 35.5801 46.5638 35.5801C44.9993 35.5801 43.7305 33.4275 43.7305 30.7725C43.7305 28.1165 44.9993 25.9639 46.5638 25.9639Z" fill="url(#paint7_linear_110_5950)"/>
<path d="M46.0885 28.8486C46.8706 28.8486 47.5052 29.7095 47.5052 30.7714C47.5052 31.8333 46.8706 32.6951 46.0885 32.6951C45.3065 32.6951 44.6719 31.8333 44.6719 30.7714C44.6719 29.7095 45.3065 28.8486 46.0885 28.8486Z" fill="#EDF3F7"/>
<path d="M35.9648 32.5711C36.0971 32.0145 36.1744 31.4089 36.1744 30.7725C36.1744 30.1351 36.0971 29.5294 35.9648 28.9728V25.9649H33.3459C33.3443 25.9649 33.3427 25.9639 33.3411 25.9639C33.3395 25.9639 33.3379 25.9649 33.3355 25.9649H33.3021V25.971C31.7559 26.0068 30.5078 28.139 30.5078 30.7725C30.5078 33.4049 31.7559 35.5371 33.3021 35.5739V35.575H33.3068C33.3188 35.575 33.3292 35.5801 33.3411 35.5801C33.3523 35.5801 33.3634 35.575 33.3746 35.575H35.9648V32.5711Z" fill="url(#paint8_linear_110_5950)"/>
<path d="M36.1731 25.9639C37.7376 25.9639 39.0064 28.1165 39.0064 30.7725C39.0064 33.4275 37.7376 35.5801 36.1731 35.5801C34.6086 35.5801 33.3398 33.4275 33.3398 30.7725C33.3398 28.1165 34.6086 25.9639 36.1731 25.9639Z" fill="url(#paint9_linear_110_5950)"/>
<path d="M35.7018 28.8486C36.4839 28.8486 37.1184 29.7095 37.1184 30.7714C37.1184 31.8333 36.4839 32.6951 35.7018 32.6951C34.9197 32.6951 34.2852 31.8333 34.2852 30.7714C34.2852 29.7095 34.9197 28.8486 35.7018 28.8486Z" fill="#EDF3F7"/>
<path d="M9.73047 25.0018H25.7858V21.1553H9.73047V25.0018Z" fill="url(#paint10_linear_110_5950)"/>
<path d="M9.73047 21.1553V24.7135H12.176C13.0677 24.7135 13.7919 25.5623 13.7919 26.6097V29.3153C13.7919 31.713 15.4479 33.6564 17.4912 33.6564H18.5765C20.8126 33.6564 22.4686 31.713 22.4686 29.3153V26.6087C22.4686 25.5613 23.1919 24.7135 24.0845 24.7135H25.7858V21.1553H9.73047Z" fill="url(#paint11_linear_110_5950)"/>
<path d="M26.5195 32.5711C26.6518 32.0145 26.7291 31.4089 26.7291 30.7725C26.7291 30.1351 26.6518 29.5294 26.5195 28.9728V25.9649H23.9006C23.899 25.9649 23.8974 25.9639 23.8958 25.9639C23.8942 25.9639 23.8926 25.9649 23.8902 25.9649H23.8567V25.971C22.3106 26.0068 21.0625 28.139 21.0625 30.7725C21.0625 33.4049 22.3106 35.5371 23.8567 35.5739V35.575H23.8615C23.8735 35.575 23.8838 35.5801 23.8958 35.5801C23.9069 35.5801 23.9181 35.575 23.9293 35.575H26.5195V32.5711Z" fill="url(#paint12_linear_110_5950)"/>
<path d="M26.7278 25.9639C28.2923 25.9639 29.5611 28.1165 29.5611 30.7725C29.5611 33.4275 28.2923 35.5801 26.7278 35.5801C25.1633 35.5801 23.8945 33.4275 23.8945 30.7725C23.8945 28.1165 25.1633 25.9639 26.7278 25.9639Z" fill="url(#paint13_linear_110_5950)"/>
<path d="M26.2565 28.8486C27.0385 28.8486 27.6731 29.7095 27.6731 30.7714C27.6731 31.8333 27.0385 32.6951 26.2565 32.6951C25.4744 32.6951 24.8398 31.8333 24.8398 30.7714C24.8398 29.7095 25.4744 28.8486 26.2565 28.8486Z" fill="#EDF3F7"/>
<path d="M38.0299 17.9749L36.2113 21.5747H25.7927L25.7852 25.2736C25.9395 25.248 26.093 25.2133 26.2533 25.2133C28.2601 25.2133 29.8856 27.2652 29.9185 29.8099H37.0877H41.825C41.8106 29.6514 41.787 29.496 41.787 29.3324C41.787 26.9534 43.2809 25.0241 45.1241 25.0241C46.0587 25.0241 46.9014 25.5231 47.507 26.3236V11.5391C43.6394 11.5391 40.0493 13.9764 38.0299 17.9749Z" fill="url(#paint14_linear_110_5950)"/>
<path d="M24.1949 19.2324V21.1671H7.83984V23.0789H24.1949H25.784V21.1671V19.2324H24.1949Z" fill="url(#paint15_linear_110_5950)"/>
<path d="M0.285156 23.7671H13.5072V21.4287H0.285156V23.7671Z" fill="url(#paint16_linear_110_5950)"/>
<path d="M12.5625 21.1556H22.0068V12.501H12.5625V21.1556Z" fill="url(#paint17_linear_110_5950)"/>
<path d="M2.17578 21.1556H12.5645V12.501H2.17578V21.1556Z" fill="url(#paint18_linear_110_5950)"/>
<path d="M12.5625 13.4622H22.0068V4.80762H12.5625V13.4622Z" fill="url(#paint19_linear_110_5950)"/>
<path d="M2.17578 13.4632H12.5645V4.80859H2.17578V13.4632Z" fill="url(#paint20_linear_110_5950)"/>
<path opacity="0.2" d="M3.11719 14.3369H22.9502V13.5508H3.11719V14.3369Z" fill="#231F20"/>
<path opacity="0.2" d="M3.11719 5.68159H22.9502V4.89551H3.11719V5.68159Z" fill="#231F20"/>
</g>
<defs>
<linearGradient id="paint0_linear_110_5950" x1="10.6758" y1="0" x2="49.3472" y2="11.4331" gradientUnits="userSpaceOnUse">
<stop stop-color="#3A2270"/>
<stop offset="1" stop-color="#43CCD1"/>
</linearGradient>
<linearGradient id="paint1_linear_110_5950" x1="12.5625" y1="25.002" x2="25.7647" y2="44.518" gradientUnits="userSpaceOnUse">
<stop stop-color="#3A2270"/>
<stop offset="1" stop-color="#43CCD1"/>
</linearGradient>
<linearGradient id="paint2_linear_110_5950" x1="36.634" y1="11.5282" x2="36.634" y2="21.1438" gradientUnits="userSpaceOnUse">
<stop stop-color="#ED5B26"/>
<stop offset="1" stop-color="#CA4627"/>
</linearGradient>
<linearGradient id="paint3_linear_110_5950" x1="10.6758" y1="25.9639" x2="17.3984" y2="26.7696" gradientUnits="userSpaceOnUse">
<stop stop-color="#3A2270"/>
<stop offset="1" stop-color="#43CCD1"/>
</linearGradient>
<linearGradient id="paint4_linear_110_5950" x1="13.5078" y1="25.9639" x2="20.2304" y2="26.7696" gradientUnits="userSpaceOnUse">
<stop stop-color="#3A2270"/>
<stop offset="1" stop-color="#43CCD1"/>
</linearGradient>
<linearGradient id="paint5_linear_110_5950" x1="24.8398" y1="0" x2="51.2198" y2="4.86437" gradientUnits="userSpaceOnUse">
<stop stop-color="#3A2270"/>
<stop offset="1" stop-color="#43CCD1"/>
</linearGradient>
<linearGradient id="paint6_linear_110_5950" x1="40.8945" y1="25.9639" x2="47.6171" y2="26.7696" gradientUnits="userSpaceOnUse">
<stop stop-color="#3A2270"/>
<stop offset="1" stop-color="#43CCD1"/>
</linearGradient>
<linearGradient id="paint7_linear_110_5950" x1="43.7305" y1="25.9639" x2="50.4531" y2="26.7696" gradientUnits="userSpaceOnUse">
<stop stop-color="#3A2270"/>
<stop offset="1" stop-color="#43CCD1"/>
</linearGradient>
<linearGradient id="paint8_linear_110_5950" x1="30.5078" y1="25.9639" x2="37.2304" y2="26.7696" gradientUnits="userSpaceOnUse">
<stop stop-color="#3A2270"/>
<stop offset="1" stop-color="#43CCD1"/>
</linearGradient>
<linearGradient id="paint9_linear_110_5950" x1="33.3398" y1="25.9639" x2="40.0624" y2="26.7696" gradientUnits="userSpaceOnUse">
<stop stop-color="#3A2270"/>
<stop offset="1" stop-color="#43CCD1"/>
</linearGradient>
<linearGradient id="paint10_linear_110_5950" x1="17.7492" y1="21.1509" x2="17.7492" y2="24.9972" gradientUnits="userSpaceOnUse">
<stop stop-color="#ED5B26"/>
<stop offset="1" stop-color="#CA4627"/>
</linearGradient>
<linearGradient id="paint11_linear_110_5950" x1="9.73047" y1="21.1553" x2="27.8172" y2="25.88" gradientUnits="userSpaceOnUse">
<stop stop-color="#3A2270"/>
<stop offset="1" stop-color="#43CCD1"/>
</linearGradient>
<linearGradient id="paint12_linear_110_5950" x1="21.0625" y1="25.9639" x2="27.7851" y2="26.7696" gradientUnits="userSpaceOnUse">
<stop stop-color="#3A2270"/>
<stop offset="1" stop-color="#43CCD1"/>
</linearGradient>
<linearGradient id="paint13_linear_110_5950" x1="23.8945" y1="25.9639" x2="30.6171" y2="26.7696" gradientUnits="userSpaceOnUse">
<stop stop-color="#3A2270"/>
<stop offset="1" stop-color="#43CCD1"/>
</linearGradient>
<linearGradient id="paint14_linear_110_5950" x1="36.634" y1="11.5183" x2="36.634" y2="29.7881" gradientUnits="userSpaceOnUse">
<stop stop-color="#ED5B26"/>
<stop offset="1" stop-color="#CA4627"/>
</linearGradient>
<linearGradient id="paint15_linear_110_5950" x1="7.83984" y1="19.2324" x2="19.203" y2="30.0146" gradientUnits="userSpaceOnUse">
<stop stop-color="#3A2270"/>
<stop offset="1" stop-color="#43CCD1"/>
</linearGradient>
<linearGradient id="paint16_linear_110_5950" x1="6.88882" y1="21.4261" x2="6.88882" y2="23.7643" gradientUnits="userSpaceOnUse">
<stop stop-color="#ED5B26"/>
<stop offset="1" stop-color="#CA4627"/>
</linearGradient>
<linearGradient id="paint17_linear_110_5950" x1="12.5625" y1="12.501" x2="23.3942" y2="14.9051" gradientUnits="userSpaceOnUse">
<stop stop-color="#3A2270"/>
<stop offset="1" stop-color="#43CCD1"/>
</linearGradient>
<linearGradient id="paint18_linear_110_5950" x1="2.17578" y1="12.501" x2="13.9743" y2="15.3816" gradientUnits="userSpaceOnUse">
<stop stop-color="#3A2270"/>
<stop offset="1" stop-color="#43CCD1"/>
</linearGradient>
<linearGradient id="paint19_linear_110_5950" x1="12.5625" y1="4.80762" x2="23.3942" y2="7.21178" gradientUnits="userSpaceOnUse">
<stop stop-color="#3A2270"/>
<stop offset="1" stop-color="#43CCD1"/>
</linearGradient>
<linearGradient id="paint20_linear_110_5950" x1="2.17578" y1="4.80859" x2="13.9743" y2="7.68923" gradientUnits="userSpaceOnUse">
<stop stop-color="#3A2270"/>
<stop offset="1" stop-color="#43CCD1"/>
</linearGradient>
<clipPath id="clip0_110_5950">
<rect width="49.1104" height="35.58" fill="white" transform="translate(0.285156)"/>
</clipPath>
</defs>
</svg>
