<svg width="53" height="30" viewBox="0 0 53 30" fill="none" xmlns="http://www.w3.org/2000/svg">
<g clip-path="url(#clip0_110_6019)">
<path d="M50.6923 18.8807C50.0891 18.2524 49.1212 18.2524 48.518 18.8807L45.8014 21.7544L43.0848 18.8807C42.5591 18.1661 41.5861 18.0377 40.9105 18.5938C40.235 19.15 40.1136 20.1793 40.6394 20.8939C40.7184 21.001 40.8093 21.0977 40.9105 21.1808L43.6271 24.0545L40.9105 26.9282C40.235 27.4844 40.1136 28.5137 40.6394 29.2283C41.1651 29.9429 42.1382 30.0713 42.8137 29.5152C42.9149 29.4316 43.0063 29.3354 43.0848 29.2283L45.8014 26.3546L48.518 29.2283C49.0438 29.9429 50.0168 30.0713 50.6923 29.5152C51.3678 28.959 51.4892 27.9297 50.9634 27.2151C50.8844 27.108 50.7935 27.0113 50.6923 26.9282L47.9757 24.0545L50.6923 21.1808C51.2862 20.5426 51.2862 19.5188 50.6923 18.8807Z" fill="url(#paint0_linear_110_6019)"/>
<path d="M5.24989 3.73242H31.4663C33.8262 3.73242 35.7397 5.68199 35.7397 8.08726C35.7397 10.4925 33.8262 12.4421 31.4663 12.4421H5.24989C2.89004 12.4421 0.976562 10.4925 0.976562 8.08726C0.976562 5.68199 2.89004 3.73242 5.24989 3.73242Z" fill="url(#paint1_linear_110_6019)"/>
<path d="M31.4668 19.2158H5.24996C2.89007 19.2158 0.976562 21.1658 0.976562 23.5707C0.976562 25.9755 2.89007 27.9255 5.24996 27.9255H31.4668C33.8267 27.925 35.7402 25.975 35.7397 23.5701C35.7391 21.1653 33.8267 19.2164 31.4668 19.2158Z" fill="url(#paint2_linear_110_6019)"/>
<path d="M43.6057 13.5785C44.0631 14.3739 45.0284 14.6161 45.7612 14.1199C45.9635 13.983 46.1341 13.798 46.2603 13.5785L51.8562 3.59898C52.4023 2.87258 52.3021 1.80335 51.6325 1.21102C50.9628 0.618701 49.9772 0.727322 49.4311 1.45372C49.3367 1.57932 49.2596 1.71849 49.2017 1.86727L44.9304 9.45941L44.0282 7.84141C43.4962 7.10257 42.5131 6.97132 41.832 7.54836C41.2604 8.03263 41.0706 8.8801 41.3736 9.59518L43.6057 13.5785Z" fill="url(#paint3_linear_110_6019)"/>
</g>
<defs>
<linearGradient id="paint0_linear_110_6019" x1="45.7953" y1="18.2349" x2="45.7953" y2="29.8471" gradientUnits="userSpaceOnUse">
<stop stop-color="#ED5B26"/>
<stop offset="1" stop-color="#CA4627"/>
</linearGradient>
<linearGradient id="paint1_linear_110_6019" x1="0.976563" y1="3.73242" x2="26.192" y2="24.203" gradientUnits="userSpaceOnUse">
<stop stop-color="#3A2270"/>
<stop offset="1" stop-color="#43CCD1"/>
</linearGradient>
<linearGradient id="paint2_linear_110_6019" x1="0.976563" y1="19.2158" x2="26.192" y2="39.6864" gradientUnits="userSpaceOnUse">
<stop stop-color="#3A2270"/>
<stop offset="1" stop-color="#43CCD1"/>
</linearGradient>
<linearGradient id="paint3_linear_110_6019" x1="46.7133" y1="0.813727" x2="46.7133" y2="14.3613" gradientUnits="userSpaceOnUse">
<stop stop-color="#ED5B26"/>
<stop offset="1" stop-color="#CA4627"/>
</linearGradient>
<clipPath id="clip0_110_6019">
<rect width="51.2298" height="30" fill="white" transform="translate(0.976562)"/>
</clipPath>
</defs>
</svg>
