<svg width="60" height="31" viewBox="0 0 60 31" fill="none" xmlns="http://www.w3.org/2000/svg">
<g clip-path="url(#clip0_110_5923)">
<path d="M29.7547 22.2695C32.7417 25.496 37.3136 27.5205 42.5561 27.5205C43.4705 27.5205 44.4458 27.4572 45.3602 27.3307C47.4937 29.0389 49.5663 30.2409 51.517 30.8736C51.8218 30.9368 52.1266 31.0001 52.4314 31.0001C52.6143 31.0001 52.7362 31.0001 52.9191 30.9368C53.7115 30.8103 54.3821 30.3674 54.8697 29.7348C55.6622 28.6593 55.7232 27.2674 54.9917 26.1287C54.3211 25.4327 53.9554 24.547 53.6506 23.6613C56.7595 21.1307 58.5882 17.5878 58.5882 13.9184C58.5882 6.45314 51.3341 0.316406 42.4342 0.316406C37.2527 0.316406 32.6198 2.40416 29.6328 5.56743" fill="url(#paint0_linear_110_5923)"/>
<path d="M47.7988 10.3757L41.9468 16.4492L39.0817 13.4757C38.5331 12.9063 37.6187 12.9063 37.0091 13.4757C36.4605 14.0451 36.4605 14.994 37.0091 15.6267L40.9105 19.6757C41.1543 19.9287 41.5201 20.1185 41.9468 20.1185C42.3735 20.1185 42.7393 19.992 42.9831 19.6757L49.8105 12.59C50.3591 12.0206 50.3591 11.0716 49.8105 10.4389C49.2618 9.80629 48.3475 9.74303 47.7988 10.3757Z" fill="white"/>
<path d="M32.8628 12.7168C32.8628 9.17397 29.5101 5.69438 29.5101 5.69438C26.5231 2.46785 21.9512 0.443359 16.7088 0.443359C7.80878 0.443359 0.554688 6.51683 0.554688 14.0454C0.554688 17.9046 2.50537 21.5107 5.8581 24.1046C5.98002 25.0536 5.49235 26.0025 4.88276 27.0148C4.39509 27.8372 3.7855 28.8495 4.51701 29.8617C4.76084 30.1781 5.24851 30.4311 5.67522 30.4944C5.73618 30.4944 5.73618 30.4944 5.79714 30.4944C7.19919 30.4944 11.8321 29.1025 14.0266 27.4576C14.941 27.5842 15.9163 27.6474 16.8307 27.6474C22.0122 27.6474 26.645 25.5597 29.632 22.3964C33.1067 18.0311 32.8628 16.1964 32.8628 12.7168ZM16.9526 22.0801C16.0992 22.0801 15.3677 21.3209 15.3677 20.4352C15.3677 19.5495 16.0992 18.7903 16.9526 18.7903C17.806 18.7903 18.5375 19.5495 18.5375 20.4352C18.5375 21.3842 17.806 22.0801 16.9526 22.0801ZM20.793 13.5393C20.1834 14.425 19.5738 14.8679 19.0861 15.1842C18.5375 15.5638 18.3546 15.7536 18.2937 16.6393C18.2937 17.0189 17.9279 17.3352 17.5622 17.3352H16.404C15.9773 17.3352 15.6115 16.9556 15.6725 16.5127C15.8553 14.425 16.5868 13.7291 17.5622 12.9699C17.9889 12.6536 18.2937 12.4005 18.6594 11.8944C19.0252 11.3883 19.0861 10.6923 18.7814 10.0597C18.5985 9.61683 18.0499 8.92091 16.7697 8.92091C15.1238 8.92091 14.5752 9.99642 14.4533 10.8821C14.3923 11.2617 14.0875 11.5148 13.7218 11.5148H12.5636C12.1369 11.5148 11.7711 11.1352 11.8321 10.6291C12.1369 8.35152 13.7218 6.2005 16.7697 6.2005C18.6594 6.2005 20.3053 7.14948 21.0978 8.79438C21.8903 10.4393 21.7683 12.2107 20.793 13.5393Z" fill="url(#paint1_linear_110_5923)"/>
</g>
<defs>
<linearGradient id="paint0_linear_110_5923" x1="29.6328" y1="0.316406" x2="63.2397" y2="6.76696" gradientUnits="userSpaceOnUse">
<stop stop-color="#3A2270"/>
<stop offset="1" stop-color="#43CCD1"/>
</linearGradient>
<linearGradient id="paint1_linear_110_5923" x1="16.6927" y1="0.409259" x2="16.6927" y2="30.4585" gradientUnits="userSpaceOnUse">
<stop stop-color="#ED5B26"/>
<stop offset="1" stop-color="#CA4627"/>
</linearGradient>
<clipPath id="clip0_110_5923">
<rect width="58.8062" height="31" fill="white" transform="translate(0.371094)"/>
</clipPath>
</defs>
</svg>
