<svg width="100" height="100" viewBox="0 0 100 100" fill="none" xmlns="http://www.w3.org/2000/svg">
<circle cx="50" cy="50" r="50" fill="white"/>
<g clip-path="url(#clip0_110_10575)">
<path d="M72.0621 56.9804L67.79 56.0931L65.8029 50.0796C65.1074 47.96 63.0707 46.5306 60.7856 46.5306H57.4076V43.4252C57.4076 42.2915 56.5134 41.4043 55.3709 41.4043H50.9497C49.9561 43.5731 48.5652 46.2841 46.5284 49.7838C45.6343 51.3119 43.9453 52.2977 42.1569 52.2977C40.3686 52.2977 38.6796 51.3611 37.8351 49.7838C35.7983 46.2841 34.3577 43.5731 33.4139 41.4043H28.943C27.8004 41.4043 26.9062 42.2915 26.9062 43.4252V65.2613C26.9062 66.395 27.8004 67.2822 28.943 67.2822H31.1287C31.1287 70.4369 33.7119 73 36.8912 73C40.0705 73 42.6537 70.4369 42.6537 67.2822H58.0037C58.0037 70.4369 60.5869 73 63.7662 73C66.9455 73 69.5286 70.4369 69.5286 67.2822H71.6647C72.8073 67.2822 73.7015 66.395 73.7015 65.2613V58.9027C73.6518 57.9662 73.006 57.1282 72.0621 56.9804ZM36.8912 69.944C35.4009 69.944 34.159 68.7117 34.159 67.233C34.159 65.7542 35.4009 64.5219 36.8912 64.5219C38.3815 64.5219 39.6234 65.7542 39.6234 67.233C39.6234 68.7117 38.3815 69.944 36.8912 69.944ZM57.4076 55.5509V49.5374H60.7856C61.7791 49.5374 62.6236 50.1289 62.9217 51.0654L64.4616 55.6002H57.4076V55.5509ZM63.7165 69.944C62.2262 69.944 60.9843 68.7117 60.9843 67.233C60.9843 65.7542 62.2262 64.5219 63.7165 64.5219C65.2068 64.5219 66.4487 65.7542 66.4487 67.233C66.4487 68.7117 65.2068 69.944 63.7165 69.944Z" fill="url(#paint0_linear_110_10575)"/>
<path d="M43.0895 50.0911C45.3674 46.1463 49.3289 38.8483 49.3289 35.7911C49.3289 31.501 45.813 28 41.5049 28C37.1968 28 33.7305 31.501 33.7305 35.7911C33.7305 38.8483 37.692 46.1463 39.9698 50.0911C40.6631 51.2746 42.3962 51.2746 43.0895 50.0911ZM37.89 35.7911C37.89 33.7693 39.5242 32.1421 41.5544 32.1421C43.5847 32.1421 45.2188 33.7693 45.2188 35.7911C45.2188 37.8128 43.5847 39.4401 41.5544 39.4401C39.5242 39.4401 37.89 37.8128 37.89 35.7911Z" fill="url(#paint1_linear_110_10575)"/>
</g>
<defs>
<linearGradient id="paint0_linear_110_10575" x1="26.9063" y1="41.4043" x2="78.5345" y2="56.957" gradientUnits="userSpaceOnUse">
<stop stop-color="#3A2270"/>
<stop offset="1" stop-color="#43CCD1"/>
</linearGradient>
<linearGradient id="paint1_linear_110_10575" x1="41.521" y1="27.9739" x2="41.521" y2="50.9513" gradientUnits="userSpaceOnUse">
<stop stop-color="#ED5B26"/>
<stop offset="1" stop-color="#CA4627"/>
</linearGradient>
<clipPath id="clip0_110_10575">
<rect width="47.7701" height="45" fill="white" transform="translate(26 28)"/>
</clipPath>
</defs>
</svg>
