<svg width="104" height="104" viewBox="0 0 104 104" fill="none" xmlns="http://www.w3.org/2000/svg">
<circle cx="52" cy="52" r="52" fill="#EC5A26"/>
<circle cx="52" cy="50" r="50" fill="white"/>
<g clip-path="url(#clip0_142_4)">
<path d="M74.0621 56.9804L69.79 56.0931L67.8029 50.0796C67.1074 47.96 65.0707 46.5306 62.7856 46.5306H59.4076V43.4252C59.4076 42.2915 58.5134 41.4043 57.3709 41.4043H52.9497C51.9561 43.5731 50.5652 46.2841 48.5284 49.7838C47.6343 51.3119 45.9453 52.2977 44.1569 52.2977C42.3686 52.2977 40.6796 51.3611 39.8351 49.7838C37.7983 46.2841 36.3577 43.5731 35.4139 41.4043H30.943C29.8004 41.4043 28.9062 42.2915 28.9062 43.4252V65.2613C28.9062 66.395 29.8004 67.2822 30.943 67.2822H33.1287C33.1287 70.4369 35.7119 73 38.8912 73C42.0705 73 44.6537 70.4369 44.6537 67.2822H60.0037C60.0037 70.4369 62.5869 73 65.7662 73C68.9455 73 71.5286 70.4369 71.5286 67.2822H73.6647C74.8073 67.2822 75.7015 66.395 75.7015 65.2613V58.9027C75.6518 57.9662 75.006 57.1282 74.0621 56.9804ZM38.8912 69.944C37.4009 69.944 36.159 68.7117 36.159 67.233C36.159 65.7542 37.4009 64.5219 38.8912 64.5219C40.3815 64.5219 41.6234 65.7542 41.6234 67.233C41.6234 68.7117 40.3815 69.944 38.8912 69.944ZM59.4076 55.5509V49.5374H62.7856C63.7791 49.5374 64.6236 50.1289 64.9217 51.0654L66.4616 55.6002H59.4076V55.5509ZM65.7165 69.944C64.2262 69.944 62.9843 68.7117 62.9843 67.233C62.9843 65.7542 64.2262 64.5219 65.7165 64.5219C67.2068 64.5219 68.4487 65.7542 68.4487 67.233C68.4487 68.7117 67.2068 69.944 65.7165 69.944Z" fill="url(#paint0_linear_142_4)"/>
<path d="M45.0895 50.0911C47.3674 46.1463 51.3289 38.8483 51.3289 35.7911C51.3289 31.501 47.813 28 43.5049 28C39.1968 28 35.7305 31.501 35.7305 35.7911C35.7305 38.8483 39.692 46.1463 41.9698 50.0911C42.6631 51.2746 44.3962 51.2746 45.0895 50.0911ZM39.89 35.7911C39.89 33.7693 41.5242 32.1421 43.5544 32.1421C45.5847 32.1421 47.2188 33.7693 47.2188 35.7911C47.2188 37.8128 45.5847 39.4401 43.5544 39.4401C41.5242 39.4401 39.89 37.8128 39.89 35.7911Z" fill="url(#paint1_linear_142_4)"/>
</g>
<defs>
<linearGradient id="paint0_linear_142_4" x1="28.9063" y1="41.4043" x2="80.5345" y2="56.957" gradientUnits="userSpaceOnUse">
<stop stop-color="#3A2270"/>
<stop offset="1" stop-color="#43CCD1"/>
</linearGradient>
<linearGradient id="paint1_linear_142_4" x1="43.521" y1="27.9739" x2="43.521" y2="50.9513" gradientUnits="userSpaceOnUse">
<stop stop-color="#ED5B26"/>
<stop offset="1" stop-color="#CA4627"/>
</linearGradient>
<clipPath id="clip0_142_4">
<rect width="47.7701" height="45" fill="white" transform="translate(28 28)"/>
</clipPath>
</defs>
</svg>
