<svg xmlns="http://www.w3.org/2000/svg" width="21.659" height="24" viewBox="0 0 21.659 24"><path d="M20.807,0a2.632,2.632,0,0,1,2.607,2.475V24l-2.677-2.273-1.47-1.338-1.6-1.4.67,2.205H4.295a2.481,2.481,0,0,1-2.54-2.476V2.48A2.531,2.531,0,0,1,4.3,0H20.8ZM14.689,5.683h-.03l-.2.2a8.062,8.062,0,0,1,3.076,1.537,10.886,10.886,0,0,0-3.744-1.137,10.267,10.267,0,0,0-2.475,0h-.2a8.91,8.91,0,0,0-2.81.735c-.467.2-.735.336-.735.336a7.133,7.133,0,0,1,3.21-1.537l-.135-.135a6.007,6.007,0,0,0-3.477,1.27,15.649,15.649,0,0,0-1.805,7.02A4.363,4.363,0,0,0,9.1,15.777s.4-.533.805-1a3.957,3.957,0,0,1-2.14-1.4,3.339,3.339,0,0,1,.335.2h.06a.079.079,0,0,1,.06.03v.006a.077.077,0,0,0,.06.03c.33.136.66.27.93.4a8.18,8.18,0,0,0,1.8.536,10.261,10.261,0,0,0,3.21,0,9.31,9.31,0,0,0,1.8-.535,14.449,14.449,0,0,0,1.4-.737,3.974,3.974,0,0,1-2.205,1.4c.33.466.8,1,.8,1a5.22,5.22,0,0,0,3.87-1.726,15.616,15.616,0,0,0-1.815-7.02A6.015,6.015,0,0,0,14.631,5.7l.056-.02Zm.168,4.413a1.339,1.339,0,1,1-1.27,1.341,1.3,1.3,0,0,1,1.27-1.341Zm-4.543,0A1.339,1.339,0,1,1,9.04,11.437,1.3,1.3,0,0,1,10.314,10.1Z" transform="translate(-1.755)" fill="#030303"/></svg>