<svg xmlns="http://www.w3.org/2000/svg" width="20" height="16.667" viewBox="0 0 20 16.667"><path d="M20,4.95a5.375,5.375,0,0,1-.747,1.07A5.513,5.513,0,0,1,17.9,7.157q.022.178.033.334a12.135,12.135,0,0,1-.858,4.649,12.241,12.241,0,0,1-4.872,6.053,12.809,12.809,0,0,1-7.626,1.393A8.756,8.756,0,0,1,0,17.815a8.538,8.538,0,0,0,6.109-1.762A4.209,4.209,0,0,1,2.23,13.177a2.609,2.609,0,0,0,.869.044,8.089,8.089,0,0,0,.981-.134,4.6,4.6,0,0,1-2.787-2.163A4.662,4.662,0,0,1,.825,8.874a3.917,3.917,0,0,0,1.851.557A4.781,4.781,0,0,1,.858,6.476a5.471,5.471,0,0,1,.5-2.664A14.013,14.013,0,0,0,6.121,7.379a9.861,9.861,0,0,0,3.734.781,4.991,4.991,0,0,1,.5-3.166,4.313,4.313,0,0,1,2.575-1.873A3.8,3.8,0,0,1,16.744,4.3,6.787,6.787,0,0,0,19.4,3.321a4.026,4.026,0,0,1-1.828,2.363A11.593,11.593,0,0,0,20,4.949Z" transform="translate(0 -2.999)" fill="#030303"/></svg>