<svg xmlns="http://www.w3.org/2000/svg" width="30" height="30" viewBox="0 0 30 30"><g style="isolation:isolate"><path d="M30,15A15,15,0,1,1,15,0,15,15,0,0,1,30,15Z" fill="#2081e2"/><path d="M24.618,37.055l.065-.1,3.9-6.1a.133.133,0,0,1,.234.017c.652,1.461,1.214,3.278.951,4.409A6.891,6.891,0,0,1,29,36.953c-.045.085-.094.168-.146.248a.133.133,0,0,1-.111.059H24.732A.133.133,0,0,1,24.618,37.055Z" transform="translate(-17.218 -21.551)" fill="#fff"/><path d="M39.493,30.638V31.6a.139.139,0,0,1-.083.126,4.8,4.8,0,0,0-1.766,1.2c-1.1,1.527-1.936,3.711-3.81,3.711H26.016A5.024,5.024,0,0,1,21,31.611v-.089a.134.134,0,0,1,.134-.134h4.358a.148.148,0,0,1,.142.165,1.488,1.488,0,0,0,.156.837,1.533,1.533,0,0,0,1.375.854h2.158V31.558H27.189a.137.137,0,0,1-.111-.216c.023-.035.049-.072.077-.114.2-.287.49-.732.777-1.239a9.7,9.7,0,0,0,.538-1.074c.031-.066.055-.134.08-.2.042-.117.085-.227.116-.336.031-.092.055-.19.08-.28a4.341,4.341,0,0,0,.1-.983c0-.134-.006-.274-.018-.408s-.025-.293-.043-.439c-.012-.129-.035-.257-.06-.391-.031-.2-.074-.39-.123-.586l-.017-.074c-.037-.134-.068-.262-.111-.4-.122-.421-.262-.831-.41-1.214-.054-.153-.116-.3-.177-.445-.091-.22-.183-.421-.268-.61-.043-.086-.08-.165-.117-.245s-.085-.182-.128-.268c-.031-.066-.066-.128-.091-.19l-.264-.487a.086.086,0,0,1,.1-.125l1.649.447h0l.006,0,.217.06.239.068.088.025v-.98A.852.852,0,0,1,30.17,20a.837.837,0,0,1,.6.251.862.862,0,0,1,.248.606v1.455l.176.049a.141.141,0,0,1,.04.02l.183.139c.062.049.128.109.208.171.159.128.348.293.556.482.055.048.109.1.159.146.268.25.569.542.855.866.08.091.159.183.239.28s.165.2.239.293c.1.129.2.264.293.4.043.066.092.134.134.2.117.177.22.361.319.544.042.085.085.177.122.268a3.921,3.921,0,0,1,.251.744.931.931,0,0,1,.035.165V27.1a1.411,1.411,0,0,1,.031.233,2.489,2.489,0,0,1-.043.769,2.8,2.8,0,0,1-.091.322c-.037.1-.074.214-.122.317a4.3,4.3,0,0,1-.331.629c-.042.074-.091.153-.14.227s-.109.153-.159.225c-.068.092-.14.19-.214.276a2.925,2.925,0,0,1-.208.262c-.1.122-.2.237-.305.348-.062.072-.128.146-.2.213s-.134.14-.2.2c-.1.1-.19.183-.262.25l-.169.156a.138.138,0,0,1-.091.034H31.017v1.684h1.652a1.546,1.546,0,0,0,1-.371,12.051,12.051,0,0,0,1.022-1,.128.128,0,0,1,.063-.039l4.563-1.319A.135.135,0,0,1,39.493,30.638Z" transform="translate(-14.7 -14)" fill="#fff"/></g></svg>