<svg width="18" height="18" viewBox="0 0 18 18" fill="none" xmlns="http://www.w3.org/2000/svg"><path opacity="0.9" d="M5.90341 14.3326C4.94994 14.3326 4.17849 15.0993 4.17849 16.0364C4.17849 16.9734 4.94994 17.7401 5.90341 17.7401C6.85689 17.7401 7.637 16.9734 7.637 16.0364C7.637 15.0993 6.85689 14.3326 5.90341 14.3326ZM14.5714 14.3326C13.6179 14.3326 12.8464 15.0993 12.8464 16.0364C12.8464 16.9734 13.6179 17.7401 14.5714 17.7401C15.5248 17.7401 16.305 16.9734 16.305 16.0364C16.305 15.0993 15.5248 14.3326 14.5714 14.3326ZM16.305 12.6289C16.305 12.1604 15.9149 11.777 15.4382 11.777H5.90341L6.85689 10.0733H13.3145C13.9646 10.0733 14.5367 9.72402 14.8314 9.19586L17.6398 3.96537C17.7458 3.76839 17.7688 3.53843 17.7039 3.32495C17.6391 3.11147 17.4916 2.93154 17.2931 2.82386C17.1926 2.76975 17.0821 2.73586 16.9681 2.72415C16.8542 2.71244 16.7389 2.72316 16.6292 2.75567C16.5195 2.78818 16.4174 2.84183 16.329 2.91351C16.2406 2.98518 16.1676 3.07344 16.1143 3.17313L13.3145 8.36954H7.22961L3.77109 1.18827C3.70143 1.04286 3.59106 0.91996 3.4529 0.833967C3.31474 0.747973 3.15451 0.70244 2.99098 0.702699H1.56943C1.09269 0.702699 0.702637 1.08604 0.702637 1.55457C0.702637 2.0231 1.09269 2.40644 1.56943 2.40644H2.43623L5.55669 8.87215L4.38652 10.9507C3.75376 12.0922 4.58588 13.4808 5.90341 13.4808H15.4382C15.9149 13.4808 16.305 13.0974 16.305 12.6289ZM9.62197 1.30753C9.70216 1.22856 9.79741 1.1659 9.90227 1.12315C10.0071 1.08041 10.1195 1.0584 10.2331 1.0584C10.3466 1.0584 10.459 1.08041 10.5638 1.12315C10.6687 1.1659 10.764 1.22856 10.8441 1.30753L13.0892 3.51387C13.4272 3.8461 13.4272 4.38278 13.0892 4.71501L10.8441 6.92136C10.7639 7.00023 10.6686 7.06279 10.5638 7.10547C10.4589 7.14816 10.3465 7.17013 10.2331 7.17013C10.1196 7.17013 10.0072 7.14816 9.90234 7.10547C9.79749 7.06279 9.70222 7.00023 9.62197 6.92136C9.54172 6.84249 9.47806 6.74886 9.43463 6.64582C9.3912 6.54277 9.36884 6.43233 9.36884 6.32079C9.36884 6.20926 9.3912 6.09881 9.43463 5.99577C9.47806 5.89272 9.54172 5.79909 9.62197 5.72022L10.3847 4.96206H7.637C7.16027 4.96206 6.77021 4.57871 6.77021 4.11018C6.77021 3.64166 7.16027 3.25831 7.637 3.25831H10.3847L9.62197 2.50867C9.54161 2.42986 9.47786 2.33625 9.43437 2.23319C9.39087 2.13014 9.36848 2.01967 9.36848 1.9081C9.36848 1.79653 9.39087 1.68606 9.43437 1.583C9.47786 1.47995 9.54161 1.38634 9.62197 1.30753Z" fill="#92C748"/></svg>