<svg width="36" height="34" viewBox="0 0 36 34" fill="none" xmlns="http://www.w3.org/2000/svg">
<path d="M33.8847 1L20.3699 11L22.8831 5.10667L33.8847 1Z" fill="#E17726" stroke="#E17726" stroke-width="0.25" stroke-linecap="round" stroke-linejoin="round"/>
<path d="M2.71069 1L16.1052 11.0933L13.7124 5.10666L2.71069 1Z" fill="#E27625" stroke="#E27625" stroke-width="0.25" stroke-linecap="round" stroke-linejoin="round"/>
<path d="M29.0183 24.1865L25.4224 29.6799L33.1222 31.7999L35.3279 24.3066L29.0183 24.1865Z" fill="#E27625" stroke="#E27625" stroke-width="0.25" stroke-linecap="round" stroke-linejoin="round"/>
<path d="M1.28076 24.3066L3.47306 31.7999L11.1595 29.6799L7.57695 24.1865L1.28076 24.3066Z" fill="#E27625" stroke="#E27625" stroke-width="0.25" stroke-linecap="round" stroke-linejoin="round"/>
<path d="M10.7452 14.9067L8.60645 18.1333L16.226 18.48L15.9721 10.28L10.7452 14.9067Z" fill="#E27625" stroke="#E27625" stroke-width="0.25" stroke-linecap="round" stroke-linejoin="round"/>
<path d="M25.8506 14.9067L20.5437 10.1868L20.3699 18.4801L27.9894 18.1334L25.8506 14.9067Z" fill="#E27625" stroke="#E27625" stroke-width="0.25" stroke-linecap="round" stroke-linejoin="round"/>
<path d="M11.1597 29.6798L15.7715 27.4532L11.8013 24.3599L11.1597 29.6798Z" fill="#E27625" stroke="#E27625" stroke-width="0.25" stroke-linecap="round" stroke-linejoin="round"/>
<path d="M20.8245 27.4532L25.4229 29.6798L24.7946 24.3599L20.8245 27.4532Z" fill="#E27625" stroke="#E27625" stroke-width="0.25" stroke-linecap="round" stroke-linejoin="round"/>
<path d="M25.4229 29.68L20.8245 27.4534L21.1987 30.44L21.1586 31.7067L25.4229 29.68Z" fill="#D5BFB2" stroke="#D5BFB2" stroke-width="0.25" stroke-linecap="round" stroke-linejoin="round"/>
<path d="M11.1597 29.68L15.4374 31.7067L15.4106 30.44L15.7715 27.4534L11.1597 29.68Z" fill="#D5BFB2" stroke="#D5BFB2" stroke-width="0.25" stroke-linecap="round" stroke-linejoin="round"/>
<path d="M15.517 22.3866L11.6938 21.2666L14.3941 20.0266L15.517 22.3866Z" fill="#233447" stroke="#233447" stroke-width="0.25" stroke-linecap="round" stroke-linejoin="round"/>
<path d="M21.0784 22.3866L22.2013 20.0266L24.9149 21.2666L21.0784 22.3866Z" fill="#233447" stroke="#233447" stroke-width="0.25" stroke-linecap="round" stroke-linejoin="round"/>
<path d="M11.1594 29.6799L11.8278 24.1865L7.5769 24.3066L11.1594 29.6799Z" fill="#CC6228" stroke="#CC6228" stroke-width="0.25" stroke-linecap="round" stroke-linejoin="round"/>
<path d="M24.7676 24.1865L25.4226 29.6799L29.0185 24.3066L24.7676 24.1865Z" fill="#CC6228" stroke="#CC6228" stroke-width="0.25" stroke-linecap="round" stroke-linejoin="round"/>
<path d="M27.9894 18.1333L20.3699 18.48L21.0783 22.3867L22.2013 20.0266L24.9149 21.2667L27.9894 18.1333Z" fill="#CC6228" stroke="#CC6228" stroke-width="0.25" stroke-linecap="round" stroke-linejoin="round"/>
<path d="M11.6944 21.2667L14.3946 20.0266L15.5176 22.3867L16.226 18.48L8.60645 18.1333L11.6944 21.2667Z" fill="#CC6228" stroke="#CC6228" stroke-width="0.25" stroke-linecap="round" stroke-linejoin="round"/>
<path d="M8.60645 18.1333L11.8014 24.36L11.6943 21.2667L8.60645 18.1333Z" fill="#E27525" stroke="#E27525" stroke-width="0.25" stroke-linecap="round" stroke-linejoin="round"/>
<path d="M24.915 21.2667L24.7947 24.36L27.9896 18.1333L24.915 21.2667Z" fill="#E27525" stroke="#E27525" stroke-width="0.25" stroke-linecap="round" stroke-linejoin="round"/>
<path d="M16.2259 18.48L15.5173 22.3867L16.413 27L16.6135 20.92L16.2259 18.48Z" fill="#E27525" stroke="#E27525" stroke-width="0.25" stroke-linecap="round" stroke-linejoin="round"/>
<path d="M20.37 18.48L19.9956 20.9067L20.1828 27L21.0784 22.3867L20.37 18.48Z" fill="#E27525" stroke="#E27525" stroke-width="0.25" stroke-linecap="round" stroke-linejoin="round"/>
<path d="M21.078 22.3867L20.1824 26.9999L20.824 27.4533L24.7943 24.3599L24.9146 21.2666L21.078 22.3867Z" fill="#F5841F" stroke="#F5841F" stroke-width="0.25" stroke-linecap="round" stroke-linejoin="round"/>
<path d="M11.6938 21.2666L11.8009 24.3599L15.771 27.4533L16.4127 26.9999L15.517 22.3867L11.6938 21.2666Z" fill="#F5841F" stroke="#F5841F" stroke-width="0.25" stroke-linecap="round" stroke-linejoin="round"/>
<path d="M21.1587 31.7066L21.1988 30.4399L20.8513 30.1466H15.7448L15.4106 30.4399L15.4374 31.7066L11.1597 29.6799L12.6568 30.9066L15.6913 33H20.8913L23.9392 30.9066L25.4229 29.6799L21.1587 31.7066Z" fill="#C0AC9D" stroke="#C0AC9D" stroke-width="0.25" stroke-linecap="round" stroke-linejoin="round"/>
<path d="M20.8243 27.4533L20.1826 27H16.4129L15.7714 27.4533L15.4104 30.44L15.7446 30.1466H20.8511L21.1986 30.44L20.8243 27.4533Z" fill="#161616" stroke="#161616" stroke-width="0.25" stroke-linecap="round" stroke-linejoin="round"/>
<path d="M34.4594 11.6533L35.5958 6.13333L33.8847 1L20.8245 10.6667L25.8506 14.9066L32.9489 16.9733L34.513 15.1467L33.8312 14.6533L34.9139 13.6667L34.0852 13.0267L35.168 12.2L34.4594 11.6533Z" fill="#763E1A" stroke="#763E1A" stroke-width="0.25" stroke-linecap="round" stroke-linejoin="round"/>
<path d="M1 6.13333L2.14962 11.6533L1.4144 12.2L2.51055 13.0267L1.68175 13.6667L2.76453 14.6533L2.08278 15.1467L3.64681 16.9733L10.7451 14.9066L15.7713 10.6667L2.71107 1L1 6.13333Z" fill="#763E1A" stroke="#763E1A" stroke-width="0.25" stroke-linecap="round" stroke-linejoin="round"/>
<path d="M32.949 16.9734L25.8507 14.9067L27.9896 18.1334L24.7947 24.36L29.0189 24.3067H35.3284L32.949 16.9734Z" fill="#F5841F" stroke="#F5841F" stroke-width="0.25" stroke-linecap="round" stroke-linejoin="round"/>
<path d="M10.745 14.9067L3.64684 16.9734L1.28076 24.3067H7.57695L11.8011 24.36L8.60626 18.1334L10.745 14.9067Z" fill="#F5841F" stroke="#F5841F" stroke-width="0.25" stroke-linecap="round" stroke-linejoin="round"/>
<path d="M20.3698 18.48L20.8243 10.6666L22.8829 5.10669H13.7126L15.7712 10.6666L16.2257 18.48L16.3995 20.9333L16.4129 27H20.1826L20.196 20.9333L20.3698 18.48Z" fill="#F5841F" stroke="#F5841F" stroke-width="0.25" stroke-linecap="round" stroke-linejoin="round"/>
</svg>
