<svg width="19" height="34" viewBox="0 0 19 34" fill="none" xmlns="http://www.w3.org/2000/svg">
<path d="M3.62872 6.78045C3.34074 7.06407 3.15942 7.40046 3.01266 7.7566C2.76393 8.36717 2.52885 8.98891 2.3983 9.63209C2.30103 10.1127 2.15298 10.5872 2.13891 11.0875C2.12611 11.5501 1.97849 11.9886 1.78266 12.4035C1.66449 12.6545 1.4789 12.8326 1.19092 12.8755C0.84961 12.9231 0.638852 12.7644 0.584669 12.4228C0.56675 12.3108 0.570163 12.1864 0.473743 12.1066C-0.103923 11.6286 0.0961697 11.0819 0.3257 10.5271C0.496355 10.1127 0.851316 9.8299 1.0689 9.44459C1.39904 8.85429 1.64533 8.22039 1.80058 7.56137C1.92857 7.03146 2.04291 6.49769 2.1773 5.96949C2.30529 5.45889 2.74345 5.30957 3.15857 5.62194C3.22171 5.66914 3.28656 5.71634 3.34543 5.7674C3.52334 5.91886 3.6829 5.93559 3.82881 5.71977C3.8691 5.66124 3.92148 5.61215 3.98238 5.57586C4.04327 5.53958 4.11124 5.51695 4.18164 5.50952C4.45469 5.47648 4.70384 5.38295 4.95556 5.2761C5.36897 5.10061 5.69748 5.33188 5.70345 5.78327C5.71113 6.36038 5.44192 6.84996 5.21367 7.35455C4.57969 8.75806 4.15988 10.2208 4.08309 11.7702C4.06304 12.1791 4.18804 12.5708 4.22302 12.9716C4.2571 13.2876 4.21585 13.6072 4.10271 13.904C3.97472 14.2322 3.67906 14.4159 3.33477 14.3528C3.03394 14.2959 2.73664 14.2216 2.44438 14.1301C2.14573 14.0379 2.01774 13.8551 2.01433 13.5406C2.01091 13.214 2.03651 12.8875 2.16962 12.5829C2.63636 11.514 2.9269 10.3903 3.18886 9.25879C3.35482 8.54138 3.56643 7.83211 3.60611 7.08981C3.61165 6.98855 3.62104 6.88429 3.62872 6.78045Z" fill="white"/>
<path d="M10.8417 5.77509C10.7875 5.98405 10.927 6.14496 10.9838 6.32474C11.0725 6.6148 11.055 6.86623 10.872 7.12111C10.6669 7.40755 10.539 7.74251 10.5008 8.09339C10.3493 9.47558 10.2709 10.8649 10.2661 12.2554C10.2602 12.9874 10.4172 13.7006 10.5848 14.4115C10.6625 14.7424 10.7086 15.0882 10.6557 15.4323C10.5925 15.8421 10.3912 16.0129 9.98414 15.9498C9.69446 15.9047 9.49138 15.9781 9.28019 16.1806C8.83308 16.6097 8.13595 16.5145 7.61631 15.9953C7.26092 15.6413 7.1709 15.244 7.33814 14.7673C7.56255 14.1271 7.86845 13.5229 8.12017 12.8948C8.58136 11.744 8.73367 10.5348 8.74775 9.3021C8.75675 8.51916 8.71871 7.73638 8.63384 6.95806C8.6108 6.74781 8.57795 6.53799 8.48707 6.34448C8.24688 5.82958 8.42692 5.37433 8.67479 4.92852C8.73196 4.82512 8.8207 4.77406 8.94272 4.74745C9.30366 4.6685 9.668 4.65692 10.0349 4.64147C10.3237 4.62946 10.4778 4.8234 10.5695 5.06754C10.6403 5.25591 10.6881 5.45371 10.7461 5.64551L10.8417 5.77509Z" fill="white"/>
<path d="M6.22979 5.23843C6.33005 5.04577 6.52076 4.9325 6.75541 4.88616C6.9273 4.85466 7.09448 4.80116 7.25286 4.72697C7.51525 4.60125 7.76483 4.68063 7.99905 4.82137C8.13899 4.90718 8.19274 5.04363 8.17781 5.20754C8.14496 5.56367 8.13515 5.91423 8.2977 6.25105C8.33523 6.33227 8.35185 6.42168 8.34603 6.51105C8.34022 6.60043 8.31215 6.6869 8.26442 6.76251C7.79512 7.51983 7.67054 8.38914 7.44272 9.2267C7.07922 10.562 6.74773 11.9016 6.69056 13.2918C6.66837 13.8281 6.66283 14.3647 6.67392 14.9017C6.68757 15.6212 6.19395 16.0306 5.48275 15.8821C5.14144 15.8109 4.83981 15.656 4.55141 15.4732C4.47231 15.4249 4.40633 15.3577 4.35935 15.2775C4.31238 15.1973 4.28587 15.1067 4.2822 15.0137C4.27064 14.7589 4.29215 14.5038 4.34619 14.2546C4.50442 13.452 4.73843 12.6664 5.04502 11.9084C5.63335 10.435 5.93243 8.89245 6.0233 7.3113C6.04164 6.99035 5.96442 6.66468 5.94224 6.34073C5.90939 5.88204 5.99258 5.57654 6.22979 5.23843Z" fill="white"/>
<path d="M10.2507 24.4162C10.1227 24.6212 9.92644 24.6775 9.71056 24.5818C9.39101 24.4406 9.08127 24.4415 8.74124 24.5118C8.21861 24.62 7.92509 24.3342 8.06801 23.836C8.4042 22.6655 8.25616 21.5001 8.09318 20.3326C7.97074 19.453 7.8372 18.5756 7.80307 17.6861C7.77363 16.9391 8.30735 16.5053 9.01173 16.7267C9.21438 16.7902 9.36925 16.7503 9.50919 16.6005C9.58086 16.5237 9.65723 16.4516 9.73274 16.3783C9.92814 16.189 10.1568 16.117 10.4043 16.244C10.6325 16.3611 10.7008 16.5872 10.6841 16.8275C10.6423 17.3276 10.5566 17.8229 10.4282 18.3078C10.3198 18.7429 10.2052 19.1766 10.0843 19.6088C9.8218 20.5152 9.78039 21.4719 9.96356 22.3978C10.034 22.7522 10.1619 23.0869 10.2494 23.4306C10.3253 23.7343 10.5101 24.0845 10.2507 24.4162Z" fill="white"/>
<path d="M10.8419 5.77499L10.7446 5.64627C10.9293 5.63296 11.0134 5.51754 11.091 5.35707C11.1951 5.13995 11.4289 5.09276 11.6427 5.0447C11.9754 4.96961 12.2775 4.87779 12.542 4.61562C12.9571 4.20285 13.3812 4.32128 13.5762 4.88423C13.7635 5.42357 13.8748 5.98652 13.9721 6.54947C14.0792 7.15604 14.2856 7.74053 14.583 8.27908C14.7033 8.50461 14.8797 8.69489 15.095 8.8313C15.2742 8.94018 15.4415 9.06775 15.5942 9.21189C15.8502 9.46548 15.8659 9.74953 15.7222 10.0576C15.5908 10.3434 15.3646 10.4802 15.0498 10.4511C14.7857 10.427 14.6304 10.5952 14.4811 10.7699C14.3842 10.8831 14.3079 11.0123 14.1876 11.1058C13.8556 11.3633 13.5442 11.2637 13.4234 10.8604C13.2566 10.3026 13.2033 9.72206 13.0821 9.15525C12.9392 8.49405 12.6768 7.91093 12.2289 7.40205C11.9208 7.05492 11.6316 6.6915 11.2958 6.3684C11.1712 6.24869 11.042 6.1264 11.0275 5.93074C11.0185 5.82733 10.9362 5.78829 10.8419 5.77499Z" fill="white"/>
<path d="M7.96408 24.9427C8.08055 24.7355 8.26955 24.7217 8.43594 24.8337C8.8374 25.104 9.22735 25.0912 9.64631 24.8826C9.79051 24.8101 9.96628 24.7887 10.1301 24.7724C10.4143 24.7445 10.5427 24.8844 10.5004 25.1658C10.4657 25.4009 10.4085 25.6321 10.3298 25.8562C10.0943 26.5234 9.93812 27.2074 9.9458 27.9218C9.94922 28.2157 10.0153 28.4959 10.0934 28.7769C10.2018 29.1682 10.0051 29.4051 9.61601 29.3C9.26447 29.2043 8.98545 29.2352 8.68168 29.4407C8.42997 29.6123 8.12364 29.4034 8.18806 29.109C8.36298 28.3067 8.09847 27.5588 7.95938 26.792C7.87192 26.3102 7.71919 25.833 7.8075 25.3332C7.82451 25.1914 7.87853 25.0567 7.96408 24.9427Z" fill="white"/>
<path d="M10.6021 1.50482C10.4032 1.74897 10.2044 1.89785 9.93608 1.9339C9.60494 1.97075 9.28646 2.08285 9.00474 2.26171C8.71633 2.44965 8.41982 2.39516 8.13994 2.21881C7.96289 2.10639 7.79437 1.97895 7.61219 1.87554C7.08615 1.58077 6.5648 1.67517 6.0554 1.92403C5.93116 1.98807 5.79839 2.03373 5.66119 2.05962C5.46067 2.0948 5.30622 2.01113 5.24777 1.82148C5.14397 1.50331 5.09646 1.16929 5.10741 0.834604C5.13002 0.378495 5.37832 0.1528 5.8408 0.163527C6.09353 0.17333 6.3466 0.169606 6.59893 0.152371C6.75252 0.139069 6.88691 0.191845 7.02002 0.269508C8.12928 0.91913 8.16938 0.948308 9.38146 0.58488C9.92542 0.421402 10.2693 0.619207 10.5918 0.998081C10.7548 1.18945 10.7066 1.3688 10.6021 1.50482Z" fill="white"/>
<path d="M14.7649 10.9485C15.0162 10.698 15.3677 10.6297 15.7615 10.6911C16.0892 10.7404 16.2368 10.9486 16.2965 11.2553C16.4313 11.9419 16.6485 12.5971 16.9975 13.2063C17.0725 13.3458 17.1291 13.4945 17.1656 13.6487C17.2454 13.9538 17.1093 14.1795 16.8021 14.231C16.5796 14.2751 16.361 14.3374 16.1485 14.4172C15.7718 14.5459 15.4403 14.346 15.3805 13.9478C15.3498 13.7466 15.3669 13.5445 15.3805 13.3424C15.4147 12.8275 15.3571 12.3649 14.8912 12.0092C14.5337 11.7376 14.5076 11.3158 14.7649 10.9485Z" fill="white"/>
<path d="M11.7184 2.24799C11.7628 2.28761 11.804 2.33065 11.8417 2.37671C12.0354 2.63802 12.2517 2.84398 12.567 2.98772C13.0436 3.20612 13.1745 3.77421 12.89 4.10331C12.794 4.2153 12.6767 4.29554 12.5299 4.29296C12.1544 4.28653 11.8413 4.43585 11.5311 4.63622C10.9373 5.01639 10.6194 4.86921 10.4419 4.17153C10.3084 3.64549 10.2474 3.11687 10.3455 2.57838C10.421 2.16303 10.5162 2.08494 10.939 2.06349C11.256 2.04847 11.5171 2.10554 11.7184 2.24799Z" fill="white"/>
<path d="M5.69599 4.49549C5.5424 4.37363 5.45025 4.15222 5.45409 3.89478C5.45793 3.63733 5.42166 3.40305 5.2284 3.19452C5.0539 3.00659 5.1243 2.64745 5.36748 2.53761C5.90931 2.29175 6.46393 2.06047 7.07957 2.1287C7.52924 2.17847 7.71611 2.48826 7.5254 2.90103C7.37693 3.22241 7.36584 3.54079 7.39528 3.87761C7.43538 4.33801 7.17258 4.59589 6.71266 4.54225C6.54804 4.52187 6.38096 4.53888 6.22374 4.59203C6.00871 4.66325 5.90717 4.64395 5.69599 4.49549Z" fill="white"/>
<path d="M9.5495 32.5609C9.32851 32.8677 9.03114 32.9394 8.74615 33.0029C8.57037 33.0415 8.46542 32.9033 8.43129 32.7227C8.38649 32.485 8.42916 32.2486 8.44153 32.013C8.45983 31.5741 8.43683 31.1345 8.37284 30.7C8.32122 30.3139 8.3225 29.92 8.68898 29.6492C8.91253 29.484 9.14505 29.3961 9.41895 29.5329C9.53 29.5828 9.64398 29.6258 9.76026 29.6617C10.0679 29.7689 10.1711 29.92 10.0427 30.2203C9.84388 30.6854 9.78373 31.1574 9.80335 31.6577C9.81658 31.9967 9.6984 32.3155 9.5495 32.5609Z" fill="white"/>
<path d="M16.4898 14.8097C16.6519 14.6102 16.9655 14.4441 17.3256 14.3738C17.6242 14.3154 18.0163 14.599 18.0935 14.9217C18.1236 15.0677 18.1395 15.2163 18.1409 15.3654C18.1532 15.6863 18.2155 15.9905 18.3755 16.2733C18.5585 16.5964 18.5317 16.871 18.3111 17.0516C18.131 17.1997 17.7603 17.1718 17.5363 16.9658C17.3448 16.7903 17.1613 16.5994 17.067 16.3454C16.9693 16.0772 16.7773 15.8991 16.5508 15.7365C16.2108 15.4928 16.1775 15.2276 16.4898 14.8097Z" fill="white"/>
<path d="M7.86197 2.86377C8.00105 2.67926 8.18109 2.55784 8.38929 2.64451C8.73871 2.78911 9.03565 2.66725 9.34283 2.53381C9.70035 2.37848 9.82621 2.44199 9.93713 2.814C9.99426 3.0173 10.0182 3.22858 10.008 3.43959C9.98577 4.1806 9.52884 4.50756 8.81337 4.29045C8.67002 4.24754 8.53904 4.28659 8.40892 4.3488C8.02494 4.53202 7.71307 4.39171 7.64737 3.97036C7.58315 3.58753 7.65942 3.19427 7.86197 2.86377Z" fill="white"/>
<path d="M1.45237 15.609C1.18017 15.4022 1.02061 15.0409 0.805588 14.7251C0.666078 14.5196 0.520169 14.336 0.31325 14.1914C-0.0127 13.9631 -0.0852284 13.5877 0.099932 13.2358C0.218963 13.0114 0.362739 12.9612 0.592269 13.0642C0.8218 13.1672 1.04109 13.2315 1.29921 13.15C1.36193 13.1289 1.42908 13.1247 1.49392 13.1379C1.55876 13.1511 1.61902 13.1811 1.66866 13.2251C1.71831 13.2691 1.75559 13.3254 1.77678 13.3884C1.79797 13.4515 1.80233 13.519 1.78941 13.5842C1.69811 14.0764 1.7668 14.5248 2.04155 14.9431C2.08434 15.0198 2.11595 15.1024 2.13541 15.1881C2.2041 15.4202 2.10683 15.6198 1.94343 15.7524C1.78003 15.8849 1.6371 15.7279 1.45237 15.609Z" fill="white"/>
<path d="M6.64525 18.0461C6.45839 18.3036 6.1431 18.3533 5.95965 18.089C5.68496 17.6962 5.32673 17.3698 4.91097 17.1335C4.66054 16.9867 4.54577 16.7151 4.45106 16.447C4.39773 16.2972 4.40072 16.1466 4.51335 16.0269C4.61958 15.9149 4.75738 15.9539 4.88282 15.9964C4.98146 16.0316 5.07767 16.0733 5.1708 16.1213C5.29913 16.1876 5.43948 16.2272 5.5834 16.2376C5.72732 16.248 5.87184 16.229 6.00828 16.1818C6.37178 16.0646 6.61709 16.2324 6.63117 16.6156C6.64227 16.9159 6.65635 17.2064 6.74978 17.496C6.7797 17.5892 6.7858 17.6884 6.76753 17.7845C6.74926 17.8807 6.70721 17.9706 6.64525 18.0461Z" fill="white"/>
<path d="M3.84043 14.7766C3.92545 14.8444 3.99083 14.934 4.02977 15.0358C4.06871 15.1377 4.07979 15.2482 4.06185 15.3559C4.00659 15.7576 4.04024 16.1667 4.16041 16.5538C4.18613 16.6564 4.19293 16.7629 4.18046 16.8679C4.17794 16.9526 4.14892 17.0344 4.09752 17.1016C4.04612 17.1688 3.97497 17.2179 3.89419 17.2421C3.73462 17.2936 3.59298 17.2258 3.51021 17.088C3.19237 16.5731 2.80541 16.1046 2.47348 15.5996C2.34964 15.4039 2.29451 15.1722 2.31691 14.9414C2.33611 14.6921 2.48202 14.5908 2.72051 14.6311C3.00422 14.6796 3.28751 14.7444 3.57933 14.717C3.67045 14.7085 3.76189 14.7294 3.84043 14.7766Z" fill="white"/>
<path d="M2.42601 3.64863C2.63933 3.32296 2.84155 3.18051 3.12825 3.15477C3.34883 3.13503 3.41581 3.23457 3.39362 3.43238C3.38711 3.49363 3.37541 3.55421 3.35864 3.61345C3.24601 3.99962 3.37826 4.29997 3.66752 4.55442C3.95678 4.80886 3.98835 5.04914 3.80618 5.37266C3.65515 5.64127 3.38893 5.67645 3.22681 5.41557C3.05615 5.14096 2.85521 5.056 2.54419 5.11865C2.28223 5.17143 2.06636 4.94487 2.07148 4.6531C2.08001 4.23861 2.28735 3.8975 2.42601 3.64863Z" fill="white"/>
<path d="M5.19403 4.66203C5.08509 4.80086 4.94582 4.91259 4.78702 4.98856C4.47856 5.14689 4.13085 4.99414 4.08478 4.65088C4.0451 4.35481 3.92308 4.12268 3.73536 3.90257C3.55959 3.69661 3.59414 3.33189 3.78869 3.04012C3.91071 2.85734 4.27847 2.71574 4.49093 2.76723C4.58949 2.79126 4.63514 2.86978 4.66543 2.95002C4.77727 3.23526 4.94681 3.49403 5.16332 3.70991C5.40223 3.95792 5.39754 4.39472 5.19403 4.66203Z" fill="white"/>
<path d="M3.4898 1.46236C3.65065 1.22851 3.79826 1.0217 4.03931 0.909709C4.37337 0.754382 4.58668 0.839769 4.71468 1.18561C4.81067 1.43962 4.90837 1.6932 5.00265 1.94765C5.15838 2.36857 4.98644 2.59813 4.55298 2.52218C4.27745 2.47268 3.99338 2.51803 3.74664 2.6509C3.55977 2.74444 3.32939 2.88046 3.13911 2.69381C2.94883 2.50716 3.07085 2.28447 3.14593 2.07809C3.22832 1.85625 3.34432 1.64856 3.4898 1.46236Z" fill="white"/>
</svg>
