<svg width="66" height="43" viewBox="0 0 66 43" fill="none" xmlns="http://www.w3.org/2000/svg">
<path fill-rule="evenodd" clip-rule="evenodd" d="M47.3 0C47.0149 0 46.7415 0.113259 46.5399 0.31486C46.3383 0.516462 46.225 0.789892 46.225 1.075V5.375C46.225 5.66011 46.3383 5.93354 46.5399 6.13514C46.7415 6.33674 47.0149 6.45 47.3 6.45H49.45V10.75C47.4543 10.75 45.5403 11.5428 44.1291 12.954C42.7179 14.3652 41.925 16.2792 41.925 18.275V39.775C41.925 40.6303 42.2648 41.4506 42.8696 42.0554C43.4744 42.6602 44.2947 43 45.15 43H62.35C63.2054 43 64.0257 42.6602 64.6305 42.0554C65.2353 41.4506 65.575 40.6303 65.575 39.775V18.275C65.575 16.2792 64.7822 14.3652 63.371 12.954C61.9598 11.5428 60.0458 10.75 58.05 10.75V6.45H60.2C60.4852 6.45 60.7586 6.33674 60.9602 6.13514C61.1618 5.93354 61.275 5.66011 61.275 5.375V1.075C61.275 0.789892 61.1618 0.516462 60.9602 0.31486C60.7586 0.113259 60.4852 0 60.2 0H47.3ZM51.6 11.825V6.45H55.9V11.825C55.9 12.1101 56.0133 12.3835 56.2149 12.5851C56.4165 12.7867 56.6899 12.9 56.975 12.9H58.05C59.289 12.9002 60.49 13.3282 61.4498 14.1117C62.4096 14.8952 63.0694 15.9861 63.3175 17.2H44.1825C44.4307 15.9861 45.0905 14.8952 46.0503 14.1117C47.0101 13.3282 48.2111 12.9002 49.45 12.9H50.525C50.8102 12.9 51.0836 12.7867 51.2852 12.5851C51.4868 12.3835 51.6 12.1101 51.6 11.825ZM58.3113 28.5262L57.5512 27.7662L55.2701 30.0473L57.5512 32.3274L58.3113 31.5674L59.8313 33.0874L56.7901 36.1286L55.2701 34.6075L56.0301 33.8475L53.75 31.5674L51.471 33.8464L52.23 34.6075L50.7099 36.1275L49.9499 35.3675L48.4288 33.8475L47.6688 33.0874L49.1888 31.5663L49.9499 32.3274L52.2289 30.0473L49.9499 27.7662L49.1888 28.5262L47.6688 27.0062L48.4288 26.2461L49.9488 24.7261L50.7099 23.9661L52.23 25.4861L51.47 26.2461L53.75 28.5273L56.0312 26.2461L55.2701 25.485L56.7901 23.965L59.8313 27.0051L58.3113 28.5262Z" fill="#5E9316"/>
<path fill-rule="evenodd" clip-rule="evenodd" d="M5.375 0C5.08989 0 4.81646 0.113259 4.61486 0.31486C4.41326 0.516462 4.3 0.789892 4.3 1.075V5.375C4.3 5.66011 4.41326 5.93354 4.61486 6.13514C4.81646 6.33674 5.08989 6.45 5.375 6.45H7.525V10.75C5.52925 10.75 3.61523 11.5428 2.20402 12.954C0.792811 14.3652 0 16.2792 0 18.275V39.775C0 40.6303 0.339775 41.4506 0.94458 42.0554C1.54938 42.6602 2.36968 43 3.225 43H20.425C21.2803 43 22.1006 42.6602 22.7054 42.0554C23.3102 41.4506 23.65 40.6303 23.65 39.775V18.275C23.65 16.2792 22.8572 14.3652 21.446 12.954C20.0348 11.5428 18.1208 10.75 16.125 10.75V6.45H18.275C18.5601 6.45 18.8335 6.33674 19.0351 6.13514C19.2367 5.93354 19.35 5.66011 19.35 5.375V1.075C19.35 0.789892 19.2367 0.516462 19.0351 0.31486C18.8335 0.113259 18.5601 0 18.275 0H5.375ZM9.675 11.825V6.45H13.975V11.825C13.975 12.1101 14.0883 12.3835 14.2899 12.5851C14.4915 12.7867 14.7649 12.9 15.05 12.9H16.125C17.364 12.9002 18.5649 13.3282 19.5247 14.1117C20.4845 14.8952 21.1443 15.9861 21.3925 17.2H2.2575C2.5057 15.9861 3.16547 14.8952 4.12528 14.1117C5.08508 13.3282 6.28601 12.9002 7.525 12.9H8.6C8.88511 12.9 9.15854 12.7867 9.36014 12.5851C9.56174 12.3835 9.675 12.1101 9.675 11.825ZM16.3862 28.5262L15.6262 27.7662L13.345 30.0473L15.6262 32.3274L16.3862 31.5674L17.9063 33.0874L14.8651 36.1286L13.345 34.6075L14.1051 33.8475L11.825 31.5674L9.546 33.8464L10.3049 34.6075L8.7849 36.1275L8.02487 35.3675L6.50375 33.8475L5.74372 33.0874L7.26377 31.5663L8.02487 32.3274L10.3039 30.0473L8.02487 27.7662L7.26377 28.5262L5.74372 27.0062L6.50375 26.2461L8.0238 24.7261L8.7849 23.9661L10.3049 25.4861L9.54492 26.2461L11.825 28.5273L14.1061 26.2461L13.345 25.485L14.8651 23.965L17.9063 27.0051L16.3862 28.5262Z" fill="#5E9316"/>
<path d="M46.2251 26.0688V43H19.3501V26.0688C19.3501 20.8765 23.6501 16.6625 28.9483 16.6625V12.9H27.0287V11.0188H38.5465V12.9H36.6269V16.6625C41.9251 16.6625 46.2251 20.8765 46.2251 26.0688ZM34.7072 9.1375L36.6269 5.375H28.9483L30.868 9.1375H34.7072ZM32.7876 22.3062C28.5452 22.3062 25.109 25.6737 25.109 29.8313C25.109 31.7125 25.8577 33.4056 27.0287 34.7037V37.3563H29.4282V34.5344H31.5974V37.3563H33.997V34.5344H36.147V37.3563H38.5465V34.7037C39.7746 33.3653 40.4578 31.6312 40.4662 29.8313C40.4662 25.6737 37.03 22.3062 32.7876 22.3062ZM29.9081 29.8313C28.8523 29.8313 27.9885 28.9847 27.9885 27.95C27.9885 26.9153 28.8523 26.0688 29.9081 26.0688C30.9639 26.0688 31.8278 26.9153 31.8278 27.95C31.8278 28.9847 30.9639 29.8313 29.9081 29.8313ZM31.3479 32.1828L32.7876 29.8313L34.2273 32.1828H31.3479ZM35.6671 29.8313C34.6113 29.8313 33.7474 28.9847 33.7474 27.95C33.7474 26.9153 34.6113 26.0688 35.6671 26.0688C36.7229 26.0688 37.5867 26.9153 37.5867 27.95C37.5867 28.9847 36.7229 29.8313 35.6671 29.8313Z" fill="#92C748"/>
</svg>
