<svg xmlns="http://www.w3.org/2000/svg" width="16.34" height="16.274" viewBox="0 0 16.34 16.274">
  <path id="bxs-bot" d="M18.521,10.385V7.955a1.634,1.634,0,0,0-1.634-1.634h-4.9V5.249a1.225,1.225,0,1,0-1.634,0V6.321h-4.9A1.634,1.634,0,0,0,3.817,7.955V10.4l-.059,0A.816.816,0,0,0,3,11.222v1.634a.817.817,0,0,0,.817.817v4.084a1.634,1.634,0,0,0,1.634,1.634H16.887a1.634,1.634,0,0,0,1.634-1.634V13.673a.817.817,0,0,0,.817-.817V11.273a.82.82,0,0,0-.059-.371.851.851,0,0,0-.758-.516Zm-11.436.838c0-.9.549-1.634,1.225-1.634s1.225.732,1.225,1.634-.549,1.634-1.225,1.634S7.084,12.124,7.084,11.222Zm7.35,4.9c-.817,0-6.532,0-6.533,0V14.49s5.719,0,6.537,0Zm-.407-3.268c-.676,0-1.225-.732-1.225-1.634s.549-1.634,1.225-1.634,1.225.732,1.225,1.634S14.7,12.856,14.028,12.856Z" transform="translate(-3 -3.117)" fill="#f24d23"/>
</svg>
