<svg width="30" height="30" viewBox="0 0 30 30" fill="none" xmlns="http://www.w3.org/2000/svg">
<g clip-path="url(#clip0_1326_1321)">
<path d="M25.4202 12.9077C27.6197 9.09796 26.3097 4.20907 22.5 2.00954C18.6903 -0.189995 13.8014 1.11994 11.6018 4.92964C9.77369 8.09608 10.3702 12.0078 12.8111 14.5015L6.90757 24.7268C6.74328 25.0113 6.67596 25.4506 6.7475 25.7714L7.12868 27.4803C7.17684 27.6959 7.31213 27.8817 7.50007 27.9902C7.68801 28.0987 7.91659 28.123 8.12741 28.0569L9.79795 27.5325C10.1115 27.4341 10.4583 27.1562 10.6226 26.8716L10.924 26.3495L12.3375 26.2832C12.5859 26.2715 12.7926 26.1535 12.9046 25.9595C13.0166 25.7656 13.0154 25.5275 12.9012 25.3066L12.252 24.0494L12.2604 24.0348L13.6739 23.9684C13.9223 23.9567 14.129 23.8388 14.241 23.6448C14.353 23.4508 14.3518 23.2128 14.2376 22.9919L13.5884 21.7347L13.5968 21.72L15.0103 21.6537C15.2587 21.642 15.4654 21.5241 15.5774 21.3301C15.6894 21.1361 15.6882 20.8981 15.5741 20.6771L14.9248 19.4199L16.5261 16.6463C19.9061 17.5133 23.592 16.0742 25.4202 12.9077ZM18.2173 9.42732C16.734 8.57097 16.2259 6.67437 17.0822 5.1912C17.9385 3.70803 19.8352 3.19983 21.3183 4.05613C22.8015 4.91244 23.3097 6.80909 22.4534 8.29226C21.5971 9.77543 19.7005 10.2837 18.2173 9.42732Z" fill="#555566"/>
</g>
<defs>
<clipPath id="clip0_1326_1321">
<rect width="30" height="30" fill="white"/>
</clipPath>
</defs>
</svg>
